<?xml version="1.0" encoding="UTF-8" standalone="no"?>
<!-- Generator: Adobe Illustrator 12.0.1, SVG Export Plug-In . SVG Version: 6.00 Build 51448)  -->
<svg
   xmlns:dc="http://purl.org/dc/elements/1.1/"
   xmlns:cc="http://web.resource.org/cc/"
   xmlns:rdf="http://www.w3.org/1999/02/22-rdf-syntax-ns#"
   xmlns:svg="http://www.w3.org/2000/svg"
   xmlns="http://www.w3.org/2000/svg"
   xmlns:sodipodi="http://sodipodi.sourceforge.net/DTD/sodipodi-0.dtd"
   xmlns:inkscape="http://www.inkscape.org/namespaces/inkscape"
   version="1.1"
   id="Layer_1"
   width="437.908"
   height="120"
   viewBox="0 0 437.908 120"
   style="overflow:visible;enable-background:new 0 0 437.908 120;"
   xml:space="preserve"
   sodipodi:version="0.32"
   inkscape:version="0.45.1"
   sodipodi:docname="all-trans-Retinol.svg"
   inkscape:output_extension="org.inkscape.output.svg.inkscape"
   sodipodi:docbase="C:\"><metadata
   id="metadata64"><rdf:RDF><cc:Work
       rdf:about=""><dc:format>image/svg+xml</dc:format><dc:type
         rdf:resource="http://purl.org/dc/dcmitype/StillImage" /></cc:Work></rdf:RDF></metadata><defs
   id="defs62" /><sodipodi:namedview
   inkscape:window-height="579"
   inkscape:window-width="801"
   inkscape:pageshadow="2"
   inkscape:pageopacity="0.0"
   guidetolerance="10.0"
   gridtolerance="10.0"
   objecttolerance="10.0"
   borderopacity="1.0"
   bordercolor="#666666"
   pagecolor="#ffffff"
   id="base"
   inkscape:zoom="1.6373303"
   inkscape:cx="218.95399"
   inkscape:cy="60"
   inkscape:window-x="110"
   inkscape:window-y="110"
   inkscape:current-layer="Layer_1" />
<path
   d="M 12.5627,96.765 L 10.9477,97.715 L 10.9477,59.05 L 12.5627,60 L 12.5627,96.765 z "
   id="polygon3" />
<path
   d="M 44.3877,115.14655 L 44.3877,117 L 10.9477,97.715 L 12.5627,96.765 L 44.3877,115.14655 z "
   id="polygon5" />
<path
   d="M 76.2602,96.765 L 77.0677,97.24 L 77.0677,98.19 L 44.3877,117 L 44.3877,115.14655 L 76.2602,96.765 z "
   id="polygon7" />
<path
   d="M 76.2602,60 L 77.0677,59.525 L 77.8752,60 L 77.8752,96.765 L 77.0677,97.24 L 76.2602,96.765 L 76.2602,60 z "
   id="polygon9" />
<path
   d="M 70.607699,62.802501 L 72.222699,62.802501 L 72.222699,93.963449 L 70.607699,93.963449 L 70.607699,62.802501 z "
   id="rect11" />
<path
   d="M 44.3877,41.6175 L 44.3877,40.6675 L 45.5277,40.3825 L 77.0677,58.6225 L 77.0677,59.525 L 76.2602,60 L 44.3877,41.6175 z "
   id="polygon13" />
<path
   d="M 12.5627,60 L 10.9477,59.05 L 43.2952,40.3825 L 44.3877,40.6675 L 44.3877,41.6175 L 12.5627,60 z "
   id="polygon15" />
<path
   d="M 77.8752,60 L 77.0677,59.525 L 77.0677,58.6225 L 109.7002,39.765 L 109.7002,41.6175 L 77.8752,60 z "
   id="polygon17" />
<path
   d="M 109.7002,41.6175 L 109.7002,39.765 L 142.3327,58.6225 L 142.3327,60.475 L 109.7002,41.6175 z "
   id="polygon19" />
<path
   d="M 112.1227,36.4875 L 112.9302,35.11 L 142.7602,52.305 L 141.9527,53.73 L 112.1227,36.4875 z "
   id="polygon21" />
<path
   d="M 142.3327,60.475 L 142.3327,58.6225 L 174.2052,40.24 L 175.0127,40.6675 L 175.0127,41.6175 L 142.3327,60.475 z "
   id="polygon23" />
<path
   d="M 175.0127,41.6175 L 175.0127,40.6675 L 175.8202,40.24 L 207.6452,58.6225 L 207.6452,60.475 L 175.0127,41.6175 z "
   id="polygon25" />
<path
   d="M 180.2377,38.1025 L 181.0452,36.725 L 208.0727,52.305 L 207.2652,53.73 L 180.2377,38.1025 z "
   id="polygon27" />
<path
   d="M 207.6452,60.475 L 207.6452,58.6225 L 240.3252,39.765 L 240.3252,41.6175 L 207.6452,60.475 z "
   id="polygon29" />
<path
   d="M 240.3252,41.6175 L 240.3252,39.765 L 272.95675,58.6225 L 272.95675,60.475 L 240.3252,41.6175 z "
   id="polygon31" />
<path
   d="M 242.7477,36.4875 L 243.5552,35.11 L 273.3377,52.305 L 272.5302,53.73 L 242.7477,36.4875 z "
   id="polygon33" />
<path
   d="M 272.95675,60.475 L 272.95675,58.6225 L 304.78175,40.24 L 305.5902,40.6675 L 305.5902,41.6175 L 272.95675,60.475 z "
   id="polygon35" />
<path
   d="M 305.5902,41.6175 L 305.5902,40.6675 L 306.3977,40.24 L 338.26925,58.6225 L 338.26925,60.475 L 305.5902,41.6175 z "
   id="polygon37" />
<path
   d="M 310.8627,38.1025 L 311.66925,36.725 L 338.6502,52.305 L 337.8427,53.73 L 310.8627,38.1025 z "
   id="polygon39" />
<path
   d="M 338.26925,60.475 L 338.26925,58.6225 L 370.9027,39.765 L 370.9027,41.6175 L 338.26925,60.475 z "
   id="polygon41" />
<path
   d="M 174.2052,3 L 175.8202,3 L 175.8202,40.24 L 175.0127,40.6675 L 174.2052,40.24 L 174.2052,3 z "
   id="polygon43" />
<path
   d="M 304.78175,3 L 306.3977,3 L 306.3977,40.24 L 305.5902,40.6675 L 304.78175,40.24 L 304.78175,3 z "
   id="polygon45" />
<path
   d="M 24.8652,8.4625 L 26.2427,7.655 L 44.3877,39.0525 L 44.3877,40.6675 L 43.2952,40.3825 L 24.8652,8.4625 z "
   id="polygon47" />
<path
   d="M 110.1277,115.38405 L 109.3202,116.80905 L 77.0677,98.19 L 77.0677,97.24 L 77.8752,96.765 L 110.1277,115.38405 z "
   id="polygon49" />
<g
   id="g51"
   transform="matrix(0.95,0,0,0.95,10.9477,3)">
	<path
   d="M 405.005,60.584 C 405.005,57.731 405.771,55.499 407.304,53.886 C 408.835,52.272 410.814,51.465 413.236,51.465 C 414.824,51.465 416.254,51.844 417.527,52.602 C 418.801,53.361 419.773,54.417 420.441,55.773 C 421.109,57.129 421.443,58.667 421.443,60.385 C 421.443,62.128 421.091,63.687 420.388,65.062 C 419.685,66.437 418.688,67.479 417.398,68.186 C 416.109,68.893 414.717,69.247 413.224,69.247 C 411.607,69.247 410.16,68.856 408.886,68.075 C 407.612,67.294 406.648,66.226 405.99,64.875 C 405.332,63.524 405.005,62.093 405.005,60.584 z M 407.349,60.614 C 407.349,62.684 407.906,64.315 409.021,65.507 C 410.134,66.698 411.533,67.294 413.212,67.294 C 414.925,67.294 416.333,66.692 417.441,65.489 C 418.546,64.286 419.099,62.579 419.099,60.368 C 419.099,58.97 418.863,57.749 418.39,56.706 C 417.917,55.663 417.225,54.854 416.314,54.28 C 415.404,53.706 414.382,53.419 413.248,53.419 C 411.639,53.419 410.252,53.972 409.092,55.077 C 407.929,56.182 407.349,58.028 407.349,60.614 z "
   id="path53" />
	<path
   d="M 424.455,68.95 L 424.455,51.762 L 426.736,51.762 L 426.736,58.825 L 435.627,58.825 L 435.627,51.762 L 437.908,51.762 L 437.908,68.95 L 435.627,68.95 L 435.627,60.856 L 426.736,60.856 L 426.736,68.95 L 424.455,68.95 z "
   id="path55" />
</g>
<path
   d="M 395.3652,53.8725 L 394.55675,55.25 L 370.9027,41.6175 L 370.9027,39.765 L 395.3652,53.8725 z "
   id="polygon57" />
<path
   d="M 62.5327,7.655 L 63.9577,8.4625 L 45.5277,40.3825 L 44.3877,40.6675 L 44.3877,39.0525 L 62.5327,7.655 z "
   id="polygon59" />
</svg>