<?xml version="1.0" encoding="UTF-8" standalone="no"?>
<!-- Created with Inkscape (http://www.inkscape.org/) -->

<svg
   xmlns:dc="http://purl.org/dc/elements/1.1/"
   xmlns:cc="http://creativecommons.org/ns#"
   xmlns:rdf="http://www.w3.org/1999/02/22-rdf-syntax-ns#"
   xmlns:svg="http://www.w3.org/2000/svg"
   xmlns="http://www.w3.org/2000/svg"
   xmlns:sodipodi="http://sodipodi.sourceforge.net/DTD/sodipodi-0.dtd"
   xmlns:inkscape="http://www.inkscape.org/namespaces/inkscape"
   version="1.0"
   width="438"
   height="107.20233"
   viewBox="0 0 438.00002 107.20233"
   id="svg2"
   xml:space="preserve"
   inkscape:version="0.91 r13725"
   sodipodi:docname="alpha-tocopherol.svg"><metadata
     id="metadata59"><rdf:RDF><cc:Work
         rdf:about=""><dc:format>image/svg+xml</dc:format><dc:type
           rdf:resource="http://purl.org/dc/dcmitype/StillImage" /><dc:title></dc:title></cc:Work></rdf:RDF></metadata><sodipodi:namedview
     pagecolor="#ffffff"
     bordercolor="#666666"
     borderopacity="1"
     objecttolerance="10"
     gridtolerance="10"
     guidetolerance="10"
     inkscape:pageopacity="0"
     inkscape:pageshadow="2"
     inkscape:window-width="1278"
     inkscape:window-height="1003"
     id="namedview57"
     showgrid="false"
     fit-margin-top="0"
     fit-margin-left="0"
     fit-margin-right="0"
     fit-margin-bottom="0"
     inkscape:zoom="0.26"
     inkscape:cx="-621.98914"
     inkscape:cy="287.5"
     inkscape:window-x="0"
     inkscape:window-y="0"
     inkscape:window-maximized="0"
     inkscape:current-layer="svg2" /><defs
     id="defs112" /><g
     transform="matrix(0.18643884,0,0,0.18643884,-1.5295632,0)"
     id="レイヤー_1"><g
       id="g7"><polygon
         points="231.499,217.998 235.502,215.498 239.501,217.998 239.501,357.002 239.501,357.002 235.502,359.502 231.499,357.002 "
         id="polygon9" /><polygon
         points="235.502,363.994 235.502,359.502 239.501,357.002 360,427.002 360,427.002 360,431.494 356,433.994 "
         id="polygon11" /><rect
         width="8.0629997"
         height="114.241"
         x="306.46799"
         y="315.87799"
         transform="matrix(0.4959,-0.8684,0.8684,0.4959,-167.3851,457.6364)"
         id="rect13" /><polygon
         points="363.999,433.994 360,431.494 360,427.002 480.502,357.002 480.502,357.002 484.501,359.502 484.501,363.994 "
         id="polygon15" /><polygon
         points="488.5,357.002 484.501,359.502 480.502,357.002 480.502,217.998 480.502,217.998 484.501,215.498 488.5,217.998 "
         id="polygon17" /><rect
         width="8.0030003"
         height="114.004"
         x="455"
         y="230.498"
         id="rect19" /><polygon
         points="484.501,211.001 484.501,215.498 480.502,217.998 360,147.998 360,147.998 360,143.501 363.999,141.001 "
         id="polygon21" /><polygon
         points="356,141.001 360,143.501 360,147.998 239.501,217.998 239.501,217.998 235.502,215.498 235.502,211.001 "
         id="polygon23" /><rect
         width="8.066"
         height="114.239"
         x="306.46899"
         y="144.88"
         transform="matrix(0.4964,0.8681,-0.8681,0.4964,331.7237,-167.8183)"
         id="rect25" /><text
         transform="translate(571,470.498)"
         id="text27"><tspan
           x="0"
           y="0"
           style="font-size:100px;font-family:ArialMT"
           id="tspan29">O</tspan></text>
<polygon
         points="488.5,357.002 568.002,402.998 568.002,402.998 563.999,410 484.501,363.994 484.501,359.502 "
         id="polygon31" /><polygon
         points="650.502,402.998 730,357.002 730,357.002 733.999,359.502 733.999,363.994 654.501,410 "
         id="polygon33" /><polygon
         points="730,357.002 730,217.998 730,217.998 738.002,212.998 738.002,357.002 733.999,359.502 "
         id="polygon35" /><polygon
         points="609.501,147.998 609.501,138.999 738.002,212.998 730,217.998 609.501,147.998 "
         id="polygon37" /><polygon
         points="609.501,147.998 488.5,217.998 488.5,217.998 484.501,215.498 484.501,211.001 609.501,138.999 "
         id="polygon39" /><polygon
         points="363.999,141.001 360,143.501 356,141.001 356,0 356,0 360,0 363.999,0 "
         id="polygon41" /><polygon
         points="356,433.994 360,431.494 363.999,433.994 363.999,575 363.999,575 360,575 356,575 "
         id="polygon43" /><polygon
         points="231.499,357.002 235.502,359.502 235.502,363.994 113.002,434.502 113.002,434.502 111,430.996 108.999,427.998 "
         id="polygon45" /><text
         transform="translate(9.765625e-4,182.9976)"
         id="text47"><tspan
           x="0"
           y="0"
           style="font-size:100px;font-family:ArialMT"
           id="tspan49">HO</tspan></text>
<polygon
         points="231.499,217.998 154.501,173.501 154.501,173.501 158.5,166.499 235.502,211.001 235.502,215.498 "
         id="polygon51" /><polygon
         points="848.002,442.5 733.999,363.994 733.999,363.994 733.999,359.502 738.002,357.002 870,420.498 "
         id="polygon53" /><polygon
         points="848.002,442.5 870,420.498 983.5,355 983.5,363.994 848.002,442.5 "
         id="polygon55" /><polygon
         points="983.5,363.994 983.5,355 1108.002,427.002 1108.002,435.996 983.5,363.994 "
         id="polygon57" /><polygon
         points="1108.002,435.996 1108.002,427.002 1233.007,355 1233.007,363.994 1108.002,435.996 "
         id="polygon59" /><polygon
         points="1233.007,363.994 1233.007,355 1357.5,427.002 1357.5,435.996 1233.007,363.994 "
         id="polygon61" /><polygon
         points="1357.5,435.996 1357.5,427.002 1482.5,355 1482.5,363.994 1357.5,435.996 "
         id="polygon63" /><polygon
         points="1482.5,363.994 1482.5,355 1606.992,427.002 1606.992,435.996 1482.5,363.994 "
         id="polygon65" /><polygon
         points="1606.992,435.996 1606.992,427.002 1731.992,355 1731.992,363.994 1606.992,435.996 "
         id="polygon67" /><polygon
         points="1731.992,363.994 1731.992,355 1856.503,427.002 1856.503,435.996 1731.992,363.994 "
         id="polygon69" /><polygon
         points="1856.503,435.996 1856.503,427.002 1980.996,355 1980.996,363.994 1856.503,435.996 "
         id="polygon71" /><polygon
         points="1980.996,363.994 1980.996,355 2105.996,427.002 2105.996,435.996 1980.996,363.994 "
         id="polygon73" /><polygon
         points="2230.507,363.994 2105.996,435.996 2105.996,435.996 2105.996,427.002 2226.503,357.002 2230.507,359.502 "
         id="polygon75" /><polygon
         points="2357.5,427.998 2355.507,431.494 2353.496,435 2230.507,363.994 2230.507,363.994 2230.507,359.502 2234.492,357.002 "
         id="polygon77" /><polygon
         points="845,278.999 851.499,274.497 851.499,274.497 862.5,302.002 866.499,300.498 858.999,303.994 "
         id="polygon79" /><polygon
         points="828.5,290.498 841,312.002 833.999,315.498 822.001,295 828.5,290.498 "
         id="polygon81" /><polygon
         points="806,306.494 815.502,323.994 808.5,327.002 799.501,311.494 806,306.494 "
         id="polygon83" /><polygon
         points="783.002,322.998 790.502,335.498 783.002,338.994 776.499,327.5 783.002,322.998 "
         id="polygon85" /><polygon
         points="760.502,338.994 765,347.002 758.002,350.498 753.999,343.496 760.502,338.994 "
         id="polygon87" /><polygon
         points="1218.496,223.999 1218.007,216.001 1218.007,216.001 1247.5,220 1248.007,216.001 1246.992,223.999 "
         id="polygon89" /><polygon
         points="1220.507,243.501 1245.507,243.501 1244.492,251.499 1221.503,251.499 1220.507,243.501 "
         id="polygon91" /><polygon
         points="1223.007,271.499 1243.007,271.499 1241.992,278.999 1224.003,278.999 1223.007,271.499 "
         id="polygon93" /><polygon
         points="1225.507,298.994 1240,298.994 1239.492,307.002 1226.503,307.002 1225.507,298.994 "
         id="polygon95" /><polygon
         points="1228.007,326.494 1237.5,326.494 1236.992,334.502 1229.003,334.502 1228.007,326.494 "
         id="polygon97" /><polygon
         points="1717.5,223.999 1716.992,216.001 1716.992,216.001 1746.503,220 1746.992,216.001 1745.996,223.999 "
         id="polygon99" /><polygon
         points="1719.492,243.501 1744.003,243.501 1743.496,251.499 1720,251.499 1719.492,243.501 "
         id="polygon101" /><polygon
         points="1721.992,271.499 1741.503,271.499 1740.996,278.999 1722.5,278.999 1721.992,271.499 "
         id="polygon103" /><polygon
         points="1724.492,298.994 1739.003,298.994 1738.496,307.002 1725,307.002 1724.492,298.994 "
         id="polygon105" /><polygon
         points="1726.992,326.494 1736.503,326.494 1735.996,334.502 1728.007,334.502 1726.992,326.494 "
         id="polygon107" /><polygon
         points="2234.492,357.002 2230.507,359.502 2226.503,357.002 2226.503,216.001 2226.503,216.001 2230.507,216.001 2234.492,216.001 "
         id="polygon109" /></g></g></svg>