<svg xmlns="http://www.w3.org/2000/svg" viewBox="0 0 457.04 449.72"><defs><linearGradient id="a" y2="501.11" gradientUnits="userSpaceOnUse" y1="501.11" x2="-722" x1="-748"><stop offset="0"/><stop stop-opacity="0" offset="1"/></linearGradient><linearGradient id="b" y2="501.11" gradientUnits="userSpaceOnUse" y1="501.11" x2="-722" x1="-748"><stop stop-color="#a4d019" offset="0"/><stop stop-color="#a4d019" stop-opacity="0" offset="1"/></linearGradient><filter id="c" color-interpolation-filters="sRGB"><feGaussianBlur stdDeviation="1.157"/></filter></defs><g stroke="#f9bc25" fill="#f7d180"><path stroke-width="2.714" d="M275.803 139.261c-7.454 1.52-13.647 6.263-19.531 10.817-8.954 6.915-17.477 14.66-27.796 19.529-5.457 2.253-11.539 1.232-17.057-.232-15.379-3.892-30.666-8.596-46.522-10.113-15.677-1.446-31.421-.146-47.072.995-9.538.705-19.109 2.108-28.125 5.413-8.18 2.955-16.006 6.852-23.446 11.34-6.687 4.328-12.416 10.047-17.007 16.54-5.546 7.572-10.196 15.84-13.537 24.619-3.316 9.544-4.593 19.743-4.07 29.819.474 12.59 2.666 25.072 5.844 37.246 2.753 8.695 8.356 16.567 16.057 21.541 9.487 6.51 20.697 9.684 31.626 12.846 18.232 5.19 36.79 9.624 55.725 11.19 14.011 1.264 28.161.979 42.118-.78 15.414-1.939 30.587-5.872 44.934-11.848 18.154-7.479 34.961-17.97 50.348-30.112a252.54 252.54 0 0 0 34.921-33.827c3.357-4.005 6.258-8.386 8.532-13.094 2.385-4.518 5.335-8.93 6.81-13.794 2.464-7.708 2.389-15.896 2.18-23.897-.216-7.375-.566-14.78-1.819-22.062-2.264-9.764-8.273-18.228-15.433-25.061-7.597-7.182-16.73-12.92-26.804-15.866-3.324-.842-6.776-1.706-10.222-1.312l-.653.104z"/><path stroke-width="3.94" d="M254.653 220.291c-7.083 2.285-12.916 7.55-16.736 13.851-2.54 4.484-4.555 9.247-6.59 13.976-7.048 16.636-11.974 34.201-14.2 52.143-2.074 16.567-1.998 33.391.102 49.952 2.203 17.432 6.696 34.653 14.083 50.626 4.867 10.198 10.762 20.046 18.566 28.283 2.647 2.594 5.24 5.495 8.727 6.95 3.696 1.387 7.81-.332 10.616-2.812 3.52-3.116 5.444-7.734 5.636-12.39.283-5.134-.908-10.194-1.768-15.224-1.175-5.868-2.43-11.72-3.444-17.617-2.903-14.965-5.56-30.13-5.176-45.431.396-12.736 2.144-25.483 5.84-37.695 2.471-7.037 8.024-12.37 11.186-19.048 1.138-2.087 1.327-4.625 2.844-6.5 1.893-1.489 3.79-3.081 4.896-5.27 3.884-5.875 6.017-12.909 5.823-19.967-.193-8.803-3.859-17.613-10.49-23.504-6.21-5.617-14.365-8.674-22.555-9.918-2.44-.3-4.902-.49-7.362-.404z"/><path stroke-width="4.224" d="M90.846 210.341c-9.405 1.331-18.936 3.68-26.92 9.038-8.35 5.562-14.471 13.96-18.51 23.049-3.017 6.262-6.087 12.654-7.226 19.57-.703 3.946-.313 7.976.563 11.86.85 4.427 1.086 8.908 2.669 13.14 1.274 3.455 1.615 7.144 1.695 10.8.359 5.031 1.03 10.039 1.656 15.043 1.762 13.274 4.488 26.473 9.07 39.08 4.293 12.169 10.112 23.714 15.852 35.245 5.67 11.098 11.212 22.32 18.195 32.669 5.054 7.36 11.365 14.086 19.238 18.444 5.414 2.938 12.123 4.091 17.978 1.796 5.66-2.107 9.672-7.805 9.934-13.812.176-3.178-.905-6.25-1.903-9.221-1.98-5.116-4.715-9.899-6.786-14.975-5.01-10.853-8.97-22.311-10.415-34.223-.923-7.314-1.06-14.951 1.322-22.015 2.526-6.86 7.499-12.411 12.653-17.44 7.21-7.67 14.817-15.286 19.544-24.825 5.554-11.365 7.086-24.342 5.971-36.846-1.034-11.868-4.272-23.832-11.148-33.697-6.35-8.853-15.775-15.098-25.849-18.978-7.709-2.908-15.994-4.346-24.232-4.116l-3.35.415z"/><path stroke-width="3.94" d="M11.21 1.981c-2.044.188-3.87 1.476-5.312 2.875C2.921 7.81 1.6 12.171 2.047 16.301c.425 6.268 3.854 11.788 7.485 16.719C18.85 46.619 28.796 59.822 37.03 74.132c5.866 10.184 10.67 21.013 13.793 32.358 1.7 6.497 3.315 13.064 3.93 19.768.533 5.654-.672 11.254-1.847 16.749-.983 6.373-.912 12.873-2.255 19.196-.773 4.582-.76 9.337.516 13.83 2.468 9.522 9.148 18.085 18.232 22.074 8.85 3.822 19 3.66 28.153 1.027 4.9-1.354 9.5-4.475 11.784-9.124 4.036-6.927 4.836-15.181 4.592-23.05-.08-15.319-1.686-30.652-5.133-45.588-3.28-14.34-8.417-28.22-14.85-41.43-7.66-15.59-17.314-30.23-28.793-43.27-7.398-8.34-15.658-15.95-24.866-22.25-7.145-4.89-14.834-9.18-23.176-11.64-1.909-.54-3.91-.89-5.897-.81z"/></g><path d="M139.468 162.036c.817-6.8 18.551-6.078 19.705.802 1.154 6.88-6.195 68.08-8.166 67.998-1.97-.08-12.356-62-11.54-68.8zM169.23 165.921c1.575-6.665 19.117-3.96 19.492 3.007.375 6.967-13.791 66.959-15.74 66.657-1.95-.3-5.325-62.998-3.751-69.665zM197.4 169.58c1.892-6.583 19.283-3.037 19.323 3.94.04 6.975-16.991 66.216-18.924 65.82-1.932-.393-2.292-63.179-.4-69.762zM19.725 45.58l29.828-22.775 8.282 10.847-29.828 22.775zM34.946 68.118L68.812 42.26l9.403 12.314-33.866 25.859zM48.175 90.759l39-19.014 6.914 14.182-39 19.013zM53.386 142.321l53.978-21.728-6.035-15.088-47.285 14.472-.658 22.344zM51.813 173.488l61.568-9.191-3.21-20.722-57.008 8.832-1.35 21.08zM264.394 347.577c3.418-1.516 1.023-15.64-2.66-15.693-3.685-.054-34.446 13.586-34.179 15.155.266 1.57 33.422 2.054 36.84.538zM229.893 385.567c-3.637.867-10.295-11.817-7.398-14.093 2.898-2.277 35.63-10.077 36.37-8.667.74 1.409-25.335 21.894-28.972 22.76z" fill="#f9bc25"/><g stroke="#ae8211" stroke-width="2.345"><path fill="#f0f0db" d="M272.88 390.844c5.545-.046 11.143.259 16.538 1.621 5.337 1.357 10.515 3.763 14.541 7.58 2.603 2.413 4.576 5.554 5.359 9.033.36 1.782.87 3.531 1.19 5.32.453 2.496.005 5.036-.625 7.46-.431 1.661-.47 3.437-1.276 4.99-1.563 3.477-4.878 5.955-8.476 7.037-2.99.845-6.272.749-9.142-.482-.878-.332-2.028-.66-2.793.085-1.003.814-1.74 1.92-2.844 2.619-3.92 2.983-9.43 3.841-14.008 1.94-1.939-.692-3.609-1.936-5.389-2.923-1.183-.398-2.22.543-3.098 1.2-3.084 2.448-7.407 2.978-11.126 1.871-4.654-1.291-8.512-5.018-10.049-9.585-.841-2.528-1.375-5.145-2.046-7.72-.727-3.197-.93-6.64.241-9.759 1.481-4.514 4.713-8.264 8.478-11.07 5.154-3.953 11.286-6.476 17.596-7.89 2.297-.503 4.606-.96 6.929-1.327z" stroke-width="1.5003310000000003"/><path fill="none" d="M288.506 433.136c7.027-9.414-1.5-17.794-1.894-18.18M265.198 434.65c3.372-11.253-7.511-16.2-8.013-16.429" stroke-width="1.5003310000000003"/></g><g stroke="#ae8211" stroke-width="2.345"><path fill="#f0f0db" d="M122.97 400.744c5.545-.046 11.143.259 16.538 1.621 5.337 1.357 10.515 3.763 14.541 7.58 2.603 2.413 4.576 5.554 5.359 9.033.36 1.782.87 3.531 1.19 5.32.453 2.496.005 5.036-.625 7.46-.431 1.661-.47 3.437-1.276 4.99-1.563 3.477-4.878 5.955-8.476 7.037-2.99.845-6.272.749-9.142-.482-.878-.332-2.028-.66-2.793.085-1.003.814-1.74 1.92-2.844 2.619-3.92 2.983-9.43 3.841-14.008 1.94-1.939-.692-3.609-1.936-5.389-2.923-1.183-.398-2.22.543-3.098 1.2-3.084 2.448-7.407 2.978-11.126 1.871-4.654-1.291-8.512-5.018-10.049-9.585-.841-2.528-1.375-5.145-2.046-7.72-.727-3.197-.93-6.64.241-9.759 1.481-4.514 4.713-8.264 8.478-11.07 5.154-3.953 11.286-6.476 17.596-7.89 2.297-.503 4.606-.96 6.929-1.327z" stroke-width="1.5003310000000003"/><path fill="none" d="M138.596 443.036c7.027-9.414-1.5-17.794-1.894-18.18M115.288 444.55c3.372-11.253-7.511-16.2-8.013-16.429" stroke-width="1.5003310000000003"/></g><path fill="#f9bc25" d="M261.61 310.49c-.697-.7-2.185-1.383-3.374-2.051-5.302-2.681-11.522-5.15-17.61-7.622-5.12-2.022-10.527-3.93-15.907-5.84-2.116-.641-4.12-.36-5.04.08-3.745 1.366-4.855 3.636-4.572 6.038.15 1.999 1.873 4.204 2.378 6.252l.893 2.56c1.95.913 4.682 1.053 6.805 1.157 12.076.563 24.065.869 34.5.059.813-.12 1.967-.203 1.927-.634zM273.64 295.53c4.761.758 12.076-16.205 8.127-18.847-3.949-2.642-46.802-9.458-47.614-7.572-.813 1.884 34.726 25.663 39.487 26.42zM149.786 292.53c5.162-.813 7.025-20.749 2.07-22.15-4.955-1.403-51.415 5.913-51.621 8.128-.207 2.215 44.389 14.835 49.551 14.022zM48.034 246.092c-4.002-3.36 4.69-21.398 9.658-20.042 4.967 1.356 40.987 31.597 40.02 33.601-.965 2.004-45.676-10.199-49.679-13.56zM63.305 366.557c-5.14.944-13.505-17.247-9.294-20.212 4.21-2.965 50.469-11.46 51.397-9.438.93 2.022-36.964 28.707-42.104 29.651zM47.48 311.49c-5.162-.813-7.025-20.749-2.07-22.15 4.955-1.403 51.415 5.913 51.621 8.128.207 2.215-44.389 14.835-49.551 14.022zM124.724 334.249c3.678.669 9.642-12.357 6.626-14.473-3.016-2.116-36.122-8.138-36.784-6.69-.663 1.447 26.48 20.494 30.158 21.163zM116.76 379.013c3.372-1.615.566-15.663-3.118-15.609-3.684.054-34.033 14.588-33.72 16.148.311 1.561 33.467 1.076 36.839-.539z"/><g><path stroke="#f9bc25" stroke-width="2.918" fill="#f7d180" d="M253.203 51.038c-.51.033-.938.138-1.281.344-7.183 4.301-8.967 67.638-2.375 75.28-5.29 8.83-8.281 18.794-8.281 29.313 0 29.979 24.155 55.27 57.25 63.375 5.185 7.155 19.434 11.16 34 9.094 11.685-1.659 20.384-6.76 23.094-12.75 27-10.621 45.688-33.362 45.688-59.72 0-10.37-2.913-20.201-8.063-28.937 7.034-5.628 5.316-71.275-2-75.656-6.875-4.118-48.943 27.739-53.906 39.812a96.686 96.686 0 0 0-16.062-1.344c-5.304 0-10.453.436-15.469 1.25-4.873-11.532-42.916-40.691-52.594-40.062z"/><path d="M334.201 205.643c-5.282 6.822-15.257 7.944-22.279 2.506a16.535 16.535 0 0 1-2.698-2.633l12.262-9.718z" stroke-opacity=".977" fill-opacity=".976" fill-rule="evenodd" stroke="#e5655b" fill="#f26c61" stroke-width="1.83782"/><g stroke="#ac2424" fill="none"><g stroke-width="2.354"><path transform="matrix(1.13468 -.36595 .5941 .69896 985.032 -457.27)" d="M-805.9 501.57c-3.152 9.719-13.586 15.042-23.305 11.89-9.719-3.152-15.042-13.586-11.89-23.305a18.5 18.5 0 0 1 3.381-6.131"/><path transform="matrix(-1.13468 -.36595 -.5941 .69896 -342.512 -457.27)" d="M-805.9 501.57c-3.152 9.719-13.586 15.042-23.305 11.89-9.719-3.152-15.042-13.586-11.89-23.305a18.5 18.5 0 0 1 3.381-6.131"/></g><path stroke-width="3.01067136" d="M321.359 191.808v-13.372"/></g><path d="M335.913 169.228c-3.51-1.225-7.403-1.635-11.236-1.8-4.6-.26-9.27-.18-13.792.552-1.09.198-2.205.362-3.24.687-1.165.473-1.798 1.537-1.5 2.505.255 1.471 1.024 2.853 1.657 4.248.667 1.25 1.771 2.365 3.173 3.206 1.75 1.248 2.845 2.944 3.312 4.707.307 1.028.802 2.042 1.7 2.868.986 1.004 2.254 1.833 3.58 2.576.809.396 1.898.548 2.771.175 1.395-.495 2.352-1.445 3.417-2.248 1.433-1.22 1.96-2.83 2.836-4.277.601-1.048 1.494-2.002 2.62-2.775 1.352-1.013 2.778-2.062 3.421-3.446 1.017-1.692 1.9-3.464 2.149-5.322.025-.61-.175-1.277-.868-1.656z" stroke-opacity=".977" fill-opacity=".976" fill-rule="evenodd" stroke="#e5655b" stroke-width=".477" fill="#f26c61"/><path d="M-722.5 501.11c0 6.49-5.596 11.75-12.5 11.75s-12.5-5.26-12.5-11.75 5.596-11.75 12.5-11.75 12.5 5.26 12.5 11.75z" stroke-opacity=".977" fill-rule="evenodd" transform="matrix(-.65703 -.10597 .16918 -1.04894 -214.511 599.792)" stroke="#000900" fill="url(#a)"/><path d="M-722.5 501.11c0 6.49-5.596 11.75-12.5 11.75s-12.5-5.26-12.5-11.75 5.596-11.75 12.5-11.75 12.5 5.26 12.5 11.75z" stroke-opacity=".977" transform="matrix(-1.28948 -.20798 .22125 -1.37177 -705.64 686.495)" stroke="#7de55b" fill="url(#b)"/><path d="M-722.5 501.11c0 6.49-5.596 11.75-12.5 11.75s-12.5-5.26-12.5-11.75 5.596-11.75 12.5-11.75 12.5 5.26 12.5 11.75z" stroke-opacity=".977" transform="matrix(1.28948 .20798 .22125 -1.37177 1189.91 992.225)" stroke="#7de55b" fill="url(#b)"/><path d="M-722.5 501.11c0 6.49-5.596 11.75-12.5 11.75s-12.5-5.26-12.5-11.75 5.596-11.75 12.5-11.75 12.5 5.26 12.5 11.75z" stroke-opacity=".977" fill-rule="evenodd" transform="matrix(.65703 .10597 .16918 -1.04894 751.321 755.57)" stroke="#000900" fill="url(#a)"/><path d="M353.635 146.015a2.881 2.881 0 1 1 5.762 0 2.881 2.881 0 0 1-5.762 0z" fill-opacity=".976" fill-rule="evenodd" fill="#f3f9ff"/><path d="M-722.5 501.11c0 6.49-5.596 11.75-12.5 11.75s-12.5-5.26-12.5-11.75 5.596-11.75 12.5-11.75 12.5 5.26 12.5 11.75z" stroke-opacity=".977" fill-rule="evenodd" transform="matrix(.65703 -.10597 -.16918 -1.04894 860.91 597.441)" stroke="#000900" fill="url(#a)"/><path d="M-722.5 501.11c0 6.49-5.596 11.75-12.5 11.75s-12.5-5.26-12.5-11.75 5.596-11.75 12.5-11.75 12.5 5.26 12.5 11.75z" stroke-opacity=".977" transform="matrix(1.28948 -.20798 -.22125 -1.37177 1352.04 684.145)" stroke="#7de55b" fill="url(#b)"/><path d="M-722.5 501.11c0 6.49-5.596 11.75-12.5 11.75s-12.5-5.26-12.5-11.75 5.596-11.75 12.5-11.75 12.5 5.26 12.5 11.75z" stroke-opacity=".977" transform="matrix(-1.28948 .20798 -.22125 -1.37177 -543.51 989.874)" stroke="#7de55b" fill="url(#b)"/><path d="M-722.5 501.11c0 6.49-5.596 11.75-12.5 11.75s-12.5-5.26-12.5-11.75 5.596-11.75 12.5-11.75 12.5 5.26 12.5 11.75z" stroke-opacity=".977" fill-rule="evenodd" transform="matrix(-.65703 .10597 -.16918 -1.04894 -104.922 753.219)" stroke="#000900" fill="url(#a)"/><path d="M290.963 143.164a2.881 2.881 0 1 1 5.762 0 2.881 2.881 0 0 1-5.762 0z" fill-opacity=".976" fill-rule="evenodd" fill="#f3f9ff"/><path filter="url(#c)" d="M-508 340.36c-4.85 4.157-59.074-14.937-60.249-21.215-1.175-6.278 42.473-43.691 48.497-41.569 6.025 2.122 16.601 58.628 11.751 62.785z" fill="#f7a280" transform="matrix(.66904 .06612 -.05825 .7595 748.593 -114.372)"/><path filter="url(#c)" d="M-508 340.36c-4.85 4.157-59.074-14.937-60.249-21.215-1.175-6.278 42.473-43.691 48.497-41.569 6.025 2.122 16.601 58.628 11.751 62.785z" fill="#f7a280" transform="matrix(-.66904 .06612 .05825 .7595 -105.507 -114.372)"/><g stroke="#000" fill="none"><path d="M277.303 179.358c-22.675-3.703-57.349-3.863-75.49 17.6"/><path stroke-width=".795" d="M274.233 174.858c-19.771-3.635-41.759-5.441-60.281-1.455-10.574 2.275-20.467 4.374-27.525 7.426"/><path d="M214.643 210.008c15.637-18.62 36.382-27.769 62.166-27.576"/></g><g fill="#f9bc25"><path d="M336.911 93.702c-.582-3.693-14.845-5.027-15.848-1.481-1.003 3.545 4.231 36.785 5.816 36.932 1.585.148 10.614-31.758 10.032-35.451z"/><path d="M304.745 93.012c.582-3.693 14.845-5.027 15.848-1.481 1.003 3.545-4.231 36.785-5.816 36.932-1.585.148-10.614-31.758-10.032-35.451z"/></g><g fill="#f9bc25"><path d="M399.234 151.03c2.234-1.608-2.188-13.397-4.914-13.1-2.726.298-22.836 14.763-22.345 16.073.492 1.31 25.024-1.367 27.259-2.974zM398.634 167.436c2.686-.598 3.259-13.176.636-13.975-2.623-.8-26.803 4.587-26.866 5.985-.064 1.397 23.543 8.589 26.23 7.99z"/></g><g fill="#f9bc25"><path d="M243.112 150.287c-2.234-1.607 2.188-13.396 4.914-13.098 2.726.297 22.836 14.762 22.345 16.072-.492 1.31-25.024-1.367-27.259-2.974zM243.712 166.694c-2.686-.599-3.259-13.176-.636-13.975 2.623-.8 26.803 4.587 26.866 5.985.064 1.397-23.543 8.589-26.23 7.99z"/></g><g><g stroke="#000" fill="none"><path d="M365.983 180.192c22.675-3.704 57.349-3.864 75.49 17.6"/><path stroke-width=".795" d="M369.053 175.692c19.771-3.635 41.759-5.441 60.281-1.455 10.574 2.275 20.467 4.373 27.525 7.426"/><path d="M428.643 210.842c-15.637-18.62-36.382-27.77-62.166-27.576"/></g></g></g></svg>