<svg xmlns="http://www.w3.org/2000/svg" viewBox="0 0 487.20701 357.10174" width="487.207" height="357.102"><text font-size="18" x="215.6" y="332.113" fill="#fff"><tspan y="332.113" x="215.6" font-family="AbeatbyKai">Design byVector</tspan><tspan y="332.113" x="363.864" font-family="AdobeSongStd-Light-GBpc-EUC-H">-</tspan><tspan y="332.113" x="372.864" font-family="AbeatbyKai">Finder .com</tspan></text><g transform="translate(-74.951 -257.945)" clip-rule="evenodd" fill-rule="evenodd"><linearGradient id="a" y2="781.04" gradientUnits="userSpaceOnUse" x2="228.5" gradientTransform="translate(192.92 -148.56) scale(.7545)" y1="781.04" x1="129.9"><stop offset="0" stop-color="#fff"/><stop offset=".76" stop-color="#eaeaea"/><stop offset="1" stop-color="#9e9e9e"/></linearGradient><path d="M290.93 396.46l26.688 87.301c-4.734 4.002-7.613 8.055-8.639 12.16-.711 2.844-.578 5.039 1.273 7.398 2.957 3.771 8.104 3.555 14.15 1.701 5.404 3.064 10.438 3.082 14.926-1.357 8.23 2.818 14.98 2.533 17.643-6.334 8.125.176 11.355-5.1 4.975-14.475l-8.143-5.879-25.783-102.68-37.09 22.16z" fill="url(#a)"/><linearGradient id="b" y2="763.69" gradientUnits="userSpaceOnUse" x2="120.36" gradientTransform="translate(194.07 -148.33) scale(.7545)" y1="748.67" x1="215.21"><stop offset=".06" stop-color="#a1a1a1"/><stop offset=".782" stop-color="#f5f5f5"/><stop offset=".94" stop-color="#fff"/></linearGradient><path d="M289.72 384.87l13.365 50.596c7.608 2.475 15.219 7.15 22.828 14.028 8.617 9.35 16.867 13.934 24.752 13.752l-22.553-88.013-38.39 9.63z" fill="url(#b)"/><path d="M344.41 399.57c13.191.243 20.42 7.32 20.42 16.296 0 8.975-9.174 16.295-20.42 16.295-11.248 0-19.404-7.193-20.422-16.295-1.02-9.1 7.23-16.53 20.42-16.29z" stroke-miterlimit="2.414" fill="none" stroke="#231815" stroke-width=".216"/><radialGradient id="c" gradientUnits="userSpaceOnUse" cy="701.92" cx="186.82" gradientTransform="translate(190.75 -199.79) scale(.7545)" r="105.8"><stop offset="0" stop-color="#f0bf4d"/><stop offset=".56" stop-color="#9c7611"/><stop offset="1" stop-color="#836100"/></radialGradient><path d="M288.76 345.23l121.34 12.656c17.1-109.84-124.08-112.51-121.34-12.66z" fill="url(#c)"/><linearGradient id="d" y2="665.29" gradientUnits="userSpaceOnUse" x2="272.8" gradientTransform="translate(205.07 -136.23) scale(.7545)" y1="665.29" x1="110.59"><stop offset="0" stop-color="#b06700"/><stop offset=".5" stop-color="#ebb800"/><stop offset="1" stop-color="#c47f00"/></linearGradient><path d="M303.09 408.79l85.811 5.5 22.002-52.807c-2.566-15.745-8.709-27.617-20.076-33.829l-14.027-7.976c-5.318-1.375-9.902-.916-13.752 1.375-5.959 5.318-9.719 12.101-11.275 20.352l-9.352-.274c-1.926-7.518-6.418-15.401-13.477-23.653-4.492-.556-8.986-.65-13.478 2.476-11.552 5.867-20.535 15.035-26.953 27.502 1.88 11.1 4.023 21.988 8.335 32.063 4.46 10.41 4.91 21.01 6.25 29.28z" fill="url(#d)"/><path d="M345.17 321.88c-1.367 13.833-2.736 27.665-4.104 41.498-1.176 9.255-1.607 7.455-9.785 11.05-16.605 7.3-25.912 20.497-27.916 39.588-.807 26.941 20.938 29.613 40.43 20.902 19.254 5.916 33.922 7.016 38.504-2.475 8.869-11.828 7.725-25.396-.275-40.155-6.189-6.454-11.057-14.046-25.852-18.152-3.76-3.025-4.859-6.602-4.951-11.826l-2.75-40.705c-.74-1.37-1.84-1.28-3.3.28z" fill="#fafafa"/><linearGradient id="e" y2="720.06" gradientUnits="userSpaceOnUse" x2="136.06" gradientTransform="matrix(.7361 0 0 .7465 245.78 -217.03)" y1="877.93" x1="136.06"><stop offset="0" stop-color="#8c8c8c"/><stop offset=".17" stop-color="#f8f8f8"/><stop offset="1" stop-color="#fff"/></linearGradient><path d="M344.97 321.59c-1.447 13.249-1.35 26.017-2.902 40.787-1.146 9.157-.195 8.478-8.172 12.034-16.201 7.223-27.207 20.006-29.163 38.898-.786 26.658 19.604 29.025 38.622 20.406 18.785 5.854 33.646 7.217 38.117-2.174 8.654-11.703 6.711-25.129-1.094-39.733-6.039-6.387-11.063-14.173-25.498-18.236-3.668-2.993-4.742-6.531-4.83-11.702l-2.684-40.277c-.73-1.37-.98-1.56-2.41-.01z" fill="url(#e)"/><path d="M344.51 401.54c13.176.237 20.396 7.16 20.396 15.941 0 8.779-9.162 15.939-20.396 15.939s-19.381-7.035-20.396-15.939c-1.01-8.9 7.23-16.17 20.4-15.94z" fill="#4f4f4f"/><linearGradient id="f" y2="688.16" gradientUnits="userSpaceOnUse" x2="163.06" gradientTransform="matrix(.601 0 0 .5845 246.57 1.96)" y1="731.38" x1="163.81"><stop offset=".01" stop-color="#202828"/><stop offset=".51" stop-color="#d0cfcd"/><stop offset=".99" stop-color="#a8a8a8"/></linearGradient><path d="M344.82 404.2c10.508.188 16.268 5.672 16.268 12.625s-7.307 12.625-16.268 12.625c-8.959 0-15.457-5.572-16.268-12.625-.811-7.053 5.76-12.8 16.27-12.62z" fill="url(#f)"/><path d="M332.44 422.2c1.295 2.4 3.51 4.441 7.084 6.117 4.057-4.742-.479-8.588-5.059-8.459-2.3.06-3.16.21-2.02 2.34z" fill="#242424"/><path d="M332.19 420.59c1.99 2.506 4.141 4.861 6.865 7.002l-.824.412c-3.059-2.014-5.227-4.439-7.002-7.002l.95-.41z" fill="#b3b3b3"/><path d="M355.56 423.39c-1.521 2.266-3.924 4.08-7.645 5.398-3.576-5.113 1.313-8.498 5.857-7.926 2.29.29 3.13.53 1.78 2.53z" fill="#242424"/><path d="M355.98 421.82c-2.225 2.301-4.596 4.438-7.514 6.301l.779.49c3.24-1.705 5.635-3.91 7.652-6.287l-.92-.5z" fill="#b3b3b3"/><path d="M327.56 439.39c12.055 8.341 24.064 7.069 34.838-.334l-18.605-4.119c-4.88 1.93-10.65 3.25-16.24 4.45z" fill="#fff"/><linearGradient id="g" y2="727.83" gradientUnits="userSpaceOnUse" x2="162.66" gradientTransform="translate(234.45 -106.51) scale(.7545)" y1="727.83" x1="129.9"><stop offset="0" stop-color="#c70000"/><stop offset=".24" stop-color="red"/><stop offset=".48" stop-color="#c80000"/><stop offset=".74" stop-color="#ff2626"/><stop offset="1" stop-color="#c00"/></linearGradient><path d="M332.46 438.51l11.328-3.639 13.387 3.775c-4.47 15.15-20.6 16.28-24.72-.13z" fill="url(#g)"/><path fill="#b30000" d="M356.56 440.16l-12.36-4.06-11.19 4.06-.48-1.45 11.39-3.98 13.46 3.98z"/><path d="M343.92 436.26h1.801v10.231c-.6 1.279-1.201 1.279-1.801 0v-10.23z" fill="#ab0000"/><path d="M310.58 339.91c6.682.348 12.129 6.768 12.129 14.291 0 7.524-5.447 13.379-12.129 13.031-6.68-.348-12.128-6.768-12.128-14.292.01-7.52 5.45-13.38 12.13-13.03z" fill="#1a1a1a"/><path d="M311.21 340.69c6.333.335 11.499 6.522 11.499 13.774 0 7.253-5.166 12.896-11.499 12.561-6.333-.335-11.499-6.523-11.499-13.775 0-7.252 5.17-12.88 11.5-12.55z" fill="#545454"/><path d="M321.75 352.81c0 5.911-4.395 10.511-9.783 10.237-5.388-.272-9.783-5.317-9.783-11.229-.01-13.92 19.56-12.93 19.56.99z" fill="#0a0a0a"/><linearGradient id="h" y2="738.18" gradientUnits="userSpaceOnUse" x2="284.9" gradientTransform="matrix(.4016 -.1398 .1398 .4016 98.625 96.047)" y1="712.6" x1="259.32"><stop offset=".06" stop-color="gray"/><stop offset=".94" stop-color="#454545"/></linearGradient><path d="M314.46 344.34c-.586 4.316-2.672 8.12-6.875 11.232-1.677.938-2.879.53-3.605-1.22-2.195-6.411 2.17-11.106 8.773-11.362 1.27-.26 1.83.19 1.71 1.35z" fill="url(#h)"/><ellipse rx="2.838" transform="scale(-1) rotate(70.817 484.558 -433.932)" ry="2.996" cy="344.47" cx="308.48" fill="#fffcfa"/><ellipse rx="1.75" ry="1.658" cy="349.62" cx="306.08" fill="#fafafa"/><path d="M303.42 342.04c-7.188 7.058-6.511 14.474-.451 22.133-8.4-3.21-9.65-19.3.45-22.13z" fill="#fafafa"/><path d="M300.15 341.03c19.727-8.679 21.248 2.672 24.617 15.357-.95-18.2-10.09-25.71-24.62-15.36z" fill="#7d3800"/><path d="M302.29 341.93c12.935-5.002 19.775.898 21.568 17.276.262-5.132-.361-10.528-3.639-16.609-1.205-2.237-2.559-3.061-5.004-3.941-5.62-2.03-10.95-.26-12.93 3.27z" fill="#de9400"/><path d="M393.16 403.24c16.443 19.594 30.32 39.793 40.709 64.231 6.221 19.525 25.83 15.887 42.066 15.381 6.559 2.865 12.289.754 17.641-3.619 10.434-2.148 2.799-19.523-7.236-18.998-6.182-.49-12.363-1.924-18.545-5.428-19.338-25.739-37.852-62.185-56.541-96.348l-18.1 44.79z" fill="#fffaf7"/><linearGradient id="i" y2="707" gradientUnits="userSpaceOnUse" x2="278.64" gradientTransform="translate(298.7 -131.75) scale(.7382)" y1="789.9" x1="122.74"><stop offset=".06" stop-color="#828282"/><stop offset=".447" stop-color="#f9f9f9"/><stop offset=".94" stop-color="#fff"/></linearGradient><path d="M394.06 401.37c16.09 19.172 31.93 39.84 42.096 63.753 6.086 19.105 24.369 15.545 40.256 15.049 6.418 2.803 12.023.738 17.262-3.541 10.209-2.102 2.736-19.102-7.082-18.59-6.049-.479-12.098-1.881-18.146-5.311-18.922-25.185-38.395-61.299-56.682-94.726l-17.71 43.37z" fill="url(#i)"/><path fill="#bfbfbf" d="M423.46 442.14l-29.4-41.61 17.64-42.52 23.07 42.07z"/><path d="M471.45 471.79c4.271 2.107 6.229 5.27 5.082 9.486 3.16-4.75.22-8.64-5.08-9.49zM485.56 466.03c5.037 2.484 8.473 6.436 7.119 11.404 3.17-5.58-1.54-10.4-7.12-11.4z" fill="#707070"/><linearGradient id="j" y2="750.42" gradientUnits="userSpaceOnUse" x2="70.913" gradientTransform="translate(150.07 -154.66) scale(.7545)" y1="744.4" x1="139.75"><stop offset=".07" stop-color="#737373"/><stop offset=".474" stop-color="#f5f5f5"/><stop offset=".93" stop-color="#fff"/></linearGradient><path d="M248.08 390.36c-9.811 8.463-12.913 20.231-12.376 34.655-.55 7.975.734 15.217 3.85 21.728 9.105 5.725 12.688 10.439 11.001 15.953l-4.95 3.025c-3.241 2.246-6.341 4.959-11.827-.275-2.837 2.854-6.043 4.695-11.826-.551-8.526 1.467-13.018-1.467-13.477-8.801.272-3.393-.005-6.785 2.476-10.177l-2.75-94.887 39.89 39.34z" fill="url(#j)"/><linearGradient id="k" y2="684.08" gradientUnits="userSpaceOnUse" x2="150.28" gradientTransform="translate(111.84 -140.36) scale(.7545)" y1="684.08" x1="127.05"><stop offset="0" stop-color="#836100"/><stop offset="1" stop-color="#834c00"/></linearGradient><path d="M209.85 404.66l15.126-10.726c.917-2.933-.733-5.866-4.95-8.801-1.749-2.108-2.945-4.217-.275-6.326 2.383-2.107 2.566-4.217.55-6.325-8.161-6.463-11.277-15.447-12.102-25.578-1.2 19.26-.1 38.51 1.64 57.76z" fill="url(#k)"/><path d="M207.65 368.77c-5.511 6.318-13.592 10.966-21.315 17.327-3.025 4.904-3.851 9.809-2.475 14.715l-5.088.137c-.621-7.679-.118-15.196 4.4-22.14 3.599-4.951 8.962-9.397 15.127-13.615 5.098-5.117 6.951-11.163 9.351-17.052v20.62z" fill="#836100"/><path d="M206 360.79c.185 1.879.231 3.759-.688 5.639l-19.115 16.089c7.842-4.777 14.087-8.28 21.041-15.401-.05-3.03-.46-5.14-1.24-6.33z" fill="#7d5201"/><path fill="#fffdfc" d="M183.07 400.34l1.03 19.77-1.44.14-4.05-19.71z"/><path d="M247.8 390.36c23.324 19.692 33.669 18.989 46.206 21.727l-3.79-22.205c-17.682-3.564-36.652-8.67-55.067-18.836-.38 4.23-.37 12.17 12.65 19.32z" fill="#fffcfa"/><path d="M239.55 373.31c-17.203-31.242-6.381-54.94 14.577-75.909-19.172 5.316-34.918 16.96-44.556 39.879-6.875 29.667 15.585 35.589 32.179 46.48l-2.2-10.45z" fill="#fffcfa"/><path d="M241.34 398.75l20.353 33.555c5.5 3.803 11.551 4.857 18.152 3.162l5.226.963 3.988-1.514 4.675-1.375c1.558-3.713.549-6.875-3.025-9.488l-12.651-2.889-8.801-16.363-21.315-13.89c-3.32 1.88-5.52 4.49-6.62 7.84z" fill="#fff"/><linearGradient id="l" y2="740.33" gradientUnits="userSpaceOnUse" x2="198.52" gradientTransform="translate(143.33 -146.27) scale(.7545)" y1="740.33" x1="131.18"><stop offset="0" stop-color="#bdbdbd"/><stop offset=".22" stop-color="#cbcbcb"/><stop offset=".49" stop-color="#f9f9f9"/><stop offset="1" stop-color="#fff"/></linearGradient><path d="M242.3 397.37l20.765 34.379c5.5 3.805 10.452 3.896 17.052 2.199l4.676 1.238 3.713-1.238 3.713-.961c1.558-3.715 1.237-5.502-2.338-8.115l-11.826-3.713-8.801-16.363-21.906-15.367c-3.28 1.87-3.93 4.58-5.03 7.93z" fill="url(#l)"/><radialGradient id="m" gradientUnits="userSpaceOnUse" cy="784.56" cx="60.323" gradientTransform="translate(220.2 -262.2) scale(.7545)" r="73.029"><stop offset="0" stop-color="#e8be4b"/><stop offset=".48" stop-color="#a48019"/><stop offset="1" stop-color="#836100"/></radialGradient><path d="M318.21 282.82c-25.573 16.548-39.009 36.444-46.045 64.71-2.753 11.061-4.526 23.402-5.662 37.326l-27.228-11.001c-14.508-25.578-11.07-51.156 14.026-76.734 22.01-7.71 43.64-12.48 64.91-14.31z" fill="url(#m)"/><linearGradient id="n" y2="672.71" gradientUnits="userSpaceOnUse" x2="172.29" gradientTransform="matrix(.7545 0 0 .6925 149.79 -103.84)" y1="749.89" x1="131.26"><stop offset=".08" stop-color="#d3d2d0"/><stop offset=".92" stop-color="#fff"/></linearGradient><path d="M249.46 388.84c23.325 18.074 31.469 17.427 44.005 19.941l-4.125-17.668c-16.668-2.31-35.229-10.826-54.182-22.435.48 3.88 7.31 13.6 14.3 20.16z" fill="url(#n)"/><linearGradient id="o" y2="859.05" gradientUnits="userSpaceOnUse" x2="130.56" gradientTransform="translate(189.95 -211.32) scale(.7545)" y1="658.34" x1="130.56"><stop offset="0" stop-color="#836100"/><stop offset=".46" stop-color="#a37800"/><stop offset="1" stop-color="#836100"/></linearGradient><path d="M290.32 333.7c2 34.833-.871 69.041-1.813 103.14h-3.851c-20.198-26.877-22.567-61.217-11.862-95.38 4.078-13.016 23.981-55.119 37.586-56.054l-20.07 48.29z" fill="url(#o)"/><path fill="#664b00" d="M298.41 384.31l-8.8-29.16-.83 38.51 3.3 10.45z"/><linearGradient id="p" y2="815.31" gradientUnits="userSpaceOnUse" x2="176.56" gradientTransform="translate(302.16 -246.79) scale(.7545)" y1="815.31" x1="129.9"><stop offset="0" stop-color="#836100"/><stop offset="1" stop-color="#ad7f00"/></linearGradient><path d="M400.17 298.22c10.383 16.639 13.363 39.375 11.277 66.283l-9.352 69.859c-.551 1.375 0 2.75 1.65 4.125 14.375-12.07 21.887-28.156 31.629-58.583-1.879-20.49-5.82-41.209-14.303-62.432-8.26-10.91-15.59-18.61-20.91-19.25z" fill="url(#p)"/><path d="M221.59 456.02c2.31 1.547.944 8.705.137 8.994-.023-1.5.297-2.998.274-4.498-.02-1.5-.39-3-.41-4.49zM243.08 456.7c2.056.42 3.008 1.039 3.295 3.709l-.343 5.148-.195-3.502c-.063-1.129-.134-1.834-.724-2.84-.69-1.16-1.44-1.68-2.04-2.52zM232.85 456.7c2.403 1.547 1.468 8.705.679 8.994-.113-1.498.117-2.998.003-4.496-.11-1.49-.56-2.99-.68-4.49zM326.23 494.88c-7.785 2.367-2.805 10.838-.582 10.893.098-1.814-1.105-3.484-1.012-5.299.093-1.815 1.5-3.78 1.59-5.59zM337.82 494.03c4.803 3.508 1.729 11.25.357 10.977-.061-1.828.684-3.32.625-5.15-.06-1.83-.93-4-.98-5.83zM352.83 487.78c5.66 1.82 5.178 10.135 3.789 10.309-.631-1.719-.395-3.367-1.025-5.086-.63-1.71-2.14-3.5-2.77-5.22z" fill="#666"/><path d="M338.34 441.39c1.229-2.412-4.563-.674 0 4.131.938.989 2.354 2.216 3.836 2.216.148 0 .545-.338.443-.443-.59-.61-4.5-5.46-4.28-5.91zM349.96 439.38c-.549-.953 3.971 1.949 1.139 5.553-.119.15-.74.887-.986 1.18-.371.444-1.207.739-1.945.739-.148 0-1.168-.068-1.059-.146 1.53-1.1 3.08-6.93 2.86-7.32z" fill="#fa6800"/><path d="M377 340.97c-6.68.348-12.129 6.767-12.129 14.291s5.449 13.378 12.129 13.031c6.68-.348 12.129-6.768 12.129-14.292s-5.45-13.38-12.13-13.03z" fill="#1a1a1a"/><path d="M376.37 341.75c-6.334.335-11.5 6.522-11.5 13.774 0 7.253 5.166 12.896 11.5 12.561 6.332-.335 11.498-6.523 11.498-13.775 0-7.24-5.17-12.88-11.5-12.55z" fill="#545454"/><path d="M365.83 353.87c0 5.912 4.395 10.512 9.783 10.238 5.389-.272 9.783-5.317 9.783-11.229.01-13.92-19.56-12.94-19.56.99z" fill="#0a0a0a"/><linearGradient id="q" y2="738.18" gradientUnits="userSpaceOnUse" x2="284.9" gradientTransform="matrix(.4016 -.1398 .1398 .4016 162.78 97.896)" y1="712.6" x1="259.32"><stop offset=".06" stop-color="gray"/><stop offset=".94" stop-color="#454545"/></linearGradient><path d="M378.61 346.19c-.586 4.315-2.67 8.119-6.873 11.231-1.678.938-2.881.53-3.607-1.22-2.195-6.411 2.17-11.106 8.773-11.362 1.27-.26 1.84.19 1.71 1.35z" fill="url(#q)"/><ellipse rx="2.839" transform="scale(-1) rotate(70.799 487.317 -526.212)" ry="2.996" cy="346.32" cx="373.96" fill="#fffcfa"/><ellipse rx="1.75" ry="1.658" cy="350.94" cx="369.97" fill="#fafafa"/><path d="M384.16 343.1c7.189 7.058 6.512 14.473.451 22.133 8.4-3.22 9.66-19.31-.45-22.13z" fill="#fafafa"/><path d="M387.44 342.08c-19.727-8.679-21.248 2.672-24.617 15.357.94-18.2 10.08-25.7 24.62-15.36z" fill="#7d3800"/><path d="M385.29 342.99c-12.934-5.001-19.775.899-21.568 17.277-.26-5.133.361-10.528 3.639-16.609 1.205-2.237 2.559-3.061 5.004-3.942 5.62-2.03 10.95-.26 12.93 3.27z" fill="#de9400"/></g><g transform="translate(-90.336 -250.253)" clip-rule="evenodd" fill-rule="evenodd"><linearGradient id="r" y2="791.04" gradientUnits="userSpaceOnUse" x2="42.21" gradientTransform="translate(116.09 66.854) scale(.6171)" y1="791.04" x1="31.575"><stop offset="0" stop-color="#4fba02"/><stop offset="1" stop-color="#aaff21"/></linearGradient><path fill="url(#r)" d="M135.57 522.19h6.563v65.632h-6.563z"/><linearGradient id="s" y2="786.21" gradientUnits="userSpaceOnUse" x2="69.21" gradientTransform="translate(112.51 21.739) scale(.6171)" y1="713.91" x1="44.314"><stop offset=".02" stop-color="#d10000"/><stop offset=".289" stop-color="#d61d00"/><stop offset=".98" stop-color="#f2b100"/></linearGradient><path d="M130.92 465.96c2.681-1.573 5.407-3.596 7.982-4.504 1.781-.627 3.567-.742 5.318-.017 1.991.823 2.908 2.488 3.459 4.273 2.52-4.324 7.031 1.931 8.814 5.337l-13.53 39.85-12.04-44.94z" fill="url(#s)"/><linearGradient id="t" y2="809.92" gradientUnits="userSpaceOnUse" x2="22.028" gradientTransform="translate(134.11 20.83) scale(.6171)" y1="727.92" x1="42.472"><stop offset=".02" stop-color="#d10000"/><stop offset=".49" stop-color="#d82900"/><stop offset=".98" stop-color="#f2b100"/></linearGradient><path d="M157.36 465.59c5.017 5.399 7.983 18.285 4.402 39.09-.688 4.005-1.424 6.279-3.953 9.577-3.337 4.353-10.224 9.498-20.934 8.812 3.766-8.461 7.068-16.567 10.292-26.225 3.27-9.78 7.16-20.76 10.19-31.25z" fill="url(#t)"/><linearGradient id="u" y2="738.24" gradientUnits="userSpaceOnUse" x2="21.155" gradientTransform="translate(117.15 67.666) scale(.6171)" y1="639.76" x1="21.155"><stop offset="0" stop-color="#d10000"/><stop offset=".38" stop-color="#d61d00"/><stop offset="1" stop-color="#f2b100"/></linearGradient><path d="M132.95 522.16c-10.637-4.187-14.582-14.502-17.198-24.099-1.54-5.647-1.713-10.17-1.208-16.092.595-6.951 2.251-12.758 5.947-16.368 1.667-1.629 4.471-3.747 6.922-2.967 3.15 1.004 7.286 4.334 12.814 11.828.905 1.228 1.466 2.366 2.143 3.726a43.57 43.57 0 0 0 2.391 4.226c1.929 2.986 1.316 4.848 1.103 8.437-.609 10.238-.988 20.553.083 31.351-1.272.392-2.551.65-3.832.807-3.29.39-6.07.35-9.15-.86z" fill="url(#u)"/><path d="M146.7 522.03c7.724-2.868 12.179-7.718 14.167-13.526-1.506 1.069-2.359 1.848-4.082 2.481l1.04-2.722c-.8.398-2.428 1.252-3.442 2.722l.161-3.521c-1.036 1.038-1.54 2.45-6.003 5.2-.052-2.615-.212-5.018-1.121-5.921-2.028 2.906-4.056 5.147-6.083 5.921l.8-5.44c-1.467 1.521-2.934 3.469-4.401 5.842a23.405 23.405 0 0 0-.48-7.685c-1.361 2.188-2.854 4.377-4.642 6.565-1.335-3.018-2.294-5.657-3.201-8.244-1.016.853-1.655 2.08-2.241 3.36-.6-1.734-1.452-3.627-2.962-5.361-.695 1.491-.642 3.36-.48 5.282l-6.883-5.763c2.957 10.471 7.029 13.457 14.407 19.128l-1.121-3.041 3.442 3.281.479-.8 2.001 1.359.8-2.88.881 1.682 1.441-2.323.479 1.922 2.161-1.682.08 2.32 2.321-2.238.32 1.919 4.402-1.682-2.26 3.84z" fill="#f58e27"/><linearGradient id="v" y2="647.41" gradientUnits="userSpaceOnUse" x2="45.158" gradientTransform="translate(117.56 320.26) scale(.3808)" y1="639.69" x1="19.934"><stop offset=".12" stop-color="#007435"/><stop offset=".378" stop-color="#198c29"/><stop offset=".743" stop-color="#5dce06"/><stop offset=".88" stop-color="#60d104"/></linearGradient><path d="M136.46 588.28c-5.88-5.739-12.765-20.683-14.223-30.916-2.021-9.378-1.981-12.834-1.876-16.099.748 2.944 1.394 5.873 3.753 9.087 3.197 4.514 6.567 8.718 8.278 12.325.954 2.014 1.641 4.18 2.566 6.236 4.606 10.238 5.242 15.15 4.594 17.752-.58 2.33-1.63 2.51-3.09 1.61z" fill="url(#v)"/><linearGradient id="w" y2="647.4" gradientUnits="userSpaceOnUse" x2="-55.964" gradientTransform="matrix(-.3808 0 0 .3808 121.98 320.26)" y1="639.69" x1="-81.187"><stop offset=".12" stop-color="#007435"/><stop offset=".378" stop-color="#198c29"/><stop offset=".743" stop-color="#5dce06"/><stop offset=".88" stop-color="#60d104"/></linearGradient><path d="M141.58 588.28c5.88-5.739 12.765-20.683 14.222-30.916 2.021-9.378 1.982-12.834 1.876-16.099-.747 2.944-1.393 5.873-3.752 9.087-3.197 4.514-6.567 8.718-8.278 12.325-.954 2.014-1.641 4.18-2.566 6.236-4.606 10.238-5.241 15.15-4.593 17.752.58 2.33 1.64 2.51 3.09 1.61z" fill="url(#w)"/></g><g transform="translate(21.203 -252.817)" clip-rule="evenodd" fill-rule="evenodd"><linearGradient id="x" y2="810.86" gradientUnits="userSpaceOnUse" x2="99.404" gradientTransform="translate(116.09 66.854) scale(.6171)" y1="810.86" x1="90.242"><stop offset="0" stop-color="#4fba02"/><stop offset="1" stop-color="#aaff21"/></linearGradient><path fill="url(#x)" d="M171.77 538.97h5.654v56.537h-5.654z"/><linearGradient id="y" y2="816.83" gradientUnits="userSpaceOnUse" x2="123.47" gradientTransform="translate(112.51 21.739) scale(.6171)" y1="754.55" x1="102.02"><stop offset=".02" stop-color="#d10000"/><stop offset=".289" stop-color="#d61d00"/><stop offset=".98" stop-color="#f2b100"/></linearGradient><path d="M167.77 490.53c2.309-1.355 4.658-3.098 6.876-3.88 1.534-.54 3.072-.64 4.581-.015 1.715.709 2.505 2.144 2.98 3.682 2.17-3.726 6.057 1.663 7.593 4.597l-11.657 34.329-10.37-38.72z" fill="url(#y)"/><linearGradient id="z" y2="837.45" gradientUnits="userSpaceOnUse" x2="77.97" gradientTransform="translate(134.11 20.83) scale(.6171)" y1="766.82" x1="95.581"><stop offset=".02" stop-color="#d10000"/><stop offset=".49" stop-color="#d82900"/><stop offset=".98" stop-color="#f2b100"/></linearGradient><path d="M190.55 490.21c4.321 4.651 6.876 15.752 3.792 33.673-.593 3.45-1.227 5.409-3.405 8.25-2.875 3.75-8.807 8.183-18.033 7.591 3.244-7.288 6.089-14.271 8.866-22.591 2.8-8.43 6.16-17.89 8.77-26.92z" fill="url(#z)"/><linearGradient id="A" y2="765.19" gradientUnits="userSpaceOnUse" x2="81.026" gradientTransform="translate(117.15 67.666) scale(.6171)" y1="680.36" x1="81.026"><stop offset="0" stop-color="#d10000"/><stop offset=".38" stop-color="#d61d00"/><stop offset="1" stop-color="#f2b100"/></linearGradient><path d="M169.51 538.94c-9.163-3.606-12.561-12.492-14.814-20.759-1.326-4.865-1.476-8.761-1.041-13.862.512-5.988 1.939-10.99 5.123-14.1 1.436-1.403 3.852-3.229 5.963-2.556 2.714.864 6.277 3.733 11.039 10.188.78 1.058 1.263 2.038 1.846 3.21a37.531 37.531 0 0 0 2.059 3.64c1.662 2.572 1.134 4.176.95 7.268-.525 8.819-.851 17.704.071 27.006a18.872 18.872 0 0 1-3.3.695c-2.85.34-5.24.3-7.9-.74z" fill="url(#A)"/><path d="M181.36 538.83c6.653-2.471 10.49-6.648 12.203-11.652-1.297.921-2.033 1.592-3.517 2.138l.897-2.345c-.69.344-2.092 1.079-2.965 2.345l.139-3.033c-.894.894-1.327 2.11-5.172 4.479-.044-2.253-.183-4.322-.965-5.101-1.748 2.504-3.494 4.435-5.24 5.101l.689-4.687c-1.264 1.31-2.527 2.988-3.792 5.032a20.134 20.134 0 0 0-.414-6.62c-1.172 1.886-2.458 3.771-3.999 5.656-1.15-2.6-1.977-4.874-2.757-7.103-.875.735-1.426 1.792-1.931 2.896-.517-1.494-1.25-3.125-2.552-4.619-.599 1.285-.553 2.896-.414 4.551l-5.929-4.964c2.547 9.02 6.055 11.592 12.41 16.477l-.965-2.619 2.965 2.826.413-.688 1.724 1.171.689-2.481.759 1.449 1.241-2.001.413 1.655 1.862-1.449.069 1.999 1.999-1.928.276 1.653 3.792-1.449-1.93 3.29z" fill="#f58e27"/><linearGradient id="B" y2="675.23" gradientUnits="userSpaceOnUse" x2="140.52" gradientTransform="translate(117.56 320.26) scale(.3808)" y1="668.58" x1="118.8"><stop offset=".12" stop-color="#007435"/><stop offset=".378" stop-color="#198c29"/><stop offset=".743" stop-color="#5dce06"/><stop offset=".88" stop-color="#60d104"/></linearGradient><path d="M172.54 595.9c-5.065-4.944-10.997-17.816-12.252-26.632-1.74-8.078-1.707-11.056-1.616-13.868.644 2.536 1.2 5.06 3.233 7.828 2.754 3.888 5.658 7.51 7.131 10.617.822 1.734 1.414 3.601 2.211 5.372 3.968 8.819 4.515 13.051 3.957 15.292-.5 2.01-1.41 2.16-2.66 1.39z" fill="url(#B)"/><linearGradient id="C" y2="675.23" gradientUnits="userSpaceOnUse" x2="-148.23" gradientTransform="matrix(-.3808 0 0 .3808 121.98 320.26)" y1="668.58" x1="-169.95"><stop offset=".12" stop-color="#007435"/><stop offset=".378" stop-color="#198c29"/><stop offset=".743" stop-color="#5dce06"/><stop offset=".88" stop-color="#60d104"/></linearGradient><path d="M176.95 595.9c5.066-4.944 10.996-17.816 12.251-26.632 1.741-8.078 1.708-11.056 1.616-13.868-.643 2.536-1.2 5.06-3.232 7.828-2.754 3.888-5.657 7.51-7.131 10.617-.822 1.734-1.414 3.601-2.211 5.372-3.968 8.819-4.515 13.051-3.957 15.292.5 2.01 1.41 2.16 2.66 1.39z" fill="url(#C)"/></g><g transform="translate(231.46 -265.638)" clip-rule="evenodd" fill-rule="evenodd"><linearGradient id="D" y2="802.21" gradientUnits="userSpaceOnUse" x2="153.29" gradientTransform="translate(116.09 66.854) scale(.6171)" y1="802.21" x1="142.92"><stop offset="0" stop-color="#4fba02"/><stop offset="1" stop-color="#aaff21"/></linearGradient><path fill="url(#D)" d="M204.28 529.89h6.4v64.009h-6.4z"/><linearGradient id="E" y2="799.31" gradientUnits="userSpaceOnUse" x2="179.77" gradientTransform="translate(112.51 21.739) scale(.6171)" y1="728.79" x1="155.49"><stop offset=".02" stop-color="#d10000"/><stop offset=".289" stop-color="#d61d00"/><stop offset=".98" stop-color="#f2b100"/></linearGradient><path d="M199.75 475.05c2.614-1.534 5.273-3.507 7.785-4.392 1.737-.612 3.479-.725 5.187-.018 1.941.803 2.837 2.429 3.375 4.169 2.457-4.217 6.857 1.884 8.595 5.205l-13.196 38.864-11.75-43.83z" fill="url(#E)"/><linearGradient id="F" y2="822.46" gradientUnits="userSpaceOnUse" x2="132.89" gradientTransform="translate(134.11 20.83) scale(.6171)" y1="742.49" x1="152.82"><stop offset=".02" stop-color="#d10000"/><stop offset=".49" stop-color="#d82900"/><stop offset=".98" stop-color="#f2b100"/></linearGradient><path d="M225.54 474.69c4.893 5.265 7.785 17.834 4.293 38.122-.671 3.907-1.389 6.125-3.854 9.34-3.256 4.245-9.972 9.265-20.417 8.595 3.672-8.252 6.894-16.157 10.037-25.577 3.18-9.54 6.98-20.24 9.94-30.47z" fill="url(#F)"/><linearGradient id="G" y2="750.68" gradientUnits="userSpaceOnUse" x2="132.71" gradientTransform="translate(117.15 67.666) scale(.6171)" y1="654.64" x1="132.71"><stop offset="0" stop-color="#d10000"/><stop offset=".38" stop-color="#d61d00"/><stop offset="1" stop-color="#f2b100"/></linearGradient><path d="M201.72 529.86c-10.374-4.082-14.22-14.143-16.772-23.501-1.501-5.508-1.671-9.919-1.178-15.695.58-6.779 2.196-12.442 5.8-15.963 1.625-1.587 4.36-3.655 6.751-2.892 3.072.977 7.106 4.226 12.498 11.533.883 1.198 1.43 2.309 2.089 3.636a42.248 42.248 0 0 0 2.332 4.119c1.881 2.912 1.284 4.728 1.076 8.229-.595 9.985-.964 20.044.08 30.574-1.24.383-2.487.635-3.737.787-3.22.39-5.93.35-8.94-.83z" fill="url(#G)"/><path d="M215.13 529.74c7.533-2.798 11.876-7.527 13.816-13.192-1.47 1.044-2.301 1.802-3.981 2.421l1.015-2.655c-.781.389-2.369 1.223-3.357 2.655l.157-3.434c-1.012 1.011-1.501 2.388-5.855 5.07-.051-2.55-.207-4.894-1.092-5.773-1.979 2.835-3.956 5.02-5.933 5.773l.78-5.305c-1.431 1.481-2.862 3.383-4.293 5.696.26-2.497.104-4.993-.468-7.494-1.327 2.134-2.783 4.268-4.527 6.403-1.302-2.942-2.238-5.519-3.122-8.042-.99.834-1.614 2.03-2.186 3.279-.585-1.691-1.416-3.538-2.889-5.229-.678 1.455-.625 3.277-.468 5.152l-6.712-5.621c2.883 10.212 6.855 13.124 14.05 18.654l-1.093-2.966 3.357 3.2.467-.778 1.952 1.324.781-2.809.859 1.641 1.405-2.266.468 1.875 2.108-1.641.077 2.262 2.264-2.183.312 1.873 4.293-1.641-2.19 3.75z" fill="#f58e27"/><linearGradient id="H" y2="664.73" gradientUnits="userSpaceOnUse" x2="225.65" gradientTransform="translate(117.56 320.26) scale(.3808)" y1="657.21" x1="201.05"><stop offset=".12" stop-color="#007435"/><stop offset=".378" stop-color="#198c29"/><stop offset=".743" stop-color="#5dce06"/><stop offset=".88" stop-color="#60d104"/></linearGradient><path d="M205.15 594.35c-5.735-5.597-12.45-20.171-13.871-30.149-1.97-9.146-1.933-12.519-1.83-15.702.729 2.872 1.358 5.729 3.66 8.862 3.118 4.402 6.405 8.502 8.073 12.021.931 1.964 1.601 4.077 2.503 6.083 4.492 9.983 5.112 14.775 4.48 17.312-.56 2.28-1.59 2.45-3.01 1.58z" fill="url(#H)"/><linearGradient id="I" y2="664.73" gradientUnits="userSpaceOnUse" x2="-235.9" gradientTransform="matrix(-.3808 0 0 .3808 121.98 320.26)" y1="657.21" x1="-260.5"><stop offset=".12" stop-color="#007435"/><stop offset=".378" stop-color="#198c29"/><stop offset=".743" stop-color="#5dce06"/><stop offset=".88" stop-color="#60d104"/></linearGradient><path d="M210.15 594.35c5.735-5.597 12.449-20.171 13.871-30.149 1.97-9.146 1.933-12.519 1.829-15.702-.728 2.872-1.358 5.729-3.66 8.862-3.118 4.402-6.404 8.502-8.073 12.021-.93 1.964-1.6 4.077-2.503 6.083-4.492 9.983-5.111 14.775-4.479 17.312.56 2.28 1.59 2.45 3.01 1.58z" fill="url(#I)"/></g><g transform="translate(-162.13 -264.356)" clip-rule="evenodd" fill-rule="evenodd"><path d="M258.74 510.33c4.63 3.633 9.366 6.711 12.99 15.623 1.846 4.539 1.929 6.045.319 10.611-3.074 8.715-6.651 13.078-10.386 16.061-1.747 1.395-3.41 2.719-2.053 4.928 2.248 3.656 6.154 1.475 8.488-.604 8.53-7.609 15.738-19.035 11.856-30.676-2.927-8.773-8.872-15.705-16.782-21.168-.3 2.22-2.04 3.86-4.44 5.23z" fill="#db0000"/><linearGradient id="J" y2="806.43" gradientUnits="userSpaceOnUse" x2="33.325" gradientTransform="translate(144.13 -649.53) scale(1.4584)" y1="815.4" x1="72.185"><stop offset=".07" stop-color="#0bf"/><stop offset=".638" stop-color="#4becff"/><stop offset=".93" stop-color="#bdfeff"/></linearGradient><path d="M242.17 503.33c-16.658 9.623-29.192 24.287-39.866 41.229-2.876 4.566-7.118 9.398-4.703 15.113.75 1.773 2.202 3.064 4.605 3.721 8.417 2.295 10.34-4.09 14.878-10.264 10.442-14.203 19.042-30.25 27.936-46l-2.85-3.8z" fill="url(#J)"/><linearGradient id="K" y2="801.33" gradientUnits="userSpaceOnUse" x2="26.153" gradientTransform="translate(142.86 -652.38) scale(1.4584)" y1="810.59" x1="69.688"><stop offset=".04" stop-color="#00bfff"/><stop offset=".748" stop-color="#9bfafd"/><stop offset=".96" stop-color="#a6fffc"/></linearGradient><path d="M241.53 501.11c-30.461 11.42-51.465 19.594-57.632 34.199-2.481 9.447 5.02 13.754 11.787 8.332 13.229-10.6 27.45-24.879 46.162-40.631l-.32-1.9z" fill="url(#K)"/><linearGradient id="L" y2="766.57" gradientUnits="userSpaceOnUse" x2="90.655" gradientTransform="translate(154.26 -663.47) scale(1.4584)" y1="779.86" x1="80.645"><stop offset=".02" stop-color="#00b3ff"/><stop offset=".682" stop-color="#9eedff"/><stop offset=".98" stop-color="#a8f1ff"/></linearGradient><path d="M252.3 489.39l29.647-43.779c4.001-5.908 6.572-8.541 14.095-9.951 3.15-.59 5.068.053 6.345 1.746 4.027 5.338 2.258 8.225-1.244 12.65-10.279 12.996-26.044 26.436-43.46 41.867l-5.38-2.54z" fill="url(#L)"/><linearGradient id="M" y2="747.47" gradientUnits="userSpaceOnUse" x2="61.467" gradientTransform="matrix(1.5684 0 0 1.4584 153.98 -663.78)" y1="790.68" x1="84.443"><stop offset=".01" stop-color="#00bfff"/><stop offset=".402" stop-color="#26cbff"/><stop offset=".725" stop-color="#aaf6ff"/><stop offset=".99" stop-color="#bafcff"/></linearGradient><path d="M254.36 490.21c11.248-17.021 24.036-33.658 30.801-51.801 6.076-10.07 1.284-14.533-5.449-13.389-7.543 1.285-11.119 6.416-14.061 12.281-8.077 16.107-12.139 33.814-15.566 51.773l4.28 1.14z" fill="url(#M)"/><path d="M260.84 495.02c5.34 6.354 5.028 11.848.655 15.041-4.374 3.195-9.687 2.406-16.413-2.699-6.726-5.105-5.654-11.359-.813-15.834 4.83-4.48 11.22-2.87 16.56 3.49z" fill="#940000"/><path d="M240.58 500.48c-3.43.896-5.805-.105-7.125-3.008.317-8.287 4.222-12.984 11.716-14.094 2.063 1.424 3.805 3.008 3.325 5.701l-7.92 11.4z" fill="#8f3700"/><ellipse rx="6.729" ry="6.333" cy="536.26" cx="191.74" fill="#c70000"/><ellipse rx="4.828" ry="4.544" cy="535.89" cx="191.58" fill="#fa0"/><path d="M248.82 492.72c1.871 1.639 4.059 2.977 5.611 4.916 3.431 4.291 5.234 4.387 7.215 6.324.474-1.371.315-3.168-.476-5.383-1.979-2.6-4.302-4.686-7.125-6.016-2.16-.79-3.91-.74-5.22.16z" fill="#b01919"/><ellipse rx="6.729" ry="6.334" cy="552.09" cx="206.94" fill="#e81f00"/><ellipse rx="4.982" ry="4.689" cy="551.87" cx="206.93" fill="#fa0"/><ellipse rx="6.729" ry="6.333" cy="437.53" cx="276.09" fill="#c70000"/><ellipse rx="4.827" ry="4.544" cy="437.17" cx="275.93" fill="#fa0"/><ellipse rx="6.729" ry="6.334" cy="449.26" cx="290.08" fill="#c70000"/><ellipse rx="4.828" ry="4.544" cy="448.9" cx="289.92" fill="#fa0"/><ellipse rx="8.075" ry="7.853" cy="491.7" cx="228.23" fill="#ffd500"/><ellipse rx="5.858" ry="6.08" cy="491.7" cx="228.23" fill="#8f3700"/><ellipse rx="1.96" ry="2.034" cy="488.79" cx="230.01" fill="#ffbf29"/><g><ellipse rx="8.075" ry="7.853" cy="481.31" cx="238.25" fill="#ffd500"/><ellipse rx="5.858" ry="6.08" cy="481.31" cx="238.25" fill="#8f3700"/><ellipse rx="1.959" ry="2.034" cy="478.4" cx="240.02" fill="#ffbf29"/></g><path fill="#fbff0a" d="M272.6 528.06l-1.33-3.18 7.4-2.64 1.06 3.44zM268.9 543.54l1.91-3.93 8.06 3.37-1.65 3.22z"/></g></svg>