<svg xmlns="http://www.w3.org/2000/svg" viewBox="0 0 628.38 800"><g transform="translate(-731.4 -949.07) scale(1.7851)"><rect rx="0" ry="0" height="448.14" width="352" y="531.65" x="409.71" fill="#2c56a4"/><path d="M480.06 538.94v8.094h-35.344v-4.031h-35v354.81h35v-4.032h35.344v8.094h41.938v-8.094h7.063v-22.969h2.03l14.126-14.156v-34.594h-13v-203.31h13v-34.594l-14.125-14.156h-2.031v-22.969h-7.063v-8.093H480.06zm-35.344 35.875h21.188l-9.313 9.344v34.594h13.25v203.31h-13.25v34.594l9.313 9.344h-21.188v-5.313H429.81v-280.56h14.906v-5.312z"/><path d="M487.72 546.97v3.563h26.625v-3.563H487.72zm-42.75 8.219v11.469h77.094v-11.47H444.97zm42.75 15.5v4.187h26.625v-4.187H487.72zm-17.125 9l-6.219 9.219v22.53h73.062v-22.53l-6.281-9.22h-60.562zm-6.219 250.88v22.53l6.219 9.22h60.562l6.281-9.22v-22.53h-73.062zm23.344 36.562v4.187h26.625v-4.187H487.72zm-42.75 8.219v11.469h77.094v-11.47H444.97zm42.75 16.125v3.562h26.625v-3.562H487.72z" fill="#763f27"/><path d="M523.22 612.72l-37.875 37.312-37.312-9.813-15.875 13.031v24.656l4.438 3.563-2.657 1.969 2.125 27.688 4.47 4.281 1.968 27.5 6.25 3.75 2.844 28.219 36.625 15.875 29.812.188 7.53 9.625 35.22 3.437 9.781-5.906 100.56 85.656 90.594 32.844v-192.66l-146.38-36.22-31.062-53.561-61.062-21.438z"/><path d="M477.66 619.03v28.969l7.688 2.031 31.469-31H477.66zm46.781 59.125c-4.187 4.993-8.75 7.157-13.719 8.656l7.844 10.375.187 24.812-3.562 3.219 6.406 7.5-.531 21.438 3.375 3.563v-79.562zm-46.781 108v35.781h46.781V786.28l-6.406 4.656-29.812-.187-10.562-4.594z" fill="#fff"/><path d="M524.44 621.76c-1.365.02-2.699.31-3.844.938-3.398 1.863-4.19 6.529-6.562 9.593-3.762 4.86-9.28 8.428-12.125 13.875-.804 1.539-1.281 5.063-1.281 5.063-5.686 4.358-11.377 8.613-16.406 16.906 9.412 9.593 32.899 26.042 43.438-15.906.438.45 2.037-.477 2.343.062 2.387 4.2 8.153 7.946 13.688 9.656-.286 1.63.766 3.247.157 4.688-3.086 7.295-11.373 23.972-3.25 45.25-21.774 28.501-8.094 26.172-10.531 78.125 0 0 8.797 2.1 25.125 1.625 5.157-.15 13.625-7.313 13.625-7.313l109.88 89.125 83.03 25.562V738.95l-144.42-42.55c-11.65-3.43-15.447-6.55-17.937-11.594l-19.68-39.91c-11.226-4.247-34.716-16.302-51.281-22.469a11.066 11.066 0 0 0-3.97-.687z" fill="#fff"/><path d="M485.487 667.76l5.43 2.4c2.377 1.05 2.328-.032 2.904-.759l7.197-9.09c.883-1.117.788-2.35.884-4.042l.379-6.692c1.88.401 3.561 3.482 3.535 7.703-.011 1.846.168 3.254-1.515 5.682l-7.702 11.112c-1.118 1.612-3.118 1.474-4.546.252-3.209-2.745-6.917-5.762-6.566-6.566z"/><path d="M451.22 650.35c-2.488.01-5.032.448-7.156 1.625-2.436 1.35-4.062 3.96-4.281 6.813-.364 4.72-1.088 9.01-.5 13.469.43 3.259 7.218 7.195 10.469 7.687 11.397 1.724 20.559 2.624 30.938 5.125 2.7.65 5.951.211 8.468-1.187-.167-.074-.336-.14-.5-.22-9.036-4.34-14.477-11.34-17.314-16.28l9.406-11.21c-7.227-2.33-18.185-4.746-27.094-5.687a22.162 22.162 0 0 0-2.437-.125zM461.243 686.33c-15.299-2.413-4.195-.7-6.313-.758-2.614-.072-5.841.109-7.83.505-2.275.454-3.043 1.585-4.04 4.546-.963 2.862-1.392 5.724-1.01 8.586.876 6.558 5.113 10.341 10.607 11.364 16.133 3.005 26.174 6.66 42.679 8.082 3.342.288 12.361 1.847 15.152-4.294 1.582-3.481 2.252-6.229 2.525-9.343.34-3.875-2.713-9.14-6.06-10.354-13.23-4.803-30-5.857-45.71-8.334zM456.697 715.62c-2.745-.512-6.727 1.776-7.071 4.293-.475 3.475-.18 7.755.505 11.617.292 1.643.855 3.27 2.02 4.546 1.527 1.67 4.132 3.285 6.566 5.05 1.167.847 3.541 2.173 7.071 2.779 11.864 2.036 24.08 5.236 39.143 8.712 2.937.678 6.254.563 7.576-4.672.951-3.762.945-6.917 1.263-10.102.613-6.128-2.747-8.128-6.313-9.596-14.131-5.819-33.811-9.462-50.76-12.627zM469.324 748.96c-6.6-.79-9.494 2.588-9.596 5.303-.137 3.64.231 7.376.378 11.364.087 2.357 2.325 3.791 7.45 6.44 12.855 6.644 27.04 9.475 42.174 10.733 3.958.329 7.73.063 10.86-4.798 1.42-2.206 2.317-5.824 2.525-9.597.199-3.608-.934-6.355-4.546-7.576-10.376-3.505-26.963-9.205-49.245-11.869z" fill="#fff"/><path d="M508.12 759.23c-1.288-.109-2.423-.056-3.281.125-3.134.66-5.012 3.28-5.906 6.188-.895 2.907-.919 6.186-.282 8.78.455 1.853 1.697 3.265 3.22 4.25 1.52.986 3.333 1.579 5.124 1.97 1.792.39 3.572.555 5.031.562.73.003 1.39-.027 1.938-.094.547-.067.97-.121 1.406-.343 2.635-1.342 4.233-4.54 5.156-7.625.462-1.543.726-3.075.782-4.407.055-1.332-.016-2.441-.688-3.343-2.06-2.766-5.237-4.376-8.25-5.25a22.178 22.178 0 0 0-4.25-.813zm-.219 2a20.11 20.11 0 0 1 3.906.719c2.74.794 5.536 2.272 7.22 4.531.092.125.327.974.28 2.094-.046 1.12-.269 2.509-.687 3.906-.836 2.794-2.483 5.538-4.188 6.406.025-.012-.282.103-.718.156-.436.054-1.027.066-1.688.063-1.32-.006-2.963-.144-4.594-.5s-3.24-.923-4.468-1.719c-1.229-.795-2.065-1.768-2.375-3.031-.54-2.195-.517-5.226.25-7.719.767-2.493 2.151-4.37 4.406-4.844.54-.113 1.497-.155 2.656-.062zM499.25 727.84c-1.176-.128-2.19-.093-2.969.063-3.145.628-5.044 3.241-5.937 6.156-.893 2.915-.919 6.217-.282 8.812.462 1.879 1.812 3.307 3.438 4.344 1.626 1.037 3.568 1.725 5.5 2.188s3.841.7 5.406.75c.783.024 1.48 0 2.063-.063.582-.063 1.035-.098 1.53-.406 2.333-1.452 3.178-4.742 3.563-7.844.193-1.55.215-3.086.125-4.375-.09-1.29-.202-2.277-.75-3.094-1.991-2.971-4.987-4.713-7.78-5.656a18.631 18.631 0 0 0-3.907-.875zm-.25 2a16.46 16.46 0 0 1 3.5.781c2.496.843 5.108 2.379 6.781 4.875.051.076.327.988.406 2.125.08 1.138.052 2.547-.125 3.97-.353 2.843-1.408 5.617-2.625 6.374.103-.064-.235.076-.687.125s-1.07.085-1.781.063c-1.422-.045-3.217-.26-5-.688s-3.557-1.077-4.906-1.937c-1.35-.861-2.26-1.888-2.563-3.125-.539-2.195-.516-5.25.25-7.75s2.152-4.331 4.406-4.782c.447-.089 1.306-.139 2.344-.03zM493.88 693.81c-3.23.645-5.146 3.669-6.125 6.938-.979 3.268-1.118 6.919-.469 9.562.462 1.882 1.81 3.315 3.469 4.344 1.66 1.029 3.663 1.694 5.688 2.125 2.024.43 4.067.618 5.812.594 1.745-.025 3.135-.19 4.156-.75 2.372-1.3 3.642-4.44 4.406-7.47.383-1.514.605-3.031.657-4.312.051-1.28.062-2.27-.532-3.156-2.025-3.023-5.577-5.06-8.937-6.344a27.66 27.66 0 0 0-4.719-1.344c-1.398-.26-2.508-.367-3.406-.187zm.406 1.969c.327-.066 1.36-.049 2.625.187 1.266.236 2.81.652 4.375 1.25 3.13 1.197 6.362 3.118 8 5.563.005.008.232.893.188 2-.045 1.106-.243 2.486-.594 3.875-.701 2.777-2.112 5.51-3.406 6.219-.333.182-1.635.477-3.219.5-1.584.022-3.51-.166-5.375-.563s-3.688-1.023-5.063-1.875c-1.374-.852-2.29-1.89-2.593-3.125-.527-2.146-.432-5.596.437-8.5s2.455-5.097 4.625-5.531zM473.876 659.57c-3.342.023-5.853 2.203-7.062 5.125s-1.298 6.623-.22 10.188c.564 1.86 2.013 3.313 3.782 4.469 1.769 1.155 3.91 2.027 6.062 2.656s4.317 1.025 6.157 1.156c1.772.127 3.158.108 4.25-.437a38.123 38.123 0 0 1-2.594-1.563c-.462.023-.969.04-1.531 0-1.675-.12-3.707-.474-5.72-1.062-2.011-.588-3.997-1.436-5.53-2.438s-2.602-2.163-2.97-3.375c-.955-3.157-.803-6.449.188-8.844.991-2.394 2.669-3.857 5.188-3.875.367-.003 1.165.108 2.125.282l1.5-1.782c-1.527-.34-2.808-.505-3.625-.5z" style="block-progression:tb;text-indent:0;text-transform:none" color="#000"/><path d="M480.56 619.03l.25 29.812 4.531 1.188 31.47-31h-36.25zm94.094 42.25l-52.5 70.531V680.53c-3.552 3.338-7.351 5.048-11.438 6.281l7.844 10.375.187 24.812-3.562 3.219 6.406 7.5-.531 21.438 8.406 8.906-.375 19.844-11.062 8.031-29.812-.187-6.313-2.719.594 73.094 83.031-127.34 65 95.531-1.25-59.094 56.97 30.906-44.657 15.344 97.5 13.562-67.844-104.81 20.188 68.22-86.094-83.032 2.875 45.72-33.562-94.845z" fill="#de0432"/></g></svg>