<?xml version="1.0" encoding="utf-8"?>

<!DOCTYPE svg PUBLIC "-//W3C//DTD SVG 1.1//EN" "http://www.w3.org/Graphics/SVG/1.1/DTD/svg11.dtd">
<svg version="1.1" id="Layer_1" xmlns="http://www.w3.org/2000/svg" xmlns:xlink="http://www.w3.org/1999/xlink" x="0px" y="0px"
	 viewBox="0 0 1534.1041 1675.4673" enable-background="new 0 0 1534.1041 1675.4673" xml:space="preserve">
<g>
	<path d="M965.34,404.1021c1.4224-1.2963,3.0571-2.5871,4.9858-1.6678c3.7762,1.7998,8.0679,0.6005,11.8049,2.3058
		c1.5199,0.6937,3.07,1.0958,3.8837-0.7675c0.6454-1.4782,0.4687-3.0931-1.1215-4.0647c-4.3351-2.6486-1.8586-4.2325,0.8595-5.8214
		c1.3284-0.7766,2.8138-1.4005,3.9142-2.4293c2.8909-2.7034,2.7553-6.3993,1.6682-9.5673c-1.3247-3.86-4.1801-0.69-6.2612-0.4024
		c-6.7794,0.937-13.5193,2.1089-20.118-0.8423c-0.908-0.4061-1.6811-1.0126-1.2763-2.0808c0.1451-0.383,0.9537-0.6739,1.4849-0.7212
		c1.5445-0.1377,3.1235-0.323,4.6506-0.1503c12.4456,1.4073,20.4719-6.8649,29.3141-13.3258
		c1.3943-1.0189,1.8911-2.4424,0.5778-3.9532c-1.7617-2.0267-2.6124-4.2683-1.4832-6.8606
		c1.1577-2.6575,2.4898-4.9479,4.7275-0.6859c0.5853,1.1151,1.6002,2.2482,2.78,1.4597c1.3689-0.9148,0.1761-2.0761-0.3873-3.1569
		c-3.6629-7.0275-3.4559-6.8349,3.2264-12.8528c3.1086-2.7994,5.5272-6.4434,7.9114-9.9412
		c1.6203-2.3773,2.3157-4.5187-1.1705-6.8999c-5.0402-3.4426-4.1686-8.7837,1.2939-11.2328
		c1.6819-0.7541,3.6042-1.5384,5.368-1.4401c6.1846,0.3447,8.6434-3.4156,8.5494-8.4997
		c-0.1389-7.525,4.7007-11.0414,9.9619-14.4567c3.3788-2.1935,7.0709-3.8358,7.764-8.5906c0.3275-2.2469,2.2776-3.618,4.52-4.2651
		c1.1942-0.3445,2.4175-0.5999,3.5905-1.0036c14.6843-5.0536,15.0487-5.052,15.3468-21.1777
		c0.2704-14.6245,1.141-29.1933,2.2805-43.7567c0.9855-12.5939,3.5767-24.5488,14.0721-33.1684
		c0.8905-0.7313,1.1443-2.1924,1.8347-3.2199c5.2584-7.8264,11.6461-14.3399,20.1223-18.8652
		c8.9913-4.8005,16.2485-12.2878,26.0038-16.1463c11.5879-4.5834,23.3689-5.6652,35.4175-3.85
		c3.0425,0.4584,6.0668,1.0722,9.131,1.0402c4.1505-0.0434,7.9982,0.9219,11.66,2.7576c4.9794,2.4963,9.8363,5.3025,15.703,5.1443
		c0.8777-0.0236,1.9812,0.2563,2.6235,0.8098c6.7375,5.8053,15.0088,9.929,20.2079,17.3713
		c2.5139,3.5986,5.0013,7.1629,8.3259,9.9498c6.8993,5.7833,11.4636,13.6344,17.3831,20.2472
		c5.6586,6.3212,8.0518,16.0633,4.4462,25.443c-1.6884,4.3919-2.6201,8.8947-2.3434,13.6448c0.1078,1.8466,0.33,3.987-0.433,5.5331
		c-3.7433,7.5848-3.078,15.6948-3.3435,23.7157c-0.0936,2.831-1.1619,5.2226-2.6078,7.7631
		c-4.1945,7.3689-2.1266,12.732,5.8752,14.4207c8.0243,1.6935,14.9694,5.315,22.235,8.8631
		c14.3511,7.0083,29.231,13.1527,45.1202,15.8496c4.4246,0.751,8.2583,2.4997,12.2928,4.0111
		c16.4669,6.169,33.0011,12.1675,49.3621,18.6058c6.8374,2.6907,13.4049,6.1333,19.9116,9.5805
		c6.2462,3.3092,8.8945,9.9671,10.7773,15.8267c4.0165,12.4991,11.0715,23.4529,16.0886,35.407
		c5.0145,11.9482,9.9521,24.2434,18.0143,34.3996c6.1926,7.8012,11.0844,16.043,12.5789,25.4863
		c1.6235,10.2587,4.3955,20.5268,3.2849,31.1482c-0.3201,3.0604,0.2385,6.0926,0.9154,9.1872
		c2.9144,13.3236,5.3707,26.7337,4.6488,40.5033c-0.177,3.3721,0.1678,6.53,1.8846,9.8361
		c1.9407,3.7369,3.3611,8.2604,3.3094,12.4208c-0.1672,13.5013,4.3694,26.1183,6.623,39.1442
		c0.5814,3.361,1.3604,6.615,1.2297,10.0441c-0.047,1.233-0.3097,2.7374,0.2593,3.6714c6.2135,10.2009,5.3313,22.094,8.1125,33.0977
		c4.2908,16.9752,5.0269,34.1621,4.8053,51.5853c-0.1556,12.2286-2.1625,24.0657-4.8611,35.8179
		c-4.2272,18.4084-8.1429,36.7228-8.6455,55.8044c-0.3719,14.1226-2.1174,28.3298-6.2261,42.0611
		c-1.9055,6.369-1.517,13.0466-0.5242,19.4068c3.0342,19.4366,2.9807,38.7494-0.6766,58.0597
		c-1.2146,6.4123-4.2712,11.2104-10.4456,14.3867c-11.028,5.6729-21.5735,12.0995-30.1512,21.4349
		c-6.2255,6.7754-15.3907,5.6727-23.4913,7.0649c-2.2716,0.3904-3.7684-1.8909-3.975-4.3486
		c-0.1638-1.9481,0.2295-4.382,1.822-5.0261c8.5389-3.4539,5.8518-11.0734,6.4489-17.2164
		c0.6224-6.4045-4.1523-9.4658-10.0406-7.0887c-1.7213,0.6949-3.3746,1.7058-5.1609,2.0634
		c-4.4436,0.8897-5.274,3.7932-4.7013,7.6306c2.4872,16.6608,2.6084,33.2983-0.0858,49.9666
		c-0.5396,3.3383-0.2495,6.8282-0.1758,10.2448c0.302,13.9838-2.3832,27.7267-3.2809,41.58
		c-0.9845,15.1926-3.4194,30.0839-6.265,44.9267c-2.8995,15.1243-5.2515,30.4716-12.1948,44.5232
		c-0.5454,1.104-1.1582,2.3191-1.2042,3.5032c-0.5425,13.9758-6.1782,26.8405-8.6888,40.3794
		c-0.165,0.8904-0.2579,2.0056,0.126,2.7543c4.897,9.5463,2.7283,19.0186-0.0133,28.5566c-0.4023,1.4001-0.274,3.2061,0.2544,4.5751
		c1.8654,4.8335,1.561,9.83,1.1547,14.7461c-0.4043,4.8936,2.1852,8.9912,2.7827,13.5524c0.6047,4.6165-4.9983,6.6299-4.707,11.6831
		c0.6901,11.972-0.9396,24.2363,1.0022,35.9457c4.3163,26.0276,3.6639,51.6862-0.0637,77.6924
		c-4.3741,30.5173-14.0483,59.5792-22.0702,89.1199c-3.0773,11.3319-5.2687,22.9012-8.1367,34.2936
		c-4.5979,18.2645-11.2164,35.9539-14.2656,54.6953c-1.7565,10.7955,0.3209,20.0693,5.5078,29.2045
		c6.5605,11.5543,16.8549,19.786,25.7456,29.2675c1.2745,1.3591,2.8229,2.4745,4.0165,3.8944
		c10.1166,12.0349,23.4193,17.7698,38.636,20.071c9.157,1.3848,11.1584,4.7101,9.375,14.0804
		c-0.2318,1.2178-0.2693,2.4713-0.4528,3.6998c-0.6051,4.0519-2.486,5.5239-6.9918,5.1825
		c-9.2831-0.7035-18.7648-1.5864-27.9303-0.4706c-19.9071,2.4236-39.6785-1.1241-59.5094-0.1626
		c-3.6959,0.1791-7.7067,0.3199-11.0948-0.8749c-8.4075-2.965-17.0388-2.433-25.6348-2.814
		c-2.1732-0.0964-4.3616,0.0735-6.5284-0.0813c-3.6041-0.2577-8.3135,1.3215-10.2705-2.5399
		c-2.3029-4.5437-4.7697-9.6268-2.692-15.0812c3.8444-10.0924,6.4442-20.6798,11.4332-30.2957
		c1.7936-3.4569,2.3251-7.2421,2.5938-10.6259c0.7104-8.9504,2.1781-17.8119,2.4579-26.8401
		c0.8391-27.0791-2.1044-54.0342-2.0476-81.058c0.0306-14.6285-1.4742-29.1447-1.9642-43.7281
		c-0.4578-13.6198-4.8613-26.7393-7.6564-40.0576c-1.8945-9.0269-6.4253-17.6278-5.0328-27.2139
		c2.1918-15.089,1.3713-30.4314,3.964-45.4747c0.3667-2.1271,1.0454-4.1078,0.334-6.3713
		c-1.1553-3.6759,0.1171-6.8102,3.1971-9.0017c3.3551-2.3872,2.756-4.8711,2.2555-8.714
		c-1.1139-8.554-3.5273-17.4033-3.0886-25.6016c0.8285-15.4877-4.464-29.7277-5.7509-44.6698
		c-0.9292-10.787-4.7316-21.6566-3.8307-32.1969c1.5044-17.6007-1.2091-35.3884,2.7482-52.8059
		c0.1991-0.8752,0.1909-1.8354,0.0906-2.7352c-2.1946-19.6797-2.9216-39.5233-7.757-58.8976
		c-2.3387-9.3706-6.0819-18.1805-9.4753-27.093c-4.6475-12.2059-7.8917-24.7175-10.7318-37.3896
		c-0.3274-1.4607-0.0157-3.473-1.9248-3.7288c-2.1641-0.2901-3.2125,1.451-3.7102,3.3383
		c-1.1792,4.4705-2.9738,8.9155-3.2675,13.4518c-0.4932,7.6192-3.3774,14.3586-5.7668,21.4014
		c-3.5659,10.5105-5.4836,21.5752-10.4722,31.6199c-1.4751,2.9702-1.0286,6.0978-0.9984,9.1638
		c0.1276,13.0258,0.1647,26.0221-3.4452,38.7234c-0.6813,2.3967-0.5704,4.9253,0.349,7.3326
		c1.3741,3.598,1.2098,7.2994,0.7172,11.0189c-0.0403,0.3042-0.3379,0.67-0.2416,0.8828
		c5.5907,12.3434-1.4025,23.6899-2.8048,35.4727c-0.226,1.8984,0.0962,3.6332,0.6427,5.4658
		c0.5145,1.7257,0.4365,3.6473,0.4921,5.4867c0.137,4.5354-6.1086,6.9934-4.4413,11.6218
		c1.6107,4.4714,0.5763,8.2603-0.1439,12.5962c-0.9163,5.5161,0.4154,11.5443-1.6013,16.8507
		c-2.2892,6.0233-1.12,12.8339-4.7573,18.4396c-0.6582,1.0146-1.639,2.4249-1.3759,3.3362
		c2.0483,7.0914-2.7203,11.6505-5.9756,16.7343c-6.3158,9.8628-8.6741,20.5353-9.0471,32.2874
		c-0.4354,13.7126,2.4203,27.1107,2.0439,40.8293c-0.3514,12.8141-2.0083,25.2813-4.4756,37.7511
		c-3.178,16.0626-6.2472,32.088-7.3149,48.5331c-0.9392,14.4648-3.299,28.8717-6.3854,43.0889
		c-4.5066,20.7607-5.1658,41.7888-4.4562,62.9006c0.167,4.9702,1.887,9.6831,4.036,14.175
		c3.3766,7.058,5.3188,13.8983,3.7438,22.2502c-1.5859,8.4108-0.266,17.3525-0.4237,26.0579
		c-0.0612,3.3799,1.7729,4.9508,4.4091,6.3721c3.0366,1.6372,6.1123,3.6169,6.4756,7.4259
		c0.5845,6.1282,3.1208,12.1962,1.1807,18.4202c-1.0415,3.3409-4.3206,4.3352-7.2577,5.1744
		c-1.7104,0.4888-3.8274,0.472-5.5272-0.0621c-15.6763-4.9263-31.3518-2.2035-47.0028-0.0997
		c-8.7754,1.1793-17.2198-1.6085-25.8865-1.6891c-2.901-0.0269-4.954-2.4833-6.9111-4.4578
		c-2.4865-2.5082-0.8528-5.1017,0.0342-7.7557c0.5782-1.7294,0.4686-3.6803,0.7466-5.52
		c0.9193-6.0848,3.2716-10.9211,9.4636-13.6489c4.8971-2.1575,7.2869-7.4323,11.167-10.9431
		c1.9711-1.7837,1.5181-4.1029,0.8995-6.0837c-2.4971-7.9971-1.2726-15.8379-0.2368-23.9276
		c1.2981-10.1396,1.0803-20.4216-0.2727-30.6667c-4.7565-36.0132-13.6057-71.16-22.3958-106.3083
		c-6.4946-25.9707-10.1013-52.3777-11.7228-78.9889c-0.9414-15.4513-0.0162-31.0599,4.1801-46.2056
		c0.2426-0.8755,1.0353-1.8842,0.8-2.5637c-3.8263-11.0521,2.4719-20.4398,4.7529-30.5089
		c1.3336-5.8862,3.0776-11.709,1.5499-18.0959c-1.1968-5.0043-1.4203-10.1891,2.1394-15.1455
		c2.5764-3.5874,1.4393-8.4852,0.3669-12.6584c-1.182-4.6003-0.8896-8.5765,2.4917-12.0881
		c0.4294-0.446,1.2113-1.0156,1.1436-1.4103c-1.7064-9.9487,5.993-18.6514,3.5502-28.834
		c-1.4077-5.8678-3.1473-12.0259,0.5775-18.0273c1.4066-2.2664-0.3527-4.7986-1.157-7.1267
		c-2.3943-6.9303-2.7062-13.8925-1.0289-21.0931c2.1449-9.2085,1.2489-18.6161,0.429-27.8629
		c-1.1224-12.6559-2.2703-25.3474-5.2434-37.7762c-0.9348-3.9076-1.2013-7.9244-1.4174-11.9841
		c-0.675-12.688-1.8613-25.3491-2.8618-38.0195c-0.1212-1.5345-0.6448-3.1115-0.4258-4.5864
		c1.2911-8.6908,0.257-17.2506-0.9474-25.8527c-2.9648-21.1765-4.0013-42.4724-3.7744-63.8509
		c0.1027-9.6831-4.5355-13.8064-13.9121-11.5676c-4.8348,1.1544-9.8239,0.9657-14.583,2.6549
		c-3.175,1.127-6.6945,0.6941-10.0386-0.5789c-9.7561-3.7135-16.6272-10.5573-21.4788-19.5705
		c-2.6347-4.8944,0.379-8.8788,3.5925-11.4656c7.2361-5.8248,9.1312-14.5129,12.6047-22.1653
		c2.9006-6.3906,0.9343-13.3608-2.7481-19.5801c-6.02-10.1677-11.0523-20.8121-14.8676-32.0211
		c-0.9017-2.6488-1.9906-5.1862-1.939-8.0838c0.0554-3.1217,1.1271-5.494,4.2193-6.502c8.6818-2.8302,15.3653-9.274,23.5855-12.952
		c3.5454-1.5864,5.778-4.5775,7.41-8.068c7.4006-15.8281,12.5099-32.3377,15.2971-49.605
		c1.9775-12.2494,4.9436-24.3312,6.0029-36.7432c0.2332-2.7311,1.0299-5.5766,2.2455-8.0339
		c5.8535-11.834,7.4617-24.7286,10.4633-37.3622c3.3278-14.0064-1.6299-25.5397-6.7556-37.48
		c-0.9896-2.3056-2.4839-4.3413-5.4427-4.4225c-3.5695-0.0981-4.7344,2.5406-5.6926,5.1808
		c-2.0431,5.6285-4.8804,10.7273-9.3485,14.7848c-2.2513,2.0443-3.4248,4.5277-2.7816,7.4669
		c1.6901,7.7239-2.2046,14.1122-5.8217,19.9014c-8.6266,13.8077-17.4409,27.4221-22.8394,42.9257
		c-0.5972,1.7153-1.6654,3.3467-2.8134,4.7776c-11.7073,14.5914-20.2242,30.6445-25.869,48.6664
		c-3.0357,9.6923-8.3719,18.7073-17.46,25.5981c-7.1625,5.4307-11.7141,14.2988-18.0143,21.1875
		c-6.6912,7.3162-12.7832,15.1778-19.4116,22.5544c-11.5779,12.8848-12.7351,32.4884-2.7688,46.8768
		c7.4059,10.692,14.5172,21.6252,18.7048,34.0607c2.2678,6.7344,4.2188,13.6255,5.6409,20.5833
		c2.4592,12.0323,1.7967,23.4142-7.956,32.7169c-4.8876,4.6619-6.2674,10.2054-2.5656,16.6765
		c1.4599,2.5522,2.7153,5.55,2.4517,8.8596c-0.4069,5.1105-3.5737,7.2906-8.2531,5.2806c-3.2304-1.3876-5.3768-3.9038-7.3719-6.8416
		c-3.6367-5.3548-7.3312-5.2383-10.09,0.3698c-1.9481,3.9603-4.461,6.1526-8.8167,7.3211
		c-6.6123,1.7739-10.4647,7.5571-14.9493,12.2225c-14.9582,15.5604-31.7126,28.5583-51.451,37.6213
		c-8.1635,3.7482-15.9674,8.2769-23.9579,12.4058c-4.4664,2.308-6.8798,5.8191-7.7183,10.8695
		c-1.5248,9.1851-4.1204,18.0692-7.3369,26.8707c-3.5114,9.6089-1.0626,19.5107,1.3523,29.0623
		c0.9266,3.6648,1.4564,6.9724,1.0541,10.8528c-0.8268,7.9774,1.5212,15.8502,2.4113,23.7756
		c0.5236,4.6624,1.6696,9.3616,0.2767,13.8438c-1.6735,5.3844-1.103,10.3625,0.7636,15.4272
		c3.1753,8.6149,4.8044,17.2612,1.9044,26.4139c-0.7972,2.5161-0.6371,5.7384,0.1757,8.2886
		c2.7296,8.5649,1.1384,18.1002,5.9984,26.1405c-2.8068,8.922,1.6566,13.8789,8.7501,18.5554
		c2.8346,1.8688,3.077,7.3011,5.2543,10.6155c4.0908,6.2272,8.7227,12.0997,13.1467,18.1069c1.29,1.7517,2.9871,3.2953,3.8987,5.218
		c3.8483,8.1176,9.824,13.51,18.7444,15.3041c5.6985,1.1459,6.2624,5.9213,6.3381,10.0819
		c0.1588,8.7356,1.7845,17.3138,2.1684,25.9778c0.3832,8.6449,2.6346,17.1074,1.3304,25.9469
		c-5.3946,36.5602-18.1578,70.1725-39.3091,100.5179c-5.5128,7.9089-11.0104,15.7983-15.762,24.2137
		c-5.1797,9.1738-4.7034,17.4039,1.9704,25.8358c8.8988,11.2421,16.3311,23.4446,20.7781,37.2433
		c2.3687,7.35,0.9897,12.338-4.6258,16.507c-5.2668,3.9102-10.1948,4.0668-15.4273,0.0897
		c-2.4547-1.8656-4.5232-4.2446-6.7363-6.4219c-13.0659-12.8546-26.1355-25.7107-38.0781-39.6384
		c-2.8237-3.293-5.3997-6.8228-7.8469-10.4091c-5.2463-7.6882-5.8183-15.5885-0.4117-23.4811
		c2.1581-3.1503,3.7538-6.4529,3.72-10.3424c-0.028-3.2107,1.1636-6.0697,2.3465-8.9497c0.9435-2.2971,2.395-4.5468,2.675-6.9287
		c1.6686-14.1886,6.7616-27.7238,7.8174-42.025c0.4969-6.7314,4.424-12.2614,7.5101-17.9011
		c2.2527-4.1166,3.4719-8.5967,5.6819-12.6047c3.243-5.8817,0.9332-10.6926-3.1031-14.1642
		c-7.965-6.8511-14.189-15.5254-23.5889-20.964c-6.0297-3.4889-12.2913-5.8394-18.7593-8.0037
		c-3.2922-1.1017-5.1374,0.15-6.5781,3.2053c-5.3282,11.2992-7.548,22.802-3.7889,35.1218
		c1.798,5.8925,0.9526,11.7924-2.819,16.7579c-2.5353,3.3381-2.9202,6.4547-1.7976,10.4025
		c1.2959,4.5566,0.6371,9.1918-0.7968,13.7694c-1.3886,4.4326-2.5257,8.97-3.384,13.5345
		c-0.7044,3.7454-1.2343,7.2286-5.0927,9.3423c-2.7386,1.5005-2.6168,4.6796-3.1805,7.4205
		c-3.6193,17.5991-2.6649,35.364-0.942,52.9681c1.059,10.8197-0.1017,21.8009,2.6047,32.4797
		c1.7535,6.9186,3.3487,13.8816,4.8349,20.8629c2.3387,10.9855,8.8817,18.9377,17.7401,25.3422
		c3.268,2.3628,6.6389,4.6675,9.5348,7.4447c8.2054,7.869,4.6078,22.7029-6.3405,26.0718
		c-3.6695,1.1292-7.2945,1.7168-8.0466,6.3982c-0.1221,0.7605-1.118,1.9191-1.7821,1.9709
		c-6.8665,0.5358-7.6909,7.2885-11.4988,10.9349c-2.3005,2.2028-3.7088,4.6232-4.4197,7.9001
		c-1.4723,6.7869-4.891,9.2856-11.7085,9.6342c-8.1683,0.418-16.0856-1.4625-23.9644-3.1077
		c-6.3042-1.3162-10.6787-7.847-8.3136-14.4172c3.0685-8.5244,1.3002-16.1495-0.0229-24.4771
		c-1.4935-9.3997-1.7173-19.3429,4.991-27.619c1.208-1.4902,2.4701-3.2258,1.5292-5.0665
		c-4.2103-8.2362-3.7705-17.5388-6.2445-26.1953c-4.7839-16.7391-11.6915-32.7686-15.981-49.6722
		c-1.9951-7.8623-3.5409-15.7708-4.657-23.7667c-0.7333-5.2533-0.7625-10.6893,0.9036-15.7363
		c2.4048-7.2845,2.1487-14.6847,2.2433-22.1422c0.0722-5.692-0.0934-11.14-4.2032-15.7333
		c-1.927-2.1538-2.1968-5.1256-2.5505-7.8911c-1.8963-14.8274-6.945-28.9377-10.2051-43.4539
		c-1.496-6.6608-3.8849-13.7156-7.1537-19.9166c-6.5201-12.3689-7.2356-26.2107-11.101-39.2283
		c-1.2242-4.1229-1.4857-8.4691-0.4423-12.879c1.7675-7.4702-1.9027-14.5996-1.8082-22.03
		c0.0652-5.1244,0.106-10.1012,5.5746-12.5604c3.0869-1.3881,1.8264-3.7257,1.3918-5.4958
		c-1.9946-8.1249-3.4563-16.5344-6.7232-24.1494c-3.217-7.4988-3.8109-14.9331-3.5779-22.7307
		c0.1486-4.9697,0.6147-9.9055-3.4602-13.9789c-1.7275-1.7271-2.5718-4.454-2.1177-6.9673
		c1.4489-8.0168-0.2323-16.1289,0.9683-24.1395c0.8346-5.5688,1.6098-11.4148-0.2363-16.6672
		c-4.6852-13.3312-4.1767-26.9044-2.644-40.463c1.2956-11.4617-1.2509-22.1697-4.5478-32.8418
		c-1.7366-5.6216-4.1203-11.0404-5.9796-16.6281c-1.3897-4.1766-4.0726-6.1823-8.3887-5.6505
		c-7.8793,0.9707-15.475-0.6541-23.074-2.2841c-4.5848-0.9834-9.2192-1.5977-13.8867-1.444
		c-10.179,0.3353-19.7487-2.3217-28.962-6.1282c-13.8898-5.7385-23.8829-15.2532-27.9802-30.2845
		c-1.7088-6.2692-4.0223-12.3895-6.334-18.4734c-1.7871-4.7036-2.6543-9.5163-3.1786-14.4896
		c-1.6914-16.0443-2.8431-32.0764-1.1805-48.2103c0.6883-6.6784-0.1128-12.8878-5.7803-17.7963
		c-3.4644-3.0002-4.0916-7.5037-3.8431-12.0405c0.2622-4.7899,1.5544-9.4514,4.3575-13.1156
		c5.2594-6.8747,5.3128-14.0129,3.2477-21.879c-2.369-9.024-3.453-18.2763-4.1219-27.5995
		c-0.519-7.2338-0.491-14.3346,2.5554-21.0267c1.923-4.2243,0.4551-7.9197-1.1469-11.6124
		c-2.8569-6.5852-6.8453-12.5462-10.7502-18.5333c-18.6849-28.649-37.2998-57.3478-52.7952-87.9
		c-7.8626-15.5027-15.2787-31.2318-22.8967-46.8586c-0.1975-0.0683-0.3951-0.1366-0.5926-0.2049
		c0.2773-0.0068,0.5547-0.0137,0.832-0.0205c-2.2711,7.2126,0.3998,14.1232,1.3487,21.1239
		c1.7929,13.2256,3.7447,26.4214,7.0085,39.3965c2.5252,10.0391,6.3354,19.4764,12.0662,28.1136
		c7.5727,11.4131,11.0353,24.2267,12.6655,37.6223c0.8627,7.0894,1.4005,14.2178,2.1296,21.324
		c0.3515,3.426,1.0317,6.7536,3.2364,9.577c3.2986,4.2246,4.228,8.9484,2.599,14.0565
		c-4.1002,12.8579-3.7156,24.5974,3.5417,37.0245c6.235,10.6762,6.5088,23.8131,7.1568,36.2614
		c0.2584,4.9633,0.1423,9.9514,0.05,14.9254c-0.0628,3.3912,0.1112,6.2534,4.76,5.8783c3.8935-0.3141,4.8383,2.0721,4.1388,5.3693
		c-1.1595,5.4651-2.0651,11.0265-3.7676,16.3256c-3.7967,11.8169-3.8513,23.8659-2.6896,35.965
		c0.3365,3.5046,0.3313,6.9091-0.6002,10.1275c-2.292,7.9189-1.6492,15.9692-1.8842,24.0125
		c-0.5608,19.2017-1.4523,38.3707-3.4669,57.5117c-0.9643,9.1614,0.1129,18.5723,0.66,27.8469
		c0.419,7.1039,1.5215,14.1654,2.1676,21.2598c0.1369,1.5027-0.3746,3.0679-0.6098,4.6008
		c-0.7826,5.1008-0.4578,9.8375,3.36,13.9296c2.1643,2.3198,3.1477,5.1082,2.2039,8.5739
		c-1.6628,6.1051-1.1517,12.5135-0.1855,18.5364c2.5058,15.6212,1.8031,31.5215,5.015,47.0869
		c5.5054,26.679,4.6038,53.7859,3.8882,80.7855c-0.5016,18.9277-2.3456,37.8159-3.1234,56.741
		c-0.9299,22.6252-3.7357,45.1108-4.4826,67.7565c-0.3884,11.7783-2.0936,23.5083-1.5492,35.3522
		c0.3862,8.4032,1.6845,16.6488,3.6552,24.8052c0.9728,4.0261,3.0299,7.4592,5.8639,10.4437
		c11.2656,11.8632,25.1741,20.047,39.1907,28.0642c2.4384,1.3948,5.0265,2.0577,8.0142,1.6597
		c3.0453-0.4054,6.3544-0.5575,9.1675,0.9299c4.6631,2.4657,8.9711,2.3884,12.961-1.0806c3.0884-2.6854,6.6036-0.5697,9.8452-0.8872
		c5.0249-0.4922,10.3002,0.6514,14.9477,3.0804c4.992,2.609,6.2836,6.4949,2.4865,10.4854
		c-5.3743,5.6475-7.6323,14.683-16.8998,16.2947c-0.2756,0.048-0.56,0.3013-0.7532,0.532
		c-10.6964,12.7809-25.2263,13.5293-40.0936,12.3031c-14.4564-1.1924-28.3592,1.0236-42.2246,4.7645
		c-13.2567,3.5769-26.7899,5.1351-40.5731,4.5078c-4.4199-0.2012-8.6772-0.91-12.7603-2.4004
		c-6.1759-2.254-8.8997-6.2405-8.505-12.8898c0.2563-4.318,0.9325-8.6909,2.0667-12.8634
		c5.7545-21.1699,3.5813-42.649,2.2072-63.9827c-1.5005-23.2975-7.6521-45.9222-12.3339-68.7014
		c-6.1935-30.1333-9.4496-60.8126-16.5157-90.7092c-7.3817-31.2311-7.982-62.7401-7.6543-94.4598
		c0.1377-13.325,1.2641-26.6331-2.0003-39.8922c-2.4561-9.9763-6.2065-19.4833-9.2895-29.2147
		c-5.4718-17.2715-8.6976-34.899-11.0782-52.7919c-3.7778-28.3943-11.1099-55.8832-22.2325-82.3129
		c-2.8163-6.6923-9.5215-10.5057-18.5045-8.8804c-8.9215,1.6141-17.2457,0.2495-25.7501-1.7607
		c-8.9362-2.1122-9.9398-1.3849-11.3647,7.8885c-0.8002,5.208-1.4648,10.4507-1.8658,15.7026
		c-0.544,7.1246-0.651,14.2311-4.0692,20.8602c-1.8808,3.6476-1.6841,8.0435-1.2816,11.9279
		c0.5848,5.6444-0.3714,11.0986-0.4563,16.6343c-0.0976,6.3672-1.0149,12.3024-4.6577,17.7036
		c-1.5598,2.3129-2.7094,5.0123-2.6406,7.8672c0.2135,8.8503-4.3953,17.6433-0.216,26.5861
		c0.5619,1.2025,0.178,3.1647-0.3803,4.5232c-4.8204,11.7283-5.717,23.8281-3.7917,36.2452
		c0.3034,1.9569-0.0458,3.9426-1.6821,5.0546c-3.9592,2.6909-3.5152,5.9785-2.1148,9.8296c0.602,1.6555,1.0492,4.5475,0.1634,5.3748
		c-6.3199,5.901,0.3324,14.7805-5.0666,20.7244c-1.2744,1.4031-2.3652,3.0155-2.2706,4.9764
		c0.5346,11.0861-4.4052,22.1161-0.3342,33.2473c0.3058,0.8361,0.3565,1.9032,0.1454,2.7703
		c-4.6752,19.2102,0.4474,38.3666,0.8166,57.5115c0.2926,15.1718,1.0317,30.3988,1.3851,45.6152
		c0.4279,18.4288-1.5503,36.6346-4.5079,54.7455c-2.6462,16.2039-1.3385,32.2303,1.3261,48.2299
		c0.7049,4.2324,1.5835,8.4874,5.7769,11.2054c3.268,2.1182,5.112,5.7671,5.5202,9.4291
		c0.8436,7.5682,4.8591,14.9343,1.6358,22.8376c-1.0191,2.4985,0.1612,4.91,1.3085,7.1309
		c5.8158,11.2594,12.9111,21.8131,25.2527,26.2314c10.5287,3.7695,14.171,12.5255,18.3218,21.028
		c2.7193,5.5701,0.4716,10.3483-5.4142,12.8646c-16.8618,7.2087-34.3277,10.424-52.6341,6.8754
		c-0.6103-0.1183-1.3402-0.0603-1.8132-0.3811c-10.1964-6.9148-22.1904-4.7225-33.3734-6.6023
		c-1.8312-0.3077-3.7185-0.2834-5.5803-0.4066c-14.8195-0.9807-13.1864-8.941-9.2444-17.6383
		c0.5104-1.1262,1.1167-2.2588,1.9016-3.2029c7.5268-9.0503,5.085-18.3679-0.6955-26.5303
		c-5.0195-7.0876-6.2055-13.6232-3.5573-21.746c5.3841-16.5156,2.7154-33.1025-0.8116-49.5409
		c-2.2828-10.6393-5.4722-21.0333-9.3426-31.2238c-5.7642-15.1771-8.5003-31.1531-11.812-46.9456
		c-4.3977-20.9717-7.5448-42.1703-10.7839-63.355c-4.5427-29.7104-4.5536-59.3933-1.4653-89.2224
		c2.1422-20.6912,3.7105-41.439,4.1993-62.266c0.1659-7.0697,1.4892-14.1494,2.7187-21.1481
		c1.7817-10.1418,3.2638-20.2054,1.3083-30.533c-0.5636-2.9764-0.2337-6.2424,0.2711-9.2784
		c1.5049-9.052-0.327-17.9735-0.6103-26.9537c-0.1361-4.3164-2.4883-6.0889-6.2719-6.6753
		c-6.1246-0.9492-12.239-2.3583-18.3967-2.606c-8.8771-0.3572-14.771-4.8369-18.1921-12.3605
		c-2.6403-5.8064-6.9787-9.1414-12.159-12.2533c-6.6445-3.9912-12.932-8.5809-19.3344-12.9695
		c-4.5174-3.0966-7.3405-7.5399-9.4196-12.4771c-3.754-8.9143-8.8035-16.881-15.1739-24.2674
		c-4.3748-5.0726-9.1902-6.7697-15.46-6.7026c-10.686,0.1143-12.3835-1.3926-13.3763-11.962
		c-0.3786-4.0309-1.0905-7.9719-1.6735-11.9554c-2.1379-14.6061-1.8274-29.0559,4.1496-42.8992
		c0.8949-2.0727,0.9844-4.1127,0.9502-6.3362c-0.2795-18.1767,3.3816-34.9893,16.2458-48.9364
		c3.7239-4.0374,6.3461-8.9247,7.6827-14.666c1.8494-7.944,7.7773-14.0328,11.55-21.1616
		c8.5914-16.234,16.3473-32.6028,21.3394-50.4634c4.1633-14.8953,10.7682-29.1083,16.2932-43.6229
		c0.8816-2.3163,2.3581-4.5817,2.5525-6.9531c0.7673-9.3596,4.2931-18.0737,6.0284-27.212
		c1.4135-7.4434,1.9717-14.8359,1.3345-22.2425c-1.4373-16.7074-1.9876-33.5166-4.9348-50.0668
		c-1.178-6.6152,0.5779-12.9648,1.0977-19.4233c0.2838-3.5259-0.4126-5.4454-3.6617-8.0847
		c-7.7157-6.2675-13.8592-14.2519-15.3052-24.7182c-4.2477-30.7455-11.2004-61.1727-10.9999-92.4443
		c0.0757-11.8152,0.2482-23.63,0.4206-35.4444c0.052-3.5627-0.1731-7.2776-3.8238-8.8365
		c-9.2209-3.9375-12.1294-12.8126-16.6464-20.4391c-1.2536-2.1165-1.7041-4.7891-3.2-6.6674
		c-5.1512-6.4679-4.8084-12.8957-1.2234-19.965c5.4561-10.759,11.206-21.3481,15.3388-32.8066
		c2.0377-5.6496,6.5798-10.5047,10.4289-15.3711c10.2411-12.9481,22.0566-24.4037,34.3959-35.3307
		c1.3937-1.2341,3.0486-3.1351,4.8021-1.9182c5.0563,3.5089,11.1191,0.7378,16.2343,3.028
		c3.6468,1.6328,5.4182-0.0412,6.0461-3.2528c0.9751-4.9876,2.4971-9.079,7.0976-12.392c3.072-2.2123-0.3527-5.4966-2.8252-6.053
		c-7.5889-1.7076-10.3961-8.4316-15.0464-13.2104c-0.8473-0.8707-1.743-1.9938-1.9645-3.1277
		c-2.2504-11.5192-5.7141-22.9521-3.0257-34.8988c0.5667-2.518,1.5581-4.9988,4.278-5.6122c3.7271-0.8406,5.0475-3.442,5.519-6.6519
		c1.3553-9.2256,3.281-18.3161-3.9201-26.617c-5.3492-6.1663-3.5278-15.3613,3.9992-18.9148
		c8.4076-3.9692,11.6907-10.5246,13.1063-18.8417c2.1107-12.4012,5.9378-24.0757,14.1683-33.9221
		c0.5932-0.7096,1.3485-1.511,1.4717-2.3513c1.489-10.1583,8.7136-17.6433,12.3975-26.7803
		c3.1015-7.6928,8.3764-14.0037,15.1149-18.5729c6.8855-4.6689,13.9392-9.1925,22.2261-11.5203
		c8.2987-2.3311,15.7958-6.8155,24.329-8.9402c13.2272-3.2935,25.6968-4.146,37.3317,4.4587
		c1.4639,1.0827,3.2823,2.0723,5.0429,2.3075c17.2244,2.3011,27.9229,13.3222,36.7082,27.0381
		c3.0287,4.7285,6.7694,8.9019,11.0031,12.5692c2.3984,2.0775,4.4919,4.3477,5.8225,7.1854
		c3.5541,7.5795,7.049,15.189,10.4226,22.8504c2.3446,5.3244,1.3724,10.5382-1.9089,15.0362
		c-7.3033,10.0114-4.3054,20.6868-2.563,31.3394c0.3342,2.0432,1.9703,2.9726,3.3268,4.258
		c11.3621,10.7667,9.5049,30.0979-4.5102,37.727c-6.1412,3.343-8.4738,7.6443-9.5242,13.6373
		c-2.4876,14.193-7.1354,27.6234-14.0187,40.2822c-3.1332,5.7623-3.9623,11.4905-1.1538,17.8354
		c2.3765,5.3688,3.8694,11.1356,5.6504,16.7588c1.1867,3.7466,3.1496,6.3907,7.1066,7.9001
		c13.0087,4.9621,25.1813,12.1524,39.4316,13.7431c4.9421,0.5517,9.4612,2.9932,13.3343,6.3077
		c11.6803,9.9957,22.0923,20.674,26.2813,36.3466c3.9194,14.6639,9.2928,28.8784,17.4281,41.9126
		c2.5204,4.0381,3.3238,8.6943,1.0485,13.3856c-2.662,5.4888-2.0941,12.311-7.3166,16.8225
		c-1.6648,1.4381-0.8325,4.1496-0.9307,6.2943c-0.8882,19.3883,1.194,38.4402,6.3237,57.1774
		c5.0789,18.5513,9.8286,37.1943,15.0538,55.7035c3.1263,11.0744,7.381,21.7455,13.8986,31.373
		c0.865,1.2777,1.6719,2.6785,2.1226,4.1403c5.1364,16.6592,14.5365,31.6064,19.6825,48.2007
		c6.2481,20.1481,12.0074,40.4767,15.9027,61.244c3.9569,21.0956,9.473,41.779,15.9549,62.2071
		c6.379,20.1038,12.597,40.2294,17.5361,60.7623c2.9684,12.3401,7.722,23.994,15.4063,34.5021
		c4.5944,6.2828,5.5386,14.359,5.9382,22.1855c0.0631,1.2354-0.2519,2.4962-0.1391,3.722
		c1.488,16.1676,1.5857,32.1331-5.3683,47.3882c-1.3035,2.8596-0.5372,6.0989,0.9439,9.0201
		c3.2653,6.4395,4.7622,13.3519,5.793,20.4725c1.2578,8.6882,6.0201,11.34,13.6931,7.5894
		c4.7871-2.3399,9.774-3.9011,14.7781-5.5572c5.0136-1.6595,10.4907-3.0734,14.1445-6.834
		c4.9924-5.1384,10.7991-6.7128,17.517-7.1841c11.1776-0.7841,22.2319-2.4725,32.8-6.4272
		c7.5032-2.8077,7.8414-3.7755,4.2951-10.6536c-0.1422-0.2758-0.4081-0.5128-0.472-0.7999
		c-3.6715-16.4944-17.3898-27.7213-22.6426-43.4629c-5.2169-15.6335-7.5756-31.1518-1.3164-46.9995
		c0.7941-2.0106,1.9822-3.8391,1.8076-6.164c-0.4755-6.3301,2.5609-11.5162,6.0932-16.2439
		c5.6061-7.5033,9.8757-15.1965,11.3605-24.829c1.8726-12.1486,14.6006-19.0103,26.0587-14.7777
		c5.3677,1.9828,10.3847,1.6737,15.4754,0.0566c9.6735-3.073,19.5516-1.2352,29.3347-1.4601
		c1.8262-0.042,3.6462,0.3148,5.4845-0.2012c4.7872-1.3436,9.2588,0.0582,13.5968,1.8606c6.84,2.8421,13.6418,5.782,20.3902,8.8343
		c1.6594,0.7506,3.4052,1.8153,4.5084,3.2119c9.7184,12.3015,22.3141,21.9666,30.4493,35.916
		c4.681,8.0262,6.4044,15.9127,6.5992,24.5072c0.0931,4.1079,0.9578,8.7662-2.5493,12.3707
		c-0.531,0.5458-0.4692,1.7712-0.4974,2.688c-0.6264,20.2701-6.4095,39.7128-9.5247,59.5822
		c-0.8199,5.2297-3.4034,9.9367-4.0481,15.2685c-0.7988,6.608-0.7291,7.1696,5.7776,8.7177
		c4.8317,1.1496,9.8085,1.8622,14.4837,3.462c10.1401,3.4697,18.6881,3.1055,27.8734-4.2633
		c6.9333-5.5623,12.3566-12.9576,20.4242-17.1533c1.8792-0.9773,3.2891-2.8157,5.0607-4.0483
		c5.7209-3.9794,5.7143-3.9323,3.5828-11.3098c-0.3308-1.1446-0.6113-2.5754-0.2213-3.613
		c2.7758-7.3824,1.7413-15.3074,3.589-22.8992c2.7684-11.3755,4.1359-23.0692,7.2414-34.4315
		c1.1091-4.0579,1.0507-8.8287,0.1218-12.9586c-1.4474-6.4345,0.1158-12.8635-1.1282-19.3003
		c-0.8819-4.5638,1.6227-9.0627,3.4269-13.3459c7.8462-18.6266,13.2862-37.9108,16.917-57.8047
		c2.1611-11.8411,4.5373-23.7806,11.1175-34.2659c1.7492-2.7872,1.5221-5.9313,1.7179-9.0339
		c0.5811-9.2064,4.2865-16.7352,12.2894-21.7454c1.0196-0.6382,2.5954-0.756,2.8329-2.0893
		c2.0878-11.7243,13.261-19.6692,13.2205-32.3753c-0.015-4.7009,3.6645-8.5649,5.7632-12.4321
		c6.2258-11.4722,7.0666-25.7715,17.9478-34.7674c0.9084-6.8042,5.8326-11.3337,9.3733-16.6584
		c1.143-1.7189,0.5471-3.7903-0.1901-5.4031c-3.6013-7.8784-1.0333-15.3723,1.7013-22.5737
		c2.8682-7.5533,6.1255-14.8842,6.1414-23.1623c0.0042-2.1818,0.5065-4.1581,2.0719-5.9825
		c4.5172-5.2644,4.2817-11.4692,2.4671-17.5868c-1.4251-4.8048-1.3708-9.1429,1.6584-13.2546
		c0.1844-0.2503,0.427-0.4793,0.537-0.7597c4.5234-11.5232,7.1-23.6237,10.4342-35.4973c0.789-2.8091-0.0178-4.2144-3.3463-2.5465
		c-2.3026,1.1538-5.354,3.8244-5.8178-2.257c-0.1295-1.6981-4.3207-4.4564-7.9141-2.5239c-1.9775,1.0636-4.1226,1.4679-6.3162,1.26
		c-3.3757-0.3198-4.8004-2.5191-3.7781-5.8629c0.3544-1.159,1.3089-2.1242,1.7427-3.2711c1.1926-3.152,0.9879-5.5551-3.3112-5.4712
		c-1.5515,0.0302-3.1116-0.0309-4.656-0.1755c-0.5203-0.0487-1.0046-0.4843-1.5052-0.7431
		c0.3124-0.5037,0.5364-1.1078,0.9619-1.4835c0.4457-0.3934,1.0637-0.7392,1.6431-0.8116c7.1804-0.8965,14.0649-2.05,17.7217-9.6876
		c1.1047-2.307,4.475-1.8178,6.6185-3.0762c1.7897-1.0508,5.0062-0.834,4.9731-3.4354c-0.0298-2.3595-2.7332-2.6567-4.8574-3.3202
		c-6.559-2.0486-12.6847-4.9702-17.0214-10.6517L965.34,404.1021z M1038.241,297.1043c-1.0631,0.6296-1.8647,1.3994-1.2258,2.753
		c0.0829,0.1754,0.5513,0.1689,0.8409,0.2467c0.1925-0.8292,0.427-1.6522,0.5507-2.4915c0.0355-0.2406-0.2498-0.5284-0.3882-0.7945
		c0.6088,0.4868,1.0679,0.4585,1.3772-0.0849c-0.1571-0.0665-0.3655-0.2308-0.4613-0.1805
		C1038.6776,296.6873,1038.4689,296.9141,1038.241,297.1043z M1407.8943,772.9985c-1.5579,20.5049,3.1676,40.8179,1.9513,61.3171
		c-0.0719,1.2141,0.0657,2.5189,0.458,3.6604c0.4045,1.1768,1.4148,1.9704,2.7722,2.0915c1.1113,0.0991,1.7708-0.6377,2.1152-1.475
		c2.4393-5.9255,6.9366-10.1219,11.6487-14.1766c1.6692-1.4364,2.9878-3.085,2.5095-5.6263
		c-0.4847-2.5755,0.8976-4.8438,1.686-7.1619c5.0641-14.89,6.4023-30.3662,5.8293-45.8427
		c-0.8989-24.2877-7.6202-47.6345-14.2345-70.8074c-1.9919-6.9783-3.2979-13.6913-3.4338-20.7705
		c-0.1313-6.8353-0.0286-13.6748-0.0609-20.5123c-0.0146-3.0936,0.2423-6.1953-0.9153-9.2083
		c-3.7606-9.7899-3.0809-21.4207-12.2987-28.9967c-1.2089-0.9936-1.6244-3.3743-1.7726-5.1652
		c-0.7484-9.0507-7.4729-16.2777-7.6674-25.4866c-0.0176-0.8335-0.7297-1.6837-1.2125-2.4688
		c-0.8127-1.3212-1.8422-2.9998-3.4142-2.6491c-1.374,0.3066-2.5605,1.7768-2.5031,3.5578
		c0.4103,12.6969-1.2866,25.4531,0.907,38.0953c1.9539,11.2595,3.1328,22.6545,5.9884,33.7589
		c1.397,5.4325,0.2069,11.035,1.3239,16.624c3.2007,16.0154,6.9199,32.0918,8.0543,48.3108
		C1406.855,737.6473,1409.6847,755.2554,1407.8943,772.9985z M985.9714,446.9141c0.6154-0.086,1.2307-0.1739,1.8464-0.2578
		c1.1954-0.1631,2.6935-0.0717,3.204-1.3211c0.6526-1.5979-0.9534-1.9052-1.9481-2.537c-3.1317-1.9886-1.8276-4.282-0.0851-6.1898
		c1.864-2.041,4.1798-3.6634,6.1352-5.6308c0.5197-0.523,0.8602-1.9404,0.5269-2.4078c-0.3872-0.5429-1.6767-0.815-2.4532-0.6465
		c-4.5905,0.9961-8.952,2.6122-12.3779,5.9846c-2.0076,1.9761-4.1096,4.2002-2.4138,7.3126
		C980.0213,444.1855,981.6613,447.4055,985.9714,446.9141z M314.5369,279.1572c-3.1832,1.2778-6.3299,2.5519-8.8007,4.9965
		c-0.9151,0.9054-0.2344,1.6661,0.4859,2.1648c1.5194,1.0518,3.0468,2.1488,4.7137,2.9177
		c2.6669,1.2301,6.0518,4.1867,8.1512,2.3493c2.3428-2.0505-0.5997-5.663-1.2893-8.5556
		C317.4128,281.415,316.8748,279.3737,314.5369,279.1572z"/>
	<path d="M965.5457,403.8647c-0.0685,0.0791-0.1371,0.1582-0.2057,0.2374L965.5457,403.8647z"/>
</g>
</svg>
