<svg xmlns="http://www.w3.org/2000/svg" width="273.785" height="94.017" viewBox="0 0 256.67361 88.141304"><path d="M209.361 1.863c-3.81 12.241 12.85 19.956 11.57 24.057-6.647 2.56-14-1.187-20.984.878-5.721-.383-11.325 1.025-16.432 3.533-6.136 1.982-10.17 7.165-14.863 11.225-3.465 1.569-4.49 6.217-6.805 7.979-3.672-.512-12.524-.31-7.968 6.32 1.22 2.382 5.745 6.323 7.59 4.56-2.378 2.855-4.767 1.418-6.312 4.922-2.1 4.186-2.545 9.11-4.507 13.246-.53 2.954.25 11.144 3.957 9.287 7.275-4.484 1.743-19.621 19.276-18.145 4.568-.433 7.788-4.464 11.285-7.073 2.72-.835 5.989-2.794 8.309-4.083 5.21-2.792 23.44-5.884 25.037-4.951 5.387 1.527 11.246.987 16.521 3.171 2.708 1.458 11.195 5.673 10.554-.104-.347-2.504-6.756-5.518-1.178-4.022 3.873.547 9.873 4.053 12.263-.441-.192-4.866-5.182-1.922-7.514-3.5-2.531-.936-3.592-1.72-6.804-2.422-5.975-.698-.958-5.048 2.588-4.87 5.882-.288 4.056-8.503 1.569-11.284-2.491-5.22-7.826-8.042-13.195-9.428-2.349-4.865-4.261-10.08-7.704-14.285-2.4-2.35-8.058-4.476-10.114-2.28-1.075.354-4.416-7.671-6.139-2.29zM51.329 37.801c-10.947.214-23.075 1.093-31.731 8.627-6.487 5.257-12.082 12.545-12.79 21.125-2.113-.488-10.177-.417-5.227 2.464 4.53 2.595 10.44 1.436 14.73 4.601-.217 2.556-6.779 1.155-8.347 4.144C4.937 80.412 5.797 89.477 10 87.06c4.068-.581 8.213-.232 12.267-.941 3.337-1.364 2.99-6.168 7.273-4.298 6.514.168 13.072-1.295 19.536.007 9.39.412 18.84-.935 27.78-3.826 1.481 3.895 3.328 8.724 7.644 10.121 4.857.387 6.247-5.241 4.994-9.039-.69-4.648-2.185-9.125-3.792-13.525 5.463-3.982 13.263-.462 18.586-4.687 4.086-3.35.12-9.151-4.19-9.638-6.012-.85-11.305 3.085-17.158 3.52-8.75-8.23-18.775-17.257-31.611-16.952z"/></svg>