<?xml version="1.0" encoding="utf-8"?>

<!DOCTYPE svg PUBLIC "-//W3C//DTD SVG 1.1//EN" "http://www.w3.org/Graphics/SVG/1.1/DTD/svg11.dtd">
<svg version="1.1" id="Layer_1" xmlns="http://www.w3.org/2000/svg" xmlns:xlink="http://www.w3.org/1999/xlink" x="0px" y="0px"
	 viewBox="0 0 637.879 1654.863" enable-background="new 0 0 637.879 1654.863" xml:space="preserve">
<g>
	<path d="M176.844,1626.844c-3.754-0.017-7.507,0.006-11.256,0.116c-11.86,0.346-23.833,1.337-35.585-0.851
		c-4.271-0.795-8.586-2.063-11.996-4.755c-7.789-6.15-5.777-19.065-5.608-27.807c0.241-12.543,2.926-25.786,9.7-36.512
		c3.089-4.891,6.44-9.658,9.288-14.745c1.473-2.63,1.231-4.468,0.173-6.689c-2.637-5.536-3.06-11.054-1.413-17.101
		c0.976-3.583,3.252-5.439,5.746-7.451c0.439-0.354,1.171-0.316,1.721-0.563c9.628-4.319,9.546-4.251,2.679-12.051
		c-6.426-7.299-8.974-16.154-11.533-25.463c-2.65-9.64-0.972-19.352-3.209-28.838c-2.738-11.611-1.913-23.857-1.367-35.671
		c0.364-7.876-0.474-15.8,0.418-23.654c0.919-8.088,2.595-16.266,3.777-24.356c0.64-4.382,0.612-8.878,0.674-13.325
		c0.113-8.109,0.853-16.141,2.391-24.103c0.115-0.595,0.147-1.226,0.1-1.83c-1.055-13.436,1.938-26.751,1.211-40.172
		c-0.405-7.485,1.802-14.347,4.41-21.233c2.796-7.381,4.722-14.849,2.793-23.034c-2.232-9.469-1.171-18.698,3.291-27.667
		c2.074-4.169,0.945-9.279,0.234-13.811c-0.813-5.179-2.327-10.224-2.194-15.563c0.095-3.791-2.185-6.959-3.716-10.141
		c-5.813-12.084-7.564-25.065-9.747-38.057c-2.049-12.196-2.747-24.559-3.264-36.899c-0.217-5.168,0.017-10.404-0.351-15.544
		c-0.416-5.818-2.157-11.548-1.335-17.419c0.931-6.647,1.267-11.996,1.246-18.681c-0.039-12.441,1.702-24.782,1.445-37.225
		c-0.075-3.622-1.015-6.048-3.945-8.168c-7.046-5.096-12.228-11.974-16.083-19.589c-2.021-3.994-2.538-8.831-3.282-13.362
		c-0.542-3.299,1.574-5.607,4.62-6.266c7.955-1.723,11.175-8.981,16.573-13.675c0.933-0.811,0.197-1.811-0.044-2.779
		c-0.5-2.008-0.455-3.984,0.712-5.869c3.068-4.953,3.015-6.357-0.483-11.098c-3.137-4.25-6.184-8.482-7.875-13.62
		c-4.737-14.388-1.646-27.933,4.2-41.171c3.28-7.427,6.426-14.776,6.967-23.099c0.199-3.062,2.233-6.018,3.495-8.995
		c1.443-3.406,1.38-3.499-2.514-3.108c-6.894,0.693-13.745,1.311-20.654-0.336c-2.946-0.702-4.745-1.949-5.487-4.848
		c-1.336-5.224-4.426-9.408-7.659-13.638c-5.593-7.32-7.621-16.124-8.882-25.028c-0.454-3.211-1.201-6.364-1.54-9.616
		c-1.428-13.69,2.403-26.166,8.217-38.222c6.173-12.801,12.789-25.396,18.661-38.331c4.441-9.784,6.958-20.324,9.589-30.704
		c1.9-7.494,4.841-14.619,6.686-22.102c1.306-5.299,1.412-5.167-3.684-6.264c-8.201-1.766-15.915-4.648-22.803-9.659
		c-9.391-6.831-19.623-12.344-30.147-17.115c-9.201-4.172-14.584-10.069-13.489-20.633c0.454-4.377-0.807-8.087-3.093-12.039
		c-6.664-11.52-10.468-24.038-11.642-37.431c-0.661-7.539-1.489-14.956,0.12-22.457c0.281-1.312-0.003-2.891-0.461-4.193
		c-4.564-12.954,0.522-24.195,6.152-35.347c4.802-9.511,11.761-17.934,14.24-28.631c0.542-2.337,1.658-4.6,2.825-6.724
		c6.735-12.263,12.76-25.025,20.634-36.516c5.61-8.188,9.427-17.437,15.916-25.078c2.895-3.409,3.456-8.48,7.084-11.68
		c1.876-1.654-0.363-2.467-1.198-3.237c-3.674-3.388-6.247-7.435-7.858-12.135c-2.229-6.502-1.571-10.469,4.231-13.471
		c7.432-3.845,7.554-11.352,10.469-17.486c0.561-1.18-0.277-1.887-1.492-1.948c-0.808-0.041-1.757-0.202-2.413,0.136
		c-6.321,3.254-13.105,2.108-19.757,2.198c-5.243,0.071-10.062-0.925-13.456-5.454c-0.23-0.307-0.652-0.477-0.997-0.69
		c-10.22-6.326-10.714-15.753-8.589-26.201c2.554-12.559,5.315-25.026,11.254-36.531c0.559-1.083,0.877-2.378,1.673-3.236
		c4.192-4.521,5.73-9.345,3.718-15.572c-1.348-4.172,0.553-6.871,5.795-8.312c5.629-1.547,9.243-5.351,13.374-8.973
		c12.235-10.726,25.119-20.842,41.183-25.014c8.397-2.181,17.311-2.315,26.101-1.874c5.106,0.256,5.182,0.139,5.07-4.847
		c-0.133-5.909-1.226-11.488-3.705-17.051c-6.748-15.141-13.483-30.323-16.522-46.821c-2.145-11.645-2.416-23.174-1.07-35.004
		c1.495-13.147,6.691-24.943,11.232-37.013c2.399-6.378,6.147-11.913,13.008-14.614c2.241-0.882,4.651-2.538,5.434-4.665
		c2.662-7.233,8.973-9.014,15.149-11.465c6.347-2.52,12.714-1.497,19.129-1.107c0.203,0.012,0.489-0.08,0.599,0.023
		c6.564,6.1,16.172,2.966,23.318,7.808c3.795,2.571,8.532,3.615,11.623,7.525c2.204,2.787,6.173,3.054,8.908,5.088
		c8.938,6.647,18.49,12.43,26.141,20.847c4.542,4.996,8.661,10.221,12.51,15.694c2.129,3.028,2.338,6.844,3.281,10.338
		c0.365,1.354-0.724,2.39-1.846,2.822c-1.355,0.522-1.314-1.179-2.04-1.741c-1.843-1.425-1.995-5.92-4.447-4.859
		c-2.985,1.292-1.006,5.183-0.6,7.724c0.733,4.593,2.854,9.04,2.287,13.773c-1.025,8.562-1.396,17.346-6.219,24.971
		c-1.96,3.098-2.471,6.761-3.826,10.091c-0.812,1.994-0.555,5.094,1.007,7.469c1.001,1.522,1.801,3.189,2.577,4.845
		c2.425,5.176,1.68,7.721-3.419,10.463c-1.276,0.686-2.965,1.088-3.322,2.421c-2.616,9.773-11.76,15.545-15.058,25.053
		c-1.254,3.616-3.959,6.611-4.139,10.94c-0.114,2.739-2.155,5.425-5.388,5.901c-4.54,0.669-7.911,4.156-12.397,4.845
		c-1.106,0.17-2.145,0.882-2.143,1.819c0.002,0.935,1.117,1.537,2.072,2.027c8.847,4.542,17.547,9.394,26.547,13.606
		c4.862,2.275,8.506,5.406,11.069,9.994c1.089,1.949,2.416,3.788,3.31,5.82c1.586,3.605,3.919,5.192,8.075,4.822
		c4.446-0.395,8.986-0.213,13.446,0.169c3.967,0.34,8.171,0.382,10.899,4.314c1.78,2.565,2.933,1.431,3.336-1.038
		c0.229-1.402,0.318-2.836,0.363-4.258c0.299-9.372,0.253-18.69-0.732-28.08c-1.359-12.96,2.357-25.425,6.367-37.54
		c3.68-11.122,8.445-21.892,12.913-32.743c2.739-6.652,3.437-13.764,4.579-20.696c0.922-5.596,2.697-10.738,5.514-15.352
		c3.825-6.267,6.801-12.93,10.325-19.317c2.773-5.024,5.887-9.967,11.916-12.05c4.755-1.643,7.777-5.751,11.46-8.9
		c6.148-5.258,13.159-8.563,21.333-8.173c7.369,0.351,14.523-1.547,21.835-1.435c1.214,0.019,2.555-0.381,3.625,0.004
		c7.185,2.585,14.671,4.285,22.111,5.403c11.786,1.771,19.888,10.665,30.581,14.36c3.866,1.336,6.12,4.39,7.238,8.406
		c1.594,5.725,4.943,10.666,7.538,15.945c0.628,1.277,2.009,3.379,1.64,3.768c-4.605,4.852,1.082,6.059,3.032,7.871
		c6.185,5.749,5.823,13.129,5.289,20.271c-1.237,16.547-7.093,31.849-13.854,46.823c-1.592,3.526-2.821,7.079-3.154,11.018
		c-0.488,5.78-2.891,10.977-6.214,15.66c-7.638,10.763-15.403,21.436-23.137,32.13c-0.829,1.146-1.629,2.396-2.712,3.26
		c-9.26,7.394-11.918,18.551-16.569,28.6c-1.513,3.269-1.04,5.319,2.121,6.984c8.914,4.694,14.26,13.22,20.936,20.235
		c2.387,2.508,5.419,6.982,0.445,11.029c-1.521,1.238-0.026,3.424,0.508,5.116c0.752,2.383,1.655,5.244-0.675,6.752
		c-4.589,2.971-1.64,3.785,0.967,5.141c7.713,4.013,15.398,8.082,23.065,12.181c3.237,1.731,5.957,2.076,8.378-1.51
		c2.297-3.404,6.106-2.405,9.467-2.478c4.1-0.09,5.707,2.245,6.081,6.025c0.169,1.708,1.699,2.688,2.863,3.822
		c3.361,3.274,6.511,6.791,10.082,9.813c3.829,3.24,6.049,7.363,6.184,12.071c0.175,6.093,3.418,9.337,8.522,11.137
		c3.422,1.207,5.179,3.581,6.65,6.598c0.788,1.617,1.13,3.006-0.017,4.504c-2.244,2.929-1.522,5.033,1.537,6.94
		c2.624,1.636,3.888,4.216,5.122,7.199c2.852,6.894,7.678,12.799,10.937,19.578c1.032,2.148,2.24,4.252,3.11,6.506
		c2.053,5.319,5.056,9.695,10.839,11.568c7.311,2.367,11.655,14.868,10.004,23.785c-1.755,9.481-6.132,17.815-10.024,26.396
		c-2.089,4.606-4.193,9.223-6.627,13.651c-2.122,3.862-2.24,7.961-1.365,11.88c3.888,17.406,6.609,35.025,9.257,52.625
		c2.563,17.036,4.242,34.216,5.393,51.444c0.606,9.072,2.388,18.091,4.019,27.065c3.097,17.041,5.173,34.133,4.35,51.504
		c-0.342,7.223-5.073,11.808-9.622,16.35c-9.797,9.782-19.947,19.21-29.83,28.909c-6.257,6.14-12.323,12.477-18.418,18.781
		c-7.546,7.805-16.258,14.208-25.095,20.376c-8.422,5.877-15.739,12.888-22.945,20.097c-2.987,2.989-1.879,6.371-1.322,9.719
		c1.434,8.602,3.441,17.114,3.156,25.944c-0.211,6.528-1.998,11.971-8.37,15.021c-1.024,0.49-2.361,0.932-2.55,2.398
		c-0.855,6.63-2.727,13.342-2.221,19.869c0.433,5.589,0.118,11.439,1.961,16.918c2.804,8.332,0.146,16.537-0.655,24.756
		c-0.52,5.334-0.642,10.534,0.901,15.702c3.387,11.343,1.04,22.037-3.701,32.453c-1.005,2.208-2.135,4.363-3.048,6.607
		c-0.955,2.348-1.055,4.43,0.831,6.748c2.43,2.987,2.824,6.915,1.591,10.471c-1.35,3.893-0.927,7.709-0.296,11.445
		c1.022,6.05,0.982,12.084,1.241,18.165c0.382,8.945,0.898,17.878,0.821,26.837c-0.218,25.606-3.093,50.741-13.81,74.366
		c-2.3,5.07-1.243,10.132-0.606,15.009c1.531,11.72,2.347,23.502,3.183,35.255c0.736,10.339,3.152,20.466,3.233,30.872
		c0.025,3.246,0.34,6.439-0.119,9.715c-0.731,5.23-0.158,10.465,0.095,15.74c0.549,11.443,5.672,22.631,2.108,34.295
		c-0.307,1.005-0.098,1.998,0.373,2.956c3.758,7.639,4.421,16.018,5.456,24.243c1.288,10.246,4.249,20.204,4.37,30.676
		c0.109,9.44-0.703,18.643-3.202,27.715c-1.921,6.975-4.087,13.892-5.73,20.932c-0.772,3.309-0.636,6.775,0.407,10.23
		c1.489,4.93,2.991,9.74,2.231,15.278c-0.511,3.729,1.508,7.822,2.178,11.83c2.027,12.127,3.719,24.303,6.683,36.305
		c1.937,7.846,0.167,16.14-1.17,24.187c-1.653,9.948-2.896,19.965-4.6,29.904c-0.922,5.376,3.186,9.404,3.305,14.345
		c0.156,6.424,5.592,7.949,9.649,10.09c3.994,2.108,5.902,5.518,7.606,8.925c1.833,3.665,4.733,6.419,6.708,9.805
		c6.86,11.762,13.081,24.748,13.501,38.609c0.353,11.647-3.403,26.299-15.814,30.296c-9.04,2.911-17.843,3.417-26.971,3.406
		c-16.851-0.021-33.716-0.475-50.564-0.006c-13.354,0.372-27.626-2.172-33.357-15.716c-3.618-8.55-7.848-18.573-8.257-27.959
		c-0.129-2.968,0.144-5.958-0.263-8.901c-0.545-3.938-3.021-6.215-4.751-9.521c-2.257-4.313-2.186-8.348-2.924-12.923
		c-0.77-4.775-3.516-8.645-5.85-12.769c-4.405-7.783-6.511-16.8-6.25-25.724c0.132-4.525,0.63-9.767,2.428-13.975
		c1.674-3.919,4.325-5.151,3.848-9.898c-0.907-9.029-1.56-18.19-5.006-26.702c-1.078-2.662,0.826-4.723-0.138-7.572
		c-2.514-7.425-2.451-15.401-3.154-23.231c-0.885-9.856-2.128-19.748-2.964-29.607c-1.216-14.358-5.737-28.187-6.294-42.551
		c-0.415-10.684-1.771-21.351,0.593-32.141c1.273-5.812,0.876-12.108-0.251-18.224c-1.374-7.455-1.302-15.173-0.23-22.547
		c1.712-11.772,1.342-23.078-3.56-33.949c-3.367-7.468-3.111-15.44-3.913-23.261c-0.273-2.663-0.47-5.293-1.627-7.679
		c-7.778-16.051-11.866-33.236-15.487-50.545c-0.554-2.647-1.621-4.998-2.496-7.475c-8.61-24.393-14.508-49.437-18.694-74.96
		c-2.71-16.526-3.213-33.201-4.776-49.803c-0.495-5.254-1.36-10.474-2.1-15.703c-0.1-0.71-0.107-1.727-1.079-1.774
		c-0.325-0.016-0.646,0.918-1.052,1.337c-2.388,2.461-2.023,5.576-2.246,8.626c-1.348,18.449-1.581,37.041-6.047,55.127
		c-2.483,10.056-5.292,20.096-10.918,28.948c-3.921,6.169-3.621,13.222-4.862,19.926c-2.74,14.809-4.079,29.75-4.378,44.849
		c-0.222,11.208-2.153,22.257-9.569,31.482c-0.999,1.242-1.199,3.191-2.297,4.278c-7.66,7.581-5.044,16.382-2.874,24.935
		c1.408,5.55,1.351,10.803-0.568,16.111c-1.188,3.284-0.892,6.457-0.664,9.977c0.598,9.233,2.247,18.7-0.632,27.829
		c-1.738,5.509-1.555,10.778,0.094,16.141c1.972,6.412,1.855,12.861-0.119,19.181c-1.008,3.228-1.269,6.267-0.558,9.558
		c0.823,3.807-0.026,7.707,0.066,11.497c0.194,7.963-1.405,15.923,0.676,23.945c2.128,8.201,2.914,16.707,3.631,25.178
		c0.289,3.418,0.909,6.821,1.574,10.192c1.81,9.173,2.683,18.436,3.424,27.752c0.497,6.25,1.855,12.6,0.764,18.708
		c-1.635,9.154,0.697,18.609-2.963,27.615c-2.308,5.679-6.144,10.351-11.05,12.63c-3.978,1.847-2.988,2.722-2.086,5.532
		c1.187,3.698,0.87,7.754,0.341,11.54c-1.219,8.73-1.554,17.697-4.216,26.161c-1.456,4.63-3.834,8.012-6.35,12.038
		c-2.699,4.32-2.717,8.732-2.59,13.916c0.207,8.442-1.064,17.013,0.452,25.39c1.539,8.5,4.576,17.084,0.084,25.32
		c-7.352,13.48-24.6,9.801-37.194,9.836C192.341,1627.085,184.589,1626.879,176.844,1626.844z M457.005,332.941
		c-0.385-0.676-0.707-1.429-1.19-2.059c-2.687-3.503-5.412-6.975-8.125-10.458c-0.465-0.597-0.89-1.578-1.763-0.623
		c-0.254,0.277-0.146,1.223,0.14,1.602c2.314,3.063,4.016,6.477,5.641,9.914c0.807,1.707,2.523,1.817,3.775,2.704
		C456.207,334.534,456.971,334.026,457.005,332.941z"/>
</g>
</svg>
