<?xml version="1.0" encoding="UTF-8"?>
<svg id="Warstwa_2" enable-background="new 0 0 1727.1303711 1789.8734131" version="1.1" viewBox="0 0 1727.1 1789.9" xmlns="http://www.w3.org/2000/svg" xmlns:xhtml="http://www.w3.org/1999/xhtml">
 <style id="style2" type="text/css">.st0{fill:#98CDEE;stroke:#000000;stroke-width:5;stroke-linejoin:round;stroke-miterlimit:10;} .st1{fill:#619246;stroke:#000000;stroke-width:5;stroke-linejoin:round;stroke-miterlimit:10;} .st2{fill:#A3BF74;stroke:#000000;stroke-width:5;stroke-linejoin:round;stroke-miterlimit:10;} .st3{fill:#51C1E3;stroke:#000000;stroke-width:5;stroke-linejoin:round;stroke-miterlimit:10;} .st4{fill:#FFFFFF;stroke:#000000;stroke-width:5;stroke-miterlimit:10;} .st5{fill:#FCDF86;stroke:#000000;stroke-width:5;stroke-miterlimit:10;} .st6{fill:#FAD068;stroke:#000000;stroke-width:5;stroke-miterlimit:10;} .st7{fill:#AE7954;stroke:#000000;stroke-width:5;stroke-linejoin:round;stroke-miterlimit:10;} .st8{fill:#F3D8A0;stroke:#000000;stroke-width:5;stroke-linejoin:round;stroke-miterlimit:10;} .st9{fill:none;stroke:#000000;stroke-width:5;stroke-linejoin:round;stroke-miterlimit:10;} .st10{fill:#B8AFC9;stroke:#000000;stroke-width:5;stroke-linejoin:round;stroke-miterlimit:10;} .st11{fill:#EAE1EF;stroke:#000000;stroke-width:5;stroke-linejoin:round;stroke-miterlimit:10;}</style>
<g id="g80">
  <rect id="rect4" class="st0" width="1728.1" height="1206" onmouseout="this.style.filter=''" onmouseover="this.style.filter='saturate(4)'" onclick="document.getElementById('info').textContent=this.getElementsByTagName('title')[0].textContent;this.getElementsByTagName('xhtml:audio')[0].play();">
      <title>El cielo</title>
      <xhtml:audio><xhtml:source src="/sounds/es/el_cielo.ogg" type="audio/ogg"/></xhtml:audio>
  </rect>
  <path id="path6" class="st1" d="m0 889.44v900.44h1727.1v-962.85c-385.33 39.772-709.53 216.87-709.53 216.87-168.56 84.604-363.25 95.617-414.24 97.044-8.2643.2312-16.369-2.233-23.12-7.0052-27.29-19.29-106.81-77.37-219.25-175.59-150.35-131.32-360.98-68.908-360.98-68.908z"/>
  <path id="path8" class="st2" d="m0 1389.1v400.79h1320.8s-408.47-128.41-642.17-307.49-678.65-93.304-678.65-93.304z"/>
  <path id="path10" class="st3" d="m1727.1 1473.3c-185.45-79.764-711.22-131.97-711.22-131.97s-326.37-23.564-388.18-86.045c-61.817-62.481 16.4-116.45 16.4-116.45l42.487-3.8452s-35.286 39.002 16.023 55.667c27.801 9.0294 85.971 12.78 133.44 14.322 40.152 1.304 80.342-.091919 120.32-4.0875 134.97-13.49 525.64-45.643 770.74 5.1149v267.3z" onmouseout="this.style.filter=''" onmouseover="this.style.filter='saturate(4)'" onclick="document.getElementById('info').textContent=this.getElementsByTagName('title')[0].textContent;this.getElementsByTagName('xhtml:audio')[0].play();">
      <title>El río</title>
      <xhtml:audio><xhtml:source src="/sounds/es/el_rio.ogg" type="audio/ogg"/></xhtml:audio>
  </path>
  <path id="path12" class="st4" d="m1411.7 120.83c26.999-7.7627 56.111-4.9086 80.549 8.946 21.152 11.992 42.071 33.688 47.217 72.926 0 0 9.1223 46.314-9.8241 93.329 0 0 20.273-18.618 43.029-18.367 17.476.1929 30.645 15.608 27.698 32.834-.93457 5.4619-3.0239 11.845-6.8696 19.216 0 0 68.067-23.859 100.35 40.7 0 0 12.16 24.872-30.724 36.355-9.3335 2.4991-18.978 3.6433-28.64 3.6433h-516.05s-64.558-2.1052-42.805-37.893c21.753-35.788 91.224-17.543 91.224-17.543s-25.262-32.981-1.4034-48.419c23.859-15.438 58.243-3.5086 58.243-3.5086s-21.204-25.916-7.2382-51.105c5.8915-10.626 16.558-17.709 28.535-19.749 18.902-3.2204 54.108-3.2609 83.259 30.506 0 0-20.777-111.9 83.452-141.87z" onmouseout="this.style.filter=''" onmouseover="this.style.filter='saturate(4)'" onclick="document.getElementById('info').textContent=this.getElementsByTagName('title')[0].textContent;this.getElementsByTagName('xhtml:audio')[0].play();">
      <title>La nube</title>
      <xhtml:audio><xhtml:source src="/sounds/es/la_nube.ogg" type="audio/ogg"/></xhtml:audio>
  </path>
  <path id="path14" class="st4" d="m656.44 589.9h282.22s32.4-1.5146 32.583-20.286c.16205-16.692-27.922-18.109-34.145-18.218-.78442-.013733-1.5643-.041077-2.3484-.066772-3.7377-.12231-16.419.029541-34.036 6.2563 0 0 18.589-41.552-28.795-47.02 0 0-16.038-2.7337-40.459 10.935 0 0 11.846-67.978-56.861-90.941-68.707-22.963-94.04 21.323-94.04 21.323s-24.239 43.375 20.958 87.296c0 0-46.223-9.2159-71.215 12.8-10.657 9.3882-8.7972 26.456 3.8652 32.889 5.126 2.6041 12.291 4.5173 22.274 5.0328z" onmouseout="this.style.filter=''" onmouseover="this.style.filter='saturate(4)'" onclick="document.getElementById('info').textContent=this.getElementsByTagName('title')[0].textContent;this.getElementsByTagName('xhtml:audio')[0].play();">
      <title>La nube</title>
      <xhtml:audio><xhtml:source src="/sounds/es/la_nube.ogg" type="audio/ogg"/></xhtml:audio>
   </path>/>
  <g id="g20" onmouseout="this.style.filter=''" onmouseover="this.style.filter='saturate(4)'" onclick="document.getElementById('info').textContent=this.getElementsByTagName('title')[0].textContent;this.getElementsByTagName('xhtml:audio')[0].play();">
	<title>El sol</title>
	<xhtml:audio><xhtml:source src="/sounds/es/el_sol.ogg" type="audio/ogg"/></xhtml:audio>
   <path id="path16" class="st5" d="m349.08 222.76s1.533 28.25 42.047 24.746c40.514-3.5039 69.202-24.746 69.202-24.746s-38.652 57.815-5.6387 93.292 121.49 21.899 121.49 21.899-82.123 37.01-79.057 74.458 60.005 31.535 60.005 31.535-25.876 4.5997-52.524 21.87c-7.4249 4.812-13.005 12.127-15.165 20.707-3.321 13.191-.031952 33.025 31.366 55.695 0 0-60.394-13.346-63.764 21.839-3.3702 35.185 15.098 57.832 15.098 57.832s-37.342-26.422-72.661-25.883-55.81 53.249-55.81 53.249-4.9879-39.633-43.408-38.016-94.23 52.44-94.23 52.44 40.326-57.77 10.082-87.439c-5.3103-5.2093-12.136-8.5731-19.419-10.084-14.552-3.019-47.277-5.662-106.19 9.0899 0 0 58.102-29.523 53.114-58.237-4.9879-28.714-56.889-32.623-56.889-32.623s59.989-17.795 43.678-56.349-61.337-43.138-61.337-43.138 101.27-22.335 99.386-51.791c-1.8802-29.456-33.216-68.313-33.216-68.313s60.165 35.598 88.744-1.3788c0 0 27.074-28.955 1.2534-78.34 0 0 35.36 61.651 75.515 58.741 40.155-2.9097 48.334-21.056 48.334-21.056z"/>
   <circle id="circle18" class="st6" cx="322.62" cy="424.38" r="132.73"/>
  </g>
  <path id="path40" class="st9" d="m1033.2 1274.5s1.8931 26.503 116.11 22.086"/>
  <path id="path42" class="st9" d="m1102.9 1309s-5.9491 8.3286 61.077 7.5354c67.026-.79321 98.357 2.3796 98.357 2.3796"/>
  <path id="path44" class="st9" d="m1337.3 1340c3.1729 1.1898 76.148 2.7762 76.148 2.7762"/>
  <path id="path46" class="st9" d="m1414.9 1309s100.74 11.697 130.92-8.7064c30.18-20.403-19.978-31.455-19.978-31.455"/>
  <path id="path48" class="st9" d="m1527 1128.9 53.477 2.4034c5.8801.26428 11.766.32581 17.652.32788 8.1912.0028076 26.447 2.4556 41.433 22.032 23.225 30.34 88.549 10.506 88.549 10.506"/>
  <path id="path50" class="st9" d="m733.22 1318.9s42.425-3.4047 90.709 30.26c2.6675 1.8599 5.2581 3.8171 7.8395 5.7946 4.0917 3.1344 27.552 18.368 92.723 14.35 72.534-4.4713 162.46 6.9553 162.46 6.9553s34.661 4.2441 94.434 25.863c25.915 9.3732 52.87 15.577 80.294 18.29l.63599.062866"/>
  <path id="path52" class="st9" d="m1331.6 1429.8s80.773-12.165 124.08 25.789c17.013 14.91 27.343 25.315 33.614 32.453 24.352 27.715 59.173 44.324 96.067 44.449 1.0437.00354 2.0961-.00354 3.1571-.021484 57.417-.97314 138.66 4.3793 138.66 4.3793"/>
  <path id="path54" class="st9" d="m479.6 1136.1s82.402 11.275 113.41 3.7443"/>
  <g id="g66">
   <path id="path56" class="st9" d="m453.63 1451s-68.58 58.523-39.828 147.93"/>
   <path id="path58" class="st1" d="m418.16 1501.4c-5.9205-45.155-34.927-68.638-34.927-68.638-31.358-26.972-56.058-23.855-70.627-17.243-14.205 6.4471-21.719 22.157-17.305 37.119 2.8011 9.4946 9.7532 20.894 24.726 33.216 40.813 33.589 92.579 30.598 92.579 30.598.76099-2.4877 1.6315-5.0885 2.6293-7.7821.94995-2.5645 1.9325-4.9891 2.9242-7.2709z" onmouseout="this.style.filter=''" onmouseover="this.style.filter='saturate(4)'" onclick="document.getElementById('info').textContent=this.getElementsByTagName('title')[0].textContent;this.getElementsByTagName('xhtml:audio')[0].play();">
      <title>La hoja</title>
      <xhtml:audio><xhtml:source src="/sounds/es/la_hoja.ogg" type="audio/ogg"/></xhtml:audio>
   </path>
   <g onmouseout="this.style.filter=''" onmouseover="this.style.filter='saturate(4)'" onclick="document.getElementById('info').textContent=this.getElementsByTagName('title')[0].textContent;this.getElementsByTagName('xhtml:audio')[0].play();">
      <title>La flor</title>
      <xhtml:audio><xhtml:source src="/sounds/es/la_flor.ogg" type="audio/ogg"/></xhtml:audio>
      <path id="path60" class="st10" d="m582.43 1333.9s19.641-39.519 63.42-8.2825c10.945 7.8092 17.6 16.432 21.427 24.973 9.5145 21.235 2.8593 46.266-15.369 60.73l-8.8979 7.0603s53.481 19.878 31.946 65.076-82.824 3.0763-82.824 3.0763-10.885 49.221-61.053 45.435c-25.084-1.8932-36.147-14.317-40.939-26.267-4.0658-10.139-4.0083-21.47-.35229-31.764l6.5049-18.316s-52.061 7.4845-67.679-27.538c-15.618-35.023 7.5725-59.633 7.5725-59.633s10.412-16.784 52.771-9.22c0 0-19.656-24.576-7.6311-50.585 6.4647-13.983 20.156-23.139 35.478-24.741 12.029-1.2577 27.911.77917 43.619 13.791-2e-7-1e-7 18.458 16.328 22.008 36.206z"/>
      <ellipse id="ellipse62" class="st11" cx="559.44" cy="1407.4" rx="46.294" ry="48.196"/>
   </g>
   <path id="path64" class="st9" d="m397.93 1617.5s-16.901-13.615-8.0667-25.014c2.8626-3.6935 8.2374-4.4872 11.961-1.6632 3.0115 2.2842 6.4979 6.6975 9.7517 15.064 0 0 6.5795-34.477 43.042-36.026 5.6352-.23938 10.198 4.3988 9.8169 10.026-.22955 3.3909-1.3555 7.8727-4.0834 13.766 0 0 28.234-5.4755 39.975 2.1832 5.566 3.6307 5.163 11.827-.65381 15.04-4.8033 2.6538-13.669 5.4221-30.031 6.6228"/>
  </g>
  <g id="g78">
   <path id="path68" class="st9" d="m195.88 1292s50.756 54.087 19.118 124.58"/>
   <path id="path70" class="st1" d="m220.29 1336.4c8.9461-36.384 34.799-52.948 34.799-52.948 28.092-19.203 48.006-14.409 59.317-7.6786 11.029 6.563 15.745 20.092 10.775 31.925-3.1536 7.5088-9.8743 16.198-23.237 24.912-36.425 23.755-78.481 16.603-78.481 16.603-.39607-2.1033-.87141-4.3091-1.4424-6.6023-.54362-2.1832-1.1266-4.2551-1.73-6.2111z" onmouseout="this.style.filter=''" onmouseover="this.style.filter='saturate(4)'" onclick="document.getElementById('info').textContent=this.getElementsByTagName('title')[0].textContent;this.getElementsByTagName('xhtml:audio')[0].play();">
      <title>La hoja</title>
      <xhtml:audio><xhtml:source src="/sounds/es/la_hoja.ogg" type="audio/ogg"/></xhtml:audio>
   </path>
   <g onmouseout="this.style.filter=''" onmouseover="this.style.filter='saturate(4)'" onclick="document.getElementById('info').textContent=this.getElementsByTagName('title')[0].textContent;this.getElementsByTagName('xhtml:audio')[0].play();">
		<title>La flor</title>
      <xhtml:audio><xhtml:source src="/sounds/es/la_flor.ogg" type="audio/ogg"/></xhtml:audio>
      <path id="path72" class="st10" d="m101.2 1184.6s-12.467-34.099-51.103-12.538c-9.659 5.3904-15.885 11.836-19.791 18.472-9.7102 16.498-6.544 37.57 7.0457 51.054l6.6337 6.5819s-45.537 11.392-32.038 50.307c13.499 38.915 67.443 10.045 67.443 10.045s4.4261 41.236 45.791 42.701c20.682.73242 30.858-8.4203 35.862-17.756 4.2462-7.921 5.2292-17.191 3.1756-25.94l-3.6538-15.568s41.888 10.853 57.843-16.365c15.954-27.217-.77063-49.449-.77063-49.449s-6.9879-14.67-42.311-12.336c0 0 18.306-18.308 10.838-40.668-4.0148-12.021-14.377-20.753-26.76-23.456-9.7216-2.1219-22.893-1.9001-36.92 7.3112-3.9e-6-3e-7-16.577 11.673-21.286 27.604z"/>
      <ellipse id="ellipse74" class="st11" transform="matrix(.1105 -.99388 .99388 .1105 -1138.3 1221.6)" cx="113.32" cy="1246.8" rx="39.651" ry="38.087"/>
   </g>
   <path id="path76" class="st9" d="m226.27 1433.3s15.058-9.5962 8.87-19.72c-2.0049-3.2804-6.3276-4.418-9.6286-2.4474-2.6701 1.594-5.922 4.8856-9.3432 11.431 0 0-2.2457-28.789-31.919-33.37-4.586-.70801-8.7384 2.6697-8.9385 7.3058-.12056 2.7935.39267 6.5604 2.0874 11.627 0 0-22.589-7.0438-32.885-1.8489-4.8812 2.4628-5.2968 9.2009-.8327 12.358 3.6863 2.6064 10.684 5.676 23.953 8.1453"/>
  </g>
 </g>
<g>
   <rect x="5" y="5" width="1310" height="6em" rx="20" ry="20" fill="white" stroke="black"/>
   <text id="info" x="15" y="80" font-size="5em" stroke="black">Haga clic en algún objeto!</text>
</g> 
</svg>
