<?xml version="1.0" encoding="UTF-8"?>
<svg id="Warstwa_2" enable-background="new 0 0 1815.4752197 1784.5646973" version="1.1" viewBox="0 0 1815.5 1784.6" xml:space="preserve" xmlns="http://www.w3.org/2000/svg" xmlns:xhtml="http://www.w3.org/1999/xhtml">
<style id="style2" type="text/css">.st0 { fill:#D9B597;stroke:#000000;stroke-width:5;stroke-linejoin:round;stroke-miterlimit:10; }
.st1 { fill:#D3E3B7;stroke:#000000;stroke-width:5;stroke-miterlimit:10; }
.st2 { fill:#D3E3B7;stroke:#000000;stroke-width:5;stroke-linejoin:round;stroke-miterlimit:10; }
.st3 { fill:#F6F8E6;stroke:#000000;stroke-width:5;stroke-miterlimit:10; }
.st4 { fill:#F3F6DC;stroke:#000000;stroke-width:5;stroke-miterlimit:10; }
.st5 { fill:#CEEAF9;stroke:#000000;stroke-width:5;stroke-miterlimit:10; }
.st6 { fill:#FAC399;stroke:#000000;stroke-width:5;stroke-miterlimit:10; }
.st7 { fill:none;stroke:#000000;stroke-width:5;stroke-miterlimit:10; }
.st8 { fill:#F9DE59;stroke:#000000;stroke-width:5;stroke-miterlimit:10; }
.st9 { fill:#D9B597;stroke:#000000;stroke-width:5;stroke-miterlimit:10; }
.st10 { fill:#CD8E64;stroke:#000000;stroke-width:5;stroke-miterlimit:10; }
.st11 { fill:#C6A58D;stroke:#000000;stroke-width:5;stroke-miterlimit:10; }
.st12 { fill:#A4DBF7;stroke:#000000;stroke-width:5;stroke-miterlimit:10; }
.st13 { fill:#5AA9C9;stroke:#000000;stroke-width:5;stroke-miterlimit:10; }
.st14 { fill:#B27757;stroke:#000000;stroke-width:5;stroke-miterlimit:10; }
.st15 { fill:#EBA56A;stroke:#000000;stroke-width:5;stroke-miterlimit:10; }
.st16 { fill:#CDC2CC;stroke:#000000;stroke-width:5;stroke-linejoin:round;stroke-miterlimit:10; }
.st17 { fill:#AAA4A9;stroke:#000000;stroke-width:5;stroke-linejoin:round;stroke-miterlimit:10; }
.st18 { fill:#FFFFFF;stroke:#000000;stroke-width:5;stroke-miterlimit:10; }
.st19 { fill:#F0EEEF;stroke:#000000;stroke-width:5;stroke-miterlimit:10; }
.st20 { fill:#F3F6DC;stroke:#000000;stroke-width:5;stroke-linejoin:round;stroke-miterlimit:10; }
.st21 { fill:#D5E18D;stroke:#000000;stroke-width:5;stroke-linejoin:bevel;stroke-miterlimit:10; }
.st22 { fill:#D5E18D;stroke:#000000;stroke-width:5;stroke-miterlimit:10; }
.st23 { fill:#83A957;stroke:#000000;stroke-width:5;stroke-miterlimit:10; }
.st24 { fill:#DBCCC1;stroke:#000000;stroke-width:5;stroke-miterlimit:10; }
</style>
<g id="g248">
	<polygon id="polygon4" class="st0" points="493.96 1111.9 1318.2 1111.9 1814.7 1782.9 0 1784.6 0 1562.9" onmouseout="this.style.filter=''" onmouseover="this.style.filter='saturate(4)'" onclick="document.getElementById('info').textContent=this.getElementsByTagName('title')[0].textContent;this.getElementsByTagName('xhtml:audio')[0].play();">
		<title>El piso</title> 
		<xhtml:audio><xhtml:source src="https://upload.wikimedia.org/wikipedia/commons/3/34/Es-piso.oga" type="audio/ogg"/></xhtml:audio>
	</polygon>
	<rect id="rect6" class="st1" x="493.96" y="394.63" width="824.21" height="717.3" onmouseout="this.style.filter=''" onmouseover="this.style.filter='saturate(4)'" onclick="document.getElementById('info').textContent=this.getElementsByTagName('title')[0].textContent;this.getElementsByTagName('xhtml:audio')[0].play();">
		<title>La pared</title> 
		<xhtml:audio><xhtml:source src="https://upload.wikimedia.org/wikipedia/commons/4/4b/LL-Q1321_%28spa%29-AdrianAbdulBaha-pared.wav" type="audio/x-wav"/></xhtml:audio>
    </rect>
	<polygon id="polygon8" class="st2" points="1318.2 394.63 1815.5 0 1814.7 1782.9 1318.2 1111.9" onmouseout="this.style.filter=''" onmouseover="this.style.filter='saturate(4)'" onclick="document.getElementById('info').textContent=this.getElementsByTagName('title')[0].textContent;this.getElementsByTagName('xhtml:audio')[0].play();"> 
		<title>La pared</title> 
		<xhtml:audio><xhtml:source src="https://upload.wikimedia.org/wikipedia/commons/4/4b/LL-Q1321_%28spa%29-AdrianAbdulBaha-pared.wav" type="audio/x-wav"/></xhtml:audio>
	</polygon>
	<polygon id="polygon10" class="st2" points="493.96 394.63 1e-7 0 0 1562.9 493.96 1111.9" onmouseout="this.style.filter=''" onmouseover="this.style.filter='saturate(4)'" onclick="document.getElementById('info').textContent=this.getElementsByTagName('title')[0].textContent;this.getElementsByTagName('xhtml:audio')[0].play();">
		<title>La pared</title> 
		<xhtml:audio><xhtml:source src="https://upload.wikimedia.org/wikipedia/commons/4/4b/LL-Q1321_%28spa%29-AdrianAbdulBaha-pared.wav" type="audio/x-wav"/></xhtml:audio>
    </polygon>
	<polygon id="polygon12" class="st3" points="493.96 394.63 1318.2 394.63 1815.5 0 1e-7 0" onmouseout="this.style.filter=''" onmouseover="this.style.filter='saturate(4)'" onclick="document.getElementById('info').textContent=this.getElementsByTagName('title')[0].textContent;this.getElementsByTagName('xhtml:audio')[0].play();">
        <title>El techo</title>
	</polygon>
	<g>
		<rect x="310" y="5" width="1100" height="80" rx="20" ry="20" fill="white" stroke="black"/>
		<text id="info" x="330" y="75" font-size="5em" stroke="black">Haga clic en algún objeto!</text>
	</g>
	<g id="g26" onmouseout="this.style.filter=''" onmouseover="this.style.filter='saturate(4)'" onclick="document.getElementById('info').textContent=this.getElementsByTagName('title')[0].textContent;this.getElementsByTagName('xhtml:audio')[0].play();">
        <title>El reloj</title>
		<xhtml:audio><xhtml:source src="https://upload.wikimedia.org/wikipedia/commons/c/c0/LL-Q1321_%28spa%29-AdrianAbdulBaha-reloj.wav" type="audio/x-wav"/></xhtml:audio>
		<circle id="circle14" class="st4" cx="1130" cy="642.86" r="100.53"/>
		<circle id="circle16" class="st5" cx="1130" cy="642.86" r="75.529"/>
		<g id="g24">
			<circle id="circle18" class="st6" cx="1132.8" cy="641.27" r="13.438"/>
			<path id="path20" class="st6" d="m1121.5 634.37s-26.26-15.274-44.314-4.6065c-3.994 2.3599-4.5555 7.9086-1.1819 11.093 5.7909 5.4659 18.518 11.703 45.496 7.0023v-13.489z"/>
			<path id="path22" class="st6" d="m1128.6 628.48s-19.045-36.749-41.965-37.075c-3.0248-.042969-5.449 2.5384-5.1609 5.5498.89648 9.375 6.8036 29.423 40.024 37.416l7.1023-5.8915z"/>
		</g>
	</g>
	<g id="g38" onmouseout="this.style.filter=''" onmouseover="this.style.filter='saturate(4)'" onclick="document.getElementById('info').textContent=this.getElementsByTagName('title')[0].textContent;this.getElementsByTagName('xhtml:audio')[0].play();">
		<title>La lámpara</title>
		<xhtml:audio><xhtml:source src="https://upload.wikimedia.org/wikipedia/commons/8/81/LL-Q1321_%28spa%29-AdrianAbdulBaha-l%C3%A1mpara.wav" type="audio/x-wav"/></xhtml:audio>
		<path id="path28" class="st5" d="m933 131.36c-14.209 12.564-35.38 14.116-50.692 2.9217-.48053-.3513-.9549-.71307-1.4226-1.0852-3.3585-2.6718-6.7496-5.77-9.5299-9.1412-7.519-9.1173-5.6788-22.769 3.9775-29.582 10.013-7.0643 28.846-14.947 54.427-1.9468 0 0 13.099 5.0183 14.091 19.693.48468 7.1734-5.058 14.018-10.851 19.14z"/>
		<line id="line30" class="st7" x1="906.53" x2="906.53" y1="141.81" y2="215.4"/>
		<path id="path32" class="st5" d="m861.25 238.49s32.327-37.499 71.766-17.78c0 0 50.43 33.297 83.403 97.627l21.339 43.605c9.7324 19.888 1.7406 44.052-18.099 53.882-4.9559 2.4554-10.829 4.7032-17.786 6.605-48.49 13.254-95.339 10.021-95.339 10.021s-51.67-.20825-94.631-23.195c-28.637-15.323-39.015-51.8-21.945-79.432.36896-.5972.75031-1.1936 1.1444-1.7888 9.5265-14.387 19.031-33.257 34.113-51.89 12.387-15.304 24.836-27.743 36.036-37.655z"/>
		<path id="path34" class="st7" d="m814.01 383.7s-31.492-25.381 47.002-37.602 153.7 37.602 153.7 37.602"/>
		<path id="path36" class="st8" d="m909.72 383.7h12.232c5.6944 0 11.35-1.3956 16.219-4.3487 14.716-8.926 12.548-24.733 12.542-24.774-22.745-7.0649-49.645-12.048-77.443-9.8925-.02002.25787-.043274.60843-.062805 1.0408-.93573 20.722 15.77 37.975 36.514 37.975z"/>
	</g>
	<g id="g46" class="st0  st10" style="" onmouseout="this.style.filter=''" onmouseover="this.style.filter='saturate(4)'" onclick="document.getElementById('info').textContent=this.getElementsByTagName('title')[0].textContent;this.getElementsByTagName('xhtml:audio')[0].play();">
		<title id="title23">La puerta</title>
		<xhtml:audio><xhtml:source src="https://upload.wikimedia.org/wikipedia/commons/6/6b/LL-Q1321_%28spa%29-AdrianAbdulBaha-puerta.wav" type="audio/x-wav"/></xhtml:audio>
		<path id="path40" class="st9" d="m59.247 1508.8v-1001.3l275.13 74.458v675.57l-275.13 251.24z"/>
		<polygon id="polygon42" class="st10" points="110.43 1462 110.43 584.56 297.17 621.08 297.17 1290.7"/>
		<ellipse id="ellipse44" class="st11" cx="151.56" cy="998.37" rx="22.475" ry="40.409"/>
	</g>
	<g id="g54" onmouseout="this.style.filter=''" onmouseover="this.style.filter='saturate(4)'" onclick="document.getElementById('info').textContent=this.getElementsByTagName('title')[0].textContent;this.getElementsByTagName('xhtml:audio')[0].play();">
		<title id="title23">La alfombra</title>
		<path id="path48" class="st12" d="m437.77 1283.2h516.72c11.228 0 20.624 8.5171 21.723 19.691l29.172 296.48c.9043 9.1906-6.3163 17.156-15.551 17.156h-830.36c-8.3324 0-12.828-9.7733-7.4057-16.1l262.88-306.73c5.7108-6.6635 14.048-10.499 22.824-10.499z"/>
		<path id="path50" class="st13" d="m499.66 1330.8h367.03c9.0405 0 16.306 7.4473 16.082 16.485l-4.2377 171.39c-.2807 11.353-9.587 20.397-20.943 20.354l-499.83-1.9072c-6.2335-.023682-9.8922-7.0203-6.3554-12.153l125.58-182.26c5.139-7.4583 13.617-11.912 22.674-11.912z"/>
		<ellipse id="ellipse52" class="st12" cx="651.58" cy="1412.8" rx="120.99" ry="39.565"/>
	</g>
	<g id="g144">
		<g id="g90">
			<polygon id="polygon56" class="st10" points="390.24 727.48 390.24 1225.3 868.17 1225.3 868.17 1072 635.54 1072 635.54 727.48"/>
			<g id="g64">
				<rect id="rect58" class="st14" x="410.63" y="926.41" width="208.74" height="146.76"/>
				<polyline id="polyline60" class="st14" points="410.63 1073.2 505.72 1008 616.66 1008"/>
				<line id="line62" class="st14" x1="505.72" x2="505.72" y1="1008" y2="926.41"/>
			</g>
			<g id="g72">
				<rect id="rect66" class="st14" x="410.63" y="743.32" width="208.74" height="170.98"/>
				<polyline id="polyline68" class="st14" points="410.63 914.3 505.72 881.3 505.72 743.32"/>
				<line id="line70" class="st14" x1="505.72" x2="616.66" y1="881.3" y2="881.3"/>
			</g>
			<g id="g82" onmouseout="this.style.filter=''" onmouseover="this.style.filter='saturate(4)'" onclick="document.getElementById('info').textContent=this.getElementsByTagName('title')[0].textContent;this.getElementsByTagName('xhtml:audio')[0].play();">
				<title>El gabinete</title>
				<xhtml:audio><xhtml:source src="https://upload.wikimedia.org/wikipedia/commons/a/a1/LL-Q1321_%28spa%29-AdrianAbdulBaha-gabinete.wav" type="audio/x-wav"/></xhtml:audio>
				<rect id="rect74" class="st9" x="431.51" y="1095.3" width="387.52" height="107.95"/>
				<line id="line76" class="st9" x1="625.28" x2="625.28" y1="1095.3" y2="1203.3"/>
				<ellipse id="ellipse78" class="st11" cx="651.51" cy="1155.4" rx="10.289" ry="19.003"/>
				<ellipse id="ellipse80" class="st11" cx="602.19" cy="1155.4" rx="10.289" ry="19.003"/>
			</g>
			<polygon id="polygon84" class="st9" points="868.17 1072 878.09 1007 690.12 1007 690.12 727.48 635.54 727.48 635.54 1072"/>
			<polygon id="polygon86" class="st10" points="878.09 1007 868.17 1072 868.17 1225.3 878.09 1137.1"/>
			<line id="line88" class="st7" x1="690.12" x2="635.54" y1="1007" y2="1072"/>
		</g>
		<g id="g112">
			<g id="g96" onmouseout="this.style.filter=''" onmouseover="this.style.filter='saturate(4)'" onclick="document.getElementById('info').textContent=this.getElementsByTagName('title')[0].textContent;this.getElementsByTagName('xhtml:audio')[0].play();">
			<title>El libro</title>
				<path id="path92" class="st15" d="m432.9 769.34v134.2c6.3231 1.1794 14.152 2.1007 23.125 1.9688 7.4993-.11035 14.135-.93188 19.691-1.9688v-134.2h-42.815z"/>
				<path id="path94" class="st7" d="m439.47 781.21s13.505 4.5974 30.17 1.1493"/>
			</g>
			<g id="g104" onmouseout="this.style.filter=''" onmouseover="this.style.filter='saturate(4)'" onclick="document.getElementById('info').textContent=this.getElementsByTagName('title')[0].textContent;this.getElementsByTagName('xhtml:audio')[0].play();">
			<title>El libro</title>
				<path id="path98" class="st12" d="m475.72 769.34h77.043v120.19l-38.521 15.992c-6.5078.77039-14.421 1.1454-23.352.37085-5.6111-.48669-10.694-1.3464-15.17-2.3522-1e-7-44.734-1e-7-89.468-1e-7-134.2z"/>
				<path id="path100" class="st7" d="m483.26 781.21s13.505 4.5974 30.17 1.1493"/>
				<line id="line102" class="st7" x1="517.56" x2="517.56" y1="778.42" y2="894.27"/>
			</g>
			<g id="g110" onmouseout="this.style.filter=''" onmouseover="this.style.filter='saturate(4)'" onclick="document.getElementById('info').textContent=this.getElementsByTagName('title')[0].textContent;this.getElementsByTagName('xhtml:audio')[0].play();">
			<title>El libro</title>
				<path id="path106" class="st8" d="m573.06 906.22c6.3795-1.84 13.643-4.3759 21.421-7.9176 8.1578-3.7147 19.135-8.0516 24.894-11.827v-67.916l-25.008-45.51-39.168 5.9534c-4.9084.8219-10.773 2.1968-17.179 4.549-5.6768 2.0845-10.511 4.4709-14.469 6.7313 16.503 38.645 33.005 77.291 49.508 115.94z"/>
				<line id="line108" class="st7" x1="561.15" x2="605.64" y1="786.21" y2="884.6"/>
			</g>
		</g>
		<g id="g122" onmouseout="this.style.filter=''" onmouseover="this.style.filter='saturate(4)'" onclick="document.getElementById('info').textContent=this.getElementsByTagName('title')[0].textContent;this.getElementsByTagName('xhtml:audio')[0].play();">
			<title>La lámpara</title>
			<xhtml:audio><xhtml:source src="https://upload.wikimedia.org/wikipedia/commons/8/81/LL-Q1321_%28spa%29-AdrianAbdulBaha-l%C3%A1mpara.wav" type="audio/x-wav"/></xhtml:audio>
			<path id="path114" class="st8" d="m816.19 856.67 39.166 104.99s-10.953 31.249-78.927 31.249-78.739-31.757-78.739-31.757l43.563-104.48h74.936z"/>
			<ellipse id="ellipse116" class="st8" cx="778.72" cy="856.67" rx="37.468" ry="12.294"/>
			<ellipse id="ellipse118" class="st15" cx="774.42" cy="1039.9" rx="55.435" ry="17.824"/>
			<path id="path120" class="st15" d="m781.99 1025.7 2.1077-32.77h-18.064l3.6582 32.5c-5.1744.80371-8.8203 2.7238-8.8203 4.9673 0 2.9663 6.3693 5.3711 14.226 5.3711 7.8569 0 14.226-2.4048 14.226-5.3711 0-2.0219-2.962-3.781-7.334-4.6974z"/>
		</g>
	</g>
	<g id="g162">
		<line id="line146" class="st7" x1="1001.5" x2="1012.2" y1="1098" y2="1124.2"/>
		<path id="path148" class="st10" d="m1322.7 1089.7v-96.302s-59.081-46.083-166.02-46.083c-106.94 0-164.84 47.265-164.84 47.265v95.12h330.85z" onmouseout="this.style.filter=''" onmouseover="this.style.filter='saturate(4)'" onclick="document.getElementById('info').textContent=this.getElementsByTagName('title')[0].textContent;this.getElementsByTagName('xhtml:audio')[0].play();">
			<title>La cama</title>
			<xhtml:audio><xhtml:source src="https://upload.wikimedia.org/wikipedia/commons/f/f5/Es-am-lat-cama.ogg" type="audio/ogg"/></xhtml:audio>
		</path>
		<polygon id="polygon150" class="st10" points="1057.9 1478.6 991.88 1174.1 991.88 1149.1 1003.2 1162.2 1063.3 1431.7 1063.3 1331.1 1593.4 1331.1 1593.4 1478.6" onmouseout="this.style.filter=''" onmouseover="this.style.filter='saturate(4)'" onclick="document.getElementById('info').textContent=this.getElementsByTagName('title')[0].textContent;this.getElementsByTagName('xhtml:audio')[0].play();">
			<title>La cama</title>
			<xhtml:audio><xhtml:source src="https://upload.wikimedia.org/wikipedia/commons/f/f5/Es-am-lat-cama.ogg" type="audio/ogg"/></xhtml:audio>
		</polygon>
		<polygon id="polygon152" class="st18" points="991.88 1149.1 1003.2 1162.2 1003.2 1124.1 1366 1125 1322.7 1089.7 991.88 1089.7"/>
		<polygon id="polygon154" class="st12" points="1063.3 1397.5 1593.4 1397.5 1593.4 1331.1 1366 1125 1003.2 1124.1 1003.2 1162.2 1063.3 1431.7" onmouseover="this.style.filter='saturate(4)'" onclick="document.getElementById('info').textContent=this.getElementsByTagName('title')[0].textContent;this.getElementsByTagName('xhtml:audio')[0].play();">
			<title>La sábana</title>
			<xhtml:audio><xhtml:source src="https://upload.wikimedia.org/wikipedia/commons/b/b0/LL-Q1321_%28spa%29-AdrianAbdulBaha-s%C3%A1bana.wav" type="audio/x-wav"/></xhtml:audio>
		</polygon>
		<path id="path156" class="st7" d="m1410.1 1174.9h-360.51s-30.978-.70959-30.319 30.87"/>
		<path id="path158" class="st18" d="m1066.7 1023.3s14.332-21.499 47.407-21.499 67.252 8.2687 67.252 8.2687 52.368 7.1661 66.149-2.205c0 0 11.025-23.704 35.831-11.025 0 0 5.5125 8.0703-18.191 21.675 0 0 45.836 23.706 33.116 107.41 0 0 23.111-1.1919 18.701 13.692s-28.114 0-28.114 0-33.075 15.986-82.687 14.332c-49.612-1.6538-100.88.12-100.88.12s-9.3711 14.212-23.152 14.212-7.1663-28.114-7.1663-28.114-35.28-40.792-19.294-100.33c0 0-27.562 7.1661-33.075-14.884 1e-7 1e-7 13.23-20.947 44.1-1.6537z" onmouseout="this.style.filter='sepia(0%) '" onmouseover="this.style.filter='sepia(100%) saturate(4)'" onclick="document.getElementById('info').textContent=this.getElementsByTagName('title')[0].textContent;this.getElementsByTagName('xhtml:audio')[0].play();">
        <title>La almohada</title>
		<xhtml:audio><xhtml:source src="https://upload.wikimedia.org/wikipedia/commons/1/1e/LL-Q1321_%28spa%29-AdrianAbdulBaha-almohada.wav" type="audio/x-wav"/></xhtml:audio>
        </path>
		<path id="path160" class="st7" d="m1068.4 1047.6s2.205 65.047 30.318 81.584"/>
	</g>
	<g id="g174" onmouseout="this.style.filter=''" onmouseover="this.style.filter='saturate(4)'" onclick="document.getElementById('info').textContent=this.getElementsByTagName('title')[0].textContent;this.getElementsByTagName('xhtml:audio')[0].play();">
		<title>La ventana</title>
		<xhtml:audio><xhtml:source src="https://upload.wikimedia.org/wikipedia/commons/2/29/LL-Q1321_%28spa%29-AdrianAbdulBaha-ventana.wav" type="audio/x-wav"/></xhtml:audio>
		<polygon id="polygon164" class="st19" points="1394.7 1104.1 1717 1287.7 1814.4 1287.7 1815.5 274.68 1399 483.02"/>
		<polygon id="polygon166" class="st12" points="1779.8 393.75 1655.9 435.2 1655.9 635.62 1779.8 623.14"/>
		<polygon id="polygon168" class="st12" points="1427.1 662.81 1607 643.3 1607 449.42 1429.9 519.83"/>
		<polygon id="polygon170" class="st12" points="1610.6 691.51 1607 1171.6 1419.7 1073.2 1426.5 701.85"/>
		<polygon id="polygon172" class="st12" points="1779.8 676.48 1784 1283.5 1655.9 1202.6 1655.9 688.28"/>
	</g>
	<g id="g208">
		<g id="g196" onmouseout="this.style.filter=''" onmouseover="this.style.filter='saturate(4)'" onclick="document.getElementById('info').textContent=this.getElementsByTagName('title')[0].textContent;this.getElementsByTagName('xhtml:audio')[0].play();">
		<title>La barra de cortina</title>
			<path id="path176" class="st19" d="m1392.5 445.95c-12.309 0-22.288 12.945-22.288 28.913s9.9785 28.913 22.288 28.913 22.288-12.945 22.288-28.913-9.9785-28.913-22.288-28.913zm2.0325 45.412c-7.217 0-13.068-7.9915-13.068-17.849s5.8506-17.85 13.068-17.85 13.068 7.9915 13.068 17.85-5.8506 17.849-13.068 17.849z"/>
			<path id="path178" class="st20" d="m1384.9 461.53 30.749-16.045 3.5081 27.675-28.835 17.222c-1.676-1.858-7.0835-4.3862-8.8024-11.807-1.74-7.5118 2.572-14.614 3.3811-17.046z"/>
			<path id="path180" class="st19" d="m1435.4 418.36c-13.596 0-24.617 14.298-24.617 31.936s11.022 31.936 24.617 31.936c13.596 0 24.618-14.298 24.618-31.936s-11.022-31.936-24.618-31.936zm2.2451 50.159c-7.9714 0-14.434-8.8269-14.434-19.715s6.4622-19.715 14.434-19.715 14.434 8.8269 14.434 19.715-6.4622 19.715-14.434 19.715z"/>
			<path id="path182" class="st4" d="m1424.2 441.47 35.653-19.179 5.8779 27.128-33.482 17.695c-1.7258-1.5072-6.0042-5.2825-8.0129-10.627-2.2078-5.8734-.43127-12.749-.035767-15.017z"/>
			<path id="path184" class="st19" d="m1486.6 388.95c-15.449 0-27.973 16.247-27.973 36.289s12.524 36.289 27.973 36.289 27.973-16.247 27.973-36.289-12.524-36.289-27.973-36.289zm2.5508 56.996c-9.0579 0-16.401-10.03-16.401-22.403s7.343-22.403 16.401-22.403c9.0581 0 16.401 10.03 16.401 22.403s-7.3428 22.403-16.401 22.403z"/>
			<path id="path186" class="st4" d="m1473.9 415.17 44.006-26.303 7.1323 29.361-45.759 23.246c-1.6846-1.6481-3.9115-5.545-5.6254-11.107-2.0264-6.5759-.38232-12.923.24536-15.197z"/>
			<path id="path188" class="st19" d="m1546.5 355.67c-16.928 0-30.651 17.802-30.651 39.763 0 21.96 13.723 39.763 30.651 39.763s30.651-17.802 30.651-39.763c0-21.96-13.723-39.763-30.651-39.763zm2.7952 62.452c-9.925 0-17.971-10.99-17.971-24.547s8.0457-24.547 17.971-24.547 17.971 10.99 17.971 24.547-8.0459 24.547-17.971 24.547z"/>
			<path id="path190" class="st4" d="m1534.8 380 174.87-98.035 11.26 39.081-181.31 92.477c-1.8203-3.0166-6.3522-7.6857-7.1237-15.756-.77295-8.0839 1.0833-14.46 2.3015-17.767z"/>
			<path id="path192" class="st19" d="m1736.6 235.42c-21.414 0-38.774 22.52-38.774 50.3s17.36 50.3 38.774 50.3 38.774-22.52 38.774-50.3-17.36-50.3-38.774-50.3zm0 81.353c-12.555 0-22.733-13.903-22.733-31.053s10.178-31.053 22.733-31.053 22.733 13.903 22.733 31.053c1e-7 17.15-10.178 31.053-22.733 31.053z"/>
			<path id="path194" class="st20" d="m1815.5 223.2-100.15 55.86c-.7229 2.9828-2.1726 10.696 1.0146 19.656 3.0437 8.5564 13.826 15.509 16.247 17.429 29.359-13.156 53.525-28.304 82.883-41.46v-51.485z"/>
		</g>
		<path id="path198" class="st21" d="m1744.5 334.96s5.2192 480.19 68.512 633.53l1.7003-593.44c0-1e-7-61.703-14.314-70.212-40.086z" onmouseout="this.style.filter=''" onmouseover="this.style.filter='saturate(4)'" onclick="document.getElementById('info').textContent=this.getElementsByTagName('title')[0].textContent;this.getElementsByTagName('xhtml:audio')[0].play();">
			<title>La cortina</title>
			<xhtml:audio><xhtml:source src="https://upload.wikimedia.org/wikipedia/commons/f/ff/LL-Q1321_%28spa%29-AdrianAbdulBaha-cortina.wav" type="audio/x-wav"/></xhtml:audio>
        </path>
		<g id="g206" onmouseout="this.style.filter=''" onmouseover="this.style.filter='saturate(4)'" onclick="document.getElementById('info').textContent=this.getElementsByTagName('title')[0].textContent;this.getElementsByTagName('xhtml:audio')[0].play();">
			<title>La cortina</title>
			<xhtml:audio><xhtml:source src="https://upload.wikimedia.org/wikipedia/commons/f/ff/LL-Q1321_%28spa%29-AdrianAbdulBaha-cortina.wav" type="audio/x-wav"/></xhtml:audio>
			<path id="path200" class="st21" d="m1394.9 501.62v459.77l23.153 13.23s187.03 6.1242 137.41-541.83c0 0-24.955 87.59-63.543 29.156 0 0-22.05 84.894-54.023 22.05 1e-7 0-11.025 56.207-42.998 17.619z"/>
			<path id="path202" class="st22" d="m1391.2 992.8s-31.98 104.24-3.9724 129.1c0 0 10.503 7.702 16.104-13.654 0 0-9.4524 37.11 19.605 36.41 29.057-.7002 14.354-55.665 14.354-55.665l-20.437-84.57-25.654-11.62z"/>
			<path id="path204" class="st22" d="m1405.6 967.5c-9.4659-12.923-15.374-4.9998-15.374-4.9998-10.376 7.8607 1.0388 12.148 1.0388 12.148s-17.075 5.1943 0 18.148c17.075 12.953 31.205 14.131 31.205 14.131s10.573-5.6519 1.3735-17.415c0 0 4.4102-9.0668-5.783-14.891-10.193-5.8246-12.461-7.1206-12.461-7.1206z"/>
		</g>
	</g>
	<g id="g234" onmouseout="this.style.filter=''" onmouseover="this.style.filter='saturate(4)'" onclick="document.getElementById('info').textContent=this.getElementsByTagName('title')[0].textContent;this.getElementsByTagName('xhtml:audio')[0].play();">
		<title>La cajonera / cómoda</title>
		<polygon id="polygon210" class="st10" points="1441 1286.4 1441 1346 1623.9 1535 1815.5 1535 1812.1 1287.7"/>
		<polyline id="polyline212" class="st10" points="1441 1286.4 1623.9 1467.7 1815.5 1467.7"/>
		<line id="line214" class="st7" x1="1623.9" x2="1623.9" y1="1467.7" y2="1535"/>
		<polygon id="polygon216" class="st10" points="1623.9 1790.7 1451.1 1532.6 1449.2 1354.5 1623.9 1535"/>
		<path id="path218" class="st7" d="m1623.9 1757.5"/>
		<path id="path220" class="st7" d="m1623.9 1757.5"/>
		<polygon id="polygon222" class="st10" points="1623.9 1535 1815.5 1535 1812.1 1790.7 1623.9 1790.7"/>
		<g id="g232">
			<polygon id="polygon224" class="st9" points="1473.3 1379.4 1473.3 1514.6 1597.1 1698.4 1597.1 1507.3"/>
			<line id="line226" class="st7" x1="1473.3" x2="1597.1" y1="1457.3" y2="1597.2"/>
			<path id="path228" class="st11" d="m1543.5 1467.1c3.7998 9.0905.85828 18.977-6.5701 22.082-7.4282 3.105-14.358-2.7612-18.158-11.852-3.7998-9.0905-3.0304-17.963 4.3979-21.068s16.531 1.7472 20.33 10.838z"/>
			<path id="path230" class="st11" d="m1534.9 1539c3.7997 9.0905.85815 18.977-6.5701 22.082-7.4283 3.105-14.358-2.7614-18.158-11.852s-3.0304-17.963 4.3979-21.068 16.531 1.7472 20.33 10.838z"/>
		</g>
	</g>
	<g id="g246" onmouseout="this.style.filter=''" onmouseover="this.style.filter='saturate(4)'" onclick="document.getElementById('info').textContent=this.getElementsByTagName('title')[0].textContent;this.getElementsByTagName('xhtml:audio')[0].play();">
		<title>La maceta</title>
		<path id="path236" class="st23" d="m1661.8 1208.2s39.577-35.322 64.632-26.748c4.9766 1.703 7.8475 6.8798 6.8015 12.035-1.5938 7.8535-7.5154 20.29-27.563 31.746 0 0 53.677 2.0646 44.387 42.839 0 0 5.0776 40.695-44.987 6.6302-6.4148 4.276-17.42 11.425-27.976 14.23-33.918 9.0144-64.598-13.702-73.056-18.529-18.639 21.658-42.293 34.828-57.89 26.545-7.4187-3.9399-13.462-12.39-16.478-27.844-12.387-63.484 68.645-53.677 68.645-53.677s-31.484-22.194-3.0969-38.71c-1e-7 1e-7 34.064-10.323 66.581 31.484z"/>
		<polyline id="polyline238" class="st7" points="1643.3 1230.9 1639.8 1193.9 1659.8 1190.3 1661.3 1230.9"/>
		<path id="path240" class="st15" d="m1645.9 1091.7s45.433-41.607 65.041 10.999-38.737 43.998-38.737 43.998 32.946 37.146-22.956 52.756-40.172-32.191-40.172-32.191-34.433 31.564-47.346-10.043 31.086-35.868 31.086-35.868-44.476-23.434 1.913-49.737c1e-7 0 58.823-27.26 51.172 20.086z"/>
		
			<ellipse id="ellipse242" class="st24" transform="matrix(.77798 -.62829 .62829 .77798 -347.5 1274.7)" cx="1629.8" cy="1129" rx="29.537" ry="19.548"/>
		<path id="path244" class="st16" d="m1604.1 1265.3 13.657 86.894s61.099 34.515 86.954-4.8307l4.2095-82.064s-24.919 43.227-104.82 0z"/>
	</g>
</g>
</svg>
