<svg xmlns="http://www.w3.org/2000/svg" xmlns:xlink="http://www.w3.org/1999/xlink" version="1" width="390" height="396.358"><defs><linearGradient id="a"><stop offset="0" stop-color="#205c32"/><stop offset="1" stop-color="#3fb662"/></linearGradient><linearGradient xlink:href="#a" id="b" gradientUnits="userSpaceOnUse" gradientTransform="translate(88.429 -33.924)" x1="287.755" y1="383.621" x2="228.635" y2="448.85"/></defs><g transform="matrix(.83761 0 0 .83761 -97.386 -107.612)"><path d="M398.428 383.076a47.714 47.714 0 1 1-95.427 0 47.714 47.714 0 1 1 95.427 0z" transform="translate(-1.286 142)" id="c" fill="url(#b)" fill-rule="evenodd" stroke="#000" stroke-width="10"/><use transform="translate(0 -320)" id="f" width="744.094" height="1052.362" xlink:href="#c"/><use transform="translate(-315.857)" id="e" width="744.094" height="1052.362" xlink:href="#d"/><use transform="translate(0 176)" width="744.094" height="1052.362" xlink:href="#e"/><path d="M192 327.22v77.142" id="g" fill="none" fill-rule="evenodd" stroke="#000" stroke-width="10"/><g transform="translate(-3.429)"><use transform="translate(159.286 73.429)" id="d" width="744.094" height="1052.362" xlink:href="#f"/><use transform="translate(0 176)" width="744.094" height="1052.362" xlink:href="#d"/><use transform="translate(315.857 .571)" width="527.143" height="510" xlink:href="#g"/></g><use transform="rotate(-120 349.094 364.963)" id="h" width="527.143" height="510" xlink:href="#g"/><use transform="rotate(-120 351.702 363.208)" width="527.143" height="510" xlink:href="#h"/></g><path d="M103.792 125.834h181.915M83.637 160.068l81.83 141.733" fill="none" stroke="#000" stroke-width="8.3761"/></svg>