<?xml version="1.0" encoding="UTF-8" standalone="no"?>
<!-- Created with Inkscape (http://www.inkscape.org/) -->

<svg
   xmlns:dc="http://purl.org/dc/elements/1.1/"
   xmlns:cc="http://creativecommons.org/ns#"
   xmlns:rdf="http://www.w3.org/1999/02/22-rdf-syntax-ns#"
   xmlns:svg="http://www.w3.org/2000/svg"
   xmlns="http://www.w3.org/2000/svg"
   xmlns:xlink="http://www.w3.org/1999/xlink"
   xmlns:sodipodi="http://sodipodi.sourceforge.net/DTD/sodipodi-0.dtd"
   xmlns:inkscape="http://www.inkscape.org/namespaces/inkscape"
   id="svg2"
   sodipodi:docname="microscope.svg"
   viewBox="0 0 768.00001 384.08"
   sodipodi:version="0.32"
   version="1.0"
   inkscape:output_extension="org.inkscape.output.svg.inkscape"
   inkscape:version="0.91 r13725"
   width="768"
   height="384.08002">
  <sodipodi:namedview
     id="base"
     bordercolor="#666666"
     inkscape:pageshadow="2"
     guidetolerance="10.0"
     pagecolor="#ffffff"
     gridtolerance="10.0"
     objecttolerance="10.0"
     borderopacity="1.0"
     inkscape:window-height="1003"
     inkscape:pageopacity="0.0"
     inkscape:window-width="1278"
     showgrid="false"
     inkscape:zoom="0.45290549"
     inkscape:cx="40.317321"
     inkscape:cy="260.54001"
     inkscape:window-x="0"
     inkscape:window-y="0"
     inkscape:window-maximized="0"
     inkscape:current-layer="svg2" />
  <defs
     id="defs4">
    <linearGradient
       id="linearGradient21172">
      <stop
         id="stop21174"
         style="stop-color:#bbbbb3"
         offset="0" />
      <stop
         id="stop21176"
         style="stop-color:#dde2d8"
         offset="1" />
    </linearGradient>
    <linearGradient
       id="linearGradient4511">
      <stop
         id="stop4513"
         style="stop-color:#cdd0cd"
         offset="0" />
      <stop
         id="stop4515"
         style="stop-color:#ffffff"
         offset="1" />
    </linearGradient>
    <linearGradient
       id="linearGradient36226"
       y2="882.39001"
       spreadMethod="reflect"
       gradientUnits="userSpaceOnUse"
       x2="723.41998"
       y1="845.58002"
       x1="580.77002">
      <stop
         id="stop22073"
         style="stop-color:#86867c"
         offset="0" />
      <stop
         id="stop22075"
         style="stop-color:#b6aea8"
         offset="1" />
    </linearGradient>
    <linearGradient
       id="linearGradient36228"
       y2="943.70001"
       xlink:href="#linearGradient21172"
       spreadMethod="reflect"
       gradientUnits="userSpaceOnUse"
       x2="624.89001"
       y1="917.31"
       x1="459.53" />
    <linearGradient
       id="linearGradient36230"
       y2="581.33002"
       xlink:href="#linearGradient4511"
       gradientUnits="userSpaceOnUse"
       x2="435.35999"
       gradientTransform="matrix(1,0,0,0.95957,0,18.912)"
       y1="581.33002"
       x1="267.89001" />
    <linearGradient
       id="linearGradient36232"
       y2="1747.4"
       xlink:href="#linearGradient4511"
       spreadMethod="reflect"
       gradientUnits="userSpaceOnUse"
       x2="806.97998"
       y1="1769.6"
       x1="791.17999" />
    <linearGradient
       id="linearGradient36238"
       y2="239.50999"
       xlink:href="#linearGradient4511"
       gradientUnits="userSpaceOnUse"
       x2="363.35999"
       y1="259.51001"
       x1="313.79001" />
    <linearGradient
       id="linearGradient36240"
       y2="309.5"
       xlink:href="#linearGradient4511"
       gradientUnits="userSpaceOnUse"
       x2="395.70999"
       y1="340.92999"
       x1="336.64001" />
    <linearGradient
       id="linearGradient36242"
       y2="821.14001"
       xlink:href="#linearGradient4511"
       gradientUnits="userSpaceOnUse"
       x2="379.88"
       gradientTransform="matrix(1.0059,0,0,1,-4.0176,0)"
       y1="781.17999"
       x1="390.95001" />
    <linearGradient
       id="linearGradient36244"
       y2="672.78998"
       xlink:href="#linearGradient21172"
       gradientUnits="userSpaceOnUse"
       x2="463.03"
       y1="806.08002"
       x1="477.26001" />
    <linearGradient
       id="linearGradient36246"
       y2="1747.4"
       xlink:href="#linearGradient4511"
       spreadMethod="reflect"
       gradientUnits="userSpaceOnUse"
       x2="806.97998"
       gradientTransform="matrix(0.59303,0,0,0.53343,-73.44,-192.41)"
       y1="1769.6"
       x1="791.17999" />
    <linearGradient
       id="linearGradient36248"
       y2="1747.4"
       xlink:href="#linearGradient4511"
       spreadMethod="reflect"
       gradientUnits="userSpaceOnUse"
       x2="806.97998"
       gradientTransform="matrix(0.59303,0,0,0.53343,-79.756,-188.98)"
       y1="1769.6"
       x1="791.17999" />
    <linearGradient
       inkscape:collect="always"
       xlink:href="#linearGradient4511"
       id="linearGradient4200"
       gradientUnits="userSpaceOnUse"
       spreadMethod="reflect"
       x1="791.17999"
       y1="1769.6"
       x2="806.97998"
       y2="1747.4" />
    <linearGradient
       inkscape:collect="always"
       xlink:href="#linearGradient4511"
       id="linearGradient4202"
       gradientUnits="userSpaceOnUse"
       spreadMethod="reflect"
       x1="791.17999"
       y1="1769.6"
       x2="806.97998"
       y2="1747.4" />
  </defs>
  <rect
     style="fill:#bfd0dc;fill-opacity:1;opacity:0.63888889"
     id="rect4201"
     width="768.37225"
     height="384.18613"
     x="-2.2079661"
     y="2.1018546" />
  <g
     id="layer1"
     transform="matrix(0.67186891,0,0,0.67186891,242.03225,0.95926486)">
    <g
       id="g36177"
       transform="matrix(0.63497,0,0,0.56167,-96.339,-2.343)">
      <path
         id="path22955"
         style="fill:#c5c8bc;fill-rule:evenodd;stroke:#000000;stroke-width:3.8124001;stroke-linejoin:round"
         d="m 743.59,808.63 -13.98,18.26 0.21,61.71 15.91,-19.04 -2.14,-60.93 z"
         inkscape:connector-curvature="0" />
      <path
         id="path22080"
         style="fill:#c5c8bc;fill-rule:evenodd;stroke:#000000;stroke-width:3.97959995;stroke-linejoin:round"
         d="m 673.89,884.58 -13.19,20.52 2.82,67.17 15.08,-21.46 -4.71,-66.23 z"
         inkscape:connector-curvature="0" />
      <path
         id="path21180"
         style="fill:url(#linearGradient36226);fill-rule:evenodd;stroke:#000000;stroke-width:4.5;stroke-linecap:round;stroke-linejoin:round"
         d="m 462.29,803.35 c 0,0 233.86,19.49 242.52,20.57 8.66,1.08 22.73,1.08 22.73,1.08 0,0 2.17,0 2.17,5.42 l 0,54.13 c 0,0 1.08,4.33 -3.25,4.33 -4.33,0 -68.21,-6.49 -68.21,-6.49 0,0 -1.08,-7.58 -7.57,-7.58 -6.5,0 -193.8,-18.41 -193.8,-18.41 0,0 -22.74,-19.49 -23.82,-25.98 -1.08,-6.5 -8.66,-20.57 -3.25,-23.82 5.42,-3.25 33.57,-4.33 32.48,-3.25 z"
         inkscape:connector-curvature="0" />
      <path
         id="path18548"
         style="fill:#ffffff;fill-rule:evenodd;stroke:#000000;stroke-width:4.5;stroke-linejoin:round"
         d="m 329.43,786.87 -43.11,54.97 -27.56,-18.38 c 0,0 18.37,-17.61 22.96,-20.67 4.6,-3.06 12.25,-9.95 20.67,-9.95 9.19,0 193.69,-5.36 200.58,-5.36 6.89,0 210.52,18.37 218.18,18.37 7.66,0 18.37,1.54 18.37,1.54 0,0 3.07,-0.77 1.53,2.29 -1.53,3.06 -11.48,16.08 -11.48,16.08 L 489.19,808.15 329.43,786.87 Z"
         inkscape:connector-curvature="0" />
      <path
         id="path16799"
         style="fill:url(#linearGradient36228);fill-rule:evenodd;stroke:#000000;stroke-width:4.5;stroke-linecap:round;stroke-linejoin:round"
         d="m 259.3,825.4 c 0,0 12.44,8.7 16.79,11.81 4.35,3.11 9.33,5.6 9.33,5.6 l 4.35,-13.06 c 0,0 8.88,4.74 16.17,10.57 6.81,5.45 46.47,25.18 81.46,31.71 34.98,6.53 135.55,23.63 182.19,26.74 46.64,3.11 91.41,5.6 91.41,5.6 l 3.11,67.16 -65.3,-4.98 c 0,0 1.25,1.24 -5.59,-0.62 -6.84,-1.87 -12.44,-8.71 -12.44,-8.71 0,0 -80.21,-9.32 -83.94,-9.32 -3.74,0 -130.59,-18.04 -148,-24.88 -17.41,-6.84 -26.74,-11.19 -29.85,-9.32 -3.1,1.86 -4.97,6.21 -4.97,6.21 0.85,0.43 -22.36,-6.25 -35.44,-13.68 -13.09,-7.42 -23.63,-17.41 -23.63,-17.41 l 1.24,-27.36 3.11,-36.06 z"
         inkscape:connector-curvature="0" />
      <path
         id="path1727"
         style="fill:#000000"
         d="m 391.04,522.94 c -2.64,-5.24 -2.93,-6.5 -1.98,-8.8 0.97,-2.34 0.54,-3.91 -3.38,-12.35 -3.62,-7.81 -4.98,-9.8 -7.07,-10.32 -1.42,-0.36 -3.24,-1.92 -4.04,-3.48 -1.79,-3.46 -1.82,-3.93 -0.22,-3.96 0.69,-0.01 2.35,-0.87 3.7,-1.9 l 2.45,-1.89 -3.7,-7.89 c -3.36,-7.16 -4.73,-11.66 -3.04,-9.97 0.36,0.36 1.15,0.27 1.75,-0.2 2.14,-1.69 11.4,-3.33 13.17,-2.34 1.85,1.04 5.42,9.44 5.42,12.76 0,1.13 0.56,2.65 1.25,3.37 1.02,1.07 0.84,1.18 -1,0.63 -2.26,-0.68 -3.18,0.76 -1.25,1.95 1.27,0.79 1.29,5.09 0.04,7.43 -0.73,1.36 0.1,4.23 3.37,11.64 3.48,7.92 4.85,10.02 6.99,10.73 4.45,1.49 8.29,11.57 5.83,15.33 -1.56,2.4 -7.9,5.37 -11.47,5.37 -3.57,0 -3.87,-0.26 -6.82,-6.11 z"
         inkscape:connector-curvature="0" />
      <path
         id="path9785"
         style="fill:#e1e4df;fill-rule:evenodd;stroke:#000000;stroke-width:5.0703001;stroke-linecap:round;stroke-linejoin:round"
         d="M 316.72,319.84 249.85,347 c 0,0 -16.09,34.56 -21.05,72.83 -4.95,38.27 -9.9,132.1 17.34,186.42 27.24,54.32 106.49,158.02 170.88,185.18 64.39,27.15 74.29,28.39 74.29,28.39 0,0 19.48,-5.15 14.86,-14.81 -18.3,-38.37 -63.15,-148.22 -63.15,-148.22 l -27.27,11.11 -40.82,4.97 c 0,0 -34.68,-33.29 -45.83,-53.04 -11.14,-19.76 -48.29,-96.3 -34.67,-120.99 13.62,-24.69 23.53,-24.69 32.2,-22.22 8.66,2.47 26,18.52 26,18.52 l 28.48,-9.88 -64.39,-165.42 z"
         inkscape:connector-curvature="0" />
      <path
         id="path26460"
         style="fill:url(#linearGradient36230);fill-rule:evenodd;stroke:#000000;stroke-width:3.91829991;stroke-linecap:round;stroke-linejoin:round"
         d="m 336.38,481.06 c 0,0 -15.22,-14.87 -35.35,-10.66 -24.6,5.14 -38.03,39.7 -27.54,76.28 10.26,35.77 60.42,126.91 80.32,138.11 20.66,11.62 38.47,-0.3 52.27,-5.02 8.51,-2.91 27.28,-14.54 27.28,-14.54 l -12.13,-10.66 -45.45,2.91 c 0,0 -2.02,3.88 -14.15,-6.79 -12.12,-10.66 -50.57,-60.4 -65.04,-108.09 -7.67,-25.29 -2.56,-46.45 6.66,-54.92 9.46,-8.69 21.01,-13.4 25.05,-11.46 4.04,1.94 7.07,6.78 8.08,4.84 z"
         inkscape:connector-curvature="0" />
      <path
         id="path6275"
         style="color:#000000;fill:#000000;fill-rule:evenodd"
         d="m 216.61,242.12 c 0,5.98 -25,10.89 -56.46,11.07 -31.46,0.19 -58,-4.42 -59.94,-10.39 -1.936,-5.97 21.43,-11.16 52.77,-11.71 31.34,-0.55 59.32,3.73 63.19,9.67"
         transform="matrix(0.91342,-0.4224,0.42567,0.90641,108.8,109.24)"
         inkscape:connector-curvature="0" />
      <path
         id="path3139"
         style="fill:#000000"
         d="m 582.57,608.64 c 0,-0.4 0.93,-1.31 2.07,-2.02 1.14,-0.71 14.19,-11.87 29,-24.8 28.28,-24.69 28.52,-24.98 25.43,-30.39 -1.73,-3.02 -1.84,-4 -0.44,-4 0.58,0 0.78,0.45 0.44,1 -0.34,0.55 -0.07,1 0.61,1 0.67,0 0.94,0.29 0.59,0.64 -0.34,0.34 -0.1,1.58 0.54,2.75 0.64,1.16 1.19,2.71 1.22,3.43 0.05,1.6 -7.76,10.18 -9.28,10.18 -0.59,0 -2.28,1.58 -3.75,3.5 -1.46,1.93 -3.27,3.5 -4.02,3.5 -0.74,0 -2.35,1.35 -3.57,3 -1.22,1.65 -2.79,3 -3.48,3 -0.7,0 -2.53,1.58 -4.07,3.5 -1.53,1.93 -3.33,3.5 -4,3.5 -0.66,0 -2.46,1.58 -4,3.5 -1.53,1.93 -3.33,3.5 -3.99,3.5 -0.66,0 -2.4,1.58 -3.87,3.5 -1.46,1.93 -3.26,3.5 -4,3.5 -0.73,0 -2.52,1.57 -3.99,3.49 -1.46,1.92 -3.06,3.25 -3.55,2.94 -0.49,-0.3 -0.89,-0.12 -0.89,0.41 0,0.52 -0.67,1.21 -1.5,1.53 -0.82,0.31 -1.5,0.24 -1.5,-0.16 z"
         inkscape:connector-curvature="0" />
      <path
         id="path1707"
         style="fill:#000000"
         d="m 270.51,438.12 c -13.41,-2.59 -27.59,-15.85 -34.94,-32.68 -5.07,-11.59 -3.96,-33.58 2.3,-45.63 3.02,-5.8 9.78,-12.48 15.66,-15.47 16.7,-8.48 20.06,-9.65 27.48,-9.55 8.58,0.12 15.83,2.54 25.04,8.37 12.15,7.69 20.04,19.84 23.2,35.72 2.81,14.16 1.55,23.05 -4.7,32.99 -2.36,3.75 -5.16,7.65 -6.23,8.66 -1.06,1.01 -1.93,2.36 -1.93,3 0,2.26 -5.36,6.45 -13.36,10.46 -7.55,3.78 -8.82,4.1 -18.14,4.52 -5.51,0.25 -11.98,0.07 -14.38,-0.39 z"
         inkscape:connector-curvature="0" />
      <path
         id="path1705"
         style="fill:#403c3d"
         d="m 286.52,432.57 c 8.06,-1.61 18.34,-7.09 20.41,-10.87 4.78,-8.74 11.21,-17.78 12.66,-17.78 1.14,0 2.07,-1.56 3.1,-5.18 1.91,-6.75 1.83,-11.74 -0.32,-20.32 -4.01,-15.99 -12.18,-28.45 -22.52,-34.31 -6.47,-3.68 -20.78,-8.39 -23.63,-7.78 -6.49,1.38 -7.42,1.71 -7.42,2.61 0,0.54 1.99,0.98 4.42,0.98 4.16,0 14.41,3.24 20.18,6.39 4.42,2.41 10.41,7.88 14.34,13.11 3.5,4.65 9.58,19.99 8.41,21.22 -0.27,0.28 -0.79,-0.78 -1.15,-2.35 -0.88,-3.85 -8.1,-15.09 -12.55,-19.54 -13.52,-13.54 -26.7,-17.56 -42.5,-12.97 -16.16,4.7 -25.65,19.11 -25.76,39.14 -0.04,6.29 0.49,10.04 2.01,14.46 5.85,16.93 21.13,31.3 35.63,33.51 7.45,1.14 7.37,1.14 14.69,-0.32 z"
         inkscape:connector-curvature="0" />
      <g
         id="g2838"
         style="fill:url(#linearGradient36232)"
         transform="matrix(0.95437,0,0,1,-481.18,-1374.3)">
        <path
           id="path1703"
           style="fill:url(#linearGradient4200)"
           d="m 784.85,1801.1 c -8.35,-2.5 -16.77,-9.7 -20.93,-17.9 -2.99,-5.9 -4.24,-16.1 -2.69,-22 2.91,-11.2 11.31,-21.1 19.6,-23.1 6.99,-1.7 17.45,-0.9 22.63,1.8 5.02,2.5 12.99,11.2 14.3,15.5 0.53,1.7 1.65,5 2.48,7.2 4.94,13 -2.37,31.3 -14.84,37.1 -5.22,2.4 -15.05,3.1 -20.55,1.4 z"
           inkscape:connector-curvature="0" />
        <path
           id="path1701"
           style="fill:url(#linearGradient4202)"
           d="m 798.77,1795.5 c 7.06,-2.9 11.51,-8.8 14.18,-18.7 1.48,-5.4 0.8,-10.3 -2.09,-15.2 -1.12,-1.9 -1.75,-3.9 -1.41,-4.5 0.91,-1.5 -7.22,-9.9 -11.79,-12.2 -5,-2.6 -12.97,-3.4 -18.4,-1.9 -3.36,0.9 -5.28,2.4 -9.28,7.3 -10.59,13.1 -10.19,26 1.21,39 5.84,6.7 19.23,9.7 27.58,6.2 z"
           inkscape:connector-curvature="0" />
      </g>
      <path
         id="path1681"
         style="fill:#ffffff;stroke:#000000;stroke-width:4.9000001"
         d="m 278.17,188.95 c -1.35,-2.89 -2.45,-6.23 -2.46,-7.43 -0.01,-1.93 3.44,-5.63 6.06,-6.51 0.53,-0.17 -2.91,-9.31 -7.64,-20.31 -18.98,-44.16 -31.43,-74.317 -31.43,-76.182 0,-3.046 3.49,-5.468 16.78,-11.668 19.31,-9.008 40.16,-16.93 45.87,-17.429 4.58,-0.4 5.33,-0.186 6.68,1.916 0.84,1.301 7.22,16.315 14.18,33.365 6.95,17.048 15.6,37.658 19.21,45.788 l 6.57,14.79 4.16,-0.62 c 4.88,-0.73 5.5,-0.2 8.45,7.27 3.24,8.23 4.73,7.04 -22.9,18.46 -7.97,3.3 -23.96,10.01 -35.52,14.91 -11.56,4.89 -22.04,8.9 -23.29,8.9 -1.77,0 -2.82,-1.17 -4.72,-5.25 z"
         inkscape:connector-curvature="0" />
      <path
         id="path33543"
         style="opacity:0.18538998;fill:#2d371f"
         d="m 290.98,56.02 c -1.44,0.936 4.93,0.218 8.28,1.461 10.58,8.157 13.78,20.782 18.14,32.261 2.61,14.028 17.35,40.548 21.99,53.818 4.19,10.14 3.17,6.5 14.49,10.03 3.52,0.82 1.43,6.75 6.79,5.23 3.31,-1.34 -1.01,-8.37 -6.06,-8.97 -6.97,2.49 -7.25,0.42 -10.96,-6.03 -7.82,-14.63 -13.38,-30.35 -16.87,-40.65 -3.49,-10.289 -6.65,-15.253 -7.57,-23.201 -2.57,-8.793 -8.77,-19.46 -17.06,-24.753 -0.95,-0.907 -9.85,0.751 -11.17,0.804 z"
         inkscape:connector-curvature="0" />
      <path
         id="path3636"
         style="fill:url(#linearGradient36238);fill-rule:evenodd;stroke:#000000;stroke-width:4.69999981;stroke-linecap:round;stroke-linejoin:round"
         d="m 285.71,195.22 34.29,88.57 88.57,-40 -40,-82.86 -82.86,34.29 z"
         inkscape:connector-curvature="0" />
      <path
         id="path2953"
         style="fill:#000000"
         d="m 288.91,58.688 c -14.31,2.2 -26.67,10.624 -40.1,15.25 -1.76,0.188 -4.32,-3.549 -5.19,-0.376 -0.93,1.426 -4.47,2.921 -3.46,5.969 5.43,9.286 9.41,20.115 12.65,30.439 0.04,3.4 3.56,5.5 4.25,9.16 7.98,18.48 16.68,36.88 23.25,55.84 1.32,4.67 -7.98,4.69 -5.56,9.94 1.22,4.01 4.43,10.7 9.7,7.8 17.75,-8.12 36.38,-14.94 53.8,-23.83 5.2,-2.04 8.82,-9.02 4.41,-13.57 -4.59,-2.11 -24.71,9.25 -29.3,10.01 2.9,-1.62 24.98,-12.13 21.33,-16.32 -3.76,-5.69 -3.94,-13.18 -7.23,-19.22 -3.85,-9.72 -6.82,-19.76 -11.21,-29.19 -1.34,-6.102 -4.76,-11.553 -6.63,-17.496 -4.6,-7.704 -8.88,-15.944 -14.5,-22.969 -1.75,-1.333 -4.06,-1.675 -6.21,-1.437 z"
         inkscape:connector-curvature="0" />
      <path
         id="path5392"
         style="fill:url(#linearGradient36240);fill-rule:evenodd;stroke:#000000;stroke-width:5.80000019;stroke-linecap:round;stroke-linejoin:round"
         d="m 303.28,283.9 c 0,0 31.72,-9.71 61.01,-22.57 29.28,-12.86 44.57,-24.97 44.57,-24.97 l 85.43,204.57 c 0,0 -20.32,12.94 -45.32,23.65 -25,10.72 -54.68,19.21 -54.68,19.21 l -5.72,-20 -11.43,0 -73.86,-179.89 z"
         inkscape:connector-curvature="0" />
      <path
         id="path8029"
         style="fill:#4d4641;fill-rule:evenodd"
         d="m 411.17,478.58 7.39,18.05 11.48,-0.82 8.21,23.79 4.92,2.46 18.87,45.95 44.31,-18.87 -22.15,-47.59 2.46,-6.56 -9.85,-22.98 4.93,-1.64 -6.57,-18.87 c 0,0 -15.18,8.82 -31.18,15.59 -16,6.77 -32.82,11.49 -32.82,11.49 z"
         inkscape:connector-curvature="0" />
      <path
         id="path3127"
         style="fill:#000000"
         d="m 462.47,563.55 c -2.68,-4.81 -4.86,-9.95 -6.47,-15.22 0.01,-3.46 9.27,-3.4 5.53,-8.27 -3.01,-3.88 -9.04,-2.51 -11.98,-6.28 -3.24,-5.34 -4.6,-11.88 -8.9,-16.54 -2.89,-0.96 -4.4,-5.03 -3.9,-2.97 0.17,-3.71 -3,-7.96 -4.48,-11.71 -1.53,-3.09 -3.07,-6.17 -4.6,-9.26 -2.95,-0.01 -8.91,1.2 -10.23,-2.88 -0.43,-3.7 -5.6,-8.92 -2.27,-11.63 14.66,-5.2 28.94,-11.44 43.59,-16.67 5.47,-3.06 7.1,3.21 8.73,7.02 1.46,3.31 6.13,5.27 1.9,8.55 -2.01,5.68 1.36,11.41 3.29,16.64 0.64,4.57 4.87,5.03 8.17,6.34 1.75,4.51 -5.87,6.45 -2.41,11.46 1.9,5.89 4.42,11.58 7.08,17.15 2.37,6.59 5.57,12.89 9.2,18.88 4,2.9 -5.5,4.63 -6.58,7.64 -4.97,3.05 -10.37,5.48 -16.13,6.5 -2.86,0.09 -7.24,4.16 -9.54,1.25 z"
         inkscape:connector-curvature="0" />
      <path
         id="path15907"
         style="fill:url(#linearGradient36242);fill-rule:evenodd;stroke:#000000;stroke-width:4.21239996;stroke-linecap:round;stroke-linejoin:round"
         d="m 670.06,882.64 c 2.25,0.13 5,1.91 4.42,3.52 -0.41,1.14 -13.27,20.22 -13.27,20.22 0,0 -231.77,-23.74 -245.04,-26.38 -13.27,-2.64 -78.73,-19.34 -90.23,-25.5 -10.82,-5.79 -36.71,-17.15 -36.27,-25.5 0.49,-9.23 54.71,-76.29 80.5,-107.29 25.43,-30.56 48.92,-16.94 56.62,-1.76 5.6,11.04 6.28,54.52 7.96,70.35 1.77,16.71 8.74,48.48 18.58,59.8 10.2,11.75 80.5,18.47 116.76,21.99 36.27,3.52 97.16,10.38 99.97,10.55 z"
         inkscape:connector-curvature="0" />
      <path
         id="path29977"
         style="opacity:0.21348003;fill:#000000"
         d="m 402.86,702.64 c 8.58,1.72 20.23,5.97 23.7,14.29 4.93,9.36 3.94,17.75 5.73,27.75 1.53,10.15 1.13,20.14 2.54,30.32 3.18,16.62 3.94,34.84 9.05,50.37 2.12,7.6 2.17,17.36 9.72,21.76 7.01,4.77 14.29,9.59 23.04,9.9 5.98,1.76 13.95,0.33 18.89,2.85 -5.3,5.27 -11.88,6.73 -19.14,4.95 -9.6,-1.38 -20.58,-1.33 -27.78,-8.89 -7.9,-2.17 -12,-9.9 -13.14,-17.66 -3.2,-10.08 -1.56,-20.76 -3.49,-31.05 -2.22,-15.92 -6.55,-34.66 -8.09,-47.54 -1.53,-12.88 -0.7,-17.43 -2.33,-29.05 0.01,-9.55 -8.07,-20.53 -16.69,-23.11 -6.94,-2.08 -21.14,-1.68 -13.2,-2.75 4.67,-0.4 9.35,-0.8 11.19,-2.14 z"
         inkscape:connector-curvature="0" />
      <path
         id="path22957"
         style="fill:url(#linearGradient36244);fill-rule:evenodd;stroke:#000000;stroke-width:4;stroke-linejoin:round"
         d="m 441.72,655.03 61.17,141.28 c 0,0 1.43,3.84 2.17,6.5 2.71,9.74 -9.75,14.62 -9.75,14.62 l -8.66,1.08 c 0,0 2.17,-3.25 1.63,-5.41 -0.54,-2.17 -67.67,-151.58 -67.67,-151.58 l 21.11,-6.49 z"
         inkscape:connector-curvature="0" />
      <path
         id="path1793"
         style="fill:#43433d;stroke:#000000;stroke-width:4.5;stroke-linecap:round;stroke-linejoin:round"
         d="m 375.48,688.47 c -1.06,-1.15 -2.67,-1.33 -7.05,-0.83 -7.55,0.88 -8.84,-0.38 -13.36,-12.99 -3.35,-9.35 -4.11,-12.64 -3.83,-16.6 0.06,-0.89 8.01,-7.57 17.67,-14.86 9.66,-7.28 17.31,-13.49 17.01,-13.8 -0.31,-0.3 -5.45,1.99 -11.44,5.11 -9.32,4.84 -11.67,5.65 -16.31,5.65 -6.07,0 -7.82,-1.14 -7.82,-5.09 0,-2.21 0.72,-2.98 4,-4.29 2.21,-0.88 7.56,-2 11.9,-2.49 8.02,-0.9 16.55,-4.46 15.77,-6.58 -3.7,-9.98 -3.56,-10.62 2.89,-13.47 5.6,-2.48 5.81,-2.5 5.07,-0.57 -0.48,1.25 0.11,1.4 3.39,0.87 3.83,-0.61 4.03,-0.5 5.46,2.94 0.82,1.96 1.2,4.38 0.84,5.38 -0.43,1.19 0.25,0.85 2.01,-1 1.47,-1.54 2.67,-3.51 2.67,-4.37 0,-1.16 0.33,-1.29 1.27,-0.52 0.93,0.78 5.5,-0.94 17.25,-6.48 8.79,-4.14 16.52,-8.05 17.18,-8.68 0.93,-0.89 0.78,-1.71 -0.69,-3.64 l -1.89,-2.49 -9.81,4.81 c -9.13,4.47 -10.27,4.79 -16.31,4.49 l -6.5,-0.32 -0.32,-3.27 c -0.28,-2.9 0.08,-3.44 3.08,-4.69 1.87,-0.78 5.84,-1.71 8.82,-2.07 6.89,-0.82 11.58,-2.21 15.59,-4.62 3.04,-1.83 3.11,-2.03 1.76,-4.63 -2.67,-5.1 -1.9,-7.86 2.98,-10.72 5.18,-3.04 10.59,-4.79 10.59,-3.43 0,0.51 -0.57,0.95 -1.25,0.97 -0.69,0.01 -0.05,0.93 1.43,2.03 1.48,1.1 3.21,3.6 3.86,5.56 0.73,2.21 4.35,13.57 4.94,12.99 1.67,-1.68 52.57,-17.73 64.06,-21.38 6.85,-2.18 20.33,-6.91 29.96,-10.52 63.01,-23.61 61.17,-22.99 69.03,-23.48 5.62,-0.35 7.8,-0.12 8.61,0.9 2.12,2.68 10.36,22.07 10.36,24.39 0,1.85 -6.2,7.78 -28.4,27.17 l -28.4,24.8 -33.35,13.26 c -18.34,7.29 -45.95,17.91 -61.35,23.59 -27.47,10.14 -28.04,10.41 -30.14,14.12 -2.5,4.41 -3.94,5.49 -7.36,5.53 -1.38,0.02 -4.46,1.15 -6.86,2.52 -5.05,2.88 -5.14,2.91 -5.14,1.17 0,-1.81 5.46,-5.69 8.01,-5.69 2.6,0 7.99,-2.71 7.99,-4.02 0,-1.47 -0.31,-1.37 -14.22,4.15 -9.27,3.68 -12.75,5.51 -12.37,6.5 0.29,0.75 0.12,1.37 -0.36,1.37 -0.49,0 -1.08,-0.56 -1.31,-1.25 -0.31,-0.93 -2.05,-0.64 -6.83,1.12 -3.53,1.3 -14.04,5.13 -23.37,8.5 -13.77,4.99 -17.06,6.55 -17.5,8.29 -0.48,1.87 -0.72,1.95 -1.91,0.66 z"
         inkscape:connector-curvature="0" />
      <path
         id="path3239"
         style="fill:#000000"
         d="m 378.82,677.18 c -1.93,-2.75 -7.53,-17.08 -7.53,-19.27 0,-1.39 9.35,-6.48 11.9,-6.48 0.47,0 3.49,-1.2 6.72,-2.67 6.79,-3.08 5.25,-4.26 -2.55,-1.94 -8.12,2.41 -5.9,0.14 5.18,-5.3 10.5,-5.16 14.42,-6.08 18.68,-4.38 2,0.8 3.21,0.45 6.75,-1.94 2.37,-1.6 4.32,-3.33 4.32,-3.84 0,-0.51 0.91,-0.93 2.02,-0.93 1.2,0 2.39,-0.94 2.91,-2.32 1.61,-4.24 10.73,-9.13 15.2,-8.15 2.05,0.45 2.98,0.13 3.74,-1.29 1.21,-2.26 7.28,-4.24 13.02,-4.24 4.71,0 15.67,-3.2 38.11,-11.14 4.67,-1.65 13.56,-4.29 19.75,-5.86 6.19,-1.58 12.44,-3.79 13.89,-4.93 3.4,-2.68 6.36,-2.71 6.36,-0.07 0,2.49 0.69,2.5 6.14,0.03 2.39,-1.09 6.16,-1.99 8.36,-2.01 2.67,-0.02 7.15,-1.56 13.5,-4.63 9.8,-4.75 17.8,-7.63 19.05,-6.85 0.4,0.24 2.82,5.24 5.39,11.11 3.8,8.67 4.43,10.89 3.36,11.85 -0.72,0.65 -6.12,3.13 -12.02,5.5 -6.03,2.44 -10.44,4.75 -10.09,5.32 0.35,0.56 0.11,0.68 -0.55,0.28 -0.63,-0.4 -2.72,-0.15 -4.64,0.54 -1.96,0.71 -3,1.55 -2.39,1.94 0.8,0.49 0.79,0.86 -0.01,1.36 -0.61,0.37 -1.1,0.21 -1.1,-0.38 0,-0.58 -0.48,-1.06 -1.06,-1.06 -0.59,0 -0.74,0.52 -0.35,1.16 0.45,0.72 0.27,0.88 -0.46,0.42 -1.6,-0.98 -10.26,2.41 -9.46,3.71 0.37,0.59 0.14,0.72 -0.53,0.3 -0.64,-0.39 -8.25,2 -16.9,5.31 -8.66,3.32 -25.87,9.83 -38.24,14.47 -12.38,4.63 -25.65,9.76 -29.5,11.38 -3.85,1.63 -10.6,4.19 -15,5.69 -4.4,1.51 -9,3.37 -10.21,4.14 -2.52,1.61 -27.69,10.91 -40.1,14.81 -10.88,3.43 -19.41,3.57 -21.66,0.36 z"
         inkscape:connector-curvature="0" />
      <path
         id="path14158"
         style="fill:#000000"
         d="m 421.91,605.85 c 1.91,-2.27 4.78,-3.78 7.05,-5.43 2.19,-2.1 4.58,-3.52 6.62,-5.58 1.65,-0.89 4.34,-3.22 3.11,-4.85 -3.15,-2 -5.89,1 -8.17,1.9 -2.64,1.06 -4.68,2.38 -7.11,3.49 -2.51,1.09 -4.52,2.45 -7.19,3.52 -2.79,1.29 -7.07,1.82 -10.43,1.17 -2.88,-1.03 -3.44,-5.87 -0.33,-6.04 1,-1.24 3.54,-0.74 4.44,-1.79 2.26,1.82 -3.25,2.23 -4.27,3.56 -2.51,3.1 3.89,3.74 5.9,2.79 3.06,-0.66 6.94,-1.53 8.54,-4.45 -0.53,-3.02 -6.42,0.2 -6.45,-2.52 3.6,-0.98 7.94,1.5 10.98,-1.33 2.78,-0.21 5.73,-0.54 7.28,-2.83 2.93,-0.7 4.51,-3.72 2.44,-5.91 0.41,-1.17 0.18,-3.41 -1.49,-2.2 0.55,-1.71 0.77,-3.61 -1.08,-3.5 -1,-3.59 7.96,-0.41 4.71,-4.54 0.52,-1.22 4.06,-2.86 4.38,-1.83 -0.98,0.59 -3.26,2.32 -0.63,1.71 1.46,-0.7 5.31,-0.24 5.57,-1.03 -1.21,-0.37 -4.28,-1.44 -1.1,-1.31 3.19,-0.01 3.25,3.56 4.52,5.08 0.58,1.83 1.38,3.24 3.79,3.21 -1.87,0.02 -3.28,3.46 -0.39,1.95 1.79,-2 10.89,4.48 3.15,9.52 -1.84,1.11 -7.35,-5.96 -7.04,-9.55 -0.15,-2.77 -0.7,-6.71 -4.05,-7.23 -3.32,-0.8 -7.04,2.53 -5.51,5.94 0.89,2 4.95,6.08 1.49,7.24 -3.1,-1.07 -3.28,2.56 -1.03,3.9 2.69,3.79 -3.7,5.84 -5.66,8.37 -3.9,3.24 -8.25,5.87 -12.5,8.59 l 0.1,0.04 0.36,-0.06 z"
         inkscape:connector-curvature="0" />
      <path
         id="path3229"
         style="fill:#000000"
         d="m 367.91,647.85 c 1.31,-2.4 4.34,-2.52 5.74,-4.96 2.65,-0.4 3.41,-3.49 6.12,-4 0.98,-2.69 4.34,-2.3 4.52,-5.02 3.56,-1.66 -3.56,-4.06 -4.3,-1.43 -1.58,-0.81 -1.56,1.63 -3.31,0.94 -0.24,1.71 -2.26,0.28 -2.69,2.04 -1.58,-0.77 -1.56,1.64 -3.31,0.96 -0.24,1.71 -2.26,0.28 -2.69,2.04 -1.58,-0.77 -1.56,1.64 -3.31,0.96 -0.24,1.71 -2.26,0.28 -2.69,2.04 -2.51,0 -5.94,1.53 -9.1,0.77 -3.02,0.54 -5.65,-6.37 -1.5,-5.77 0.23,-2.35 3.14,-0.04 4.14,-2.33 4.4,1.59 -4.66,2.37 -4.75,5.02 1.5,3.04 6.37,1.5 9.14,0.99 1.91,-0.61 8.26,-3.14 5.45,-5.11 -1.32,-0.51 -7.17,0.31 -5.75,-1.37 3.24,-0.91 6.93,1.02 9.92,-0.53 1.17,-2.13 6.72,0.17 7.55,-3.35 1.81,-0.5 6.49,-2.97 3.23,-5.56 -0.12,-1.59 0.96,-4.09 -1.49,-2.83 -0.03,-1.34 1.58,-4.06 -0.91,-3.12 -2.13,-4.34 7.06,-0.39 5,-4.38 -2.75,-1.22 7.76,-4.65 2.69,-1.48 -3.3,2.26 4.53,-0.44 6.05,0.23 2.15,-0.44 -5.41,-1.62 -1.43,-1.73 2.41,-0.25 4.33,2.06 3.84,3.85 1.88,0.08 0.41,2.25 2.19,2.66 -1.33,2.3 5.51,1.08 1.42,2.33 -3,3.01 2.33,1.73 2.82,-0.72 1.68,-1.63 4.67,-0.83 5.72,-2.88 1.58,0.78 1.56,-1.63 3.31,-0.95 0.24,-1.71 2.26,-0.28 2.69,-2.04 1.71,0.85 1.41,-1.88 3.52,-1.19 3.44,-1.03 6.39,-3.66 9.86,-4.32 -6.37,4.42 -13.67,7.36 -20.37,11.28 -3.15,1.68 -6.84,4.93 -10.43,3.9 -0.19,-3.41 -0.22,-9.1 -4.97,-9.01 -4.33,-0.16 -6.62,4.28 -3.66,7.61 1.52,2.43 3.81,6.49 -1.02,5.46 -4.44,1.68 4.54,5.13 0.07,7.83 -10.49,9.97 -20,13.77 -17.31,13.17 z"
         inkscape:connector-curvature="0" />
      <path
         id="path1845"
         style="fill:#ffffff;stroke:#000000;stroke-width:4.5;stroke-linejoin:round"
         d="m 501.72,770.51 c -4.74,-1.47 -5.78,-8.69 -8.68,-10.39 -3.36,4.84 -12.43,7.43 -17.8,3.86 -8.07,-5.3 -9.27,-15.91 -7.88,-24.68 0.67,-3.51 5.23,-1.04 3.79,-5.95 3.01,-6.82 10.04,-2 14.72,0.51 3.44,1.17 5.03,-6.63 7.08,-9.31 1.08,-11.06 -0.17,-23.27 6.6,-32.87 6.58,-8.82 17.38,-13.86 28.06,-15.55 15.01,-1.18 30.21,0.26 44.75,4.12 7.72,0.39 13.39,6.33 20.12,9.41 11.6,6.4 22.6,15.35 28.63,27.37 5.69,12.84 2.47,28.53 -5.89,39.43 -9.93,11.19 -26.11,12.64 -40.16,12.55 -8.72,0.13 -17.41,-0.85 -25.88,-2.89 -7.36,1.14 -14.17,5.47 -21.91,5.67 -8.43,0.88 -17.5,1.9 -25.55,-1.28 z"
         inkscape:connector-curvature="0" />
      <path
         id="path1843"
         style="fill:#2c2a26"
         d="m 540.62,681.72 c -14.54,0.79 -32.21,2.91 -40.87,16.34 -4.79,8.41 0.83,18.33 -2.25,27.1 0.18,9.57 7.51,18.02 16.44,21.06 4.38,1.92 7.98,6.45 6.65,11.44 -7.59,2.86 -18.5,4.11 -24,-3.13 -1.96,-3.01 1.91,-7.37 -0.31,-9.75 -4.48,-0.87 -12.4,-2.41 -14.66,2.81 -1.38,4.77 3.02,8.73 7.66,7.88 8.35,-2.04 10.6,8.27 15.41,12.81 7.67,4.39 17.23,1.25 25.35,-0.23 6.92,-1.57 13.89,-8.54 21.15,-3.83 16.86,4.12 35.88,4.2 51.22,-4.03 1.04,-2.78 4.72,-7.1 7.18,-3.1 4.19,-0.69 3.72,-7.48 5.82,-10.71 2.29,-5.25 3.45,-11.07 3.06,-16.82 -1.08,7.53 -2.56,16.42 -10.16,20.06 -6.37,5.35 -14.08,10.21 -22.81,8.57 -4.5,-0.23 -9.99,0.03 -13.16,-3.78 1.92,-5.38 -3.88,-10.22 -1.81,-15.57 -11.12,-16.41 -25.77,-30.42 -34.03,-48.62 -3.15,-2.63 -1.8,-4.44 1.94,-4.88 2.79,0.28 2.17,-2.81 2.18,-3.62 z m -25.15,11.84 c -5.4,2.41 -8.83,8.08 -15.13,8.47 1.91,-8.22 10.72,-12.93 18.66,-12.15 -1.18,1.22 -2.35,2.45 -3.53,3.68 z"
         inkscape:connector-curvature="0" />
      <path
         id="path28228"
         style="fill:#111100;fill-opacity:0.27373998"
         d="m 316.71,476.76 c -7.52,-1.28 -15.22,-0.8 -22.81,-0.71 -1.96,0.02 -8.08,3.09 -3.59,0.82 5.15,-3.07 -2.38,1.92 -3.52,3.74 -4.14,4.68 -4.41,11.46 -8.01,16.51 -1.95,2.58 -3.26,5.54 -3.42,8.8 -0.36,4.31 -0.52,8.65 -1.49,12.89 -0.17,4.02 1.21,7.91 1.58,11.9 0.75,4.91 2.44,9.59 3.47,14.43 0.96,4.45 4.01,7.81 6.52,11.43 2.78,6.52 5.36,13.13 8.07,19.69 -1.82,5.43 -7.25,3.52 -8.59,-1.06 -3.06,-6.04 -9.4,-10.53 -10.03,-17.67 -0.56,-4.89 5.57,-6.11 8.99,-4.1 2.68,1.36 9.02,5.38 6.11,8.48 -2.3,1.3 -4.18,1.84 -4.09,-1.46 -2.35,-3.83 -2.4,-8.59 2.65,-10.07 2.64,-0.12 -0.7,7.98 -3.7,3.49 -4.31,-3.87 -7.38,-8.86 -10.84,-13.45 -2.96,-4.23 5.4,-11.19 7.16,-4.67 3.12,3.77 5.97,7.76 9.23,11.42 1.38,2.38 -7,6.38 -3.98,1.96 0.53,-6.77 -3.44,-12.75 -7.59,-17.72 -1.18,-3.22 6.96,-4.32 7.6,0.02 0.74,2.97 4.79,6.31 4.35,8.28 -4.94,4.06 -6.81,-3.67 -6.98,-7.34 0.49,-4.92 -5.76,-9.61 -1.68,-13.93 4.67,-3.41 7.65,3.27 10.04,6.2 -1.26,1.98 -6.42,5.3 -4.8,0.6 -0.62,-5.45 -0.91,-10.96 -0.06,-16.4 0.33,-4.9 2.71,-9.32 5.89,-12.96 2.72,-4.71 3.34,-10.85 8.03,-14.28 3.77,-2.51 6.92,-6.06 11.19,-7.74 3.24,-1.22 5.99,1.23 2.03,2.83 -2.37,1.55 -7.21,5.23 -8.61,4.96 1.18,-1.34 7.05,-4.44 2.17,-2.8 -5.78,1.39 -11.5,3.05 -17.31,4.28 1.71,-1.11 7.26,-4.34 2.46,-1.23 -3.53,2.21 -7.24,4.16 -10.62,6.61 5.42,-2.92 10.41,-6.59 15.25,-10.38 -1.48,-0.97 -7.35,1.15 -2.81,-0.23 1.54,-0.69 -2.9,3.05 -2.96,4.73 -2,3.8 -3.42,8.17 -2.65,12.47 0.85,2.93 -5.84,8.39 -3.61,2.92 2.42,-3.89 4.69,-7.94 7.56,-11.53 0.65,-1.64 7.94,-4.81 3.35,-1.52 -3.93,3.99 -5.73,9.45 -8.95,13.89 -1,1.64 -6.57,7.68 -5.09,2.29 2,-5.35 4.6,-10.74 8.69,-14.81 -0.87,2.21 -4.74,7.77 -7.45,10.87 -1.09,1.65 -5.46,4.43 -5.49,3.99 1.91,-2.1 6.36,-2.7 4.59,1.33 -2.3,4.91 -2.37,11.49 -4.88,15.59 -2.1,2.25 -6.23,1.77 -3.64,-1.85 1.8,-2.68 5.36,-9.76 8.95,-7.1 0.69,5.51 -0.2,11.24 0.59,16.71 1.65,3.59 -2.59,9.89 -6.41,6.94 -2.6,-4.35 -3.32,-9.62 -5.56,-14.19 -0.18,-3.02 6.99,-5.4 6.67,-0.18 0.6,2.78 1.61,6.56 3.52,7.89 -2.05,0.71 -7.85,4.07 -4.23,-0.31 3.58,-3.72 3.69,-8.85 3.54,-13.68 -0.34,-6.02 4.13,-10.79 5.13,-16.5 -0.15,-1.98 5.44,-6.19 2.56,-2.19 -3.38,3.25 -5.07,7.65 -6.6,11.97 -2.03,3.57 -8.89,5.74 -7.19,-0.64 0.83,-6.76 6.53,-11.25 10.07,-16.66 2.42,-3.54 6.32,-5.54 9.38,-8.4 3.61,-4.34 -6.77,0.52 -6.8,0.27 1.75,-0.85 4.59,-2.63 1.58,-0.42 -2.18,2.15 -6.3,5.82 -3.59,8.85 2.63,0.05 3.58,-0.71 0.72,1.01 -4.83,2.8 2.79,-2.51 4.11,-3.39 3.48,-2.09 6.64,-5.05 10.72,-6.24 2.6,-0.46 8.21,-3.57 9.25,-0.78 -4.3,4.48 -10.43,6.7 -14.72,11.24 -3.07,2.59 -2.82,8.08 -7.77,8.5 2.3,-3.67 5.43,-6.79 7.67,-10.54 1.2,-2.08 4.9,-4.69 5.18,-5.89 -5.36,0.99 -9.94,4.32 -15.04,6.05 -0.88,-1.17 4.98,-3.85 2.01,-0.65 -3.63,5.39 -2.18,12.26 -2.48,18.38 -0.01,3.47 -0.13,7.45 -1.85,10.41 -1.82,2.6 -7.5,5.69 -6.36,-0.17 -1.02,-3.33 6,-10.7 6.19,-4.04 0.58,6.73 -1.83,13.17 -4.43,19.23 -1.71,3.1 0.55,5.14 1.26,7.62 -1.17,3.25 -6.05,0.78 -2.03,-0.38 1.62,-0.72 3.24,-1.43 4.86,-2.15 -1.3,4.09 -7.64,8.44 -10.54,3.45 -1.53,-4.91 2.1,-9.35 3.29,-13.92 2.24,-5.51 0.77,-11.77 3.11,-17.22 3.75,-2.99 5.93,4.18 4.02,7.03 -0.86,4 -7.23,3.94 -4.3,-0.69 1.62,-7.74 -1.01,-16.04 2.12,-23.51 3.22,-5.86 10.19,-7.44 15.82,-10.01 3.3,-1.33 7.17,-4.58 10.73,-2.57 -1.66,3.36 -6.66,6.96 -8.57,11.23 -2.92,4.15 -6.49,8.16 -11.45,9.79 -2.06,-4.35 2.36,-7.58 5.19,-10.1 3.76,-3.12 8.54,-5 12.05,-8.36 -2.11,-0.02 -7.75,2.42 -8.29,0.41 1.52,-1.51 4.73,-1.39 1.63,0.44 -1.45,1.12 -6.86,4.29 -2.58,1.78 1.74,-1.01 4.97,-2.99 1.61,-0.74 -4.68,3.12 -9.13,6.94 -14.42,8.88 -5.62,0.86 -4.23,-6.49 -1.16,-8.74 3.24,-3.55 7.73,-5.65 11.88,-7.97 2.99,-1.04 7.78,-3.77 10.04,-0.46 -2,3.18 -6.49,4.38 -9.09,7.31 -4.04,4.11 -7.26,8.97 -10.75,13.54 -2.75,3.42 -0.39,9.69 -5.15,11.54 -4.49,2.06 0.28,-4.82 0.84,-6.95 2.73,-4.51 7.06,-8 11.71,-10.41 5.08,-1.14 0.49,5.91 -0.16,8.26 -2.18,4.18 -3.68,8.7 -3.26,13.48 0.29,6.34 -2.6,12.79 -7.41,16.88 -4.14,3.06 -6.83,-2.57 -7.66,-5.9 -3.53,-4.08 1.93,-10.19 5.52,-8.15 1.54,4.97 4.22,9.89 4.61,15.05 -0.87,4.37 -7.08,2.61 -5.17,-1.54 -0.12,-5.66 0.04,-11.33 0.04,-16.98 -0.35,-6.1 8.7,-3.63 5.51,1.4 -1.71,3.16 -7.77,7.69 -9.91,6.49 -0.38,-7.92 2.39,-17.14 10.24,-20.55 1.39,-0.51 -3.08,2.48 -4.39,3.18 -4.49,1.72 0.9,-5.08 1.73,-6.46 2.71,-3.96 4.82,-8.53 9.77,-9.98 2.64,-2.18 6.51,-0.41 3.85,2.97 -2.94,5.24 -6.67,10.26 -11.45,13.96 -2,-1.72 2.78,-6.72 4.24,-9.1 3.36,-4.09 6.72,-8.43 11.21,-11.33 1.7,2.05 -2.9,6.59 -4.16,9.22 -2.6,3.72 -5.19,8.14 -9.64,9.79 -3.79,-1.65 -1.16,-7.57 -0.95,-10.9 1.58,-4.39 3.37,-9.28 7.73,-11.64 3.52,-2.12 7.05,-5.71 11.43,-5.29 3.2,3.69 -5.05,5.3 -7.18,7.63 -4.73,2.72 -9.33,5.82 -14.4,7.85 2.4,-2.78 6.19,-5.01 9.71,-6.62 5.9,-2.53 11.84,-5.41 18.25,-6.31 4.14,1.03 -4.89,6.5 -4.11,6.2 2.66,-2.15 5.4,-4.24 8.36,-5.95 -1.02,2.77 -7.33,1.52 -2.98,-0.25 3.8,-0.63 -2.9,2.59 -3.67,3.74 -5.09,4.12 -4.86,11.55 -9.23,16.22 -4.13,4.65 -4.18,11.14 -4.56,16.98 -0.17,4.08 0.86,8.1 0.59,12.17 -2.92,2.14 -7.94,5.5 -9.71,0.17 -3.78,-2.48 -2.26,-9.92 2.8,-7.16 2.02,4.32 3.45,9.25 5.16,13.89 1.65,4.34 -0.61,9.44 -5.16,10.76 -3.44,-0.51 -6.24,-5.81 -7.74,-9.26 -1.72,-3.65 4.81,-9.35 6.64,-4.8 3.09,3.88 5.85,8.12 6.68,13.12 2.13,5.24 -1.21,9.62 -6.58,9.99 -3.74,-2.33 -5.55,-7.12 -8.59,-10.36 -1.86,-2.63 -6.46,-5.25 -1.09,-6.48 5.13,-2.13 5.44,5.6 8.33,8.08 2.52,3.99 5.88,7.86 6.65,12.63 -1.49,2.6 -8.21,-2.15 -7.21,-3.11 3.15,-2.93 8.23,-2.15 7.92,2.88 2.59,4.47 -1.37,7.69 -5.39,9.03 -2.95,-2.22 -4.83,-5.83 -7.54,-8.46 -2.69,-1.73 -1.59,-7.61 1.68,-4.02 1.33,4.23 1.85,8.88 5.34,12.31 2.44,3.5 5.6,6.6 7.31,10.54 1.3,3.88 -5.96,10.02 -6.27,3.41 -2.69,-6.27 -4.96,-12.73 -7.89,-18.88 -2.83,-3.36 -5.29,-7.04 -6.3,-11.39 -1.02,-4.86 -2.76,-9.53 -3.47,-14.47 -0.39,-4.89 -2.56,-9.78 -1.04,-14.68 1.35,-5.97 -0.21,-12.81 3.67,-18.02 3.44,-4.65 4.54,-10.44 7.08,-15.53 3.88,-5.67 10.03,-9.16 16.01,-12.22 5.04,-2.2 10.66,-0.92 15.97,-1.25 3.88,0.12 9.27,-0.32 12.02,1.79 -2.05,1.05 -4.1,2.09 -6.15,3.14 z"
         inkscape:connector-curvature="0" />
      <path
         id="path12407"
         style="fill:#2a2c23;fill-rule:evenodd"
         d="m 631.09,533.98 -47.68,43.36 9,21.68 41.38,-39.59 c 0,0 0.9,0 5.4,-3.77 4.5,-3.77 -6.3,-19.79 -8.1,-21.68 z"
         inkscape:connector-curvature="0" />
      <path
         id="path30858"
         style="fill:url(#linearGradient36246);stroke:#000000;stroke-width:4.30000019;stroke-linejoin:round"
         d="m 400.25,765.37 c 4.19,-1.57 6.83,-4.69 8.41,-9.95 0.88,-2.91 0.48,-5.54 -1.24,-8.15 -0.66,-1.01 -1.04,-2.08 -0.83,-2.38 0.54,-0.78 -4.28,-5.27 -7,-6.52 -2.96,-1.36 -7.69,-1.8 -10.91,-1.02 -1.99,0.49 -3.13,1.3 -5.5,3.93 -6.28,6.95 -6.04,13.85 0.72,20.79 3.46,3.56 11.4,5.16 16.35,3.3 z"
         inkscape:connector-curvature="0" />
      <path
         id="path31735"
         style="fill:url(#linearGradient36248);stroke:#000000;stroke-width:4.30000019;stroke-linejoin:round"
         d="m 393.94,768.8 c 4.18,-1.57 6.82,-4.7 8.41,-9.95 0.87,-2.91 0.47,-5.54 -1.24,-8.16 -0.67,-1 -1.04,-2.07 -0.84,-2.37 0.54,-0.78 -4.28,-5.27 -6.99,-6.52 -2.97,-1.36 -7.69,-1.8 -10.92,-1.02 -1.99,0.49 -3.13,1.3 -5.5,3.93 -6.28,6.95 -6.04,13.85 0.72,20.79 3.47,3.56 11.41,5.16 16.36,3.3 z"
         inkscape:connector-curvature="0" />
      <path
         id="path3309"
         style="opacity:0.06179798;fill:#000000"
         d="m 333.93,734.56 c -23.77,-22.11 -43,-48.65 -61.55,-75.12 -13.7,-24.95 -26.51,-50.62 -36.7,-77.21 -6.07,-22.98 -11.05,-46.39 -14.32,-69.84 4.06,-5.84 -2.97,-15.58 2.78,-23.91 1.28,-7.65 3.26,-16.54 10.97,-15.7 -4.61,-6.31 4.85,-12.02 -5.04,-11.08 2.96,-7.96 4.47,-11.4 12.95,-16.99 17.24,-13.49 -10.89,-24.83 -11.99,-39.07 -3.65,0.35 -4.33,-13.37 0.51,-0.65 3.39,9.01 22.24,24.83 13.09,19.41 8.31,6.25 24.63,10.41 38.96,8.57 20.39,-0.57 34.01,-19.16 40.91,-36.43 5.24,-23.71 -8.84,-50.42 -31.67,-59.24 -8.71,-11.01 -35.64,2.74 -35.69,-0.4 4.99,-3.54 12.69,-5.31 20.4,-5.54 13.42,1.5 12.43,2.43 27.82,8.56 -0.85,-8.85 20.15,-56.52 27.46,-53.94 -4.93,10.79 13.3,16.34 15.3,25.85 12.14,10.82 19.41,25.1 27.72,38.77 8.28,14.04 14.87,29.47 17.24,44.66 4.54,13.68 4.63,29.67 12.2,42.11 8.45,13.23 16.34,38.6 37.32,24.54 20.19,-6.17 -12.03,5.65 -19.23,8.13 -10.35,7 -16.94,-6.64 -21.2,-3.92 -9.61,-4.06 -3.78,-18.32 -11.75,-24.17 -1.03,-7.27 -7.21,-5.33 -2.72,-12.74 -8.97,-9.47 0.89,-22.73 -2.64,-30.31 -8.74,-15.21 -8.14,-35.84 -18.94,-51 -5.56,-8.54 -21.68,-30.87 -28.98,-18.77 -10.95,4.83 4.63,24.56 -7.79,25.66 -11.5,-22.23 -11.14,-17.58 -12.63,-10.32 6.78,6.94 7.02,20.93 -1.52,6.09 -4.24,-7.95 -34.04,-21.69 -13.24,-9.97 18.7,11.56 28.7,36.08 24.7,57.45 -8.25,24.01 -33.57,41.55 -59.28,36.43 -5.8,-0.88 -23.1,-8.1 -8.37,-1.12 12.83,1.52 36.04,3.44 23.57,18.1 5.58,5.23 0.74,18.1 -8.31,18.24 -3.38,14.23 -13.19,25.43 -11.67,42.04 1.48,19.99 6.85,39.81 13.85,58.54 4.66,-8.01 -13.13,-35.91 1.95,-45.16 13.12,8.46 7.85,-13.69 9.06,-21.45 0.48,17.7 2.29,35.38 7.68,52.34 -7.65,3.14 -15.63,-19.7 -15.12,0.14 1.5,25.53 13.12,49.28 22.82,72.33 -10.1,-2.62 -12.06,-27.96 -21.88,-24.84 -11.82,-4.68 -7.63,5.19 -1.46,3.81 -6.71,4.2 4.93,11.27 -8.87,8.89 -7.85,-0.14 -13.48,-2.73 -5.46,-7.95 -4.66,-6.43 -5.16,-13.74 -11.28,-10.91 1.36,-4.46 -5.74,-12.12 -4.79,-2.76 6.26,4.63 16.84,20.54 1.93,12.84 0.95,17.43 15.67,25.38 17.87,41.6 7.71,9.27 13.85,21.81 21.69,30.33 5.22,-2.35 5.75,17.57 16.01,18.59 2.6,11.36 15.49,12.66 20.27,23.84 5.94,7.12 17.79,18.71 19.5,23.52 -4.38,-3.35 -8.38,-7.16 -12.44,-10.87 z"
         inkscape:connector-curvature="0" />
      <path
         id="path31740"
         style="opacity:0.05617999;fill:#000000"
         d="m 299.31,188.24 c 3.55,2.3 6.93,4.86 10.21,7.53 3.75,2.89 5.97,6.65 7.68,10.96 1.05,4.79 0.62,9.7 1.38,14.54 0.19,4.77 2.33,8.78 4.36,12.97 2.34,4.9 5.77,8.88 7.78,13.9 1.19,4.63 3.06,9 5.08,13.31 3.43,9.84 10.38,3.13 -3.28,10.91 2.36,-4.41 0.26,-8.35 -1.4,-12.66 -1.54,-4.02 -3.36,-7.91 -4.91,-11.92 -1.23,-3.63 -2.77,-6.9 -4.91,-10.03 -2.75,-3.44 -5.47,-6.84 -7.82,-10.57 -1.42,-4.13 -3.04,-8.19 -4.3,-12.34 -0.2,-4.64 -0.17,-9.01 -1.59,-13.43 -0.97,-3.75 -3.58,-5.91 -6.45,-8.08 -0.26,-0.06 -0.53,-0.13 -0.79,-0.19 l 9.45,-6.45 c 0.29,0.1 0.58,0.21 0.88,0.31 3.07,2.4 5.86,4.91 6.92,8.87 1.46,4.49 1.59,8.89 1.66,13.61 1.16,4.04 2.79,7.95 4.12,11.97 2.3,3.71 4.99,7.06 7.76,10.43 2.18,3.23 3.8,6.58 5.05,10.3 1.54,4.01 3.34,7.91 4.87,11.93 1.8,4.62 3.85,8.84 2.02,13.81 -10.28,6.41 -13.2,9.78 -17.2,-0.8 -1.99,-4.37 -3.95,-8.78 -5.14,-13.45 -1.91,-5.02 -5.38,-8.95 -7.7,-13.82 -2.12,-4.27 -4.34,-8.38 -4.53,-13.26 -0.76,-4.78 -0.48,-9.58 -1.32,-14.33 -1.6,-4.1 -3.63,-7.7 -7.29,-10.35 -3.09,-2.54 -6.3,-5.43 -9.99,-6.85 l 9.4,-6.82 z"
         inkscape:connector-curvature="0" />
      <path
         id="path32621"
         style="fill:#868783"
         d="m 569.85,551.69 c -2.66,4.04 -8.33,3.8 -11.73,7.01 0.47,0.09 7.25,-4.28 10.05,-5.95 1.66,-1.06 8,-4.86 7.2,-4.59 -5.45,3.23 -10.88,6.5 -16.27,9.83 2.43,-1.38 7.95,-4.65 8.64,-4.96 -2.41,1.4 -10.53,6.07 -9.62,5.55 2,-1.12 7.76,-4.49 7.57,-4.28 -7.27,4.21 -2.54,5.94 -22.03,11.19 -20.15,5.44 -20.62,6.69 -29.97,10.27 -8.39,4.07 -17.72,5.67 -27.26,3.23 -4.95,-0.5 -9.43,-2.52 -14.19,-3.68 -6.13,-1.28 -12.45,-0.14 -17.93,2.83 -2.3,1.09 8.45,-5.58 3.39,-1.83 -6.03,4.58 -12.44,8.74 -19.71,11.06 -4.61,1.76 -10.55,4.24 -14.23,5.45 3.97,-2.79 7.27,-6.77 12.14,-7.95 3.98,-1.23 11.73,-5.52 13.74,-4.52 -2.45,1.46 -11.27,5.99 -4.82,1.93 8.25,-5.9 17.07,-11.78 27.21,-13.65 5.8,-0.59 11.42,1.19 16.81,3.01 5.96,1.3 12.15,2.83 18.14,0.77 8.26,-2.17 11.26,-4.04 19.3,-6.84 6.63,-3.14 18.67,-5.46 25.33,-8.72 4.17,-0.07 11.07,-2.88 12.89,-3.84 -2.6,1.5 -8.22,4.76 -9.04,5.25 2.4,-1.4 10.49,-6.12 9.61,-5.53 -2.04,1.2 2.67,-1.5 2.04,-1.37 -2.07,1.19 3.21,-2.19 1.5,-1.11 -2.6,1.7 -0.19,-0.28 1.24,1.44 z"
         inkscape:connector-curvature="0" />
      <path
         id="path33498"
         style="fill:#868783"
         d="m 527,584.55 c -2.67,4.03 -8.33,3.8 -11.74,7.01 0.47,0.09 7.25,-4.29 10.05,-5.95 1.66,-1.06 8,-4.87 7.2,-4.6 -5.45,3.24 -10.88,6.51 -16.27,9.84 2.43,-1.38 7.95,-4.65 8.64,-4.96 -2.41,1.4 -10.53,6.07 -9.61,5.55 1.99,-1.12 7.75,-4.5 7.57,-4.29 -7.28,4.22 -2.55,5.94 -22.03,11.2 -20.15,5.44 -20.63,6.68 -29.98,10.27 -8.39,4.07 -17.71,5.67 -27.26,3.23 -4.94,-0.5 -9.43,-2.53 -14.19,-3.68 -6.13,-1.28 -12.45,-0.14 -17.93,2.82 -2.29,1.1 8.46,-5.57 3.39,-1.82 -6.03,4.58 -12.44,8.74 -19.71,11.06 -4.6,1.75 -10.55,4.24 -14.23,5.45 3.97,-2.79 7.27,-6.77 12.15,-7.96 3.98,-1.23 11.73,-5.51 13.74,-4.52 -2.46,1.46 -11.28,6 -4.83,1.93 8.26,-5.89 17.07,-11.78 27.21,-13.64 5.8,-0.6 11.43,1.19 16.82,3 5.95,1.31 12.14,2.84 18.13,0.78 8.26,-2.17 11.26,-4.04 19.3,-6.84 6.63,-3.15 18.68,-5.46 25.34,-8.72 4.17,-0.07 11.06,-2.88 12.88,-3.84 -2.6,1.5 -8.21,4.76 -9.04,5.25 2.41,-1.4 10.49,-6.12 9.62,-5.54 -2.05,1.21 2.67,-1.49 2.04,-1.37 -2.08,1.2 3.2,-2.18 1.49,-1.1 -2.6,1.7 -0.19,-0.28 1.25,1.44 z"
         inkscape:connector-curvature="0" />
      <path
         id="path33500"
         style="fill:#000000"
         d="m 552.44,556.94 c -15.87,4.47 -30.89,11.6 -46.88,15.47 -13.23,2.77 -25.54,-7.39 -38.56,-2.85 -2.79,1.44 -8.17,3.59 -10,5.99 1.29,2.38 4.66,-3.76 6.75,-3.27 8.64,-2.73 17.2,0.2 25.47,2.41 8.52,1.92 17.28,0.29 25.07,-3.24 12.24,-4.06 24.51,-8.34 36.49,-12.76 0.42,-0.27 3.63,-1.91 1.66,-1.75 z"
         inkscape:connector-curvature="0" />
      <path
         id="path33509"
         style="fill:#000000"
         d="m 463.56,606.21 c -13.23,3.45 -25.54,-9.2 -38.56,-3.54 -2.79,1.79 -8.17,4.46 -10,7.46 1.29,2.96 4.66,-4.68 6.75,-4.07 8.64,-3.4 17.2,0.24 25.47,2.99 8.52,2.4 17.28,0.36 25.07,-4.03 12.24,-5.05 29.92,-10.93 41.9,-16.44 0.97,3.46 -34.64,12.82 -50.63,17.63 z"
         inkscape:connector-curvature="0" />
      <path
         id="path33514"
         style="fill:#fff5ff"
         d="m 466.98,608.99 c -4.5,1.63 -9.11,3.48 -13.9,2.1 -2.67,-1.29 -7.26,-0.95 -8.25,1.5 7.53,2.1 16.09,2.03 22.15,-3.6 z"
         inkscape:connector-curvature="0" />
      <path
         id="path33522"
         style="fill:#fff5ff"
         d="m 506.22,578.78 c -5.25,0.62 -5.83,1.71 -10.61,0.33 -2.67,-1.29 -4.73,-1.96 -5.73,0.49 7.53,2.1 8.52,3.54 16.34,-0.82 z"
         inkscape:connector-curvature="0" />
      <path
         id="path33524"
         style="fill:#ffffff"
         d="m 442.75,567.58 c 1.41,-0.12 2.1,0.19 2.81,1.36 0.48,1.46 -1.72,3.48 -2.18,4.86 0.34,1.14 2.56,1.43 2.74,2.66 0.04,1.23 0.93,2.08 1.49,3.11 0.18,1.38 0.23,2.68 0.68,4 0.28,1.15 -0.07,3.38 0.59,4.32 0.63,1.2 2.4,0.45 3.64,0.88 1.02,0.23 2.06,0.15 3.09,0.11 l -2.97,1.86 c -1.06,0.02 -2.14,0.07 -3.17,-0.22 -1.26,-0.49 -0.75,-1.52 -2.75,-2.39 -0.69,-0.99 -0.01,-1.94 -0.31,-3.13 -0.45,-1.31 -1.82,-6.24 -1.86,-7.51 -0.17,-1.27 -2.46,-1.86 -2.78,-3.06 2.4,-1.64 1.01,-2.62 0.59,-4.01 -0.74,-0.99 -1.35,-1.11 -2.65,-0.97 l 3.04,-1.87 z"
         inkscape:connector-curvature="0" />
      <path
         id="path33527"
         style="fill:#ffffff"
         d="m 390.75,605.58 c 1.41,-0.1 2.1,0.15 2.81,1.08 0.48,1.17 -1.72,2.78 -2.18,3.89 0.34,0.9 2.56,1.13 2.74,2.12 0.04,0.98 0.93,1.66 1.49,2.49 0.18,1.09 0.23,2.14 0.68,3.19 0.28,0.92 -0.07,2.7 0.59,3.45 0.63,0.96 2.4,0.36 3.64,0.71 1.02,0.18 2.06,0.11 3.09,0.08 l -2.97,1.49 c -1.06,0.01 -2.14,0.05 -3.17,-0.18 -1.26,-0.39 -0.75,-1.21 -2.75,-1.91 -0.69,-0.79 -0.01,-1.55 -0.31,-2.49 -0.45,-1.05 -1.82,-4.99 -1.86,-6.01 -0.17,-1.01 -2.46,-1.48 -2.78,-2.44 2.4,-1.32 1.01,-2.09 0.59,-3.21 -0.74,-0.79 -1.35,-0.88 -2.65,-0.77 l 3.04,-1.49 z"
         inkscape:connector-curvature="0" />
      <path
         id="path33531"
         style="fill:#ffffff"
         d="m 384.35,253.5 c 7.9,10.67 13.54,24.01 12.43,38 0.13,16.69 2.05,33.65 9.62,48.45 11.14,29.86 23.4,59.34 39.1,86.7 4.44,10.15 7.22,21.11 11.69,31.26 6.89,-3.44 13.79,-6.88 20.69,-10.32 -7.36,-17.8 -12.71,-36.85 -23.35,-52.85 -14.04,-27.69 -24.85,-57.29 -35.34,-86.76 -4.5,-19.14 1.63,-40.91 -9.59,-58.03 -1.87,-3.15 -3.93,-8 -7.76,-4.27 -5.83,2.61 -11.66,5.22 -17.49,7.82 z"
         inkscape:connector-curvature="0" />
      <path
         id="path33539"
         style="opacity:0.14606999;fill:#000000"
         d="m 448.9,667.75 c -0.42,3.63 0.09,7.01 1.05,10.48 1.48,4.17 4.11,7.76 6.07,11.71 2.17,4.15 2.16,8.2 1.48,12.66 -0.51,3.63 1.88,6.24 3.19,9.41 3.01,8.17 -7.8,14.43 -13.74,8.35 -2.56,-3.4 -2.96,-7.53 -3.59,-11.62 -0.97,-3.97 -2.8,-7.57 -4.87,-11.05 -2.31,-2.72 -3.37,-6.16 -4.82,-9.36 -1.53,-3.49 -3.05,-6.9 -4.96,-10.21 -4.34,-10.14 -3.19,-9.97 8.67,-14.64 5.49,4.13 10.51,8.33 11.43,15.34 0.05,4.71 -0.01,9.42 -0.01,14.13 0.65,3.75 3.42,6.41 5.18,9.6 4.63,5.96 -7.28,13.26 -6.99,4.61 -1.66,-4.7 -5.06,-8.5 -7.95,-12.5 -2.22,-3.44 -3.24,-7.42 -4.25,-11.35 -0.66,-4.25 1.44,-7.77 3.64,-11.22 0.14,-0.1 0.61,-1.01 0.7,-1.15 l 9.99,-3.63 c -0.21,0.44 -0.31,0.93 -0.64,1.3 -2.11,3.24 -4.4,6.39 -4.01,10.46 1.01,3.76 1.94,7.6 4.07,10.92 2.96,4.14 6.3,8.12 8.11,12.93 0.99,8.11 -12.75,14.14 -12.33,4 -1.84,-3.26 -4.73,-6.01 -5.28,-9.93 0.01,-4.69 0.07,-9.38 0.03,-14.07 -0.93,-6.49 -5.06,-10.96 -10.89,-14.1 11.78,-6.11 5.89,-4.45 10.13,4.78 1.89,3.32 3.44,6.71 4.95,10.21 1.46,3.17 2.53,6.55 4.79,9.28 2.14,3.6 3.93,7.35 5,11.42 0.74,3.84 0.85,7.86 3.33,11.07 6.31,5.09 -8.3,10.62 -5.39,0.73 -1.49,-3.18 -3.75,-6.04 -3.32,-9.76 0.6,-4.29 0.96,-8.13 -1.21,-12.16 -1.98,-3.98 -4.68,-7.59 -6.17,-11.81 -0.98,-3.54 -1.54,-7 -1.35,-10.7 l 9.96,-4.13 z"
         inkscape:connector-curvature="0" />
    </g>
  </g>
  <metadata
     id="metadata72">
    <rdf:RDF>
      <cc:Work>
        <dc:format>image/svg+xml</dc:format>
        <dc:type
           rdf:resource="http://purl.org/dc/dcmitype/StillImage" />
        <cc:license
           rdf:resource="http://creativecommons.org/publicdomain/zero/1.0/" />
        <dc:publisher>
          <cc:Agent
             rdf:about="http://openclipart.org/">
            <dc:title>Openclipart</dc:title>
          </cc:Agent>
        </dc:publisher>
        <dc:title>Microscope</dc:title>
        <dc:date>2006-10-21T03:33:04</dc:date>
        <dc:description>A realistic drawing of a simple student microscope.</dc:description>
        <dc:source>https://openclipart.org/detail/797/microscope-by-theresaknott</dc:source>
        <dc:creator>
          <cc:Agent>
            <dc:title>TheresaKnott</dc:title>
          </cc:Agent>
        </dc:creator>
        <dc:subject>
          <rdf:Bag>
            <rdf:li>bacteria</rdf:li>
            <rdf:li>biology</rdf:li>
            <rdf:li>cells</rdf:li>
            <rdf:li>micro</rdf:li>
            <rdf:li>microbe</rdf:li>
            <rdf:li>microscope</rdf:li>
            <rdf:li>science</rdf:li>
          </rdf:Bag>
        </dc:subject>
      </cc:Work>
      <cc:License
         rdf:about="http://creativecommons.org/publicdomain/zero/1.0/">
        <cc:permits
           rdf:resource="http://creativecommons.org/ns#Reproduction" />
        <cc:permits
           rdf:resource="http://creativecommons.org/ns#Distribution" />
        <cc:permits
           rdf:resource="http://creativecommons.org/ns#DerivativeWorks" />
      </cc:License>
    </rdf:RDF>
  </metadata>
</svg>
