<svg xmlns="http://www.w3.org/2000/svg" width="142" height="109"><path fill-rule="evenodd" stroke="#000" stroke-width=".151" fill="#1a1a1a" d="M114.342 71.194c0 21.002-19.928 38.027-44.51 38.027s-44.51-17.025-44.51-38.027 19.928-38.027 44.51-38.027 44.51 17.024 44.51 38.027z"/><path fill-rule="evenodd" stroke="#fff" stroke-width="2.005" fill="#1a1a1a" transform="matrix(.84718 -.5313 .76373 .64554 -147.008 -115.156)" d="M-30.011 227.09h87.299v83.413h-87.299z"/><path stroke="#000" fill="#fff200" d="M103.272 43.504c-10.05 0-28.348 3.789-32 4.563-.445-.18-.921-.313-1.438-.313-2.006 0-3.625 1.523-3.625 3.375s1.619 3.344 3.625 3.344c1.464 0 2.706-.817 3.281-1.97 6.454-1.307 21.516-4.155 30.157-4.155 9.308 0 25.659 3.23 31.03 4.344l-5.406 46.062 12.688-.157-4.876-46.656v-3.593s-22.294-4.844-33.438-4.844h.002z"/><title>imagebot_2</title><text transform="rotate(-31.921 68.241 48.486)" text-anchor="middle" font-family="serif" font-size="24" y="40" x="63.5" stroke-linecap="round" stroke-linejoin="round" stroke-width="0" stroke="#000" fill="#ff0">MOOC</text></svg>