<?xml version="1.0" encoding="UTF-8" standalone="no"?>
<svg
   xmlns:dc="http://purl.org/dc/elements/1.1/"
   xmlns:cc="http://creativecommons.org/ns#"
   xmlns:rdf="http://www.w3.org/1999/02/22-rdf-syntax-ns#"
   xmlns:svg="http://www.w3.org/2000/svg"
   xmlns="http://www.w3.org/2000/svg"
   xmlns:sodipodi="http://sodipodi.sourceforge.net/DTD/sodipodi-0.dtd"
   xmlns:inkscape="http://www.inkscape.org/namespaces/inkscape"
   width="142"
   height="109"
   id="svg2"
   version="1.1"
   inkscape:version="0.91 r13725"
   sodipodi:docname="moocu.svg">
  <defs
     id="defs16" />
  <sodipodi:namedview
     pagecolor="#ffffff"
     bordercolor="#666666"
     borderopacity="1"
     objecttolerance="10"
     gridtolerance="10"
     guidetolerance="10"
     inkscape:pageopacity="0"
     inkscape:pageshadow="2"
     inkscape:window-width="1278"
     inkscape:window-height="1003"
     id="namedview14"
     showgrid="false"
     inkscape:zoom="2.1651376"
     inkscape:cx="2.1822034"
     inkscape:cy="54.5"
     inkscape:window-x="0"
     inkscape:window-y="0"
     inkscape:window-maximized="0"
     inkscape:current-layer="svg2" />
  <g
     id="imagebot_2">
    <path
       transform="translate(-10.5985 -10.1663) matrix(1 0 0 1 -136.41 -104.99)"
       fill-rule="evenodd"
       stroke="#000000"
       stroke-width="0.15064px"
       fill="#1a1a1a"
       d="M261.35001,186.35001C261.35001,207.35201 241.42201,224.37701 216.84001,224.37701S172.33002,207.35201 172.33002,186.35001S192.25801,148.32301 216.84001,148.32301S261.35001,165.34702 261.35001,186.35001z"
       id="imagebot_5" />
    <rect
       fill-rule="evenodd"
       stroke="#ffffff"
       stroke-width="2.0045"
       fill="#1a1a1a"
       x="-30.011"
       y="227.09"
       width="87.299"
       height="83.413"
       transform="translate(-10.5985 -10.1663) matrix(0.84718 -0.5313 0.76373 0.64554 -136.41 -104.99)"
       id="imagebot_4" />
    <path
       transform="translate(-10.5985 -10.1663) matrix(1 0 0 1 -136.41 -104.99)"
       stroke="#000000"
       fill="#fff200"
       d="M 250.28 158.66 C 240.231 158.66 221.933 162.449 218.28 163.223 C 217.835 163.043 217.359 162.91 216.842 162.91 C 214.836 162.91 213.217 164.433 213.217 166.285 S 214.836 169.629 216.842 169.629 C 218.306 169.629 219.548 168.812 220.124 167.66 C 226.577 166.352 241.64 163.504 250.28 163.504 C 259.588 163.504 275.939 166.734 281.311 167.848 L 275.905 213.91 L 288.592 213.753 L 283.717 167.097 L 283.717 165.941 L 283.717 163.504 S 261.422 158.66 250.279 158.66 L 250.28 158.66 Z"
       id="imagebot_3" />
    <title
       id="title8">imagebot_2</title>
    <text
       transform="rotate(328.079 55.5 37) translate(-8 5)"
       xml:space="preserve"
       text-anchor="middle"
       font-family="serif"
       font-size="24"
       id="imagebot_6"
       y="40"
       x="63.5"
       stroke-linecap="round"
       stroke-linejoin="round"
       stroke-width="0"
       stroke="#000000"
       fill="#ffff00">MOOC</text>
    <text
       transform="matrix(0.79583294,-0.60551625,0.60551625,0.79583294,-10.352516,60.707171)"
       xml:space="preserve"
       font-size="24"
       id="imagebot_7"
       y="67"
       x="65.5"
       fill-opacity="null"
       stroke-opacity="null"
       stroke-linecap="null"
       stroke-linejoin="null"
       style="font-size:24px;font-family:serif;text-anchor:middle;fill:#ffff00;stroke:#ffffff;stroke-width:0;stroke-dasharray:none" />
  </g>
  <metadata
     id="metadata12">image/svg+xmlOpenclipart<rdf:RDF>
  <cc:Work
     rdf:about="">
    <dc:format>image/svg+xml</dc:format>
    <dc:type
       rdf:resource="http://purl.org/dc/dcmitype/StillImage" />
  </cc:Work>
</rdf:RDF>
</metadata>
</svg>
