<svg xmlns="http://www.w3.org/2000/svg" viewBox="557.9457 -25.2755 1444.1086 1650.551"><path d="M1978.63 681.734c-.582-4.346-.35-9.255-3.706-12.553-3.318 15.56-2.872 31.645-5.801 47.264-3.085-7.082-2.756-15.017-4.657-22.41-2.154-10.438-8.265-19.402-14.358-27.9-3.376-4.502-6.48-9.488-11.505-12.301 3.744 10.166 11.796 19.286 9.332 30.946-9.856-12.029-16.395-27.61-31.18-34.73 1.572 6.946 9.78 11.234 7.858 19.111-21.691-6.926-42.471-16.957-64.842-21.497-16.143-.699-32.887 4.831-45.537 14.843-8.343 6.13-5.588 18.781-14.086 24.68-6.035 4.792-12.38 9.797-19.927 11.835-4.482-.466-8.343-2.988-12.359-4.793-4.288 4.831-.66 11.855-3.783 17.171-2.018 4.832-8.052 4.463-11.855 7.024a59.598 59.598 0 0 0-1.261 5.937c-5.86.66-5.142 6.694-6.791 10.885-4.308 5.064-12.612 7.858-13.058 15.347.912 9.953 11.777 16.977 9.158 27.648-9.003-1.203-18.141-2.309-26.523-5.956-12.185-5.608-23.884 6.48-36.457 3.647-22.351-4.617-43.966-12.32-65.522-19.732-7.935-2.949-16.045-5.607-23.38-9.876-9.604-5.685-15.114-16.007-24.272-22.215-5.2-3.57-11.176-5.666-17.016-7.858-32.867-12.36-66.414-23.03-98.37-37.699-9.158-4.501-19.169-8.886-25.048-17.656-10.031-14.339-8.673-33.372-18.219-47.905-5.374-8.304-15.328-12.514-25.01-12.32-19.518-.097-38.61 6.79-58.207 4.443-14.512-1.552-27.531-8.925-39.774-16.414-33.159-20.702-62.747-46.682-96.313-66.783-30.307-18.568-60.575-37.369-92.414-53.22-15.716-7.451-32.576-12.069-48.564-18.802-10.322-4.5-20.76-10.4-26.853-20.217-9.041-14.823-6.17-33.76-15.366-48.506-5.996-9.778-16.686-15.114-26.679-19.926-20.915-9.76-43.209-16.065-64.59-24.64-16.317-6.5-28.618-19.636-43.791-28.076-11.079-6.209-24.195-3.027-36.147-5.083-7.334-2.387-15.328-6.267-18.47-13.795-2.038-4.23-1.921-8.984-1.96-13.543 10.535 1.61 19.848 9.76 30.85 7.819 10.903-4.54 13.426-17.714 16.026-27.998 2.483-7.43-.02-18.14 8.09-22.506.291-1.378.874-4.172 1.165-5.569-.854-.698-2.6-2.115-3.473-2.833 1.222-.66 3.667-1.979 4.87-2.658-.718-5.355-2.814-10.341-4.754-15.327 8.304-4.482 19.596-3.144 25.786-11.176-6.209-14.203-21.498-22.953-24.66-38.689-2.019-10.651-4.386-22.39.62-32.576 10.031 3.706 16.065 13.504 25.883 17.365-7.315-13.349-19.771-23.03-27.416-36.224 12.185-4.52 24.99-.64 37.311.95-8.925-9.623-22.39-12.262-34.982-11.854 7.334-7.742 17.54-15.192 28.773-13.368 6.267.931 12.34 2.813 18.53 4.23.717-4.289-3.493-6.5-6.19-8.829-8.285-5.723-17.268-11.37-27.474-12.534-8.11-1.086-16.317-.815-24.408-1.785 8.15-5.53 18.297-7.082 27.881-8.343 13.601-1.455 25.456 6.403 37.951 10.264-3.57-5.103-9.565-7.353-14.784-10.283-6.539-3.628-13.815-5.995-21.285-6.48-10.904-.466-21.187 3.802-31.839 5.335 13.912-10.69 31.8-19.383 49.787-15.56 8.304.892 16.336 4.462 24.796 3.608-4.482-5.878-11.7-8.42-18.141-11.505-12.34-5.937-26.834-1.61-39.193-7.45C843.884 10.84 815.459-3.848 785.114.925c-24.874 5.102-47.846 17.17-68.878 31.082-4.87 2.27-3.706 8.944-7.257 11.992-12.243.892-24.408-2.038-36.69-1.61-16.686.717-33.76-4.599-50.077.775-9.488 2.833-16.764 10.012-22.973 17.385-7.579 9.245-14.214 19.301-19.18 30.207l2.106 1.633c10.71-8.77 19.81-19.752 32.111-26.427 11.098-4.56 23.594-6.19 35.448-4.055-8.614 7.528-19.693 11.467-28.443 18.84-11.506 8.77-15.813 23.399-19.345 36.786-1.125 6.326-3.337 13.175-1.009 19.461 6.112 2.445 12.864-.718 19.286-.175-4.734 23.827-13.232 46.682-20.003 69.965-3.57 12.767-8.693 25.282-9.857 38.592 6.83-5.996 9.45-15.057 13.718-22.798 7.217-13.737 12.533-28.677 21.944-41.153-4.773 37.738-15.833 74.35-22.876 111.68-2.037 14.261 2.872 28.464 8.77 41.23a450.64 450.64 0 0 0 3.415 2.891c-.796-12.088-4.831-24.932.543-36.534 8.013-18.588 16.803-36.904 27.26-54.25-3.977 17.016-10.845 33.217-14.862 50.233-2.852 13.368-1.222 27.105-.582 40.629.64 7.916.35 16.24 3.88 23.574 4.793-8.79 4.813-19.15 8.557-28.328 5.646-14.493 10.943-29.22 17.986-43.092-.912 11.04-3.473 22.215-.64 33.216 1.863 12.573 9.022 23.535 11.06 36.05 1.241 5.161 1.377 11.06 5.354 15.075.447-17.52 3.862-35.137 12.476-50.562-.078 11.913.737 24.078 6.034 34.983 1.494-2.115 2.813-4.405 3.143-7.044 2.426-12.922 3.784-26.018 6.791-38.843 3.55 4.909 6.655 10.943 5.413 17.19-4.326 23.07-10.632 46.43-7.741 70.101 5.568 36.418 22.72 70.392 45.828 98.816 21.013 23.807 46.857 42.627 72.002 61.757 33.1 24.234 64.765 50.33 97.788 74.68 5.006 3.57 11.564 6.48 13.446 12.903 1.688 10.36-4.637 20.43-2.484 30.791 1.882 7.179 12.146 10.71 10.71 18.86-4.152 9.448-11.816 16.821-16.802 25.824-6.81 10.788-8.246 23.748-10.012 36.108-5.471 41.501-8.381 83.294-10.535 125.106-2.037 91.19-1.378 182.44-1.513 273.67-.194 11.525.99 23.263-2.096 34.555-.757 4.948-3.201 11.506 1.358 15.328 3.493.369 7.005-.174 10.458-.815 20.276-4.56 40.182-11.486 61.04-13.038 5.471-.058 12.34-.854 16.22 3.939 4.075 6.053 1.339 13.698-.795 20.004-7.567 19.615-18.995 38.61-19.15 60.263-.485 34.594 7.664 68.51 11.234 102.774 4.042 38.796 13.054 77.166 13.507 116.311.183 15.74-2.712 32.075-6.27 47.357-1.403 6.026-3.037 12.046-3.387 18.223-.675 11.91 5.988 23.99 16.208 30.032 8.54 5.048 18.712 6.597 28.63 6.83 13.932.33 27.938-.291 41.886-.291H1413.874c13.323 0 22.35-2.98 28.388-15.163 3.67-7.406 4.345-16.202 2.056-24.127-2.407-8.332-4.383-19.465-.98-28.552 10.167-32.402 22.643-64.008 34.653-95.75 3.842-10.827 9.41-21.033 11.932-32.306 4.618-18.82 9.566-37.97 8.518-57.527-.252-14.785-3.027-29.764-.175-44.451 1.999-10.71 9.663-18.86 15.755-27.435 7.004-9.546 9.138-21.517 10.497-33.023 1.222-11.408 5.355-22.196 8.498-33.158 4.598-14.184 8.828-28.522 14.687-42.24 2.542-6.402 9.527-8.634 14.785-12.223 8.498-5.626 17.734-12.223 20.198-22.778 5.898-23.69 15.716-46.216 26.445-68.064 3.648-9.37 15.813-8.11 21.46-15.425 12.456-15.075 22.622-31.897 33.662-48 12.67-14.475 28.211-26.136 42.356-39.116 21.652-18.51 42.588-37.834 64.687-55.801 19.655-16.317 31.626-39.445 42.22-62.184 2.076-5.55 7.78-8.77 13.33-9.876 6.81 1.96 7.14 12.282 14.454 13.989 14.338 2.58 29.627-2.794 43.384 3.434 6.868 3.124 15.191 4.812 22.002.504 15.463-8.595 30.21-18.955 42.471-31.78 11.429-12.534 6.093-30.889 12.864-45.324 7.198-16.512 12.612-33.74 16.395-51.32 2.658-13.27 1.242-26.833.214-40.182zm-596.06 7.295c4.094.214 8.576-1.901 12.36.505 13.27 7.353 25.863 15.871 39.406 22.759 15.386 8.79 31.742 16.065 46.12 26.465-7.063 1.26-14.494 2.075-21.402-.485-20.527-7.082-40.085-16.745-60.807-23.283-11-4.016-22.895-6.733-32.421-13.873-7.703-7.373-10.73-18.122-13.66-28.036 11.584 2.29 19.675 11.738 30.404 15.948zm-124.29-60.845c5.315 1.92 5.005 8.517 5.315 13.155-13.93-.718-27.182-5.782-40.318-10.148-11.99-3.861-21.42-12.611-29.976-21.478-2.348-2.193-3.648-5.161-4.618-8.13 23.612 7.683 46.934 16.453 69.596 26.6zm162.009 816.896c-5.899 23.652-14.455 46.546-23.574 69.111a29.76 29.76 0 0 1-3.92 7.082c-1.532-15.056-3.26-30.403-.252-45.382 1.688-8.324 3.88-16.511 6.19-24.66 8.672-30.753 12.048-62.611 15.056-94.315 4.792.796 10.011 1.145 14.105 4.094 2.755 1.727 1.475 5.724 1.999 8.498-.427 25.437-4.327 50.718-9.604 75.572zm79.917-566.625c-21.303 16.472-42.82 32.712-63.348 50.155-4.21 3.822-8.886 7.373-11.971 12.243.582 13.038 20.081 14.26 21.362 27.085-4.114 10.943-12.088 19.868-18.763 29.298-18.84 25.572-40.318 50.077-51.784 80.131-9.857 23.865-13.504 50.078-26.155 72.798-10.283 18.956-26.891 33.682-36.088 53.298-10.303 21.944-19.83 44.664-23.651 68.743-3.047 20.197 4.656 39.794 11.408 58.459-.62.931-1.843 2.794-2.445 3.725 3.862 6.422 8.052 13.038 14.378 17.326 6.79 4.288 14.92 5.646 22.778 6.694-.058 32.13-.737 64.26-.912 96.39-.02 18.394 7.14 38.301-2.464 55.51-9.992 18.472-28.23 33.004-49.05 37.001-8.032 1.863-16.161 3.434-24.194 5.316-8.828 3.163-14.377 11.37-20.314 18.141-4.385-4.287-8.867-9.526-15.367-10.205-22.099-2.91-46.662-3.104-64.823-17.87-16.705-13.833-30.559-30.713-44.043-47.594 6.209-74.912 11.913-149.863 19.635-224.62 4.016-34.013 6.46-68.355 14.028-101.804 1.106-7.878 9.526-11.331 16.55-11.855 13.737-.99 27.745 2.173 41.307-1.32 15.018-3.977 29.764-9.041 44.2-14.784 4.52-1.96 9.487-3.415 12.999-7.063-2.853-3.143-6.384-5.84-8.033-9.817-5.374-12.262-9.915-24.893-13.523-37.796-3.978-13.737-3.415-28.172-4.308-42.297-1.59-53.939-2.386-108.13-10.962-161.505-7.198-43.578-16.744-86.729-26.872-129.724-5.607-22.604-10.885-45.344-17.85-67.598-3.648-11.37-14.824-17.443-21.362-26.853 5.258-4.19 12.728-6.771 19.189-3.783 23.457 9.779 45.847 21.944 69.343 31.665 10.264 4.287 21.634 3.026 32.383 4.83 7.295 1.572 9.158 10.012 14.416 14.261 3.24 1.378 6.965.68 10.4 1.34 6.849 8.032 10.166 19.673 20.372 24.485 12.398 4.56 26.135-4.036 38.261 2.425 26.678 13.815 48.584 35.759 76.698 47.05 35.002 13.621 71.148 23.905 106.81 35.585 6.887 2.231 14.706 2.716 20.333 7.78-21.459 19.907-45.653 36.593-68.568 54.754z"/><path fill="#FFF" d="M1413.789 1356.916c4.792.795 10.011 1.145 14.105 4.094 2.755 1.727 1.475 5.724 1.999 8.498-.427 25.437-4.327 50.718-9.604 75.572-5.899 23.652-14.455 46.546-23.574 69.111a29.789 29.789 0 0 1-3.92 7.082c-1.532-15.056-3.26-30.403-.252-45.382 1.688-8.323 3.88-16.511 6.19-24.66 8.672-30.753 12.048-62.611 15.056-94.315z"/></svg>