<?xml version="1.0" encoding="utf-8"?>
<!DOCTYPE svg PUBLIC "-//W3C//DTD SVG 1.1//EN" "http://www.w3.org/Graphics/SVG/1.1/DTD/svg11.dtd">
<svg version="1.1" id="Layer_1" xmlns="http://www.w3.org/2000/svg" xmlns:xlink="http://www.w3.org/1999/xlink" x="0px" y="0px"
	 viewBox="557.9457 -25.2755 1444.1086 1650.551" enable-background="new 557.9457 -25.2755 1444.1086 1650.551"
	 xml:space="preserve">
<g>
	<path d="M1978.6298,681.7343c-0.5822-4.3461-0.3492-9.2549-3.7058-12.5533c-3.3179,15.5606-2.8716,31.6452-5.8014,47.2641
		c-3.085-7.0818-2.7552-15.0175-4.6566-22.4097c-2.1537-10.4385-8.2653-19.4024-14.3578-27.9006
		c-3.376-4.5014-6.4802-9.4878-11.5055-12.3011c3.7446,10.1668,11.7966,19.2859,9.3325,30.9467
		c-9.8563-12.0294-16.395-27.6095-31.1796-34.7301c1.5715,6.946,9.7788,11.2339,7.8579,19.1112
		c-21.6918-6.9266-42.4716-16.9576-64.8425-21.4977c-16.1427-0.6984-32.887,4.8312-45.5374,14.8428
		c-8.3429,6.1311-5.5878,18.7814-14.0859,24.6797c-6.0343,4.7923-12.3788,9.7982-19.9263,11.8354
		c-4.4821-0.4657-8.3431-2.9879-12.3594-4.7923c-4.288,4.8311-0.6598,11.8547-3.7834,17.171
		c-2.0178,4.8312-8.052,4.4625-11.8547,7.0236c-0.524,1.9403-0.9315,3.9193-1.2612,5.9372
		c-5.8596,0.6596-5.1418,6.6938-6.7909,10.8846c-4.3073,5.064-12.6115,7.8579-13.0577,15.3472
		c0.9119,9.9534,11.7771,16.9771,9.158,27.6483c-9.0027-1.2029-18.1412-2.3089-26.5231-5.9565
		c-12.1846-5.6074-23.8843,6.4804-36.457,3.6476c-22.3514-4.6177-43.9657-12.3204-65.5217-19.7322
		c-7.9354-2.9492-16.0457-5.6072-23.3798-9.8758c-9.6041-5.6849-15.1145-16.007-24.2723-22.2157
		c-5.1997-3.5699-11.1757-5.6654-17.0159-7.858c-32.8677-12.3592-66.4142-23.0306-98.3698-37.6987
		c-9.158-4.5014-19.1694-8.8863-25.0485-17.6562c-10.031-14.3383-8.6729-33.372-18.2189-47.9043
		c-5.3744-8.3042-15.3279-12.5147-25.0096-12.3205c-19.5187-0.097-38.6106,6.7907-58.207,4.4431
		c-14.5128-1.5522-27.5319-8.925-39.7748-16.4144c-33.1586-20.7021-62.7471-46.6821-96.3131-66.7828
		c-30.3065-18.5681-60.5741-37.3688-92.4133-53.2205c-15.7159-7.4507-32.5765-12.0684-48.564-18.8011
		c-10.3221-4.5012-20.7605-10.3995-26.8529-20.2172c-9.0415-14.8234-6.17-33.76-15.3667-48.5057
		c-5.9953-9.7787-16.686-15.1145-26.6782-19.9262c-20.9158-9.7594-43.209-16.0652-64.5905-24.641
		c-16.3174-6.4998-28.6184-19.6351-43.7911-28.0752c-11.0787-6.2086-24.1947-3.0267-36.1466-5.0833
		c-7.334-2.3865-15.3278-6.2669-18.4709-13.795c-2.0373-4.2298-1.9208-8.9833-1.9597-13.5428
		c10.5355,1.6103,19.8485,9.7592,30.8497,7.8191c10.9041-4.5401,13.4265-17.7144,16.0263-27.9976
		c2.4835-7.4311-0.0194-18.1412,8.0908-22.5067c0.291-1.3775,0.8731-4.1716,1.1641-5.5685
		c-0.8537-0.6985-2.5999-2.1149-3.473-2.8327c1.2223-0.6597,3.6671-1.979,4.87-2.6581c-0.718-5.3549-2.8134-10.3415-4.7537-15.3278
		c8.3042-4.4819,19.5964-3.1432,25.7858-11.1758c-6.2087-14.2025-21.4978-22.9529-24.6604-38.6883
		c-2.0178-10.6518-4.3849-22.3904,0.6209-32.5766c10.031,3.706,16.0651,13.5041,25.8827,17.3651
		c-7.3147-13.3488-19.771-23.0306-27.4155-36.2241c12.1846-4.5208,24.9902-0.6402,37.3107,0.9507
		c-8.9251-9.6235-22.3904-12.2621-34.9825-11.8547c7.3342-7.7415,17.5397-15.1921,28.7736-13.3682
		c6.267,0.9313,12.3399,2.8134,18.5292,4.2298c0.718-4.2881-3.4924-6.5-6.1893-8.8282
		c-8.2848-5.7237-17.2681-11.3698-27.4738-12.534c-8.1101-1.0864-16.3173-0.8148-24.4081-1.7849
		c8.1489-5.5297,18.2964-7.0819,27.8812-8.3431c13.6011-1.4552,25.4558,6.4028,37.9509,10.2639
		c-3.57-5.1029-9.5653-7.3535-14.7845-10.2832c-6.5386-3.6282-13.8145-5.9953-21.2843-6.4803
		c-10.9042-0.4658-21.1874,3.8028-31.8393,5.3354c13.9115-10.6907,31.8005-19.3829,49.7864-15.5605
		c8.3042,0.8926,16.3368,4.4625,24.7962,3.6088c-4.4819-5.8788-11.6996-8.4207-18.1412-11.5055
		c-12.3398-5.9372-26.8334-1.6104-39.1927-7.4507c-27.1632-11.292-55.5876-25.9796-85.9329-21.2066
		c-24.8739,5.1027-47.8462,17.1711-68.8784,31.0825c-4.8701,2.27-3.7058,8.9444-7.2565,11.9915
		c-12.2429,0.8924-24.4081-2.0371-36.6898-1.6104c-16.686,0.718-33.7601-4.5982-50.0774,0.7763
		c-9.4878,2.8326-16.7637,10.0114-22.9724,17.3843c-7.5795,9.2449-14.2149,19.3014-19.1798,30.207
		c1.1313,0.8775,0.9739,0.7553,2.1052,1.6328c10.7104-8.77,19.8101-19.7518,32.1114-26.4264
		c11.0981-4.5597,23.5933-6.1893,35.4481-4.0552c-8.6147,7.5281-19.6934,11.467-28.4438,18.8398
		c-11.5056,8.7698-15.8129,23.3992-19.3442,36.7867c-1.1253,6.3252-3.3372,13.1742-1.009,19.4607
		c6.1118,2.4446,12.8638-0.718,19.286-0.1748c-4.7343,23.8262-13.2324,46.6821-20.0038,69.965
		c-3.5701,12.7667-8.6923,25.2812-9.8564,38.5913c6.8296-5.9955,9.4489-15.0562,13.7174-22.7979
		c7.2177-13.7368,12.5339-28.6767,21.9441-41.1524c-4.773,37.7376-15.8323,74.3498-22.8754,111.6799
		c-2.0372,14.2608,2.8716,28.4633,8.7699,41.23c0.8537,0.7372,2.5611,2.173,3.4148,2.8908
		c-0.7955-12.0876-4.8312-24.932,0.5433-36.5345c8.0131-18.5874,16.8024-36.9032,27.2603-54.249
		c-3.9775,17.0159-10.8459,33.2168-14.8622,50.2327c-2.8521,13.3682-1.2223,27.1049-0.582,40.6286
		c0.6403,7.9161,0.3492,16.2396,3.8805,23.5738c4.7924-8.7893,4.8118-19.1501,8.5565-28.3274
		c5.6461-14.4937,10.9429-29.2198,17.986-43.0927c-0.912,11.0399-3.473,22.2158-0.6403,33.2168
		c1.8627,12.5727,9.0222,23.535,11.0594,36.0497c1.2418,5.161,1.3776,11.0591,5.355,15.0754
		c0.4462-17.5204,3.8611-35.1376,12.4756-50.5624c-0.0776,11.913,0.7373,24.0782,6.0342,34.9825
		c1.494-2.1149,2.8132-4.4046,3.1431-7.0432c2.4253-12.922,3.7835-26.0186,6.7908-38.8435
		c3.5507,4.9089,6.655,10.943,5.4133,17.1905c-4.3267,23.0695-10.6324,46.4297-7.7416,70.1006
		c5.5685,36.4183,22.7202,70.3918,45.8284,98.816c21.0127,23.8069,46.8566,42.6271,72.002,61.7575
		c33.1004,24.2335,64.765,50.3297,97.7878,74.6797c5.0057,3.5699,11.5638,6.4803,13.4458,12.9025
		c1.688,10.3609-4.6371,20.4307-2.4835,30.7915c1.882,7.1788,12.1458,10.7101,10.7101,18.859
		c-4.1522,9.449-11.816,16.8218-16.8024,25.8246c-6.8102,10.7877-8.246,23.7484-10.0117,36.1077
		c-5.4714,41.5016-8.3818,83.2943-10.5355,125.1062c-2.0372,91.191-1.3775,182.4401-1.5133,273.67
		c-0.194,11.5249,0.9895,23.2633-2.0955,34.5555c-0.7567,4.9478-3.2014,11.5057,1.3582,15.3279
		c3.4925,0.3687,7.0043-0.1744,10.4579-0.8148c20.2754-4.5596,40.1821-11.4862,61.0397-13.0383
		c5.4714-0.0581,12.3398-0.8535,16.2203,3.9387c4.0745,6.0535,1.3388,13.698-0.7955,20.0038
		c-7.5669,19.6157-18.9949,38.6107-19.1501,60.2637c-0.485,34.5942,7.664,68.5096,11.234,102.7742
		c4.0421,38.7957,13.0546,77.1656,13.5079,116.311c0.1823,15.7391-2.7124,32.0746-6.2702,47.3566
		c-1.403,6.0259-3.0369,12.0459-3.3869,18.2233c-0.6749,11.9106,5.9877,23.9905,16.208,30.0317
		c8.5399,5.0481,18.7121,6.5967,28.6296,6.8309c13.932,0.3291,27.938-0.2922,41.8864-0.2922c9.4647,0,18.9294,0,28.3942,0
		c22.593,0,45.186,0,67.7791,0c24.8242,0,49.6486,0,74.4728,0c23.8713,0,47.7427,0,71.6139,0c19.7343,0,39.4684,0,59.2025,0
		c12.4128,0,24.8257,0,37.2385,0c2.6354,0,5.2708,0,7.9061,0c13.3225,0,22.3499-2.9794,28.3871-15.1626
		c3.67-7.4064,4.3455-16.2024,2.0564-24.1271c-2.4065-8.3317-4.3832-19.465-0.9796-28.5519
		c10.1669-32.4019,22.6426-64.0083,34.6526-95.7505c3.8417-10.8265,9.4102-21.0322,11.9325-32.3051
		c4.6178-18.8202,9.5653-37.9703,8.5176-57.5278c-0.2522-14.7847-3.0266-29.7632-0.1746-44.4507
		c1.9984-10.7102,9.6622-18.8593,15.7546-27.4349c7.0043-9.546,9.1384-21.5173,10.4966-33.0228
		c1.2224-11.4087,5.3549-22.1963,8.4983-33.1587c4.598-14.1831,8.8278-28.5215,14.6873-42.2389
		c2.5417-6.4027,9.5267-8.6342,14.7848-12.2235c8.4982-5.6266,17.7338-12.2235,20.1979-22.7783
		c5.8982-23.6903,15.7158-46.2163,26.4454-68.0635c3.6476-9.3711,15.8129-8.1101,21.459-15.4249
		c12.4562-15.0756,22.623-31.8973,33.663-48.0013c12.6697-14.4741,28.2111-26.1349,42.3553-39.1151
		c21.6528-18.5099,42.5883-37.8345,64.6874-55.8011c19.6547-16.3173,31.6257-39.4449,42.2194-62.1843
		c2.0763-5.5492,7.7805-8.77,13.3296-9.8759c6.8103,1.9597,7.14,12.2818,14.4548,13.9892
		c14.3384,2.5805,29.6273-2.794,43.3837,3.4342c6.8683,3.1235,15.1919,4.8116,22.0022,0.5043
		c15.4637-8.595,30.2095-18.9559,42.4717-31.7808c11.4281-12.5338,6.0925-30.8885,12.8639-45.3239
		c7.1981-16.5114,12.6115-33.7405,16.3949-51.3192C1981.0743,708.6453,1979.6581,695.0831,1978.6298,681.7343z M1382.5704,689.0294
		c4.0939,0.2134,8.5757-1.9017,12.3593,0.5045c13.2712,7.3535,25.8634,15.8712,39.4061,22.7589
		c15.3861,8.7893,31.7423,16.0652,46.1195,26.4648c-7.0626,1.2612-14.4934,2.0758-21.4009-0.485
		c-20.5277-7.0819-40.0853-16.7443-60.807-23.2828c-11.0012-4.0163-22.8949-6.7327-32.4214-13.8728
		c-7.7026-7.3729-10.7294-18.1218-13.6592-28.0364C1363.75,675.3701,1371.8408,684.819,1382.5704,689.0294z M1258.2791,628.1837
		c5.3163,1.9208,5.0059,8.5176,5.3163,13.1548c-13.931-0.7179-27.1827-5.7819-40.3182-10.1474
		c-11.9906-3.8611-21.4202-12.6116-29.9766-21.4785c-2.3478-2.1925-3.6477-5.1611-4.6178-8.1296
		C1212.2954,609.2663,1235.6171,618.0363,1258.2791,628.1837z M1420.2886,1445.0803c-5.8984,23.6514-14.4547,46.5461-23.574,69.111
		c-0.97,2.5031-2.2894,4.9089-3.9193,7.0819c-1.5327-15.0562-3.2595-30.4034-0.2522-45.382
		c1.6881-8.3237,3.8805-16.5115,6.1893-24.6605c8.673-30.7526,12.049-62.6112,15.0563-94.3147
		c4.7924,0.7955,10.0115,1.1448,14.1056,4.0939c2.7551,1.7268,1.4746,5.7238,1.9984,8.4983
		C1429.4658,1394.9446,1425.5659,1420.2258,1420.2886,1445.0803z M1500.2064,878.4547
		c-21.3038,16.4726-42.8209,32.7123-63.3486,50.155c-4.2103,3.8221-8.8862,7.3729-11.9712,12.2429
		c0.5819,13.0384,20.0814,14.2607,21.3619,27.0856c-4.1133,10.9429-12.0876,19.868-18.7621,29.2975
		c-18.8396,25.5723-40.318,50.0774-51.7848,80.1317c-9.8563,23.8649-13.5039,50.0774-26.1543,72.7975
		c-10.2832,18.9561-26.8916,33.6825-36.0883,53.2982c-10.3027,21.944-19.8293,44.6644-23.6515,68.7427
		c-3.0463,20.1976,4.6566,39.7939,11.4086,58.459c-0.621,0.9314-1.8433,2.7939-2.4447,3.7252
		c3.8611,6.4222,8.0519,13.0383,14.3771,17.3263c6.7908,4.288,14.9204,5.6461,22.7783,6.6938
		c-0.0582,32.1302-0.7372,64.2606-0.9119,96.3907c-0.0194,18.3934,7.14,38.3003-2.4641,55.5101
		c-9.9923,18.4711-28.2305,33.0034-49.0492,37.0002c-8.0325,1.8625-16.1621,3.4342-24.1947,5.3162
		c-8.828,3.1626-14.377,11.3699-20.3141,18.1412c-4.385-4.2877-8.8669-9.5264-15.3666-10.2054
		c-22.0992-2.9103-46.6626-3.1045-64.8232-17.8696c-16.7053-13.8339-30.5586-30.7139-44.0433-47.594
		c6.2089-74.9124,11.9131-149.8636,19.6351-224.6208c4.0164-34.0122,6.4609-68.3544,14.0278-101.804
		c1.106-7.8774,9.5267-11.3309,16.5503-11.8549c13.7368-0.9895,27.7454,2.1731,41.3075-1.3193
		c15.0176-3.9774,29.7635-9.0415,44.1987-14.7847c4.5208-1.9596,9.4877-3.4148,12.9995-7.0624
		c-2.8523-3.1432-6.3834-5.8402-8.0326-9.8176c-5.3744-12.2622-9.9146-24.8931-13.5234-37.7957
		c-3.9774-13.7369-3.4147-28.1721-4.3073-42.2971c-1.5909-53.9387-2.3865-108.1294-10.9623-161.5053
		c-7.1982-43.5775-16.7443-86.7284-26.8723-129.7239c-5.6072-22.6038-10.8846-45.3434-17.8501-67.5978
		c-3.6476-11.3699-14.8235-17.4429-21.3619-26.8529c5.2581-4.1909,12.7279-6.7714,19.1888-3.7831
		c23.4574,9.7787,45.8478,21.9441,69.344,31.6646c10.2638,4.2879,21.6337,3.0268,32.3824,4.8312
		c7.2954,1.5717,9.1578,10.0115,14.4159,14.2607c3.2402,1.3776,6.9653,0.679,10.3997,1.3387
		c6.8491,8.0326,10.1667,19.674,20.3724,24.4857c12.3981,4.5595,26.1349-4.0358,38.2614,2.4254
		c26.6781,13.8144,48.5835,35.7584,76.6975,47.0506c35.002,13.6205,71.1483,23.9037,106.8098,35.584
		c6.8877,2.2313,14.7068,2.7164,20.3335,7.7803C1547.3153,843.608,1523.1206,860.2941,1500.2064,878.4547z"/>
	<path fill="#FFFFFF" d="M1413.7887,1356.916c4.7924,0.7954,10.0116,1.1448,14.1056,4.0939
		c2.755,1.7268,1.4746,5.7238,1.9984,8.4983c-0.4268,25.4364-4.3267,50.7177-9.6041,75.572
		c-5.8983,23.6515-14.4548,46.5463-23.5739,69.1112c-0.9702,2.5028-2.2898,4.9088-3.9193,7.0819
		c-1.5328-15.0563-3.2596-30.4034-0.2523-45.3822c1.688-8.3235,3.8805-16.5114,6.1893-24.6604
		C1407.4053,1420.4781,1410.7814,1388.6195,1413.7887,1356.916z"/>
</g>
</svg>
