<svg xmlns="http://www.w3.org/2000/svg" version="1" width="120" height="168"><path d="M40 133.4h32v-28l-8-4 14-8-14-8 14-8-14-8 14-8-8-4v-22H40M30 119.4h12M36 45.4v12M42 51.4H30" fill="none" stroke="#000" stroke-width="3"/><text x="380" y="546.362" style="text-align:start;line-height:125%;-inkscape-font-specification:Arial Bold" font-size="20" font-weight="700" font-family="Arial" transform="translate(-350 -454.963)"><tspan x="380" y="546.362">V</tspan></text><text x="436" y="544.362" style="text-align:start;line-height:125%;-inkscape-font-specification:Arial Bold" font-size="20" font-weight="700" font-family="Arial" transform="translate(-350 -454.963)"><tspan x="436" y="544.362">R</tspan></text><text x="392" y="474.362" style="text-align:start;line-height:125%;-inkscape-font-specification:Courier New Bold" font-size="24" font-weight="700" font-family="Courier New" transform="translate(-350 -454.963)"><tspan x="392" y="474.362">I</tspan></text><path d="M38 32.4a6 3 0 1 1-12 0 6 3 0 1 1 12 0z" fill="none"/><path d="M40 35.4a4 4 0 1 1-8 0 4 4 0 1 1 8 0zM40 133.4a4 4 0 1 1-8 0 4 4 0 1 1 8 0z" fill="none" stroke="#000" stroke-width="3"/><g fill="none" stroke="#000" stroke-width="2"><path d="M46 25.4h20l-8-4M66 25.4l-8 4"/></g><text x="406" y="616.362" style="text-align:start;line-height:125%;-inkscape-font-specification:Courier New Bold" font-size="24" font-weight="700" font-family="Courier New" transform="translate(-350 -454.963)"><tspan x="406" y="616.362">I</tspan></text><g fill="none" stroke="#000" stroke-width="2"><path d="M66 141.4H46l8-4M46 141.4l8 4"/></g></svg>