<?xml version="1.0" encoding="UTF-8" standalone="no"?>
<!-- Created with Inkscape (http://www.inkscape.org/) -->
<svg
   xmlns:svg="http://www.w3.org/2000/svg"
   xmlns="http://www.w3.org/2000/svg"
   version="1.0"
   width="440"
   height="430.39999"
   viewBox="0 0 1191.408 1197.77"
   id="svg2"
   xml:space="preserve"><defs
   id="defs150" />
	
		<g
   transform="matrix(0.941817,0,0,0.941818,34.42965,43.4604)"
   id="レイヤー_1">
			<g
   id="g7">
				<text
   transform="translate(620.1265,517.2988)"
   id="text9"><tspan
     x="0"
     y="0"
     style="font-size:100px;font-family:ArialMT"
     id="tspan11">N</tspan></text>

				<text
   transform="translate(620.1265,229.2969)"
   id="text13"><tspan
     x="0"
     y="0"
     style="font-size:100px;font-family:ArialMT"
     id="tspan15">N</tspan></text>

				<polygon
   points="534.624,403.796 530.625,406.296 526.621,403.796 526.621,264.797 530.625,262.297 534.624,264.797 534.624,403.796 "
   id="polygon17" />
				<rect
   width="7.9980001"
   height="113.999"
   x="500.625"
   y="277.297"
   id="rect19" /> 
				<polygon
   points="613.125,449.299 609.121,456.296 530.625,410.798 530.625,406.296 534.624,403.796 613.125,449.299 "
   id="polygon21" />
				<polygon
   points="775.625,403.796 779.619,406.296 779.619,410.798 703.125,455.3 699.121,448.298 775.625,403.796 "
   id="polygon23" />
				<polygon
   points="775.625,264.797 779.619,262.297 783.623,264.797 783.623,403.796 779.619,406.296 775.625,403.796 775.625,264.797 "
   id="polygon25" />
				<polygon
   points="700.126,220.798 704.121,214.299 779.619,257.8 779.619,262.297 775.625,264.797 700.126,220.798 "
   id="polygon27" />
				
					<rect
   width="8.066"
   height="75.042"
   x="717.58801"
   y="221.02699"
   transform="matrix(-0.4964,0.8681,-0.8681,-0.4964,1304.276,-239.5443)"
   id="rect29" /> 
				<polygon
   points="534.624,264.797 530.625,262.297 530.625,257.8 608.125,212.8 612.119,219.797 534.624,264.797 "
   id="polygon31" />
				<polygon
   points="405.625,194.797 405.625,185.798 530.625,257.8 530.625,262.297 526.621,264.797 405.625,194.797 "
   id="polygon33" />
				<polygon
   points="285.122,264.797 281.123,262.297 281.123,257.8 405.625,185.798 405.625,194.797 285.122,264.797 "
   id="polygon35" />
				
					<rect
   width="8.0629997"
   height="113.803"
   x="352.34"
   y="191.897"
   transform="matrix(0.4959,0.8684,-0.8684,0.4959,395.6772,-184.0483)"
   id="rect37" /> 
				<polygon
   points="285.122,403.796 281.123,406.296 277.124,403.796 277.124,264.797 281.123,262.297 285.122,264.797 285.122,403.796 "
   id="polygon39" />
				<polygon
   points="405.625,473.796 405.625,482.8 281.123,410.798 281.123,406.296 285.122,403.796 405.625,473.796 "
   id="polygon41" />
				
					<rect
   width="8.0629997"
   height="113.805"
   x="352.34"
   y="362.89499"
   transform="matrix(0.4959,-0.8684,0.8684,0.4959,-184.9016,521.0587)"
   id="rect43" /> 
				<polygon
   points="526.621,403.796 530.625,406.296 530.625,410.798 405.625,482.8 405.625,473.796 526.621,403.796 "
   id="polygon45" />
				<text
   transform="translate(869.6245,517.2988)"
   id="text47"><tspan
     x="0"
     y="0"
     style="font-size:100px;font-family:ArialMT"
     id="tspan49">N</tspan></text>

				<text
   transform="translate(994.1167,301.2998)"
   id="text51"><tspan
     x="0"
     y="0"
     style="font-size:100px;font-family:ArialMT"
     id="tspan53">NH</tspan></text>

				<polygon
   points="862.119,449.299 858.125,456.296 779.619,410.798 779.619,406.296 783.623,403.796 862.119,449.299 "
   id="polygon55" />
				
					<rect
   width="8.0620003"
   height="77.956001"
   x="835.34399"
   y="371.82001"
   transform="matrix(0.4967,-0.8679,0.8679,0.4967,65.9399,935.3018)"
   id="rect57" /> 
				<polygon
   points="1025.126,403.796 1033.125,408.796 952.626,455.3 948.623,448.298 1025.126,403.796 "
   id="polygon59" />
				<polygon
   points="1025.126,313.298 1033.125,313.298 1033.125,408.796 1025.126,403.796 1025.126,313.298 "
   id="polygon61" />
				<polygon
   points="904.619,194.797 904.619,185.798 987.119,233.298 983.125,240.3 904.619,194.797 "
   id="polygon63" />
				<polygon
   points="783.623,264.797 779.619,262.297 779.619,257.8 904.619,185.798 904.619,194.797 783.623,264.797 "
   id="polygon65" />
				<text
   transform="translate(-9.765625e-4,229.7988)"
   id="text67"><tspan
     x="0"
     y="0"
     style="font-size:100px;font-family:ArialMT"
     id="tspan69">CH</tspan></text>

				<text
   transform="translate(144.4087,248.5464)"
   id="text71"><tspan
     x="0"
     y="0"
     style="font-size:75px;font-family:ArialMT"
     id="tspan73">3</tspan></text>

				<polygon
   points="191.621,215.3 195.625,208.298 281.123,257.8 281.123,262.297 277.124,264.797 191.621,215.3 "
   id="polygon75" />
				<text
   transform="translate(-9.765625e-4,516.7969)"
   id="text77"><tspan
     x="0"
     y="0"
     style="font-size:100px;font-family:ArialMT"
     id="tspan79">CH</tspan></text>

				<text
   transform="translate(144.4087,535.5483)"
   id="text81"><tspan
     x="0"
     y="0"
     style="font-size:75px;font-family:ArialMT"
     id="tspan83">3</tspan></text>

				<polygon
   points="177.124,470.798 173.125,463.796 277.124,403.796 281.123,406.296 281.123,410.798 177.124,470.798 "
   id="polygon85" />
				<text
   transform="translate(864.6245,85.7979)"
   id="text87"><tspan
     x="0"
     y="0"
     style="font-size:100px;font-family:ArialMT"
     id="tspan89">O</tspan></text>

				<rect
   width="7.9980001"
   height="99.501999"
   x="887.62598"
   y="98.297997"
   id="rect91" /> 
				<rect
   width="7.9980001"
   height="99.501999"
   x="913.62299"
   y="98.297997"
   id="rect93" /> 
				<text
   transform="translate(1113.626,516.7969)"
   id="text95"><tspan
     x="0"
     y="0"
     style="font-size:100px;font-family:ArialMT"
     id="tspan97">O</tspan></text>

				<polygon
   points="1121.621,439.797 1117.626,446.799 1027.119,394.797 1031.123,387.8 1121.621,439.797 "
   id="polygon99" />
				
					<rect
   width="8.066"
   height="104.375"
   x="1057.339"
   y="387.60999"
   transform="matrix(0.4964,-0.8681,0.8681,0.4964,152.7216,1142.853)"
   id="rect101" /> 
				<polygon
   points="659.121,619.797 651.123,624.797 651.123,529.299 659.121,529.299 659.121,619.797 "
   id="polygon103" />
				<polygon
   points="783.623,691.799 775.625,696.799 651.123,624.797 659.121,619.797 783.623,691.799 "
   id="polygon105" />
				<polygon
   points="783.623,835.793 779.619,838.303 775.625,835.793 775.625,696.799 783.623,691.799 783.623,835.793 "
   id="polygon107" />
				<polygon
   points="908.623,907.795 900.625,912.795 780.126,843.293 779.619,838.303 783.623,835.793 908.623,907.795 "
   id="polygon109" />
				<polygon
   points="908.623,1051.799 900.625,1056.799 900.625,912.795 908.623,907.795 908.623,1051.799 "
   id="polygon111" />
				<text
   transform="translate(989.6245,1165.301)"
   id="text113"><tspan
     x="0"
     y="0"
     style="font-size:100px;font-family:ArialMT"
     id="tspan115">OH</tspan></text>

				<polygon
   points="990.625,1099.299 986.621,1106.301 900.625,1056.799 908.623,1051.799 990.625,1099.299 "
   id="polygon117" />
				<text
   transform="translate(543.626,948.8003)"
   id="text119"><tspan
     x="0"
     y="0"
     style="font-size:100px;font-family:ArialMT"
     id="tspan121">HO</tspan></text>

				<polygon
   points="702.626,900.295 687.626,874.299 775.625,835.793 779.619,838.303 780.126,843.293 702.626,900.295 "
   id="polygon123" />
				<text
   transform="translate(989.1167,877.2993)"
   id="text125"><tspan
     x="0"
     y="0"
     style="font-size:100px;font-family:ArialMT"
     id="tspan127">OH</tspan></text>

				<polygon
   points="978.125,850.295 993.125,876.301 985.625,879.299 972.119,855.295 978.125,850.295 "
   id="polygon129" />
				<polygon
   points="961.123,864.299 972.626,884.299 965.126,887.297 954.619,869.299 961.123,864.299 "
   id="polygon131" />
				<polygon
   points="943.623,877.795 952.119,892.795 944.619,895.793 937.119,882.795 943.623,877.795 "
   id="polygon133" />
				<polygon
   points="926.123,891.799 931.621,900.793 924.121,903.801 920.126,896.799 926.123,891.799 "
   id="polygon135" />
				<text
   transform="translate(864.1167,661.3003)"
   id="text137"><tspan
     x="0"
     y="0"
     style="font-size:100px;font-family:ArialMT"
     id="tspan139">OH</tspan></text>

				<polygon
   points="853.623,634.299 868.623,660.295 861.123,663.293 847.119,639.299 853.623,634.299 "
   id="polygon141" />
				<polygon
   points="836.123,648.293 848.125,668.293 840.625,671.301 830.126,653.293 836.123,648.293 "
   id="polygon143" />
				<polygon
   points="819.121,661.799 827.119,676.799 819.619,679.797 812.626,666.799 819.121,661.799 "
   id="polygon145" />
				<polygon
   points="801.621,675.793 806.621,684.797 799.121,687.795 795.126,680.803 801.621,675.793 "
   id="polygon147" />
			</g>
		</g>
	</svg>