<svg xmlns="http://www.w3.org/2000/svg" viewBox="-0.664 -0.752 512 455"><path d="M469.87 453.89H41.26C18.216 453.89 0 435.31 0 412.56c0-7.488 1.584-14.616 5.472-20.808l214.35-371.01c15.912-27.648 55.512-27.648 71.136 0l214.34 371.02c3.888 6.48 5.544 13.32 5.544 20.808 0 22.74-18.22 40.96-40.97 41.32z" fill="#ED171F"/><path fill="#FEB82F" d="M255.53 53.928L51.984 406.08H458.78z"/><path stroke="#000" stroke-width=".216" d="M214.63 222.77l19.872-20.448c2.304-2.304 5.184-3.6 8.712-3.6 20.808 1.008 41.328 6.84 59.184 17.28 2.952 1.584 4.896 4.176 5.544 7.488l5.832 27.576c3.24 4.896 4.896 10.08 4.896 15.624 0 4.608-1.296 8.784-3.24 12.672l-8.136 14.04-3.888 13.608c-3.6 12.313-22.176 9.72-22.176-3.24 0-.936 0-1.944.36-2.88l2.304-7.2-20.808-6.192c-5.256 13.392-24.696 9.432-24.696-4.536v-2.304l-20.808-6.12-1.944 7.128c-3.24 12.672-21.816 10.08-21.816-2.952 0-.936 0-2.232.36-3.24l3.888-13.32.36-16.272c.68-10.09 6.87-18.87 16.23-23.12z"/><path stroke="#000" stroke-width=".216" d="M227.66 226.01l73.44 20.88-4.536-20.88c-16.272-9.36-34.776-14.904-54-15.552l-14.9 15.55z" fill="#FEB82F"/><path stroke="#000" stroke-width=".216" d="M238.68 374.26c1.368-1.008 2.304-2.952 2.304-4.608 0-1.584-.648-2.88-1.584-3.888-.36-.288-1.008-.648-1.368-.936h-.288l-68.616-22.176c-5.184-1.584-5.184-8.784 0-10.368l33.48-12.384c1.008 0 1.296-.648 1.296-1.584 0-1.008-.648-1.656-1.584-1.656h-.36l-66.672 11.736c-4.248.648-7.488 4.536-7.488 9.072 0 1.656.648 3.6 1.656 5.184 1.584 1.656 3.6 3.312 5.832 3.96l64.368 21.096c.72.36 1.368 1.296 1.368 1.944 0 1.008-.648 1.656-1.368 2.304l-65.952 22.752h66.672l37.656-20.16.64-.27z"/><path stroke="#000" stroke-width=".216" d="M365.76 374.54c1.296-1.368 1.944-2.952 1.944-4.608 0-2.592-1.944-4.824-4.608-5.544l-151.12-25.99h-.648c-2.592-.936-2.592-4.536 0-5.544 0 0 .36-.288.648-.288l74.088-13.68h.648c.648 0 1.296.648 1.296 1.656 0 .648-.36.936-1.008 1.296h-.288l-36.072 12.024a.645.645 0 0 0-.648.648c0 .288.288.648.288.936h.648l141.47 16.62c2.592 0 4.896.936 7.128 2.232 3.888 2.304 6.552 6.552 6.84 11.088v.648c0 3.888-1.296 7.776-3.888 11.088l-15.624 17.568h-73.8l51.336-19.512 1.36-.66z"/></svg>