<svg version="1.2" baseProfile="tiny" width="557.367" height="482.306" viewBox="2880 2299 14747 12761" preserveAspectRatio="xMidYMid" fill-rule="evenodd" stroke-width="28.222" stroke-linejoin="round" xmlns="http://www.w3.org/2000/svg"><defs class="ClipPathGroup"><clipPath id="a"><path d="M2880 2299h14747v12761H2880z"/></clipPath></defs><g class="SlideGroup"><g class="Slide" clip-path="url(#a)"><g class="Page"><g class="com.sun.star.drawing.CustomShape"><path fill="#FF8080" d="M14299 3600c396 0 700 303 700 699s-304 700-700 700-699-304-699-700 303-699 699-699zm-699 0zm1401 1401z"/><path fill="none" stroke="#C00" stroke-width="106" d="M14299 3600c396 0 700 303 700 699s-304 700-700 700-699-304-699-700 303-699 699-699z"/></g><path fill="none" stroke="#666" stroke-width="106" d="M14300 5000v900" class="com.sun.star.drawing.LineShape"/><path fill="none" stroke="#666" stroke-width="106" d="M14300 5900l-3500-400-100-500M14300 5900l-3400 900-100-300" class="com.sun.star.drawing.PolyLineShape"/><path fill="none" stroke="#666" stroke-width="106" d="M14300 5900v3400" class="com.sun.star.drawing.LineShape"/><path fill="none" stroke="#666" stroke-width="106" d="M14300 9200l-1800 4300-600-100M14300 9200l1500 4200-500 100" class="com.sun.star.drawing.PolyLineShape"/><path fill="none" stroke="#000" stroke-width="106" stroke-linecap="round" d="M4000 5000h7000" class="com.sun.star.drawing.LineShape"/><g fill="none" stroke="#000" stroke-width="106" stroke-linecap="round" class="com.sun.star.drawing.LineShape"><path d="M4000 5900h530M4710 5900h43M4933 5900h530M5643 5900h42M5866 5900h530M6576 5900h42M6798 5900h530M7509 5900h42M7731 5900h530M8441 5900h43M8664 5900h530M9374 5900h43M9597 5900h530M10307 5900h42M10530 5900h470"/></g><g class="com.sun.star.drawing.TextShape"><text class="TextShape"><tspan class="TextParagraph" font-family="Liberation Sans, sans-serif" font-size="847" font-weight="700"><tspan class="TextPosition" x="3136" y="5296"><tspan>L</tspan></tspan></tspan></text></g><g class="com.sun.star.drawing.TextShape"><text class="TextShape"><tspan class="TextParagraph" font-family="Liberation Sans, sans-serif" font-size="847" font-weight="700"><tspan class="TextPosition" x="3130" y="6239"><tspan>N</tspan></tspan></tspan></text></g><g class="com.sun.star.drawing.CustomShape"><defs><pattern id="b" x="3200" y="13560" width="14401" height="1501" patternUnits="userSpaceOnUse"><g stroke="#000"><path d="M3200 14219l659-659M3200 14930l1370-1370M3781 15060l1500-1500M4492 15060l1500-1500M5203 15060l1500-1500M5914 15060l1500-1500M6625 15060l1500-1500M7336 15060l1500-1500M8047 15060l1500-1500M8758 15060l1500-1500M9469 15060l1500-1500M10180 15060l1500-1500M10891 15060l1500-1500M11602 15060l1500-1500M12313 15060l1500-1500M13024 15060l1500-1500M13735 15060l1500-1500M14446 15060l1500-1500M15157 15060l1500-1500M15868 15060l1500-1500M16579 15060l1021-1021M17290 15060l310-310" transform="translate(-3200 -13560)"/></g></pattern></defs><path d="M10400 15060H3200v-1500h14400v1500h-7200z" fill="url(#b)"/></g><path fill="none" stroke="#000" stroke-width="53" d="M3100 13500h14500" class="com.sun.star.drawing.LineShape"/><g class="com.sun.star.drawing.CustomShape"><path fill="#FF0" d="M12401 2895l-1180 154 802-719-391-30-951 1037 1131-150-804 761-130-319-278 872 917-246-329-138 1213-1222zm-1801-595zm1801 2201z"/><path fill="none" stroke="#F30" d="M12401 2895l-1180 154 802-719-391-30-951 1037 1131-150-804 761-130-319-278 872 917-246-329-138 1213-1222zM10600 2300zM12401 4501z"/></g><g class="com.sun.star.drawing.CustomShape"><path fill="#C00" d="M14316 7500c-17-131-64-292-182-395-195-169-308-150-435-375-70-150-46-413 215-512 269-78 377 116 402 155 25-39 131-233 401-155 262 99 285 362 215 512-128 225-241 206-436 375-117 103-165 264-180 395zm-651-1300zm1301 1301z"/><path fill="none" stroke="#F00" d="M14316 7500c-17-131-64-292-182-395-195-169-308-150-435-375-70-150-46-413 215-512 269-78 377 116 402 155 25-39 131-233 401-155 262 99 285 362 215 512-128 225-241 206-436 375-117 103-165 264-180 395zM13665 6200zM14966 7501z"/></g><g class="com.sun.star.drawing.CustomShape"><path fill="#FF0" d="M16101 6052l-590 90 401-424-196-18-476 613 566-89-402 450-65-189-139 516 458-146-164-81 607-722zm-901-352zm901 1301z"/><path fill="none" stroke="#F30" d="M16101 6052l-590 90 401-424-196-18-476 613 566-89-402 450-65-189-139 516 458-146-164-81 607-722zM15200 5700zM16101 7001z"/></g><g class="com.sun.star.drawing.CustomShape"><path fill="#FF0" d="M13701 6852l-590 90 401-424-196-18-476 613 566-89-402 450-65-189-139 516 458-146-164-81 607-722zm-901-352zm901 1301z"/><path fill="none" stroke="#F30" d="M13701 6852l-590 90 401-424-196-18-476 613 566-89-402 450-65-189-139 516 458-146-164-81 607-722zM12800 6500zM13701 7801z"/></g><g class="com.sun.star.drawing.CustomShape"><path fill="#FF0" d="M15501 7452l-590 90 401-424-196-18-476 613 566-89-402 450-65-189-139 516 458-146-164-81 607-722zm-901-352zm901 1301z"/><path fill="none" stroke="#F30" d="M15501 7452l-590 90 401-424-196-18-476 613 566-89-402 450-65-189-139 516 458-146-164-81 607-722zM14600 7100zM15501 8401z"/></g></g></g></g></svg>