<?xml version="1.0" encoding="UTF-8" standalone="no"?>
<!-- Created with Inkscape (http://www.inkscape.org/) -->
<svg
   xmlns:dc="http://purl.org/dc/elements/1.1/"
   xmlns:cc="http://web.resource.org/cc/"
   xmlns:rdf="http://www.w3.org/1999/02/22-rdf-syntax-ns#"
   xmlns:svg="http://www.w3.org/2000/svg"
   xmlns="http://www.w3.org/2000/svg"
   xmlns:sodipodi="http://sodipodi.sourceforge.net/DTD/sodipodi-0.dtd"
   xmlns:inkscape="http://www.inkscape.org/namespaces/inkscape"
   height="400"
   width="505"
   id="svg2"
   sodipodi:version="0.32"
   inkscape:version="0.45.1"
   sodipodi:docbase="c:\Documents and Settings\user"
   sodipodi:docname="Sutherland-Hodgman_clipping_sample.svg"
   inkscape:output_extension="org.inkscape.output.svg.inkscape"
   version="1.0">
  <defs
     id="defs4" />
  <sodipodi:namedview
     id="base"
     pagecolor="#ffffff"
     bordercolor="#666666"
     borderopacity="1.0"
     inkscape:pageopacity="0.0"
     inkscape:pageshadow="2"
     inkscape:cx="402.00118"
     inkscape:cy="222.22479"
     inkscape:zoom="1"
     inkscape:document-units="px"
     inkscape:current-layer="layer7"
     showgrid="false"
     showguides="false"
     inkscape:guide-bbox="true"
     inkscape:grid-points="false"
     gridtolerance="10000"
     inkscape:window-width="1024"
     inkscape:window-height="719"
     inkscape:window-x="-4"
     inkscape:window-y="-4"
     inkscape:showpageshadow="true"
     borderlayer="false"
     width="505px"
     height="400px" />
  <metadata
     id="metadata7">
    <rdf:RDF>
      <cc:Work
         rdf:about="">
        <dc:format>image/svg+xml</dc:format>
        <dc:type
           rdf:resource="http://purl.org/dc/dcmitype/StillImage" />
      </cc:Work>
    </rdf:RDF>
  </metadata>
  <g
     inkscape:groupmode="layer"
     inkscape:label="Original"
     id="layer1"
     transform="translate(0,-270)"
     style="display:inline">
    <path
       style="fill:#c8c8c8;fill-opacity:1;fill-rule:evenodd;stroke:#000000;stroke-width:0.5;stroke-linecap:butt;stroke-linejoin:miter;stroke-miterlimit:4;stroke-opacity:1"
       d="M 15.6,284.38716 L 50.6,389.3872 L 70.6,389.3872 L 80.6,354.3872 L 90.6,389.3872 L 110.6,389.3872 L 145.6,284.38716 L 125.6,284.38716 L 100.6,369.3872 L 90.6,334.38716 L 70.6,334.38716 L 60.6,369.3872 L 35.6,284.38716 L 15.6,284.38716 z "
       id="path2162" />
    <path
       style="fill:#ff0000;fill-opacity:0.1254902;fill-rule:evenodd;stroke:#ff0000;stroke-width:1px;stroke-linecap:butt;stroke-linejoin:miter;stroke-opacity:1"
       d="M 10.6,334.38716 L 30.6,294.38716 L 85.6,279.38716 L 155.6,334.38716 L 75.6,389.3872 L 10.6,334.38716 z "
       id="path6145"
       sodipodi:nodetypes="cccccc" />
  </g>
  <g
     inkscape:groupmode="layer"
     id="layer3"
     inkscape:label="Step1"
     transform="translate(170,-270)"
     style="display:inline">
    <path
       style="fill:#0067ff;fill-opacity:0.1254902;stroke:none;stroke-width:0.5;stroke-miterlimit:4;stroke-opacity:1;display:inline"
       d="M 43.1,269.38716 L 0.60000002,354.3872 L 0.60000002,399.3872 L 165.6,399.3872 L 165.6,269.38716 L 43.1,269.38716 z "
       id="rect2187" />
    <path
       style="fill:#c8c8c8;fill-opacity:1;fill-rule:evenodd;stroke:#000000;stroke-width:0.5;stroke-linecap:butt;stroke-linejoin:miter;stroke-miterlimit:4;stroke-opacity:1;display:inline"
       d="M 35.6,284.39998 L 23.6,308.39998 L 50.6,389.4 L 70.6,389.4 L 80.6,354.4 L 90.6,389.4 L 110.6,389.4 L 145.6,284.39998 L 125.6,284.39998 L 100.6,369.4 L 90.6,334.39998 L 70.6,334.39998 L 60.6,369.4 L 35.6,284.39998 z "
       id="path2183" />
    <path
       style="fill:none;fill-opacity:0.1254902;fill-rule:evenodd;stroke:#ff0000;stroke-width:1px;stroke-linecap:butt;stroke-linejoin:miter;stroke-opacity:1;display:inline"
       d="M 10.6,334.38716 L 30.6,294.38716 L 85.6,279.38716 L 155.6,334.38716 L 75.6,389.3872 L 10.6,334.38716 z "
       id="path2185"
       sodipodi:nodetypes="cccccc" />
    <path
       style="fill:none;fill-opacity:0.1254902;stroke:#0000ff;stroke-width:1.20000005;stroke-linecap:round;stroke-miterlimit:4;stroke-dasharray:none;stroke-opacity:1;display:inline"
       d="M 43.1,269.38716 L 0.60000002,354.3872 L 43.1,269.38716 z "
       id="path4180"
       sodipodi:nodetypes="ccc" />
  </g>
  <g
     inkscape:groupmode="layer"
     id="layer4"
     inkscape:label="Step2"
     transform="translate(340,-270)"
     style="display:inline">
    <path
       style="fill:#0067ff;fill-opacity:0.1254902;stroke:none;stroke-width:0.5;stroke-miterlimit:4;stroke-opacity:1;display:inline"
       d="M 0.60000002,269.39998 L 0.60000002,325.93123 L 87.4125,399.4 L 165.6,399.4 L 165.6,269.39998 L 0.60000002,269.39998 z "
       id="path7135" />
    <path
       style="fill:#c8c8c8;fill-opacity:1;stroke:#000000;stroke-width:0.5;stroke-miterlimit:4;stroke-dasharray:none;stroke-opacity:1;display:inline"
       d="M 35.6,284.39998 L 23.6,308.39998 L 40.7875,359.9312 L 71.56875,385.9938 L 80.6,354.4 L 90.6,389.4 L 110.6,389.4 L 145.6,284.39998 L 125.6,284.39998 L 100.6,369.4 L 90.6,334.39998 L 70.6,334.39998 L 60.6,369.4 L 35.6,284.39998 z "
       id="rect2194" />
    <path
       style="fill:none;fill-opacity:0.1254902;fill-rule:evenodd;stroke:#ff0000;stroke-width:1px;stroke-linecap:butt;stroke-linejoin:miter;stroke-opacity:1;display:inline"
       d="M 10.6,334.38716 L 30.6,294.38716 L 85.6,279.38716 L 155.6,334.38716 L 75.6,389.3872 L 10.6,334.38716 z "
       id="path2192"
       sodipodi:nodetypes="cccccc" />
    <path
       style="fill:none;fill-opacity:0.1254902;stroke:#0000ff;stroke-width:1.20000005;stroke-linecap:round;stroke-miterlimit:4;stroke-dasharray:none;stroke-opacity:1;display:inline"
       d="M 0.60000002,325.93123 L 87.4125,399.4"
       id="path7137"
       sodipodi:nodetypes="cc" />
  </g>
  <g
     inkscape:groupmode="layer"
     id="layer5"
     inkscape:label="Step3"
     transform="translate(0,-135)"
     style="display:inline">
    <path
       style="fill:#0067ff;fill-opacity:0.1254902;stroke:none;stroke-width:0.5;stroke-miterlimit:4;stroke-opacity:1;display:inline"
       d="M 0.60000002,269.39998 L 0.60000002,399.4 L 60.9125,399.4 L 165.6,327.27498 L 165.6,269.39998 L 0.60000002,269.39998 z "
       id="path11029" />
    <path
       style="fill:#c8c8c8;fill-opacity:1;stroke:#000000;stroke-width:0.5;stroke-miterlimit:4;stroke-dasharray:none;stroke-opacity:1;display:inline"
       d="M 35.6,284.39998 L 23.6,308.39998 L 40.7875,359.9312 L 71.56875,385.9938 L 80.6,354.4 L 88.1,380.6813 L 121.1,357.9312 L 145.6,284.39998 L 125.6,284.39998 L 100.6,369.4 L 90.6,334.39998 L 70.6,334.39998 L 60.6,369.4 L 35.6,284.39998 z "
       id="rect2201" />
    <path
       style="fill:none;fill-opacity:0.1254902;fill-rule:evenodd;stroke:#ff0000;stroke-width:1px;stroke-linecap:butt;stroke-linejoin:miter;stroke-opacity:1;display:inline"
       d="M 10.6,334.38716 L 30.6,294.38716 L 85.6,279.38716 L 155.6,334.38716 L 75.6,389.3872 L 10.6,334.38716 z "
       id="path2199"
       sodipodi:nodetypes="cccccc" />
    <path
       style="fill:none;fill-opacity:0.1254902;stroke:#0000ff;stroke-width:1.20000005;stroke-linecap:round;stroke-miterlimit:4;stroke-dasharray:none;stroke-opacity:1;display:inline"
       d="M 60.9125,399.4 L 165.6,327.27498"
       id="path11031"
       sodipodi:nodetypes="cc" />
  </g>
  <g
     inkscape:groupmode="layer"
     id="layer6"
     inkscape:label="Step4"
     transform="translate(170,-135)"
     style="display:inline">
    <path
       style="fill:#0067ff;fill-opacity:0.1254902;stroke:none;stroke-width:0.5;stroke-miterlimit:4;stroke-opacity:1;display:inline"
       d="M 0.60000002,269.39998 L 0.60000002,399.4 L 165.6,399.4 L 165.6,342.52498 L 73.225,269.39998 L 0.60000002,269.39998 z "
       id="path13948" />
    <path
       style="fill:#c8c8c8;fill-opacity:1;stroke:#000000;stroke-width:0.5;stroke-miterlimit:4;stroke-opacity:1;display:inline"
       d="M 35.6,284.39998 L 23.6,308.39998 L 40.7875,359.9312 L 71.56875,385.9938 L 80.6,354.4 L 88.1,380.6813 L 121.1,357.9312 L 134.44375,317.86873 L 119.2875,305.86873 L 100.6,369.4 L 90.6,334.39998 L 70.6,334.39998 L 60.6,369.4 L 35.6,284.39998 z "
       id="rect2208" />
    <path
       style="fill:none;fill-opacity:0.1254902;fill-rule:evenodd;stroke:#ff0000;stroke-width:1px;stroke-linecap:butt;stroke-linejoin:miter;stroke-opacity:1;display:inline"
       d="M 10.6,334.38716 L 30.6,294.38716 L 85.6,279.38716 L 155.6,334.38716 L 75.6,389.3872 L 10.6,334.38716 z "
       id="path2206"
       sodipodi:nodetypes="cccccc" />
    <path
       style="fill:none;fill-opacity:1;stroke:#0000ff;stroke-width:1.20000005;stroke-linecap:round;stroke-miterlimit:4;stroke-dasharray:none;stroke-opacity:1;display:inline"
       d="M 165.6,342.52498 L 73.225,269.39998"
       id="path13950"
       sodipodi:nodetypes="cc" />
  </g>
  <g
     inkscape:groupmode="layer"
     id="layer7"
     inkscape:label="Step5"
     transform="translate(340,-135)"
     style="display:inline">
    <path
       style="fill:#0067ff;fill-opacity:0.1254902;stroke:none;stroke-width:0.5;stroke-miterlimit:4;stroke-opacity:1;display:inline"
       d="M 122.25625,269.39998 L 0.60000002,302.58748 L 0.60000002,399.4 L 165.6,399.4 L 165.6,269.39998 L 122.25625,269.39998 z "
       id="path18807" />
    <path
       style="fill:#c8c8c8;fill-opacity:1;stroke:#000000;stroke-width:0.5;stroke-miterlimit:4;stroke-opacity:1;display:inline"
       d="M 37.94375,292.39998 L 30.6,294.39998 L 23.6,308.39998 L 40.7875,359.9312 L 71.56875,385.9938 L 80.6,354.4 L 88.1,380.6813 L 121.1,357.9312 L 134.44375,317.86873 L 119.2875,305.86873 L 100.6,369.4 L 90.6,334.39998 L 70.6,334.39998 L 60.6,369.4 L 37.94375,292.39998 z "
       id="rect2215" />
    <path
       style="fill:none;fill-opacity:0.1254902;fill-rule:evenodd;stroke:#ff0000;stroke-width:1px;stroke-linecap:butt;stroke-linejoin:miter;stroke-opacity:1;display:inline"
       d="M 10.6,334.38716 L 30.6,294.38716 L 85.6,279.38716 L 155.6,334.38716 L 75.6,389.3872 L 10.6,334.38716 z "
       id="path2213"
       sodipodi:nodetypes="cccccc" />
    <path
       style="fill:none;fill-opacity:0.1254902;stroke:#0000c8;stroke-width:1.20000005;stroke-linecap:round;stroke-miterlimit:4;stroke-dasharray:none;stroke-opacity:1;display:inline"
       d="M 122.25625,269.39998 L 0.60000002,302.58748"
       id="path18809"
       sodipodi:nodetypes="cc" />
  </g>
  <g
     inkscape:groupmode="layer"
     id="layer8"
     inkscape:label="Cutted"
     transform="translate(170,0)"
     style="display:inline">
    <path
       style="fill:none;fill-opacity:0.1254902;fill-rule:evenodd;stroke:#ff0000;stroke-width:0.5;stroke-linecap:butt;stroke-linejoin:miter;stroke-miterlimit:4;stroke-dasharray:none;stroke-opacity:1;display:inline"
       d="M 10.6,334.38716 L 30.6,294.38716 L 85.6,279.38716 L 155.6,334.38716 L 75.6,389.3872 L 10.6,334.38716 z "
       id="path2220"
       sodipodi:nodetypes="cccccc" />
    <path
       style="fill:#c8c8c8;fill-opacity:1;stroke:#000000;stroke-width:0.5;stroke-miterlimit:4;stroke-opacity:1;display:inline"
       d="M 37.94375,292.39998 L 30.6,294.39998 L 23.6,308.39998 L 40.7875,359.9312 L 71.56875,385.9938 L 80.6,354.4 L 88.1,380.6813 L 121.1,357.9312 L 134.44375,317.86873 L 119.2875,305.86873 L 100.6,369.4 L 90.6,334.39998 L 70.6,334.39998 L 60.6,369.4 L 37.94375,292.39998 z "
       id="path20750" />
  </g>
</svg>
