<?xml version="1.0" encoding="UTF-8" standalone="no"?>
<!-- Created with Inkscape (http://www.inkscape.org/) -->

<svg
   xmlns:dc="http://purl.org/dc/elements/1.1/"
   xmlns:cc="http://creativecommons.org/ns#"
   xmlns:rdf="http://www.w3.org/1999/02/22-rdf-syntax-ns#"
   xmlns:svg="http://www.w3.org/2000/svg"
   xmlns="http://www.w3.org/2000/svg"
   xmlns:sodipodi="http://sodipodi.sourceforge.net/DTD/sodipodi-0.dtd"
   xmlns:inkscape="http://www.inkscape.org/namespaces/inkscape"
   width="294.83173"
   height="164.75523"
   id="svg2"
   version="1.1"
   inkscape:version="0.48.5 r10040"
   sodipodi:docname="the end.svg">
  <defs
     id="defs4">
    <inkscape:perspective
       sodipodi:type="inkscape:persp3d"
       inkscape:vp_x="0 : 526.18109 : 1"
       inkscape:vp_y="0 : 1000 : 0"
       inkscape:vp_z="744.09448 : 526.18109 : 1"
       inkscape:persp3d-origin="372.04724 : 350.78739 : 1"
       id="perspective10" />
    <inkscape:perspective
       id="perspective3936"
       inkscape:persp3d-origin="0.5 : 0.33333333 : 1"
       inkscape:vp_z="1 : 0.5 : 1"
       inkscape:vp_y="0 : 1000 : 0"
       inkscape:vp_x="0 : 0.5 : 1"
       sodipodi:type="inkscape:persp3d" />
  </defs>
  <sodipodi:namedview
     id="base"
     pagecolor="#ffffff"
     bordercolor="#666666"
     borderopacity="1.0"
     inkscape:pageopacity="0.0"
     inkscape:pageshadow="2"
     inkscape:zoom="2.8405774"
     inkscape:cx="147.41586"
     inkscape:cy="82.377617"
     inkscape:document-units="px"
     inkscape:current-layer="layer1"
     showgrid="false"
     inkscape:window-width="1366"
     inkscape:window-height="715"
     inkscape:window-x="-8"
     inkscape:window-y="-8"
     inkscape:window-maximized="1"
     inkscape:showpageshadow="false"
     fit-margin-top="0"
     fit-margin-left="0"
     fit-margin-right="0"
     fit-margin-bottom="0" />
  <metadata
     id="metadata7">
    <rdf:RDF>
      <cc:Work
         rdf:about="">
        <dc:format>image/svg+xml</dc:format>
        <dc:type
           rdf:resource="http://purl.org/dc/dcmitype/StillImage" />
        <dc:title></dc:title>
      </cc:Work>
    </rdf:RDF>
  </metadata>
  <g
     inkscape:label="Layer 1"
     inkscape:groupmode="layer"
     id="layer1"
     transform="translate(-25.633401,-22.959936)">
    <path
       style="fill:#000000"
       d="M 214.14727,183.86765 C 217.95007,181.95674 222.64767,178.45401 225.61387,175.31771 C 234.19847,166.24076 236.72657,157.36353 234.47517,144.20191 C 233.39547,137.88968 232.66697,136.13718 230.25037,134.03886 C 221.64927,126.57045 213.49817,125.21581 203.80637,129.6441 C 197.76467,132.40465 195.88407,134.08111 192.23607,139.95851 C 188.95577,145.2434 189.31577,154.72689 192.97897,159.5296 C 196.58837,164.26171 199.71697,166.15772 204.87547,166.73916 C 209.87367,167.30253 214.25397,165.43695 217.43847,161.38844 C 220.28557,157.76895 220.07897,156.13592 217.12507,158.91098 C 212.11637,163.61636 202.80367,162.09851 198.20817,155.82781 C 195.14747,151.65131 194.93217,144.39006 197.71137,139.07731 C 200.89087,132.99942 205.25377,130.76534 212.95947,131.26933 C 218.44217,131.62794 219.16787,131.96814 222.52867,135.75522 C 226.85347,140.62871 228.53097,145.63472 228.51487,153.61934 C 228.47887,171.40219 219.34677,182.89959 203.94817,184.54864 C 187.92247,186.26485 176.34167,178.58938 170.28347,162.2364 C 168.59407,157.67604 168.15987,154.25324 168.16087,145.50332 C 168.16087,129.86233 171.87517,118.40108 180.86537,106.28186 C 187.20617,97.73426 193.23007,94.61588 203.52677,94.55075 C 207.65177,94.52465 212.03927,94.87114 213.27677,95.32071 C 216.43807,96.46915 216.24457,94.02195 212.92947,90.92763 C 206.06617,84.52154 204.51047,73.91587 209.10417,64.85061 C 212.82077,57.51619 215.88627,55.0033 221.11707,55.0033 C 228.51307,55.0033 233.10167,61.59218 231.14237,69.39882 C 230.52377,71.8635 230.46797,71.87656 227.59687,70.2288 C 224.83617,68.64435 224.56877,68.65534 222.60337,70.434 C 216.89717,75.59803 224.19847,83.00929 231.43537,79.39904 C 235.78617,77.22855 238.51837,72.52117 238.52307,67.18758 C 238.53907,48.5847 212.14117,44.8842 201.77677,62.03639 C 198.98667,66.65371 198.52677,68.34349 198.52677,73.97695 C 198.52677,79.44395 198.97527,81.2036 201.21407,84.52119 C 202.69207,86.71136 204.60457,89.05151 205.46407,89.72152 C 206.74067,90.71669 205.88627,90.94554 200.79697,90.97152 C 193.94937,91.00652 188.19257,92.88096 181.93687,97.11253 C 175.81757,101.25184 169.13077,108.43165 166.42827,113.76438 C 162.31067,121.88973 150.42047,132.2917 147.39067,130.41919 C 146.79807,130.05296 146.70137,129.47207 147.17567,129.12832 C 148.92607,127.85989 153.16227,121.37365 155.04937,117.07278 C 156.19227,114.46805 157.00027,110.36903 157.01007,107.12602 C 157.02507,102.18394 156.74877,101.45218 154.35537,100.0955 C 152.00217,98.76154 151.35707,98.7552 148.93897,100.0423 C 137.97707,109.55728 136.76967,118.31778 135.65117,132.48124 C 135.94677,134.03762 135.12407,134.77586 131.79097,135.94549 C 124.36317,138.55202 124.18987,136.00629 130.50107,117.00336 C 133.54067,107.85124 133.75177,105.99577 132.04937,103.39747 C 129.16077,98.98901 123.31747,101.12739 115.91357,109.30234 C 113.15787,112.34513 111.43167,113.67343 111.75367,112.50336 C 112.05637,111.40336 113.75657,105.32836 115.53177,99.00336 C 120.72697,80.49352 128.52677,51.4429 128.52677,50.603 C 128.52677,49.5587 124.12177,49.9837 121.63457,51.2681 C 119.56267,52.3379 118.67747,54.7793 115.02267,69.50332 C 110.09297,89.36291 102.75207,117.38106 97.92807,134.74844 C 96.05737,141.48325 94.52677,147.22075 94.52677,147.49844 C 94.52677,147.77612 96.09577,148.00332 98.01337,148.00332 C 101.95117,148.00332 102.18177,147.62244 107.70207,132.00332 C 110.81287,123.20172 115.04307,115.50969 119.38857,110.75332 C 124.31147,105.36481 124.53537,107.28035 120.63027,121.38067 C 117.82127,131.52345 117.63277,137.87647 120.08767,139.67153 C 122.87367,141.70869 129.07517,141.26211 134.30997,138.64735 C 137.64487,136.98165 140.12467,136.42764 142.77407,136.75644 C 148.45237,137.46115 151.21897,136.36666 156.78747,131.21259 C 159.91547,128.3174 161.59557,127.2613 161.14897,128.47099 C 160.74937,129.55322 160.01777,133.63042 159.52317,137.53146 C 157.34947,154.67653 163.80927,172.1759 175.60327,181.09126 C 185.70317,188.72607 202.12477,189.90895 214.14727,183.86765 z M 143.84687,119.94855 C 144.53787,114.11409 149.17667,103.83865 151.42627,103.15949 C 153.77427,102.45064 152.09787,110.39254 148.35987,117.6868 C 144.03907,126.11849 143.05787,126.61021 143.84687,119.94855 z M 65.25997,160.64127 C 76.39717,154.88202 85.35137,138.13944 94.48137,106.00332 C 96.74717,98.02832 99.46197,88.57832 100.51437,85.00332 C 101.56677,81.42832 104.03127,72.87832 105.99097,66.00332 C 109.98947,50.7848 117.58367,35.7554 131.72477,27.6549 C 133.67527,27.5335 134.06917,27.0603 133.72377,25.2535 C 133.30637,23.0702 130.66497,22.1984 129.12707,23.7364 C 113.67277,27.6337 98.24457,32.0053 82.02677,34.938 C 76.41677,36.3957 69.75897,38.4403 65.02547,39.5579 C 63.27397,39.9714 58.44477,42.0296 54.06997,43.4576 C 40.073771,48.0265 33.610571,53.2099 28.795271,63.72793 C 23.396171,75.52118 25.058771,88.62954 32.657971,94.18157 C 49.76757,106.6821 77.63467,90.98332 79.29807,67.90716 C 79.74727,61.67429 79.60777,61.1255 76.76407,57.94287 C 74.02557,54.878 73.25047,54.5748 68.15497,54.5748 C 60.86257,54.5748 58.72057,56.4399 64.29057,57.93972 C 76.58827,61.25115 73.98427,81.40033 60.01657,91.01032 C 54.98397,94.47289 45.603771,96.61554 40.043971,95.57253 C 32.076171,94.07776 28.050471,86.90554 29.617071,76.99566 C 31.836771,62.95407 42.332071,52.9799 59.52677,48.5712 C 63.10177,47.6545 67.37677,46.5112 69.02677,46.0305 C 70.67677,45.5498 75.62677,44.3994 80.02677,43.474 C 90.89217,41.189 104.90897,37.3052 111.31267,34.8054 C 114.21997,33.6704 116.76897,32.9132 116.97717,33.1226 C 117.18537,33.332 114.90117,36.2033 111.90127,39.5033 C 106.26787,45.7001 98.42527,60.10586 96.65787,67.50332 C 89.62517,96.93858 77.06397,138.12535 72.25947,147.50332 C 68.99017,153.88458 63.34417,160.00332 60.72527,160.00332 C 59.60777,160.00332 58.52177,160.51821 58.31207,161.14752 C 57.87837,162.44847 51.66897,160.81074 47.77677,158.36882 C 44.622371,156.38981 44.736171,153.12953 47.93827,153.74165 C 51.59027,154.43978 53.27527,150.75187 50.54967,148.02624 C 47.85237,145.32892 44.964771,145.47438 41.981271,148.45787 C 37.706071,152.73316 39.331471,157.98624 46.026771,161.53214 C 49.80767,163.53452 60.63487,163.03301 65.25997,160.64127 z M 311.96107,152.98879 C 321.75277,148.13708 323.57067,136.55835 314.88307,134.37791 C 313.50597,134.03228 311.17497,134.33411 309.70307,135.04859 L 307.02677,136.34769 L 310.00477,136.93152 C 315.51497,138.01176 315.99227,145.8139 310.84027,150.58855 C 308.65767,152.61132 307.21007,153.00332 301.92287,153.00332 C 295.99227,153.00332 295.37427,152.77678 291.69327,149.25332 C 287.58917,145.32489 285.52517,139.28233 285.52817,131.2041 C 285.52817,121.85192 295.79117,75.74718 304.21827,47.2139 C 308.23697,33.6073 308.02827,32.0481 302.49957,34.3727 L 299.12287,35.7925 L 293.29107,59.0983 C 290.08367,71.91648 287.22507,82.63838 286.93867,82.92474 C 286.65237,83.2111 286.10497,82.95654 285.72237,82.35914 C 283.38647,78.71151 274.62437,80.28891 269.29327,85.31678 C 267.36237,87.13783 264.11127,92.19977 262.06857,96.56555 C 260.02597,100.93132 257.60587,105.99439 256.69067,107.81681 C 254.31397,112.54984 249.53087,118.12386 248.42997,117.44351 C 247.91527,117.1254 247.76297,116.43018 248.09147,115.89859 C 249.67017,113.34416 254.52677,94.00926 254.52677,90.27848 C 254.52677,86.91536 254.03427,85.72672 252.12147,84.4734 C 249.98347,83.07251 249.32757,83.05973 246.21937,84.35841 C 244.29617,85.16198 241.69387,87.21082 240.43657,88.91138 C 237.85167,92.40775 236.52677,92.84553 236.52677,90.20332 C 236.52677,84.24459 226.86727,84.73776 221.75647,90.95743 C 219.36017,93.87373 217.44527,98.06252 218.05647,99.05144 C 218.39287,99.59561 220.64877,97.89489 223.06977,95.27208 C 226.45597,91.60364 227.68027,90.81712 228.37617,91.86333 C 229.26107,93.19372 227.73187,101.74328 224.12197,115.64766 C 222.02107,123.73984 222.06777,126.00332 224.33567,126.00332 C 227.61327,126.00332 229.21347,123.61904 232.54837,113.76654 C 237.35337,99.57053 243.72837,88.87159 246.01787,91.16113 C 246.34077,91.48402 245.61077,95.29311 244.39557,99.62576 C 240.46747,113.63108 240.64307,120.49244 244.95727,121.57523 C 248.22107,122.3944 254.16797,119.41933 256.22397,115.93872 L 257.89127,113.1162 L 261.24387,116.05976 C 266.49327,120.66883 272.61657,119.73233 277.67857,113.54621 C 279.23597,111.64294 279.32737,112.15551 279.27677,122.51545 C 279.21277,135.58308 281.49817,142.97469 287.43877,148.91529 C 293.58827,155.06486 304.21017,156.8293 311.96107,152.98879 z M 268.72677,111.80332 C 265.69157,108.76816 269.24477,91.86877 274.14167,86.0491 C 276.94637,82.71591 280.51437,82.07857 282.56147,84.5451 C 285.98647,88.67206 282.13237,103.0021 275.78157,109.75332 C 272.53257,113.2072 270.67147,113.748 268.72677,111.80332 z"
       id="path3926"
       sodipodi:nodetypes="csssssssssssssssscsssssssssssssssssssssssccssssssssssssssssssssssccssccssccsccssssssssssssssssssssssssssccscccssscscccsssssssssssssssssssssscccsssccsssc"
       inkscape:connector-curvature="0" />
  </g>
</svg>
