<svg xmlns="http://www.w3.org/2000/svg" xmlns:xlink="http://www.w3.org/1999/xlink" height="529.372" width="794.141" version="1.2"><defs><linearGradient id="b"><stop offset="0"/><stop offset="1" stop-opacity="0"/></linearGradient><linearGradient id="c"><stop offset="0" stop-color="#eda7ad" stop-opacity="0"/><stop offset=".568" stop-color="#ffe5e7" stop-opacity=".727"/><stop offset=".855" stop-color="#ffe5e7"/><stop offset="1" stop-color="#fdd1d5" stop-opacity="0"/></linearGradient><linearGradient id="d"><stop offset="0" stop-color="#6d0000"/><stop offset="1" stop-color="#410606"/></linearGradient><linearGradient id="a"><stop offset="0" stop-color="#eda7ad" stop-opacity="0"/><stop offset=".568" stop-color="#ffe5e7" stop-opacity=".727"/><stop offset=".855" stop-color="#ffe5e7"/><stop offset="1" stop-color="#fdd1d5" stop-opacity="0"/></linearGradient><linearGradient id="e"><stop offset="0" stop-color="#6d0000"/><stop offset="1" stop-color="#410606"/></linearGradient><linearGradient id="f"><stop offset="0" stop-color="#eda7ad" stop-opacity="0"/><stop offset=".445" stop-color="#ffe5e7" stop-opacity=".811"/><stop offset=".631" stop-color="#ffe5e7"/><stop offset="1" stop-color="#fdd1d5" stop-opacity="0"/></linearGradient><linearGradient gradientTransform="scale(.87648 1.14093)" gradientUnits="userSpaceOnUse" xlink:href="#b" id="g" y2="182.735" x2="243.376" y1="152.639" x1="138.421"/></defs><path d="M518.533 422.156c-12.978-.405-23.706 1.495-36.748 1.363h-.119l-270.261 7.525h-.178c-61.028 5.319-115.16 13.413-156.071 21.585h-.03l-.03.031-19.516 4.274h-.03l-.029.031c-69.813 29.742 5.92 44.689 50.778 47.66-.193 1.635-.045 3.281.563 4.8 1.279 3.192 3.88 5.625 7.356 7.742 6.952 4.236 17.88 7.419 32.745 9.57 41.524 6.007 98.337 1.45 128.724-10.685 7.371-2.943 12.479-6.06 15.72-9.755a3007.71 3007.71 0 0 0 131.067-6.905c-.117 1.402-.012 2.798.475 4.118 1.201 3.263 3.792 5.745 7.266 7.897 6.948 4.305 17.941 7.521 32.953 9.693 41.523 6.008 98.367 1.45 128.753-10.684 6.619-2.643 11.465-5.4 14.771-8.578 3.306-3.177 5.146-7.365 4.123-11.396-1.023-4.032-4.203-7.006-8.572-9.508-1.242-.71-2.854-1.333-4.33-1.982 5.11-.911 10.513-1.78 15.245-2.725 26.953-5.384 45.097-10.667 55.405-16.072 5.154-2.703 8.721-5.278 9.936-9.446.607-2.084.22-4.504-.86-6.317-1.08-1.814-2.675-3.185-4.627-4.429-7.81-4.972-22.521-8.47-44.965-11.458-22.443-2.988-52.387-5.19-89.513-6.348z" style="line-height:normal;-inkscape-font-specification:Sans;text-indent:0;text-align:start;text-decoration-line:none;text-transform:none;block-progression:tb;marker:none" color="#000" font-weight="400" font-family="Sans" overflow="visible" fill="#d7e7e7" stroke-width="7"/><path d="M214.036 433.814c-59.884 4.998-113.017 12.608-153.107 20.277l-19.17 4.037c-36.192 17.026-23.054 34.068 53.702 38.78-5.978 8.413 7.14 16.515 35.906 20.5 40.183 5.569 96.118 1.157 124.947-9.869 7.835-2.996 12.827-6.191 15.185-9.339 45.115-1.3 91.144-3.636 134.997-6.851-6.418 8.502 6.695 16.733 35.744 20.758 40.183 5.568 96.118 1.156 124.947-9.87 25.117-9.605 21.373-21.055-6.585-27.525 9.934-1.557 19.338-3.166 28.028-4.828 105.481-20.18 72.866-40.07-72.852-44.427-12.392-.37-22.92 1.409-36.053 1.282z" fill="#98bebe"/><path d="M266.26 440.209c-39.16-7.68-80.178-33.762-100.593-70.904-4.167-7.58-5.248-30.61 1.991-25.874 61.502 40.225 76.29 28.675 98.788 41.76 15.853 9.22 17.81 58.547-.186 55.018z" fill="#82af16" stroke="#4b660e" stroke-width="3.2" transform="matrix(.64807 -.16818 .27885 .93686 -200.989 -47.808)"/><path d="M.768 247.199c.375 5.623 4.841 17.353 8.194 21.811 23.588 31.363 57.444 48.903 84.964 49.511 7.484.166 5.283-15.837-.427-30.166 1.598 8.603.81 15.284-4.035 15.177-27.52-.61-61.376-18.149-84.964-49.512-1.179-1.568-2.503-4.037-3.732-6.821z" fill="#729913"/><path d="M1.854 245.523c-.841.24-1.07 1.56-.876 3.507.402-.563 1.052-.612 2.02.044 49.892 33.794 57.396 21.776 75.303 32.59 7.795 4.708 15.253 24.309 16.78 38.128 10.802-2.186-3.735-45.684-16.219-51.488-18.229-8.474-24.585 4.842-75.659-22.5-.564-.302-1.003-.38-1.349-.281z" fill="#9ad01a"/><path d="M266.26 440.209c-39.16-7.68-80.178-33.762-100.593-70.904-4.167-7.58-5.248-30.61 1.991-25.874 61.502 40.225 76.29 28.675 98.788 41.76 15.853 9.22 17.81 58.547-.186 55.018z" fill="none" stroke="#4b660e" stroke-width="3.2" transform="matrix(.64807 -.16818 .27885 .93686 -200.989 -47.808)"/><path d="M594.135 432.054c51.257 20.667 54.75 92.455 57.144 146.027 1.605 35.918-124.922 38.012-116.405 2.94 30.1-123.939-11.838-96.776 16.932-132.306 9.198-11.36 28.272-22.328 42.329-16.66z" fill="#719913" stroke="#6e9615" stroke-width="3.292" transform="matrix(1.12157 -.24629 .25088 1.09557 -281.856 -48.738)"/><path d="M483.607 280.654c-1.007.223-2.006.51-3.01.841-4.017 1.326-7.995 3.475-11.72 6.206-7.452 5.46-13.828 13.156-17.393 20.18-5.786 11.4-7.435 17.162-7.048 21.468.387 4.307 2.947 7.872 6.41 14.81 6.926 13.876 16.404 40.155 15.068 111.938-.083 4.486 1.642 7.665 4.993 10.23 3.352 2.565 8.462 4.38 14.73 5.324 12.533 1.886 29.591.332 46.344-3.705.593-.143 1.179-.311 1.771-.46-13.566 2.495-26.716 3.234-36.9 1.702-6.267-.943-11.377-2.759-14.729-5.324-3.352-2.565-5.077-5.744-4.993-10.23 1.336-71.783-8.142-98.062-15.068-111.938-3.463-6.938-6.023-10.503-6.41-14.81-.387-4.306 1.262-10.069 7.048-21.468 3.565-7.024 9.94-14.72 17.392-20.18 2.877-2.108 5.896-3.868 8.976-5.172a25.49 25.49 0 0 0-5.461.588z" fill="#9ad01a"/><path d="M483.607 280.654c-.95.21-1.888.495-2.835.803 29.342 5.52 49.342 26.47 64.15 53.478 15.17 27.665 24.675 61.499 32.736 90.547 1.19 4.29.31 8.414-2.3 12.623-2.61 4.208-7.02 8.404-12.721 12.286-11.402 7.763-27.865 14.283-44.617 18.32-7.12 1.715-14.297 3.001-21.156 3.746 10.634.052 22.958-1.581 35.117-4.51 16.752-4.037 33.215-10.557 44.617-18.32 5.7-3.882 10.11-8.078 12.72-12.287 2.61-4.209 3.491-8.332 2.3-12.623-8.06-29.047-17.566-62.881-32.735-90.546-15.168-27.665-35.778-48.99-66.301-53.87-2.928-.467-5.954-.315-8.975.353z" fill="#698c11"/><path d="M568.078 426.478c-7.838 1.099-16.668 7.263-19.225 12.912-1.976 4.368-.584 11.117 5.237 11.29 10.523.313 24.96-11.69 25.024-19.386.029-3.43-6.156-5.5-11.036-4.816z" fill="#9eab26"/><path d="M492.903 278.28C555.58 288.429 577.53 367.11 593.67 425.88c10.821 39.403-130.555 73.205-129.812 32.22 2.628-144.83-37.584-104.296-14.242-150.827 7.463-14.876 26.1-31.777 43.288-28.994z" fill="none" stroke="#4b660e" stroke-width="3.761"/><path d="M594.135 432.054c51.257 20.667 54.75 92.455 57.144 146.027 1.605 35.918-124.922 38.012-116.405 2.94 30.1-123.939-11.838-96.776 16.932-132.306 9.198-11.36 28.272-22.328 42.329-16.66z" fill="#729913" stroke="#4b660e" stroke-width="3.292" transform="matrix(1.14278 .1277 -.11467 1.251 -406.011 -354.423)"/><path d="M213.83 261.238a27.597 27.597 0 0 0-3.124-.152c-4.236.014-8.7.917-13.111 2.524-8.823 3.215-17.345 9.177-22.986 15.402-9.155 10.101-12.573 15.65-13.592 20.36-1.018 4.71.261 9.386 1.313 17.959 2.102 17.146 2.632 48.354-21.734 124.15-1.523 4.737-.91 8.713 1.442 12.602 2.353 3.888 6.614 7.591 12.253 10.768 11.278 6.355 27.954 10.626 45.138 12.153.609.054 1.219.078 1.828.125-13.667-2.058-26.374-5.838-35.538-11-5.639-3.178-9.9-6.881-12.253-10.77-2.353-3.888-2.966-7.864-1.443-12.601 24.367-75.796 23.837-107.004 21.734-124.15-1.05-8.573-2.33-13.249-1.312-17.959 1.019-4.71 4.437-10.259 13.592-20.36 5.64-6.225 14.163-12.187 22.986-15.402 3.406-1.241 6.836-2.062 10.175-2.378a23.087 23.087 0 0 0-5.367-1.27z" fill="#9ad01a"/><path d="M213.83 261.238c-.968-.107-1.948-.13-2.945-.132 26.046 16.05 38.27 45.25 43.62 79.084 5.481 34.656 3.606 73.9 1.902 107.557-.251 4.971-2.413 9.046-6.243 12.612-3.829 3.565-9.361 6.492-16.016 8.637-13.31 4.289-31.019 5.5-48.203 3.974-7.303-.65-14.522-1.775-21.266-3.364 10.067 3.746 22.278 6.29 34.75 7.398 17.184 1.527 34.893.315 48.203-3.974 6.655-2.145 12.187-5.071 16.016-8.637 3.83-3.565 5.992-7.64 6.243-12.612 1.704-33.658 3.58-72.9-1.902-107.557-5.481-34.656-18.161-64.466-45.534-80.245-2.626-1.514-5.545-2.402-8.624-2.74z" fill="#698c11"/><path d="M251.006 450.34c-6.159-2.588-16.045-.825-21.218 3.356-4 3.232-7.06 10.287-3.079 13.148 7.2 5.174 24.513.464 29.162-6.816 2.072-3.244-1.03-8.076-4.865-9.688z" fill="#a0ad27"/><path d="M161.41 288.982c-17.195 25.027 17.989 17.755-25.103 151.797-6.827 21.238 25.422 35.25 59.911 38.478 12.955-64.607 26.365-146.205-21.754-185.006-3.732-3.01-8.215-4.662-13.054-5.27z" fill="#56730f"/><path d="M512.485 278.692l-3.481 10.841-60.458 41.22c3.77 7.691 11.783 17.78 15.771 49.535 31.12-14.801 58.563-33.873 79.731-56.691 3.812-4.109 2.849-5.369 6.112-9.554-11.014-14.77-20.208-29.336-37.675-35.35zm-351.686 50.685c.064 11.622-1.416 28-7.183 52.773 11.67 6.398 24.567 12.09 38.64 16.916 25.174 8.63 52.133 13.888 79.721 16.017.845-21.113.94-42.985-1.298-63.698l-74.405-5.567z" fill="#56730f"/><path d="M454.397 322.495c-3.227.074-6.532.706-9.804 1.718-1.62 18.42 23.59 15.844 21.56 134.417-.35 20.473 33.026 22.784 66.09 15.079-4.533-59.243-14.59-129.168-68.218-149.652-3.057-1.167-6.307-1.638-9.628-1.562z" fill="#56730f"/><path d="M492.903 278.28c62.673 10.018 84.602 87.807 100.727 145.909 10.81 38.955-130.573 72.412-129.82 31.89 2.666-143.197-37.556-103.11-14.202-149.12 7.466-14.711 26.108-31.427 43.295-28.68z" fill="none" stroke="#4b660e" stroke-width="3.739"/><path d="M223.41 261.943c56.206 32.399 51.966 122.652 48.559 189.975-2.285 45.138-147.118 31.602-133.362-11.186 48.608-151.203-2.432-122.578 34.52-163.352 11.814-13.036 34.87-24.323 50.283-15.437z" fill="none" stroke="#4b660e" stroke-width="3.956"/><path d="M563.906 179.294l-21.272 3.558-17.994 20.626-23.766 78.658-60.11 41.807-118.837 22.913-126.679-10.526-86.188-41.14-30.989-57.888c-11.562 62.463 30.555 122.633 113.934 152.234 100.105 35.538 222.378 17.457 302.985-40.79 12.955-9.362 30.467-21.02 40.657-32.323 40.109-44.485 48.09-94.319 28.26-137.129z" fill="#8d9922" stroke="#484e11" stroke-width="3.506"/><path d="M563.958 183.537l-21.502 3.563-18.193 20.63-24.04 78.665-60.765 41.822-120.12 22.942-128.037-10.494-87.103-41.12-31.307-57.88c-3.639 19.425-2.042 38.636 4.435 56.764 15.497 25.283 43.834 50.351 79.704 59.5 45.91 13.402 94.62 15.46 142.38 17.27 45.536.359 103.127-6.17 145.6-22.062 37.112-14.338 73.082-53.153 80.819-88.21 6.508-19.893 4.768-44.114 21.704-59.633 6.327-2.284 15.575-1.605 23.414-2.34a112.945 112.945 0 0 0-6.99-19.417z" fill="#76801d"/><path d="M564.21 183.842c-3.328 7.625-7.048 14.594-11.305 20.623-3.463 4.972-9.305 5.446-14.612 6.78-7.993 15.61-7.812 35.509-12.624 52.42-1.31 6.858-3.553 13.852-6.506 20.788 4.722 8.22 5.856 7.801 16.103 9.69 5.837-.504 10.657.095 17.505-1.885 20.753-36.176 23.946-74.187 11.439-108.416z" fill="#5e6617"/><path d="M517.143 196.35a26.886 59.723 7.405 1 1-2.254 5.245" fill="#330203"/><path d="M83.664 261.036c-11.724 53.095 30.013 104.06 112.942 128.922 100.047 29.993 220.192 14.446 300.587-35.863-30.633 15.042-57.875 24.332-94.992 30.63-60.225 10.22-124.899 8.178-180.758-8.567-46.797-14.03-80.482-36.36-98.84-62.707l-8.275-3.35z" fill="#b6c52c"/><path d="M228.996 375.714s-6.59 14.408-3.088 19.335" fill="#484f11" stroke="#a5b226" stroke-width="3.552" stroke-linecap="round" stroke-linejoin="round"/><path d="M290.358 381.668s-1.496 17.777 2.999 21.813" fill="#484f11" stroke="#a5b226" stroke-width="3.498" stroke-linecap="round" stroke-linejoin="round"/><path d="M349.58 377.268s3.247 18.576 8.583 21.81M503.475 312.678s12.89 10.459 19.283 10.442" fill="#484f11" stroke="#a5b226" stroke-width="3.552" stroke-linecap="round" stroke-linejoin="round"/><path d="M564.474 179.798l-21.272 3.558-17.995 20.625-23.765 78.659-60.11 41.806-118.837 22.913-126.679-10.525-86.188-41.141-30.989-57.887c-11.562 62.463 30.555 122.633 113.934 152.233 100.104 35.538 222.377 17.458 302.985-40.79 12.955-9.362 30.466-21.02 40.657-32.323 40.109-44.485 48.09-94.318 28.26-137.128z" fill="none" stroke="#484e11" stroke-width="3.506"/><path d="M594.135 432.054c51.257 20.667 54.75 92.455 57.144 146.027 1.605 35.918-124.922 38.012-116.405 2.94 30.1-123.939-11.838-96.776 16.932-132.306 9.198-11.36 28.272-22.328 42.329-16.66z" fill="#82af16" stroke="#4b660e" stroke-width="3.292" transform="matrix(1.1104 .30686 -.29993 1.21776 -364.86 -414.004)"/><path d="M155.922 292.242a27.707 27.707 0 0 0-3.065-.644c-4.189-.656-8.735-.47-13.335.42-9.2 1.781-18.512 6.324-25.015 11.58-10.555 8.533-14.761 13.475-16.47 17.967-1.71 4.492-1.143 9.313-1.382 17.949-.48 17.271-4.611 48.187-40 119.214-2.212 4.44-2.2 8.465-.454 12.678 1.745 4.213 5.405 8.546 10.504 12.576 10.199 8.062 26.043 14.918 42.799 19.144.594.15 1.193.27 1.788.413-13.2-4.194-25.196-9.938-33.483-16.488-5.099-4.03-8.759-8.363-10.504-12.576-1.745-4.214-1.758-8.239.454-12.678 35.389-71.028 39.52-101.943 40-119.214.24-8.636-.328-13.458 1.381-17.95 1.71-4.491 5.916-9.433 16.47-17.966 6.504-5.257 15.816-9.8 25.016-11.58 3.552-.688 7.064-.956 10.412-.74a23.28 23.28 0 0 0-5.116-2.105z" fill="#9ad01a"/><path d="M155.922 292.242c-.94-.259-1.907-.437-2.892-.596 23.35 19.975 31.074 50.755 31.316 85.027.247 35.104-7.46 73.577-14.164 106.56-.99 4.871-3.735 8.555-8.051 11.472-4.316 2.917-10.22 4.933-17.118 6-13.795 2.132-31.478.53-48.234-3.697-7.121-1.796-14.088-4.05-20.517-6.686 9.391 5.293 21.081 9.737 33.242 12.804 16.756 4.226 34.44 5.83 48.234 3.697 6.897-1.067 12.802-3.083 17.118-6 4.316-2.917 7.061-6.601 8.051-11.473 6.705-32.982 14.412-71.455 14.164-106.56-.248-35.104-8.334-66.56-33.034-86.476-2.37-1.91-5.121-3.25-8.115-4.072z" fill="#729913"/><path d="M161.893 481.447c-7.133-3.493-20.115-2.841-27.751.947-5.904 2.928-11.606 10.016-7.302 13.53 7.783 6.356 30.938 3.497 38.712-3.633 3.463-3.177.783-8.67-3.66-10.844z" fill="#b6c52c"/><path d="M594.135 432.054c51.257 20.667 54.75 92.455 57.144 146.027 1.605 35.918-124.922 38.012-116.405 2.94 30.1-123.939-11.838-96.776 16.932-132.306 9.198-11.36 28.272-22.328 42.329-16.66z" fill="#82af16" stroke="#4b660e" stroke-width="3.292" transform="matrix(1.149 -.02644 .02455 1.06671 -238.445 -121.031)"/><path d="M445.234 324.666a32.512 32.512 0 0 0-3.12.238c-4.205.509-8.538 1.792-12.741 3.662-8.406 3.741-16.21 9.76-21.123 15.662-7.974 9.578-10.754 14.65-11.244 18.736-.491 4.084 1.297 7.871 3.29 14.966 3.985 14.19 7.965 40.403-7.846 107.075-.988 4.167.06 7.443 2.827 10.441 2.767 2.998 7.409 5.616 13.36 7.63 11.903 4.029 28.936 5.67 46.17 4.941.61-.025 1.219-.077 1.83-.109-13.8-.13-26.839-1.823-36.51-5.096-5.951-2.014-10.593-4.632-13.36-7.63-2.767-2.998-3.815-6.274-2.827-10.441 15.81-66.672 11.83-92.886 7.846-107.076-1.993-7.094-3.781-10.881-3.29-14.966.49-4.085 3.27-9.158 11.244-18.736 4.913-5.902 12.717-11.92 21.123-15.661 3.245-1.445 6.56-2.538 9.842-3.195a26.763 26.763 0 0 0-5.471-.441z" fill="#9ad01a"/><path d="M445.234 324.666c-.974.023-1.95.119-2.94.234 27.642 10.46 43.011 33.612 52.069 61.471 9.278 28.536 11.758 61.797 13.79 90.335.301 4.215-1.395 7.9-4.803 11.35-3.408 3.45-8.579 6.563-14.95 9.15-12.743 5.17-30.196 8.267-47.43 8.995-7.324.31-14.618.209-21.491-.339 10.411 1.974 22.82 2.684 35.328 2.155 17.235-.728 34.687-3.824 47.43-8.996 6.371-2.586 11.542-5.698 14.95-9.149 3.408-3.45 5.104-7.135 4.804-11.35-2.033-28.538-4.513-61.799-13.791-90.335-9.278-28.536-25.17-52.148-54.099-62.225-2.775-.966-5.772-1.372-8.867-1.296z" fill="#729913"/><path d="M499.168 475.716c-9.424-.898-22.587 3.463-28.393 8.94-4.489 4.233-6.4 11.965.087 13.71 11.731 3.154 34.245-6.073 38.292-14.449 1.803-3.731-4.117-7.643-9.986-8.201z" fill="#b6c52c"/><path d="M310.228 4.062c-72.66 2.331-143.412 35.307-188.325 94.986l-13.682 20.527c-30.716 52.022-38.675 84.2-23.164 137.711 7.767 5.194 17.808 36.765 26.353 41.418 104.58 56.948 238.632 56.533 341.964 7.439l41.965-107.527 33.002-23.973 9.12 6.027c-23.105-75.23-36.53-90.38-83.017-137.07-36.3-36.456-94.5-41.133-144.216-39.538z" fill="#4f4c09" stroke="#4f4c09"/><path d="M120.053 300.864c-3.842 2.04-7.413 4.4-10.392 6.942-8.129 6.934-12.6 11.676-15.033 15.91 16.666 16.72 39.12 30.895 65.276 36.797 11.996 3.138 24.186 5.508 36.451 7.334-1.654-12.747-4.643-24.79-9.44-35.669-19.07-4.089-37.336-10.618-53.649-21.331a97.944 97.944 0 0 1-13.213-9.983zm322.053 19.616c-14.377.689-29.954 11.039-38.022 21.285-9.426 11.97-11.67 17.427-11.034 22.963 20.529-4.05 40.349-9.424 57.59-16.315 8.59-3.538 17.099-8.389 25.157-14.192-6.92-5.335-14.854-9.632-24.029-12.569-3.084-.987-6.345-1.331-9.662-1.172z" fill="#5f8010"/><path d="M165.285 294.453c50.717 40.896 33.065 129.389 19.655 195.361-8.99 44.232-150.116 7.956-130.139-32.14 70.596-141.691 15.881-121.483 58.484-155.921 13.62-11.01 38.091-18.515 52-7.3z" fill="none" stroke="#4b660e" stroke-width="3.956"/><path d="M313.488 2.413c-54.828 1.739-108.62 19.364-152.2 51.366-6.508 5.332-5.587 6.546-4.812 11.673 18.45 16.226 50.59 36.992 62.554 38.509 16.21 2.055 79.451-20.548 89.627-32.047 7.019-7.931 13.906-38.951 15.528-61.883.467-3.023-.854-9.264-10.697-7.618z" fill="#baba00" stroke="#4f4c09" stroke-width="3.616" stroke-linecap="round" stroke-linejoin="round"/><path d="M325.163 12.533c-6.153 22.558-9.878 55.584-5.604 65.225 6.035 13.61 59.335 51.188 75.543 53.253 16.208 2.066 82.749-19.62 92.922-31.166 2.145-2.435 3.506-5.163 5.489-11.039 5.769-12.654-25.317-36.365-35.328-46.07C429.072 14.538 386.578 5.057 344.81 2.86c-6.775.258-16.85-3.266-19.647 9.673z" fill="#adbf8f" stroke="#4f4c09" stroke-width="3.623" stroke-linecap="round" stroke-linejoin="round"/><path d="M146.46 67.492c-9.227 9.07-17.825 18.955-25.634 29.691l-13.963 21.734c-18.54 32.502-28.952 57.667-31.092 84.504-2.105 10.912 1.922 14.04 3.73 15.322 10.844 8.573 17.27 16.974 23.235 17.799 15.705 2.171 82.837-24.098 92.674-36.074 9.836-11.976 19.362-74.597 13.494-88.745-4.122-9.937-30.848-32.17-51.835-45.284-2.799-.65-7.256-2.206-10.61 1.053z" fill="#ba9500" stroke="#4f4c09" stroke-width="3.635" stroke-linecap="round" stroke-linejoin="round"/><path d="M307.275 81.234c-20.693.865-77.813 22.58-87.508 33.991-10.341 12.172-20.397 75.784-14.244 90.15 6.152 14.365 60.418 54.02 76.912 56.214 16.494 2.193 80.816-21.694 91.158-33.866 10.341-12.172 20.359-75.783 14.206-90.148-6.152-14.366-60.418-54.021-76.912-56.214-1.03-.138-2.233-.184-3.612-.127z" fill="#a6a66c" stroke="#4f4c09" stroke-width="3.754" stroke-linecap="round" stroke-linejoin="round"/><path d="M480.846 107.248c-19.531.822-73.42 23.835-82.567 34.797-9.756 11.693-19.187 72.783-13.374 86.59 5.812 13.807 57.047 51.97 72.616 54.084 2.238.304 5.433.076 9.25-.548l32.342-84.41 33.465-24.757 9.265 6.228c-5.47-18.112-10.397-32.804-15.347-45.371-9.937-20.624-16.718-28.362-45.65-26.613z" fill="#a69400" stroke="#4f4c09" stroke-width="3.575" stroke-linecap="round" stroke-linejoin="round"/><path d="M194.059 212.674c-19.53.816-84.76 20.769-93.91 31.54-4.845 5.701-5.689 11.753-8.559 29.75 3.681 7.1 14.754 25.464 18.196 27.338 46.197 25.156 98.056 39.28 150.55 43.092 8.246-19.453 14.795-66.707 9.726-78.544-5.807-13.558-57.025-50.987-72.593-53.057-.973-.13-2.108-.174-3.41-.12z" fill="#bfac00" stroke="#4f4c09" stroke-width="3.543" stroke-linecap="round" stroke-linejoin="round"/><path d="M370.608 238.232c-21.133.852-79.5 21.483-89.421 32.272-8.79 9.558-17.394 52.575-16.484 74.646 65.557 2.686 131.552-8.279 189.62-31.745.666-9.84.288-18.081-1.585-22.138-6.257-13.548-61.602-50.882-78.441-52.923-1.053-.127-2.28-.17-3.69-.112z" fill="#a7aa00" stroke="#4f4c09" stroke-width="3.686" stroke-linecap="round" stroke-linejoin="round"/><g fill="#cbbb00"><path d="M316.36 4.14c-.797-.003-1.73.08-2.836.265a2.12 1.89-1.318 0 1-.3.007c-54.333 1.724-107.674 19.173-150.87 50.866l.038.033c-3.157 2.587-4.209 3.965-4.524 5.007-.274.91.007 2.33.325 4.361a190.783 190.783 0 0 0 4.007 3.41c.539-.49 1.095-1 1.797-1.575 43.58-32.002 97.378-49.625 152.206-51.364 2.058-.344 3.749-.329 5.123-.085.168-1.702.293-3.383.409-5.012a2.12 1.89-1.318 0 1-.003-.133c.169-1.098-.062-2.984-1.069-4.145-.754-.87-1.908-1.626-4.302-1.635zM336.043 4.643a13.96 13.96 0 0 0-2.425.29c-1.525.316-2.788.863-3.919 2.033-1.13 1.17-2.128 3.05-2.778 6.06a2.12 1.899-1.318 0 1-.036.067c-3.043 11.157-5.507 24.987-6.663 37.163-.977 10.29-.886 19.526.228 24.546.235-14.35 3.28-34.3 7.427-49.507 2.796-12.939 12.866-9.405 19.641-9.662 41.768 2.196 84.29 11.693 113.403 39.893 6.646 6.441 22.542 19.051 30.816 30.506.12-2.081-.615-4.59-2.154-7.42-2.127-3.91-5.703-8.273-9.79-12.568-8.177-8.591-18.348-16.896-23.51-21.9-28.58-27.682-70.471-37.074-111.968-39.256-1.85.054-3.742-.089-5.54-.174-.935-.044-1.867-.097-2.732-.07zM150.436 67.64c-1.034.098-1.938.449-2.868 1.353a235.759 235.759 0 0 0-25.413 29.462h-.036L108.3 119.996c-18.48 32.398-28.723 57.241-30.832 83.687a2.054 1.972-1.316 0 1-.032.21c-1.003 5.2-.516 8.314.271 10.187.242.575.52 1.019.793 1.408 2.355-26.382 12.728-51.3 30.986-83.307l13.96-21.718a237.728 237.728 0 0 1 25.624-29.71c3.353-3.26 7.83-1.694 10.63-1.045 17.676 11.045 39.357 28.546 48.24 39.735-.275-3.016-.71-5.397-1.317-6.859-1.692-4.079-9.332-12.347-19.067-20.714-9.647-8.291-21.353-16.981-31.668-23.451-1.431-.343-2.96-.757-4.367-.804a8.566 8.566 0 0 0-1.086.025zM307.026 83.351c-9.625.402-29.177 5.972-47.13 12.887-8.976 3.458-17.628 7.248-24.567 10.849-6.939 3.6-12.217 7.172-14.207 9.514-2.122 2.498-4.773 8.658-7.043 16.452-2.27 7.795-4.307 17.305-5.815 26.849s-2.487 19.136-2.723 27.201c-.184 6.29.16 11.69.92 15.174.364-24.408 8.162-64.223 16.12-73.589 9.695-11.411 66.791-33.129 87.484-33.993 1.38-.058 2.588-.008 3.62.129 14.66 1.95 59.147 33.502 73.178 50.579-.287-3.056-.745-5.486-1.378-6.965-1.263-2.949-5.725-8.167-11.852-13.862-6.128-5.695-13.93-12.023-22.072-17.974-8.142-5.95-16.633-11.507-24.036-15.701-7.403-4.194-13.875-6.962-17.261-7.412a18.778 18.778 0 0 0-3.238-.138zM485.68 109.03a172.448 172.448 0 0 0-5.132.253c-9.083.383-27.847 6.496-44.798 13.143-8.475 3.323-16.299 8.346-22.85 11.806-6.551 3.46-11.528 6.888-13.405 9.138-2.003 2.4-4.506 8.321-6.642 15.807-2.136 7.486-4.027 16.597-5.442 25.764-1.416 9.166-2.379 18.426-2.595 26.173-.169 6.04.182 11.206.91 14.547.327-23.447 7.644-61.68 15.15-70.675 9.146-10.963 63.015-33.944 82.546-34.766 27.635-1.67 35.078 5.506 44.344 23.933a353.265 353.265 0 0 0-3.56-9.494c-4.892-10.133-8.878-16.243-14.822-19.66-4.48-2.575-10.411-5.929-19.107-6.007-1.45-.014-2.984-.012-4.598.038zM193.775 214.68c-9.122.381-30.483 5.527-50.272 11.93-9.894 3.202-19.464 6.741-27.07 10.095-7.608 3.354-13.32 6.764-15.066 8.819-2.24 2.636-3.497 5.192-4.63 9.512-1.1 4.183-2.017 10.183-3.378 18.721.593 1.13 1.382 2.577 2.25 4.118 1.867-11.159 3.224-16.34 7.134-20.943 9.151-10.77 74.37-30.729 93.901-31.545 1.303-.054 2.443-.008 3.416.122 13.852 1.842 55.874 31.7 69.071 47.805-.28-2.907-.737-5.235-1.338-6.64-1.192-2.782-5.368-7.709-11.15-13.084-5.784-5.375-13.184-11.347-20.869-16.963-7.685-5.617-15.663-10.863-22.65-14.82-6.988-3.96-13.133-6.604-16.329-7.03-.817-.108-1.82-.147-3.02-.097zM370.402 240.232c-9.829.397-29.844 5.715-48.19 12.282-9.172 3.284-17.975 6.869-25.067 10.283-7.092 3.414-12.488 6.791-14.525 9.006-1.804 1.961-4.068 6.324-6.06 11.946-1.994 5.622-3.857 12.536-5.414 19.836-2.96 13.88-4.73 29.082-4.525 39.827.455.017.907.02 1.362.035 1.912-22.74 8.941-52.49 16.066-60.237 9.92-10.788 68.304-31.423 89.436-32.276 1.41-.057 2.605-.011 3.657.116 14.947 1.812 60.234 31.436 74.598 47.545-.267-2.844-.72-5.132-1.354-6.506-1.284-2.78-5.793-7.7-12.04-13.064-6.247-5.364-14.241-11.322-22.546-16.924-8.304-5.603-16.926-10.834-24.478-14.78-7.553-3.944-14.196-6.545-17.652-6.964a20.2 20.2 0 0 0-3.268-.125z"/></g><g fill="#998a04"><path d="M250.787 244.204c7.434 6.42 5.673 5.223 5.687 5.33 7.45 20.133 6.453 52.345-2.839 64.56-8.328 10.95-48.296-1.962-66.795-6.053-33.938-10.219-67.722-24.186-92.897-43.265-.398 2.377-.768 4.629-1.253 7.626 3.657 6.97 14.66 24.988 18.081 26.828 45.918 24.685 97.465 38.541 149.648 42.268 8.203-19.101 14.174-64.158 9.138-75.778-2.026-4.673 1.52-7.076-8.144-15.006zM323.75 9.967c-2.811 19.545-8.32 40.237-13.895 46.458-10.118 11.292-72.98 33.502-89.094 31.488-10.778-1.346-37.993-18.206-56.656-33.21-.691.491-1.386.991-2.072 1.49-6.471 5.236-5.541 6.438-4.772 11.472 18.338 15.925 50.26 36.28 62.153 37.765 16.114 2.014 79.012-20.197 89.13-31.489 6.98-7.789 13.84-38.223 15.459-60.738.139-.888.104-2.076-.253-3.236z"/><path d="M318.886 46.885c-1.768 14.311-1.938 27.355.505 32.799 5.995 13.362 58.946 50.246 75.058 52.27 16.112 2.023 82.284-19.277 92.4-30.615 2.133-2.391 3.491-5.097 5.464-10.867 1.392-3.015.605-6.666-1.494-10.608-.812 1.568-1.646 2.79-2.66 3.926-10.116 11.338-76.252 32.637-92.364 30.614-16.112-2.024-69.099-38.907-75.094-52.27-1.373-3.059-1.919-8.514-1.815-15.25zM211.126 130.115c-2.492 21.523-8.107 45.628-13.862 52.548-9.782 11.761-76.534 37.583-92.145 35.455-5.929-.808-12.304-9.064-23.08-17.479-1.152-.806-3.222-2.369-4-6.195-.437 2.882-.814 5.792-1.05 8.702-2.096 10.714 1.906 13.785 3.703 15.043 10.777 8.414 17.151 16.638 23.08 17.446 15.611 2.128 82.364-23.661 92.146-35.422 7.417-8.917 14.677-46.43 15.208-70.098z"/><path d="M389.027 155.491c-2.594 21.985-8.557 46.791-14.653 53.876-10.284 11.954-74.228 35.441-90.624 33.292-16.396-2.148-70.335-41.082-76.447-55.184-1.464-3.38-1.991-9.547-1.822-17.117-1.791 15.113-2.014 28.92.476 34.666 6.112 14.103 60.05 53.004 76.446 55.152 16.396 2.15 80.341-21.305 90.625-33.259 7.824-9.094 15.48-47.4 15.999-71.426zM398.98 248.161a126.61 126.61 0 0 0 2.078 3.358c7.06 10.957 24.155 20.192 21.467 32.71-1.721 8.013-13.443 11.07-21.41 14.737-42.04 12.501-91.775 24.51-135.41 23.975-.812 7.153-1.173 13.859-.948 19.276 65.168 2.618 130.794-8.167 188.526-31.223.665-9.662.29-17.725-1.571-21.707-4.212-9.01-30.802-28.72-52.731-41.126z"/></g><path d="M504.685 111.206c12.755 15.317 24 50.296 18.352 68.315l8.465-6.187 9.212 6.108c-5.433-17.781-10.322-32.206-15.24-44.544-5.01-10.276-5.975-14.5-8.467-17.95-1.809-2.505-3.596-5.507-12.322-5.742zm10.727 61.796c-1.75.003-6.219 6.685-19.651 16.518-27.889 29.174-28.614 62.287-59.492 82.179 8.537 5.147 16.062 8.78 20.572 9.383 2.225.297 5.406.042 9.201-.572l32.199-82.867 15.173-11.09c-6.533-.411 8.81-13.564 1.998-13.55z" fill="#998a04"/><g fill="none" stroke="#4f4c09" stroke-linecap="round" stroke-linejoin="round"><path d="M469.775 138.994c-47.727.447-94.872 15.802-133.421 44.846-5.768 4.856-4.992 6.013-4.42 10.834 15.725 15.6 43.265 35.75 53.642 37.43 14.059 2.275 69.523-17.54 78.605-28.094 6.264-7.28 12.876-36.196 14.746-57.647.467-2.822-.557-8.698-9.152-7.37z" stroke-width="3.265" transform="matrix(1.149 -.02644 .02455 1.06671 -229.696 -133.431)"/><path d="M479.728 148.728c-5.804 21.003-11.709 52.921-6.18 60.992 10.828 15.81 40.591 41.195 64.645 51.526 13.086 5.62 67.886-16.336 81.453-27.198 2.298-1.84 3.153-4.762 4.996-10.224 5.271-11.733-21.294-34.62-29.808-43.928-24.76-27.05-61.534-36.85-97.822-39.808-5.899.096-14.592-3.423-17.284 8.64z" stroke-width="3.272" transform="matrix(1.149 -.02644 .02455 1.06671 -229.696 -133.431)"/><path d="M323.18 196.37a217.85 217.85 0 0 0-22.892 27.266l-12.58 20.063c-16.779 30.052-26.34 53.406-28.738 78.506-2.05 10.179 1.39 13.196 2.938 14.437 9.26 8.266 14.683 16.276 19.854 17.177 13.618 2.374 72.54-20.792 81.335-31.8 8.797-11.01 18.337-69.478 13.515-82.861-3.386-9.4-26.189-30.808-44.181-43.547-2.423-.669-6.269-2.223-9.25.758z" stroke-width="3.282" transform="matrix(1.149 -.02644 .02455 1.06671 -229.696 -133.431)"/><path d="M462.792 212.713c-18.017.363-68.138 19.478-76.8 29.96-9.24 11.183-19.26 70.568-14.196 84.16 5.065 13.593 51.474 51.919 65.778 54.33 14.303 2.41 70.733-18.584 79.972-29.766 9.24-11.182 19.227-70.566 14.163-84.159-2.176-5.84-13.211-14.739-25.178-24.868-15.886-13.446-33.97-27.947-40.599-29.461-.894-.15-1.939-.22-3.14-.196z" stroke-width="3.39" transform="matrix(1.149 -.02644 .02455 1.06671 -229.696 -133.431)"/><path d="M613.254 240.83c-5.77.118-15.297 5.79-25.336 9.338-19.549 6.91-41.78 14.828-47.183 21.485-8.72 10.745-18.147 67.78-13.367 80.843 4.78 13.062 48.583 49.924 62.083 52.24 1.941.333 4.725.188 8.058-.314l29.822-78.392 29.606-22.474 7.934 6.035c-4.395-17.088-8.387-30.96-12.44-42.842-8.232-19.538-13.975-26.934-39.177-25.92z" stroke-width="3.229" transform="matrix(1.149 -.02644 .02455 1.06671 -229.696 -133.431)"/><path d="M361.678 333.425c-6.396.202-29.167 7.434-49.944 14.408-14.547 4.883-29.01 9.044-32.376 13.118-4.328 5.239-5.184 10.89-8.04 27.692 3.06 6.732 12.324 24.176 15.28 26.006 39.681 24.567 84.508 38.92 130.094 43.622 7.563-18.048 14.206-62.182 10.033-73.382-4.78-12.83-48.583-49.003-62.083-51.279a14.983 14.983 0 0 0-2.964-.185z" stroke-width="3.2" transform="matrix(1.149 -.02644 .02455 1.06671 -229.696 -133.431)"/><path d="M514.74 361.179c-8.38.156-21.45 6.798-36.333 11.861-17.798 6.055-37.28 11.06-42.097 16.449-7.838 8.766-16.184 48.885-15.833 69.585 56.97 3.93 114.597-4.92 165.578-25.655.776-9.206.613-16.936-.936-20.777-5.171-12.829-52.566-49.003-67.173-51.278-.913-.142-1.98-.208-3.207-.185z" stroke-width="3.328" transform="matrix(1.149 -.02644 .02455 1.06671 -229.696 -133.431)"/></g><path d="M454.825 324.136c59.401 20.69 65.178 97.175 69.244 154.258 2.726 38.27-142.602 43.851-133.677 6.214 31.54-133.003-15.979-102.92 16.206-141.58 10.29-12.36 31.937-24.566 48.227-18.892z" fill="none" stroke="#4b660e" stroke-width="3.645"/><path d="M551.164 158.542c-29.497 1.645-53.419 25.074-57.91 51.539-9.231 27.933-27.183 62.27-47.98 85.609-21.131 17.72-62.25 21.963-89.11 27.327-36.193 5.082-72.967 4.014-109.42 3.503-42.213-2.697-86.996-7.271-121.91-31.523-25.823-17.201-40.958-45.253-45.729-73.995-52.046 6.142-9.154 104.11 70.95 124.306 46.402 13.39 95.617 15.446 143.893 17.244 46.027.348 104.256-6.2 147.19-22.102 37.517-14.346 73.864-53.185 81.693-88.244 6.583-19.895 4.845-44.117 21.967-59.64 14.244-5.09 43.205 4.441 38.214-19.424-4.355-11.549-20.1-14.94-31.848-14.6z" style="line-height:normal;-inkscape-font-specification:Sans;text-indent:0;text-align:start;text-decoration-line:none;text-transform:none;block-progression:tb;marker:none" color="#000" font-weight="400" font-family="Sans" overflow="visible" fill="#8f8f09" stroke="#4f4c09" stroke-width="3.544"/><path d="M551.178 158.542c-29.483 1.644-53.386 25.062-57.875 51.527-9.227 27.933-27.177 62.28-47.965 85.62-21.121 17.719-62.227 21.966-89.077 27.33-36.175 5.082-72.912 3.996-109.348 3.484-40.875-2.613-84.187-6.97-118.58-29.29a96.6 96.6 0 0 0 5.662 4.106c34.899 24.252 79.672 28.818 121.866 31.515 36.435.512 73.172 1.598 109.348-3.484 26.849-5.364 67.955-9.611 89.076-27.33 20.788-23.34 38.739-57.687 47.966-85.62 4.488-26.464 28.391-49.883 57.875-51.527 6.318-.184 13.78.74 20.017 3.408-6.369-7.656-19.073-10.026-28.965-9.74zM79.336 220.997c-42.875 5.062-21.27 72.484 32.469 107.348-43.906-33.678-61.51-88.274-30.847-99.314a123.499 123.499 0 0 1-1.622-8.034z" style="line-height:normal;-inkscape-font-specification:Sans;text-indent:0;text-align:start;text-decoration-line:none;text-transform:none;block-progression:tb;marker:none" color="#000" font-weight="400" font-family="Sans" overflow="visible" fill="#beaf00" stroke-width="3.543"/><path d="M551.178 158.542c-29.483 1.644-53.393 25.073-57.882 51.538-9.227 27.933-27.17 62.269-47.958 85.608-21.121 17.72-62.22 21.963-89.07 27.327-36.175 5.081-72.933 4.013-109.368 3.502-42.194-2.698-86.956-7.273-121.855-31.525-25.812-17.201-40.94-45.253-45.709-73.995-52.022 6.142-9.15 104.11 70.918 124.306 46.382 13.39 95.574 15.447 143.828 17.246 46.006.349 104.209-6.198 147.123-22.1 37.5-14.346 73.829-53.185 81.654-88.244 6.58-19.895 4.842-44.116 21.957-59.64 17.381-7.495 43.185 4.442 38.196-19.423-4.353-11.549-20.091-14.941-31.834-14.6z" style="line-height:normal;-inkscape-font-specification:Sans;text-indent:0;text-align:start;text-decoration-line:none;text-transform:none;block-progression:tb;marker:none" color="#000" font-weight="400" font-family="Sans" overflow="visible" fill="none" stroke="#4f4c09" stroke-width="3.543"/><path d="M684.957 1.779c-30.187.885-52.113 13.667-67.653 31.136-4.23 4.755-7.595 10.257-10.995 15.48-11.506 25.938-12.307 58.365-20.175 86.641-6.874 24.707-20.64 45.837-32.08 62.04-3.462 4.97-9.318 5.429-14.625 6.762-7.993 15.61-7.81 35.523-12.622 52.434-1.31 6.86-3.533 13.86-6.485 20.797 4.721 8.22 5.867 7.81 16.114 9.699 157.88-13.619 313.9-122.27 234.684-243.43-21.583-25.463-46.37-40.221-78.311-41.494-2.687-.107-5.292-.14-7.852-.065z" fill="#82af16" stroke="#4b660f" stroke-width="3.476"/><path d="M545.65 201.43c-2.613.664-5.164-.39-7.778.24-10.05 15.894-8.987 35.405-14.729 52.34-1.47 6.82-4.155 13.85-7.82 20.867 1.702 1.972 4.364 4.023 5.684 5.087 5.664-9.252 8.404-19.253 10.348-28.271 5.687-16.764 4.557-34.457 14.296-50.263z" style="line-height:normal;-inkscape-font-specification:Sans;text-indent:0;text-align:start;text-decoration-line:none;text-transform:none;block-progression:tb;marker:none" color="#000" font-weight="400" font-family="Sans" overflow="visible" fill="#4b660f" stroke-width="3.544"/><path d="M698.331 2.222c20.166 6.24 37.226 18.955 52.666 37.17 77.99 119.285-72.008 226.442-227.332 242.727 2.69 3.11 5.332 3.266 12.755 4.634C694.3 273.134 850.319 164.5 771.103 43.34c-20.322-23.975-43.47-38.445-72.772-41.118z" fill="#729913"/><path d="M675.672 85.028a35.16 29.35 86.269 1 1-58.343 6.659 35.16 29.35 86.269 1 1 58.343-6.659z" fill="#fff" stroke="#4b660f" stroke-width="3.834"/><path d="M684.16 3.753c-28.04 1.372-50.358 12.294-65.39 28.446-4.906 5.272-7.328 12.175-11.168 18.072-10.452 23.562-12.362 57.842-20.452 85.998-8.597 29.922-23.293 53.302-31.793 62.67 46.615-59.252 38.835-90.214 65.172-150.137 13.715-21.063 33.727-39.626 63.63-45.05z" fill="#9ad01a"/><path d="M684.957 1.779c-31.013.91-52.605 12.335-68.237 30.515-3.724 4.332-7.353 11.403-10.411 16.1-10.717 24.16-11.988 55.998-19.243 82.614-7.34 26.928-20.673 48.593-33.012 66.067-3.462 4.972-9.318 5.43-14.625 6.763-7.993 15.61-7.81 35.523-12.622 52.434-1.31 6.86-3.533 13.86-6.485 20.797 4.721 8.22 5.867 7.81 16.114 9.699 157.88-13.619 313.9-122.27 234.684-243.43-21.583-25.463-46.37-40.221-78.311-41.494-2.687-.107-5.292-.14-7.852-.065z" fill="none" stroke="#4b660f" stroke-width="3.476"/><g><path d="M262.75 171.085a72.434 94.448 0 1 1-144.868 0 72.434 94.448 0 1 1 144.868 0z" transform="matrix(.193 -.02203 .01772 .17712 606.707 67.117)" fill="#7d7dc0" stroke="url(#g)" stroke-width=".956"/><path d="M471.53 191.679a66.753 75.274 0 1 1-133.506 0 66.753 75.274 0 1 1 133.506 0z" transform="matrix(.13913 -.01588 .01455 .14549 587.104 71.316)" stroke="#000" stroke-width="1.242"/><path d="M470.11 149.07a58.941 48.29 0 1 1-117.883 0 58.941 48.29 0 1 1 117.882 0z" transform="matrix(.12057 -.01376 .01655 .1654 588.612 68.635)" fill="#fff" fill-opacity=".854" stroke="#000" stroke-width="1.252"/><path d="M426.08 147.65a18.464 17.043 0 1 1-36.926 0 18.464 17.043 0 1 1 36.927 0z" transform="matrix(.25352 -.02894 .02998 .29965 532.842 55.341)" fill="#fff" fill-opacity=".908" stroke="#000" stroke-width="0"/></g><path d="M784.52 103.217a25.965 33.338 5.69 1 1-51.88-2.745 25.965 33.338 5.69 1 1 51.88 2.745z" fill="#fff" stroke="#4b660f" stroke-width="3.666"/><path d="M771.295 102.765a12.406 14.78 5.883 0 1-24.782-1.37 12.406 14.78 5.883 1 1 24.782 1.37z" fill="#7d7dc0"/><path d="M766.982 102.105a8.242 9.676 6.092 0 1-16.466-.91 8.242 9.676 6.092 1 1 16.466.91z"/><path d="M760.765 97.352a6.306 7.058 7.155 1 1-12.598-.696 6.306 7.058 7.155 1 1 12.598.696z" fill="#fff" fill-opacity=".854"/><path d="M758.879 96.994a4.368 4.518 15.872 1 1-8.737-.482 4.368 4.518 15.872 1 1 8.737.482z" fill="#e6e6e6"/><g><path d="M1342.306 141.19s-26.38 45.718-60.384 34.366c-3.095-1.034-6.751-2.86-8.56-5.93" fill="none" stroke="#4b660f" stroke-width="2.164" stroke-linecap="round" stroke-linejoin="round" transform="matrix(-1.82036 .25508 .28893 1.67546 3027.687 -442.759)"/><path d="M1281.05 175.277c1.73-.959 22.68 19.074 27.282 21.123 7.172 3.193 16.105 3.286 21.151-11.022 4.003-14.389 1.34-28.472 9.693-39.886-9.618 10.17-18.668 19.742-31.416 27.117-6.96 2.183-10.338 4.831-26.71 2.668z" fill="#4d0305" stroke="#4b660f" stroke-width="2.143" stroke-linecap="round" stroke-linejoin="round" transform="matrix(-1.82036 .25508 .28893 1.67546 3027.687 -442.759)"/><path d="M658.896 199.426c10.679-2.066 29.626-1.237 39.118 22.605-10.446 2.655-18.043 6.013-32.673-9.111-.23-1.033-5.236-6.62-7.515-13.26.364-.08.688-.16 1.07-.234z" fill="#b10005"/><path d="M1278.322 164.546s-7.072-.167-6.641 10.846M1331.308 145.312s9.002-8.595 18.526-3.15M1281.05 175.277c1.73-.959 22.68 19.074 27.282 21.123 7.172 3.193 16.105 3.286 21.151-11.022 4.003-14.389 1.34-28.472 9.693-39.886-9.618 10.17-18.668 19.742-31.416 27.117-6.96 2.183-10.338 4.831-26.71 2.668z" fill="none" stroke="#4b660f" stroke-width="2.143" stroke-linecap="round" stroke-linejoin="round" transform="matrix(-1.82036 .25508 .28893 1.67546 3027.687 -442.759)"/></g><path d="M753.297 41.112c.34-1.662-.22 4.36-.107 3.601 16.075 2.411 25.635 8.885 40.032 22.618-12.058-15.954-20.314-20.561-39.925-26.219z" stroke="#000100" stroke-width="0"/><path d="M689.599 124.114a4.504 4.531 88.698 1 0 9.06-.208 4.504 4.531 88.698 0 0-9.06.208z" fill="#4b660f"/><path d="M652.61 56.622c7.767 5.069 13.42 14.339 14.518 25.432 1.783 18.005-9.14 34.002-24.42 35.746-3.238.37-6.41.07-9.417-.805 4.838 3.156 10.502 4.686 16.365 4.017 15.28-1.744 26.203-17.74 24.42-35.745-1.404-14.188-10.285-25.39-21.466-28.645zM766.745 71.09c6.807 6.313 10.806 16.42 10.028 27.557-1.04 14.899-10.363 26.97-22.208 30.28 1.118 1.503 2.282 3.188 3.322 4.984 13.236-1.965 24.067-14.791 25.194-30.924.994-14.242-5.86-26.798-16.336-31.898z" fill="#e6e6e6"/><path d="M648.818 27.845c-.656-1.835.953 4.93.702 4.086-17.966 5.558-27.837 14.607-42.062 32.775 11.196-20.29 19.88-26.984 41.36-36.86z" stroke="#000100" stroke-width="0"/><path d="M639.83 220.095c-1.221.295 3.276-.438 2.714-.325 3.605 7.837 9.564 12.116 21.555 18.26-13.413-4.81-17.815-8.58-24.27-17.935z" fill="#4b660f" stroke="#000100" stroke-width="0"/><path d="M761.224 140.086s-20.846-40.538-73.984-29.884" fill="#82af16" stroke="#4b660f" stroke-width="3.887" stroke-linecap="round" stroke-linejoin="round"/><path d="M741.061 131.386a3.643 3.307 3.176 1 0 7.274.404 3.643 3.307 3.176 0 0-7.274-.404z" fill="#4b660f"/></svg>