<svg xmlns="http://www.w3.org/2000/svg" width="738.25" height="400" viewBox="0 0 738.25 400"><path fill="none" stroke="#969696" stroke-width="4" stroke-linecap="square" stroke-miterlimit="1" d="M86.147 266.275s22.895-17.035 33.803-22.535c10.61-5.35 15.024 8.529 30.282 13.382 15.447 4.909 33.282-.791 51.409-2.815 18.127-2.023 30.063-39.188 49.296-43.66 19.232-4.478 37.995 29.807 61.972 20.424 23.979-9.383 30.34-73.778 50-85.209 19.658-11.434 60.047 34.36 73.94 37.324 13.897 2.964 8.022-27.043 16.902-20.422 8.879 6.621 13.68 20.583 21.127 23.943 7.444 3.361 16.376 2.552 22.532 0 6.157-2.551 7.302-10.428 15.49-15.493 8.195-5.065 40.147-13.38 40.147-13.38"/><path d="M92.485 36.425H73.188l9.648-16.497 9.649 16.497zM625.786 208.318v-19.294l16.497 9.648-16.497 9.646z"/><path fill="none" stroke="#00A000" stroke-width="4" stroke-linecap="square" stroke-miterlimit="1" d="M86.147 198.671S155.15 47.652 212.204 50.079c57.052 2.427 107.746 151.409 107.746 151.409s48.749 146.057 105.634 148.592c56.885 2.535 128.169-150 128.169-150"/><path fill="none" stroke="#00F" stroke-width="4" stroke-linecap="square" stroke-miterlimit="1" d="M86.147 84.587s18.595-31.2 38.732-33.803c20.138-2.603 73.944 35.211 73.944 35.211s22.023-31.581 42.253-33.803c20.23-2.222 73.239 35.916 73.239 35.916s22.183-34.535 42.958-37.324c20.775-2.789 74.647 35.915 74.647 35.915s15.513-32.377 35.916-35.915c20.398-3.538 78.872 37.324 78.872 37.324"/><path fill="none" stroke="#F00" stroke-width="4" stroke-linecap="square" stroke-miterlimit="1" d="M85.443 122.614h465.493"/><path stroke="#000" stroke-width="2.6" stroke-linecap="square" stroke-miterlimit="1" d="M84.739 380.359V26.135M52.11 198.671h578.635"/><text transform="translate(546.71 60.644)" fill="#00F" font-family="'Ubuntu'" font-size="40">pulsating</text><text transform="translate(557.166 132.725)" fill="#F00" font-family="'Ubuntu'" font-size="40">direct</text><text transform="translate(559.28 177.795)" fill="#969696" font-family="'Ubuntu'" font-size="40">variable</text><text transform="translate(517.025 301.033)" fill="#009600" font-family="'Ubuntu'" font-size="40">alternating</text><text transform="translate(602.71 239.644)" fill="#1D1D1B" font-family="'Ubuntu-Italic'" font-size="40">t</text><text transform="translate(23.11 69.338)" fill="#1D1D1B" font-family="'Ubuntu-Italic'" font-size="40">i,v</text></svg>