<?xml version="1.0" encoding="utf-8"?>
<!-- Generator: Adobe Illustrator 15.0.2, SVG Export Plug-In . SVG Version: 6.00 Build 0)  -->
<!DOCTYPE svg PUBLIC "-//W3C//DTD SVG 1.1//EN" "http://www.w3.org/Graphics/SVG/1.1/DTD/svg11.dtd">
<svg version="1.1"
	 id="svg2" sodipodi:version="0.32" inkscape:version="0.46" sodipodi:docname="var en.svg" inkscape:output_extension="org.inkscape.output.svg.inkscape" xmlns:dc="http://purl.org/dc/elements/1.1/" xmlns:cc="http://creativecommons.org/ns#" xmlns:rdf="http://www.w3.org/1999/02/22-rdf-syntax-ns#" xmlns:svg="http://www.w3.org/2000/svg" xmlns:sodipodi="http://sodipodi.sourceforge.net/DTD/sodipodi-0.dtd" xmlns:inkscape="http://www.inkscape.org/namespaces/inkscape"
	 xmlns="http://www.w3.org/2000/svg" xmlns:xlink="http://www.w3.org/1999/xlink" x="0px" y="0px" width="738.25px" height="400px"
	 viewBox="0 0 738.25 400" enable-background="new 0 0 738.25 400" xml:space="preserve">
<defs>
	
	
		<inkscape:perspective  id="perspective10" inkscape:persp3d-origin="372.04724 : 350.78739 : 1" sodipodi:type="inkscape:persp3d" inkscape:vp_x="0 : 526.18109 : 1" inkscape:vp_y="0 : 1000 : 0" inkscape:vp_z="744.09448 : 526.18109 : 1">
		</inkscape:perspective>
	
		<inkscape:perspective  id="perspective2390" inkscape:persp3d-origin="372.04724 : 350.78739 : 1" sodipodi:type="inkscape:persp3d" inkscape:vp_x="0 : 526.18109 : 1" inkscape:vp_y="0 : 1000 : 0" inkscape:vp_z="744.09448 : 526.18109 : 1">
		</inkscape:perspective>
</defs>
<sodipodi:namedview  id="base" inkscape:document-units="px" inkscape:current-layer="layer1" inkscape:window-width="1140" inkscape:window-height="781" inkscape:window-x="88" inkscape:window-y="0" gridtolerance="10000" guidetolerance="10" objecttolerance="10" pagecolor="#ffffff" bordercolor="#666666" borderopacity="1.0" inkscape:zoom="1.42" inkscape:cx="377.62078" inkscape:cy="200" showgrid="false" inkscape:pageopacity="0.0" inkscape:pageshadow="2">
	</sodipodi:namedview>
<g id="layer1" transform="translate(-14.071464,-14.505031)" inkscape:label="Layer 1" inkscape:groupmode="layer">
	
		<path id="path3204" sodipodi:nodetypes="czzzzzzzzzzzc" fill="none" stroke="#969696" stroke-width="4" stroke-linecap="square" stroke-miterlimit="1" d="
		M100.218,280.78c0,0,22.895-17.035,33.803-22.535c10.611-5.35,15.024,8.529,30.282,13.382c15.447,4.909,33.282-0.791,51.409-2.815
		c18.127-2.023,30.063-39.188,49.296-43.66c19.232-4.478,37.995,29.807,61.972,20.424c23.979-9.383,30.34-73.778,50-85.209
		c19.658-11.434,60.047,34.36,73.941,37.324c13.896,2.964,8.021-27.043,16.901-20.422c8.879,6.621,13.68,20.583,21.127,23.943
		c7.444,3.361,16.376,2.552,22.532,0c6.157-2.551,7.302-10.428,15.491-15.493c8.194-5.065,40.146-13.38,40.146-13.38"/>
	
		<path id="path3172" sodipodi:sides="3" sodipodi:cx="3.5211267" sodipodi:cy="52.816902" sodipodi:r1="31.470285" sodipodi:r2="22.252853" sodipodi:arg1="-0.78539816" sodipodi:arg2="0.26179939" sodipodi:type="star" inkscape:flatsided="true" inkscape:rounded="0" inkscape:randomized="0" d="
		M106.556,50.93H87.259l9.648-16.497L106.556,50.93z"/>
	
		<path id="path3176" sodipodi:sides="3" sodipodi:cx="3.5211267" sodipodi:cy="52.816902" sodipodi:r1="31.470285" sodipodi:r2="22.252853" sodipodi:arg1="-0.78539816" sodipodi:arg2="0.26179939" sodipodi:type="star" inkscape:flatsided="true" inkscape:rounded="0" inkscape:randomized="0" d="
		M639.857,222.823v-19.294l16.497,9.648L639.857,222.823z"/>
	
		<path id="path3198" sodipodi:nodetypes="czczc" fill="none" stroke="#00A000" stroke-width="4" stroke-linecap="square" stroke-miterlimit="1" d="
		M100.218,213.176c0,0,69.004-151.019,126.057-148.592c57.052,2.427,107.746,151.409,107.746,151.409S382.77,362.05,439.655,364.585
		c56.885,2.535,128.169-150,128.169-150"/>
	
		<path id="path3200" sodipodi:nodetypes="czczczczcc" fill="none" stroke="#0000FF" stroke-width="4" stroke-linecap="square" stroke-miterlimit="1" d="
		M100.218,99.092c0,0,18.595-31.2,38.732-33.803c20.138-2.603,73.944,35.211,73.944,35.211s22.023-31.581,42.253-33.803
		c20.23-2.222,73.239,35.916,73.239,35.916s22.183-34.535,42.958-37.324c20.775-2.789,74.647,35.915,74.647,35.915
		s15.513-32.377,35.916-35.915c20.398-3.538,78.872,37.324,78.872,37.324l0,0"/>
	<path id="path3202" fill="none" stroke="#FF0000" stroke-width="4" stroke-linecap="square" stroke-miterlimit="1" d="
		M99.514,137.119h465.493"/>
	<path id="path2398" stroke="#000000" stroke-width="2.6" stroke-linecap="square" stroke-miterlimit="1" d="M98.81,394.864
		c0-354.224,0-354.224,0-354.224"/>
	<path id="path3174" stroke="#000000" stroke-width="2.6" stroke-linecap="square" stroke-miterlimit="1" d="M66.182,213.176
		c578.634,0,578.634,0,578.634,0"/>
	<text transform="matrix(1 0 0 1 560.7814 75.1495)" fill="#0000FF" font-family="'Ubuntu'" font-size="40">pulsating</text>
	<text transform="matrix(1 0 0 1 571.2375 147.2296)" fill="#FF0000" font-family="'Ubuntu'" font-size="40">direct</text>
	<text transform="matrix(1 0 0 1 573.3508 192.2999)" fill="#969696" font-family="'Ubuntu'" font-size="40">variable</text>
	<text transform="matrix(1 0 0 1 531.0969 315.5382)" fill="#009600" font-family="'Ubuntu'" font-size="40">alternating</text>
	<text transform="matrix(1 0 0 1 616.7814 254.1495)" fill="#1D1D1B" font-family="'Ubuntu-Italic'" font-size="40">t</text>
	<text transform="matrix(1 0 0 1 37.1823 83.8429)" fill="#1D1D1B" font-family="'Ubuntu-Italic'" font-size="40">i,v</text>
</g>
</svg>
