<svg xmlns="http://www.w3.org/2000/svg" viewBox="-36.925 -47.9808 2117.8501 2751.9617"><g stroke-width=".3"><path fill="#9D98CA" stroke="#9D98CA" d="M999.13 0h1.66c31.85.21 63.67 7.65 92.11 22.04 38.16 19.1 70.09 50.3 90.12 87.97 17.31 32.3 25.65 69.29 24.13 105.89-1.57 42.44-16.69 84.23-42.65 117.84-19.74 25.79-45.63 46.83-74.91 60.89-26.09 12.56-54.85 19.49-83.79 20.28-33.35 1-66.92-6.19-96.89-20.86-28.75-14.02-54.18-34.79-73.63-60.18-25.39-32.83-40.46-73.48-42.6-114.93-2.09-37.2 6.01-74.95 23.45-107.91 18.88-35.99 48.58-66.2 84.28-85.64C930.5 8.82 964.8.17 999.13 0m32.39 103.63c-8.3 1.49-15.51 6.7-20.64 13.24-7.3 9.34-10.93 21.33-10.47 33.14.26 13.32 4.03 27.29 13.48 37.1 6.8 7.22 17.12 11.34 27.03 9.44 9.45-1.71 17.28-8.46 22.07-16.57 7.42-12.5 9.56-27.83 6.9-42.03-2.11-11.45-8.35-22.23-17.76-29.17-5.85-4.31-13.39-6.49-20.61-5.15m-76.34.63c-7.35 1.18-13.76 5.78-17.98 11.8-7.59 10.63-11.92 23.87-10.78 36.99.9 13.23 5.48 26.91 15.53 36 6.73 6.24 16.43 9.58 25.51 7.39 9.14-2.15 16.41-8.99 21.28-16.77 8.56-13.61 10.11-30.91 5.68-46.2-3.18-10.63-9.23-21.12-19.14-26.71-6.06-3.5-13.38-3.73-20.1-2.5m-53.83 69.23c-8.64 2.7-15.3 9.89-18.77 18.09-4.6 10.88-4.22 23.52 0 34.47 2.59 6.81 6.9 13.29 13.25 17.09 6.39 3.9 14.62 3.27 21.23.28 7.69-3.45 12.93-10.8 15.6-18.6 3.2-9.57 3.26-20.14.3-29.78-2.55-8.08-7.6-15.77-15.21-19.85-4.94-2.79-11-3.4-16.4-1.7m184.16.11c-11.65 4.31-18.18 16.77-19.8 28.49-.54 12.55 1.82 26.19 10.33 35.94 5.49 6.36 14.63 9.88 22.84 7.2 8.94-2.64 15.03-10.8 18.07-19.26 2.81-7.96 3.85-16.55 3.25-24.96-.99-10.04-6.85-19.52-15.43-24.84-5.67-3.51-12.88-4.75-19.26-2.57m-98.38 29.72c-20.25 2.52-40 13.44-50.65 31.22-5.24 8.57-11.75 16.63-14.52 26.47-2.19 7.1-1.59 14.62-1.61 21.95.39 14.33 12.59 28.81 27.64 28.09 7.5.13 13.45-4.89 19.73-8.24 6.83-3.7 13.41-8.05 20.85-10.47 6.59-2.19 13.92-2 20.38.57 10.8 4.23 19.57 12.24 30.22 16.77 6.38 2.69 14 3 20.21-.34 7.44-3.88 12.17-11.49 14.57-19.32 4.3-14.3 1.8-30.22-5.73-43-6.36-10.65-12.88-21.69-22.97-29.26-16.36-12.5-37.88-17.25-58.12-14.44z"/><path fill="#FEFEFE" stroke="#FEFEFE" d="M1031.52 103.63c7.22-1.34 14.76.84 20.61 5.15 9.41 6.94 15.65 17.72 17.76 29.17 2.66 14.2.52 29.53-6.9 42.03-4.79 8.11-12.62 14.86-22.07 16.57-9.91 1.9-20.23-2.22-27.03-9.44-9.45-9.81-13.22-23.78-13.48-37.1-.46-11.81 3.17-23.8 10.47-33.14 5.13-6.54 12.34-11.75 20.64-13.24zM955.18 104.26c6.72-1.23 14.04-1 20.1 2.5 9.91 5.59 15.96 16.08 19.14 26.71 4.43 15.29 2.88 32.59-5.68 46.2-4.87 7.78-12.14 14.62-21.28 16.77-9.08 2.19-18.78-1.15-25.51-7.39-10.05-9.09-14.63-22.77-15.53-36-1.14-13.12 3.19-26.36 10.78-36.99 4.22-6.02 10.63-10.62 17.98-11.8zM901.35 173.49c5.4-1.7 11.46-1.09 16.4 1.7 7.61 4.08 12.66 11.77 15.21 19.85 2.96 9.64 2.9 20.21-.3 29.78-2.67 7.8-7.91 15.15-15.6 18.6-6.61 2.99-14.84 3.62-21.23-.28-6.35-3.8-10.66-10.28-13.25-17.09-4.22-10.95-4.6-23.59 0-34.47 3.47-8.2 10.13-15.39 18.77-18.09zM1085.51 173.6c6.38-2.18 13.59-.94 19.26 2.57 8.58 5.32 14.44 14.8 15.43 24.84.6 8.41-.44 17-3.25 24.96-3.04 8.46-9.13 16.62-18.07 19.26-8.21 2.68-17.35-.84-22.84-7.2-8.51-9.75-10.87-23.39-10.33-35.94 1.62-11.72 8.15-24.18 19.8-28.49zM987.13 203.32c20.24-2.81 41.76 1.94 58.12 14.44 10.09 7.57 16.61 18.61 22.97 29.26 7.53 12.78 10.03 28.7 5.73 43-2.4 7.83-7.13 15.44-14.57 19.32-6.21 3.34-13.83 3.03-20.21.34-10.65-4.53-19.42-12.54-30.22-16.77-6.46-2.57-13.79-2.76-20.38-.57-7.44 2.42-14.02 6.77-20.85 10.47-6.28 3.35-12.23 8.37-19.73 8.24-15.05.72-27.25-13.76-27.64-28.09.02-7.33-.58-14.85 1.61-21.95 2.77-9.84 9.28-17.9 14.52-26.47 10.65-17.78 30.4-28.7 50.65-31.22z"/><path fill="#E66564" stroke="#E66564" d="M544.19 484.81c83.13-72.6 183.82-124.94 291.09-150.94 19.45 25.39 44.88 46.16 73.63 60.18 29.97 14.67 63.54 21.86 96.89 20.86-.3 21.03-.17 42.06-.05 63.09-8.01-.04-16.02.06-23.99.93-1.5.05-2.98.1-4.45.18-3.56-.22-7.11.12-10.59.82-.72.05-2.16.14-2.88.19-2.28-.72-4.72-.65-6.71.75-1.36.08-2.71.17-4.05.26-1.74-.73-3.69-.56-5.09.73-3.33.34-6.63.82-9.94 1.23-1.74-.67-3.67-.48-5.05.8-49.42 7.14-97.53 21.85-143.49 41.22l-.37.15c-1 2.19-.34 4.54.71 6.58l.28 2.31c-.68 2.25-.6 4.67.71 6.7l.32 3.18c-.73 1.99-.6 4.18.67 5.94.33 3.56.72 7.11 1.17 10.66 2.76 24.98 5.45 49.96 8.17 74.94-23.55 16.3-43.83 37.32-59.29 61.42-18.26 28.3-29.36 60.78-34.75 93.91-7.57 46.56-4.75 94.18 2.78 140.55-11.97 11.53-17.25 28.35-18.18 44.59-1.42 26.86 6.75 54.54 23.91 75.43-.86 18.88-1.33 38.23-7.85 56.2-3.43 9.23-9.09 18.36-18.2 22.86-9.12 4.72-19.82 3.83-29.56 1.85 10.67 34.09 30.01 65.94 57.51 89.03 25.01 21.3 55.8 34.94 87.59 42.45 32.75 8.09 66.65 9.75 100.26 9.3-34.07 11.83-66.71 31.73-87.06 62.21-17.37.15-34.96 4.08-49.9 13.17-14.13 8.41-25.53 20.82-34.24 34.65-10.78 17.1-17.97 36.2-23.42 55.59-8.03 28.91-12.2 58.72-15.2 88.53-1.09.63-2.19 1.25-3.17 2.05-.7 1.41-.29 3.08-.46 4.63 2.68.56 5.36 1.14 8.05 1.71-4.23 30.75-8.32 61.52-12.49 92.28-63.85-32.28-122.66-74.47-173.72-124.6 11.1-42.39 10.26-87.84-2.29-129.82-18.38-62.16-63.26-115.82-121.11-145.01-17.43-8.95-35.98-15.65-55.07-20.03-19.78-65.58-29.6-134.1-29.37-202.58 59.24 1.3 118.81-14.62 169.23-45.81 47.5-28.95 86.91-70.94 112.97-120.08 37.1-69.24 46.2-152.74 25.36-228.44-12.67-46.95-36.74-90.71-69.31-126.8z"/><path fill="#E74043" stroke="#E74043" d="M1089.59 394.63c29.28-14.06 55.17-35.1 74.91-60.89 71.27 17.28 139.7 46.14 201.93 84.94 61.5 38.32 116.97 86.32 163.73 141.68-16.35 39.54-22.81 83.06-18.98 125.67 3.48 39.56 16.01 78.28 36.36 112.38 31.46 53.09 81.86 94.67 140.08 115.2 13.8 102.67 4.99 208.46-26.88 307.11-36.42-8.35-75.59-4.4-109.45 11.46-30.9 14.31-57.24 38.19-74.55 67.51-18.04 30.23-26.09 66.21-22.92 101.26 2.92 34.77 17.11 68.43 39.78 94.94-52.86 53.63-114.55 98.6-181.83 132.43-4.3-30.89-8.26-61.82-12.64-92.7 2.5-.54 5.09-.89 7.45-1.95 1.12-2.92-.7-5.44-3.46-6.29-3.95-38.05-9.45-76.41-23.02-112.38-6.91-18.02-16.11-35.5-29.34-49.72-10.61-11.49-24.11-20.39-39.05-25.11-13.86-4.51-28.61-5.35-43.06-4.41-8.86-14.73-19.92-28.3-33.56-38.84-13.9-10.86-30.52-17.99-47.84-21.16-.55-.16-1.66-.49-2.21-.65-.05-1.69-.08-3.35-.1-5 2.14 1.3 4.36 2.81 7 2.77 42.3 1.32 85.32-1.92 125.69-15.35 31.97-10.86 62.08-28.9 84.15-54.74 12.16-13.85 21.9-29.73 29.53-46.47 3.38-7.84 6.9-15.69 8.94-23.99-9.26 2.06-19.4 2.88-28.22-1.28-9.5-4.22-15.65-13.44-19.15-22.9-6.92-18.72-7.24-38.93-8.02-58.62 11.93-15.05 19.79-33.28 22.58-52.27 2.17-16.85.55-35.11-9.22-49.5-8.15-12.36-21.85-20.03-36.13-22.96 5.95-22.89 10.29-46.21 12.81-69.74 4.25-39.55 1.73-80.4-11.88-118.02-6.36-17.2-14.88-33.62-25.6-48.51-6.51-8.75-13.12-17.56-21.27-24.86 3.94-35.94 7.75-71.89 11.81-107.81.04-.49.13-1.47.17-1.96 1.27-2.05 1.41-4.47.75-6.74.05-.57.16-1.72.22-2.29 1.35-2.01 1.46-4.45.77-6.71.08-.8.23-2.4.31-3.19 1.19-1.78 1.32-3.94.72-5.94l.08-2.83c-13.95-6.01-28.07-11.65-42.41-16.66-.15-.05-.44-.15-.58-.2-.5-.18-1.5-.52-2-.7-.15-.05-.45-.15-.6-.21-1.92-.66-3.83-1.27-5.73-1.9-.11-.04-.34-.13-.46-.17l-.57-.2c-.67-.26-2-.78-2.66-1.04-.59-.15-1.76-.44-2.34-.59-.15-.05-.46-.14-.61-.19-.51-.17-1.52-.51-2.02-.68l-.32-.13-.29-.06c-.56-.12-1.68-.38-2.24-.5l-2.2-1.04-.87.1c-.54-.27-1.62-.8-2.16-1.06l-.88.1c-.54-.28-1.61-.83-2.15-1.1l-1.8.12c-.53-.29-1.58-.86-2.1-1.15l-.92.1c-.55-.27-1.64-.8-2.19-1.07-.45.03-1.35.08-1.8.11-.54-.28-1.6-.83-2.14-1.1l-.9.13c-.71-1.25-1.73-1.66-3.08-1.23l-.89.14c-.56-.25-1.67-.76-2.22-1.01-.45.01-1.35.04-1.8.05-.56-.27-1.66-.81-2.22-1.07-.45.03-1.36.11-1.81.15-.68-1.33-1.7-1.74-3.07-1.24l-1 .25c-.52-1.29-1.5-1.71-2.95-1.26-.45.01-1.34.05-1.78.06-.57-.24-1.71-.73-2.27-.97h-1.81c-.57-.23-1.71-.7-2.28-.94-.46.01-1.39.04-1.85.05-.75-1.23-1.8-1.62-3.17-1.17-.45.04-1.34.13-1.78.18-.74-1.23-1.79-1.62-3.16-1.17-.46.03-1.39.11-1.85.14-.77-1.23-1.84-1.59-3.21-1.08-.44.01-1.33.04-1.77.06-.97-1.36-2.67-1.59-4.14-1.08-.47-.01-1.41-.02-1.88-.03-1.09-.96-2.57-1.61-3.99-1.11l-1.06.18c-1.34-1.41-3.32-1.61-5.05-.93l-1.92-.16c-1.42-1.28-3.35-1.49-5.08-.85-.5-.04-1.49-.14-1.99-.19-1.71-1.33-3.89-1.47-5.88-.79l-.79-.09c-2.82-.48-5.66-.83-8.5-.97l-.57-.06c-3.14-.51-6.31-.85-9.49-.91-.39-.04-1.16-.1-1.55-.13-3.78-.53-7.58-.87-11.39-.86-.64-.03-1.94-.1-2.59-.14-6.51-.66-13.05-1.14-19.59-.75-4.29-.24-8.58-.21-12.86-.18-.12-21.03-.25-42.06.05-63.09 28.94-.79 57.7-7.72 83.79-20.28z"/><path fill="#F6AA32" stroke="#F6AA32" d="M194.45 404.59c58.33-23.92 123.98-29.26 185.5-15.63 62.98 13.78 121.17 47.93 164.24 95.85 32.57 36.09 56.64 79.85 69.31 126.8 20.84 75.7 11.74 159.2-25.36 228.44-26.06 49.14-65.47 91.13-112.97 120.08-50.42 31.19-109.99 47.11-169.23 45.81-64.54-1.08-128.5-22.98-180.14-61.71-51.18-38.03-90.3-92.07-110.15-152.69C5.56 761.04.43 728.96 0 696.85v-4.7c.27-34.3 5.99-68.58 17.31-100.98 11.49-33.07 28.65-64.15 50.45-91.54 33.18-41.81 77.23-74.93 126.69-95.04M438.03 541.5c-38.98 1.37-78 .65-116.99.86-55.69 0-111.37.04-167.06.04-7.27-.05-15.41 2.91-18.65 9.9-4.08 8.98-2.74 19.14-2.89 28.71-.11 47.65-2.05 95.34.1 142.99.56 10.2 1.14 20.45 3.13 30.5.75 2.89 1.25 6.13 3.38 8.39 2.51 2 5.78 2.63 8.83 3.35 7.93 1.57 16.04 2.04 24.1 2.46 28.76 1.29 57.55-.03 86.32-.47.17-10.19.04-20.37.04-30.55-33.78-.05-67.56-.1-101.34-.03-.08-1.56-.15-3.12-.18-4.66-.33-54.45-.63-108.91-.98-163.36 102.93-.62 205.87-.93 308.81-1.4-.01 56.46.12 112.92.07 169.37-5.61.24-11.26-.19-16.82.59-.33 9.76-.82 19.53-.75 29.3 10.54.93 21.63 2.22 31.79-1.54 6.22-2.2 10.92-7.64 12.6-13.96 2.98-10.77 1.78-22.08 1.39-33.08-1.41-21.95-.79-43.95-.8-65.93.13-28 .29-56 .02-84-.12-6.36-.78-13.18-4.65-18.48-3.73-5.04-10.01-7.21-15.97-8.16-11.08-1.69-22.34-1.05-33.5-.84m-118.98 82.12c-9.66.19-19.34-.23-28.99.29-5.79.46-12.21 1.25-16.56 5.51-4.01 4.1-4.82 10.09-5.32 15.55-.66 10.01-.17 20.05-.25 30.07.07 37.33.09 74.66-.08 111.99-.15 10.29-1.48 20.55-1.04 30.85.32 6.85 1.97 14.25 7.25 19.05 5.65 5.17 13.5 6.86 20.9 7.64 14.15 1.26 28.36-.39 42.37-2.34.1-8.14-.01-16.28-.08-24.42-15.22-.3-30.44-.52-45.66-.8-.15-56.26-.09-112.53-.26-168.79 38.51-.27 77.02-.34 115.53-.45.12 10.27-.31 20.55.18 30.81 8.08.49 16.14 1.32 24.21 1.87-.16-12.47.48-25-.88-37.42-.7-6.28-2.99-13.21-8.95-16.33-8.12-4.14-17.54-3.91-26.41-4.27-25.33-.08-50.64 1.13-75.96 1.19m49.55 64.12c-5.05.5-10.39 1.05-14.66 4.06-5.36 3.26-8.99 8.95-9.9 15.13-1.59 9.98.02 20.08-.01 30.11.1 27.33.17 54.66-.13 81.99.11 6.8.38 14.5 5.29 19.79 5.39 5.51 13.62 5.99 20.86 6.31 16.3.63 32.72 2.33 48.98.27 7.46-.94 15.41-4.41 18.57-11.71 4.12-9.27 3.82-19.69 4.07-29.62-.16-25.05-1.28-50.08-1.06-75.13-.05-8.14.37-16.38-1.19-24.42-1.01-5.04-3.46-10.09-7.92-12.92-5.73-3.76-12.85-3.8-19.45-4.09-14.48-.52-29-.96-43.45.23M140.57 805.53c-4.81 2.4-8.25 7.15-9.11 12.45-.99 6.11-.53 13.07 3.59 18.03 4.06 4.8 10.52 6.48 16.51 7.23 10.11 1.12 20.28.14 30.42.13 25.42-.11 50.86.06 76.28-.07-.03-13.79-.1-27.58-.17-41.36-31.04-.23-62.08.38-93.1-.49-8.24.08-16.92.26-24.42 4.08m307.11-2.98c-.03 13.3-.64 26.6-.51 39.91 10.02 1.05 20.47 2.18 30.25-.94 5.58-1.74 10.63-5.92 12.24-11.7 1.62-6.08 1.34-13.02-1.99-18.48-3.17-5.11-9.08-7.66-14.78-8.71-8.33-1.41-16.86-1.02-25.21-.08z"/><path fill="#24A6DF" stroke="#24A6DF" d="M1645.67 429.62c36.31-20.62 77.54-32.43 119.25-34.23 41.31-1.9 83.07 5.87 120.82 22.8 56.3 24.96 103.28 70.12 130.53 125.34 17.32 34.63 26.52 73.08 27.73 111.73v9.65c-.5 40.71-10.24 81.3-28.71 117.61-27.92 55.38-75.75 100.39-132.78 124.78-61.1 26.5-132.2 28.73-194.89 6.31-58.22-20.53-108.62-62.11-140.08-115.2-20.35-34.1-32.88-72.82-36.36-112.38-3.83-42.61 2.63-86.13 18.98-125.67 22.5-54.84 63.88-101.63 115.51-130.74m97.31 109.31c-4.9 1.4-8.14 6.01-9.59 10.67-3.7 12.44-7.45 24.87-11.18 37.31-5.66 18.21-10.6 36.66-16.79 54.7-1.79-4.38-2.63-9.5-6.41-12.71-4.66-3.87-11.9-4.37-16.95-.95-8.43 5.39-14.75 13.32-21.74 20.35-2.74 2.54-5.03 6.65-9.27 6.52-4.82.32-10.26-.46-14.17 3.04-6.64 4.55-7.59 14.69-2.32 20.64 3.02 4.35 8.44 5.81 13.48 5.86 6.42.05 13.25.69 19.25-2.11 5.93-2.81 8.69-9.45 14.43-12.53 3.32 9.49 4.07 19.65 7.15 29.21 1.37 4.21 3.18 8.52 6.55 11.54 4.32 3.89 11.1 3.45 15.95.82 5.04-2.96 7.26-8.76 8.93-14.05 5.52-20.3 11.74-40.41 18.28-60.39 2.75 42.42 5.52 84.83 8.57 127.23.76 5.63.21 12.07 4.07 16.71 4.79 6.06 14.56 6.86 20.43 1.92 4.06-3.15 5.22-8.42 6.97-12.98 6.61-19.2 12.71-38.57 19.24-57.8 3.76-10.9 6.46-22.21 11.42-32.67 4.59 9.46 8.88 19.12 14.51 28.03 3.67 5.79 11.95 7.47 17.92 4.45 3.26-1.64 5.8-4.48 7.38-7.75 3.22-6.53 6.89-12.85 9.61-19.62 17.11.23 34.32 1.19 51.37-.76 7.31-.43 13.13-7.46 12.88-14.64-.01-7.68-7.11-14.76-14.88-14.18-19.69.09-39.38-.07-59.06.08-6.49-.03-10.89 5.37-14.04 10.36-4.25-9.62-9.21-18.9-13.91-28.3-1.33-2.58-2.66-5.23-4.73-7.29-4.65-4.41-12.23-5.37-17.72-1.98-4.26 2.28-5.92 7.1-7.59 11.32-4.21 11.35-7.42 23.03-11.44 34.45-2.62 6.94-4.2 14.32-7.51 20.97-.51-5.76-.51-11.56-1.07-17.32-1.3-12.97-1.54-26.01-2.58-39-.79-14.4-2.28-28.73-3.06-43.12-.87-13.7-1.46-27.41-2.59-41.08-.35-4.75-2.16-9.62-5.9-12.71-3.8-3.18-9.29-3.77-13.89-2.24z"/><path fill="#A2D5E6" stroke="#A2D5E6" d="M981.76 478.93c7.97-.87 15.98-.97 23.99-.93 4.28-.03 8.57-.06 12.86.18l.83.06c-12.57-.16-25.12.78-37.68.69z"/><path fill="#F4CCCA" stroke="#F4CCCA" d="M1018.61 478.18c6.54-.39 13.08.09 19.59.75-6.26-.02-12.52-.2-18.76-.69l-.83-.06z"/><path fill="#9AAAC0" stroke="#9AAAC0" d="M966.72 479.93c3.48-.7 7.03-1.04 10.59-.82-3.49.69-7.04.99-10.59.82z"/><path fill="#00AFEF" stroke="#00AFEF" d="M977.31 479.11c1.47-.08 2.95-.13 4.45-.18 12.56.09 25.11-.85 37.68-.69 6.24.49 12.5.67 18.76.69.65.04 1.95.11 2.59.14 3.77.54 7.57.85 11.39.86.39.03 1.16.09 1.55.13 3.14.5 6.3.81 9.49.91l.57.06c2.8.48 5.64.82 8.5.97l.79.09c1.67 1.36 3.87 1.52 5.88.79.5.05 1.49.15 1.99.19 1.36 1.35 3.33 1.49 5.08.85l1.92.16c1.39 1.23 3.29 1.52 5.05.93l1.06-.18c.4 1.82 2.63 1.48 3.99 1.11.47.01 1.41.02 1.88.03.95 1.33 2.63 1.54 4.14 1.08.44-.02 1.33-.05 1.77-.06.78 1.14 1.85 1.5 3.21 1.08.46-.03 1.39-.11 1.85-.14.72 1.19 1.77 1.58 3.16 1.17.44-.05 1.33-.14 1.78-.18.72 1.19 1.78 1.58 3.17 1.17.46-.01 1.39-.04 1.85-.05.57.24 1.71.71 2.28.94h1.81c.56.24 1.7.73 2.27.97.44-.01 1.33-.05 1.78-.06.66 1.22 1.65 1.64 2.95 1.26l1-.25c.69 1.17 1.71 1.58 3.07 1.24.45-.04 1.36-.12 1.81-.15.56.26 1.66.8 2.22 1.07.45-.01 1.35-.04 1.8-.05.55.25 1.66.76 2.22 1.01l.89-.14c.67 1.23 1.7 1.64 3.08 1.23l.9-.13c.54.27 1.6.82 2.14 1.1.45-.03 1.35-.08 1.8-.11.55.27 1.64.8 2.19 1.07l.92-.1c.52.29 1.57.86 2.1 1.15l1.8-.12c.54.27 1.61.82 2.15 1.1l.88-.1c.54.26 1.62.79 2.16 1.06l.87-.1 2.2 1.04c.56.12 1.68.38 2.24.5.15.05.45.14.61.19.5.17 1.51.51 2.02.68l.32.12.29.07c.58.15 1.75.44 2.34.59.66.26 1.99.78 2.66 1.04l.57.2c.12.04.35.13.46.17 1.9.63 3.81 1.24 5.73 1.9.15.06.45.16.6.21.5.18 1.5.52 2 .7.14.05.43.15.58.2 14.34 5.01 28.46 10.65 42.41 16.66l-.08 2.83c-1.44 1.68-1.57 3.93-.72 5.94-.08.79-.23 2.39-.31 3.19-1.42 1.99-1.51 4.44-.77 6.71-.06.57-.17 1.72-.22 2.29-1.47 1.98-1.55 4.46-.75 6.74-.04.49-.13 1.47-.17 1.96-.27 2.26-.59 4.52-.85 6.79-35.21-14.61-71.58-26.57-108.93-34.38-51.83-11-105.32-14.28-158.1-9.38-57.43 5.18-113.73 20.08-167.08 41.74-.45-3.55-.84-7.1-1.17-10.66.77-2 .64-4.22-.67-5.94l-.32-3.18c.8-2.26.73-4.73-.71-6.7l-.28-2.31c.4-2.24.72-4.62-.34-6.73 45.96-19.37 94.07-34.08 143.49-41.22 1.71.7 3.65.49 5.05-.8 3.31-.41 6.61-.89 9.94-1.23 1.71.68 3.65.51 5.09-.73 1.34-.09 2.69-.18 4.05-.26 2.25.73 4.7.62 6.71-.75.72-.05 2.16-.14 2.88-.19 3.55.17 7.1-.13 10.59-.82z"/><path fill="#E6E7E8" stroke="#E6E7E8" d="M1040.79 479.07c3.81-.01 7.61.33 11.39.86-3.82-.01-7.62-.32-11.39-.86z"/><path fill="#8FACC6" stroke="#8FACC6" d="M957.13 480.87c1.99-1.4 4.43-1.47 6.71-.75-2.01 1.37-4.46 1.48-6.71.75z"/><path fill="#E6E7E8" stroke="#E6E7E8" d="M1053.73 480.06c3.18.06 6.35.4 9.49.91-3.19-.1-6.35-.41-9.49-.91z"/><path fill="#9BA8BE" stroke="#9BA8BE" d="M947.99 481.86c1.4-1.29 3.35-1.46 5.09-.73-1.44 1.24-3.38 1.41-5.09.73z"/><path fill="#E6E7E8" stroke="#E6E7E8" d="M1063.79 481.03c2.84.14 5.68.49 8.5.97-2.86-.15-5.7-.49-8.5-.97z"/><path fill="#A1A7BE" stroke="#A1A7BE" d="M1073.08 482.09c1.99-.68 4.17-.54 5.88.79-2.01.73-4.21.57-5.88-.79z"/><path fill="#85AAC6" stroke="#85AAC6" d="M933 483.89c1.38-1.28 3.31-1.47 5.05-.8-1.4 1.29-3.34 1.5-5.05.8z"/><path fill="#AAA4B9" stroke="#AAA4B9" d="M1080.95 483.07c1.73-.64 3.66-.43 5.08.85-1.75.64-3.72.5-5.08-.85z"/><path fill="#B59BAC" stroke="#B59BAC" d="M1087.95 484.08c1.73-.68 3.71-.48 5.05.93-1.76.59-3.66.3-5.05-.93z"/><path fill="#A0AAC1" stroke="#A0AAC1" d="M1094.06 484.83c1.42-.5 2.9.15 3.99 1.11-1.36.37-3.59.71-3.99-1.11z"/><path fill="#AAA3B8" stroke="#AAA3B8" d="M1099.93 485.97c1.47-.51 3.17-.28 4.14 1.08-1.51.46-3.19.25-4.14-1.08z"/><path fill="#B3A3B6" stroke="#B3A3B6" d="M1105.84 486.99c1.37-.51 2.44-.15 3.21 1.08-1.36.42-2.43.06-3.21-1.08z"/><path fill="#B0A4B7" stroke="#B0A4B7" d="M1110.9 487.93c1.37-.45 2.42-.06 3.16 1.17-1.39.41-2.44.02-3.16-1.17z"/><path fill="#B69EAF" stroke="#B69EAF" d="M1115.84 488.92c1.37-.45 2.42-.06 3.17 1.17-1.39.41-2.45.02-3.17-1.17z"/><path fill="#B2A7B9" stroke="#B2A7B9" d="M1120.86 490.04z"/><path fill="#97B2CC" stroke="#97B2CC" d="M1124.95 490.98c.56.24 1.7.73 2.27.97-.57-.24-1.71-.73-2.27-.97z"/><path fill="#9CA7BF" stroke="#9CA7BF" d="M1129 491.89c1.45-.45 2.43-.03 2.95 1.26-1.3.38-2.29-.04-2.95-1.26z"/><path fill="#90AAC6" stroke="#90AAC6" d="M1132.95 492.9c1.37-.5 2.39-.09 3.07 1.24-1.36.34-2.38-.07-3.07-1.24z"/><path fill="#B69FB0" stroke="#B69FB0" d="M1137.83 493.99c.56.26 1.66.8 2.22 1.07-.56-.27-1.66-.81-2.22-1.07z"/><path fill="#B99BAC" stroke="#B99BAC" d="M1141.85 495.01c.55.25 1.66.76 2.22 1.01-.56-.25-1.67-.76-2.22-1.01z"/><path fill="#A1A0B7" stroke="#A1A0B7" d="M1144.96 495.88c1.35-.43 2.37-.02 3.08 1.23-1.38.41-2.41 0-3.08-1.23z"/><path fill="#9BABC3" stroke="#9BABC3" d="M1148.94 496.98c.54.27 1.6.82 2.14 1.1-.54-.28-1.6-.83-2.14-1.1z"/><path fill="#B799AB" stroke="#B799AB" d="M1152.88 497.97c.55.27 1.64.8 2.19 1.07-.55-.27-1.64-.8-2.19-1.07z"/><path fill="#8FACC8" stroke="#8FACC8" d="M1155.99 498.94c.52.29 1.57.86 2.1 1.15-.53-.29-1.58-.86-2.1-1.15z"/><path fill="#BA95A6" stroke="#BA95A6" d="M1159.89 499.97z"/><path fill="#A2A3B9" stroke="#A2A3B9" d="M1162.92 500.97z"/><path fill="#8BABC8" stroke="#8BABC8" d="M1165.95 501.93l2.2 1.04-2.2-1.04z"/><path fill="#A9A4B9" stroke="#A9A4B9" d="M1170.39 503.47l.29.06.32.13c-.16-.05-.46-.14-.61-.19z"/><path fill="#9EA9C1" stroke="#9EA9C1" d="M1173.02 504.34c.15.05.46.14.61.19l-.29-.07-.32-.12z"/><path fill="#B790A1" stroke="#B790A1" d="M1175.97 505.12z"/><path fill="#92ADC9" stroke="#92ADC9" d="M1179.2 506.36c.12.04.35.13.46.17-.11-.04-.34-.13-.46-.17z"/><path fill="#99A9C1" stroke="#99A9C1" d="M1185.39 508.43c.15.06.45.16.6.21-.15-.05-.45-.15-.6-.21z"/><path fill="#A4A3B9" stroke="#A4A3B9" d="M1187.99 509.34z"/><path fill="#FEFEFE" stroke="#FEFEFE" d="M960.08 518.89c52.78-4.9 106.27-1.62 158.1 9.38 37.35 7.81 73.72 19.77 108.93 34.38.26-2.27.58-4.53.85-6.79-4.06 35.92-7.87 71.87-11.81 107.81-1.43 13.32-2.93 26.62-4.32 39.94-134.25-9.19-269.05-8.72-403.35-.9-2.44-22.38-4.86-44.76-7.31-67.14-2.72-24.98-5.41-49.96-8.17-74.94 53.35-21.66 109.65-36.56 167.08-41.74m28.27 44.15c-.15 4.57-.01 9.15.01 13.73-6.13.24-12.27-.05-18.4.13-3.76-.18-6.83 3.44-6.45 7.11.01 10.3-.06 20.62.03 30.93-.16 3.46 2.97 6.55 6.42 6.45 6.11.12 12.23-.03 18.35.04.08 4.83-.17 9.68.09 14.51.24 3.22 3.33 5.84 6.55 5.66 10.35.05 20.71.03 31.07.01 3.17.22 6.37-2.2 6.72-5.42.34-4.9.03-9.83.12-14.73 6.09-.12 12.18.05 18.27-.07 3.44.14 6.62-2.9 6.51-6.37.09-10.36.02-20.72.03-31.08.3-3.32-2.23-6.75-5.64-6.97-6.4-.33-12.81.08-19.2-.2 0-4.57.15-9.15 0-13.72.13-3.59-3.24-6.66-6.79-6.39-10.32-.04-20.64-.05-30.96.01-3.53-.25-6.86 2.8-6.73 6.37z"/><path fill="#84A7C3" stroke="#84A7C3" d="M789.14 525.26l.37-.15c1.06 2.11.74 4.49.34 6.73-1.05-2.04-1.71-4.39-.71-6.58z"/><path fill="#7E9EBE" stroke="#7E9EBE" d="M1230.18 534.97c-.85-2.01-.72-4.26.72-5.94.6 2 .47 4.16-.72 5.94z"/><path fill="#79A9C9" stroke="#79A9C9" d="M790.13 534.15c1.44 1.97 1.51 4.44.71 6.7-1.31-2.03-1.39-4.45-.71-6.7z"/><path fill="#8697B5" stroke="#8697B5" d="M1229.1 544.87c-.74-2.27-.65-4.72.77-6.71.69 2.26.58 4.7-.77 6.71z"/><path fill="#FEFEFE" stroke="#FEFEFE" d="M1742.98 538.93c4.6-1.53 10.09-.94 13.89 2.24 3.74 3.09 5.55 7.96 5.9 12.71 1.13 13.67 1.72 27.38 2.59 41.08.78 14.39 2.27 28.72 3.06 43.12 1.04 12.99 1.28 26.03 2.58 39 .56 5.76.56 11.56 1.07 17.32 3.31-6.65 4.89-14.03 7.51-20.97 4.02-11.42 7.23-23.1 11.44-34.45 1.67-4.22 3.33-9.04 7.59-11.32 5.49-3.39 13.07-2.43 17.72 1.98 2.07 2.06 3.4 4.71 4.73 7.29 4.7 9.4 9.66 18.68 13.91 28.3 3.15-4.99 7.55-10.39 14.04-10.36 19.68-.15 39.37.01 59.06-.08 7.77-.58 14.87 6.5 14.88 14.18.25 7.18-5.57 14.21-12.88 14.64-17.05 1.95-34.26.99-51.37.76-2.72 6.77-6.39 13.09-9.61 19.62-1.58 3.27-4.12 6.11-7.38 7.75-5.97 3.02-14.25 1.34-17.92-4.45-5.63-8.91-9.92-18.57-14.51-28.03-4.96 10.46-7.66 21.77-11.42 32.67-6.53 19.23-12.63 38.6-19.24 57.8-1.75 4.56-2.91 9.83-6.97 12.98-5.87 4.94-15.64 4.14-20.43-1.92-3.86-4.64-3.31-11.08-4.07-16.71-3.05-42.4-5.82-84.81-8.57-127.23-6.54 19.98-12.76 40.09-18.28 60.39-1.67 5.29-3.89 11.09-8.93 14.05-4.85 2.63-11.63 3.07-15.95-.82-3.37-3.02-5.18-7.33-6.55-11.54-3.08-9.56-3.83-19.72-7.15-29.21-5.74 3.08-8.5 9.72-14.43 12.53-6 2.8-12.83 2.16-19.25 2.11-5.04-.05-10.46-1.51-13.48-5.86-5.27-5.95-4.32-16.09 2.32-20.64 3.91-3.5 9.35-2.72 14.17-3.04 4.24.13 6.53-3.98 9.27-6.52 6.99-7.03 13.31-14.96 21.74-20.35 5.05-3.42 12.29-2.92 16.95.95 3.78 3.21 4.62 8.33 6.41 12.71 6.19-18.04 11.13-36.49 16.79-54.7 3.73-12.44 7.48-24.87 11.18-37.31 1.45-4.66 4.69-9.27 9.59-10.67zM438.03 541.5c11.16-.21 22.42-.85 33.5.84 5.96.95 12.24 3.12 15.97 8.16 3.87 5.3 4.53 12.12 4.65 18.48.27 28 .11 56-.02 84 .01 21.98-.61 43.98.8 65.93.39 11 1.59 22.31-1.39 33.08-1.68 6.32-6.38 11.76-12.6 13.96-10.16 3.76-21.25 2.47-31.79 1.54-.07-9.77.42-19.54.75-29.3 5.56-.78 11.21-.35 16.82-.59.05-56.45-.08-112.91-.07-169.37-102.94.47-205.88.78-308.81 1.4.35 54.45.65 108.91.98 163.36.03 1.54.1 3.1.18 4.66 33.78-.07 67.56-.02 101.34.03 0 10.18.13 20.36-.04 30.55-28.77.44-57.56 1.76-86.32.47-8.06-.42-16.17-.89-24.1-2.46-3.05-.72-6.32-1.35-8.83-3.35-2.13-2.26-2.63-5.5-3.38-8.39-1.99-10.05-2.57-20.3-3.13-30.5-2.15-47.65-.21-95.34-.1-142.99.15-9.57-1.19-19.73 2.89-28.71 3.24-6.99 11.38-9.95 18.65-9.9 55.69 0 111.37-.04 167.06-.04 38.99-.21 78.01.51 116.99-.86z"/><path fill="#81A8C6" stroke="#81A8C6" d="M791.16 544.03c1.31 1.72 1.44 3.94.67 5.94-1.27-1.76-1.4-3.95-.67-5.94z"/><path fill="#819AB9" stroke="#819AB9" d="M1228.13 553.9c-.8-2.28-.72-4.76.75-6.74.66 2.27.52 4.69-.75 6.74z"/><path fill="#ED3237" stroke="#ED3237" d="M988.35 563.04c-.13-3.57 3.2-6.62 6.73-6.37 10.32-.06 20.64-.05 30.96-.01 3.55-.27 6.92 2.8 6.79 6.39.15 4.57 0 9.15 0 13.72 6.39.28 12.8-.13 19.2.2 3.41.22 5.94 3.65 5.64 6.97-.01 10.36.06 20.72-.03 31.08.11 3.47-3.07 6.51-6.51 6.37-6.09.12-12.18-.05-18.27.07-.09 4.9.22 9.83-.12 14.73-.35 3.22-3.55 5.64-6.72 5.42-10.36.02-20.72.04-31.07-.01-3.22.18-6.31-2.44-6.55-5.66-.26-4.83-.01-9.68-.09-14.51-6.12-.07-12.24.08-18.35-.04-3.45.1-6.58-2.99-6.42-6.45-.09-10.31-.02-20.63-.03-30.93-.38-3.67 2.69-7.29 6.45-7.11 6.13-.18 12.27.11 18.4-.13-.02-4.58-.16-9.16-.01-13.73z"/><path fill="#FEFEFE" stroke="#FEFEFE" d="M319.05 623.62c25.32-.06 50.63-1.27 75.96-1.19 8.87.36 18.29.13 26.41 4.27 5.96 3.12 8.25 10.05 8.95 16.33 1.36 12.42.72 24.95.88 37.42-8.07-.55-16.13-1.38-24.21-1.87-.49-10.26-.06-20.54-.18-30.81-38.51.11-77.02.18-115.53.45.17 56.26.11 112.53.26 168.79 15.22.28 30.44.5 45.66.8.07 8.14.18 16.28.08 24.42-14.01 1.95-28.22 3.6-42.37 2.34-7.4-.78-15.25-2.47-20.9-7.64-5.28-4.8-6.93-12.2-7.25-19.05-.44-10.3.89-20.56 1.04-30.85.17-37.33.15-74.66.08-111.99.08-10.02-.41-20.06.25-30.07.5-5.46 1.31-11.45 5.32-15.55 4.35-4.26 10.77-5.05 16.56-5.51 9.65-.52 19.33-.1 28.99-.29z"/><path fill="#D53C13" stroke="#D53C13" d="M741.88 696.99c15.46-24.1 35.74-45.12 59.29-61.42 2.45 22.38 4.87 44.76 7.31 67.14 134.3-7.82 269.1-8.29 403.35.9 1.39-13.32 2.89-26.62 4.32-39.94 8.15 7.3 14.76 16.11 21.27 24.86 10.72 14.89 19.24 31.31 25.6 48.51 13.61 37.62 16.13 78.47 11.88 118.02-2.52 23.53-6.86 46.85-12.81 69.74-14.55-5.42-27.45-14.64-38.86-25.04-22.66-21.22-38.73-48.39-51.72-76.33-8.75-18.9-16.09-38.42-22.77-58.13-3.23-9.1-5.68-18.47-9.08-27.5-21.86 21.91-45.13 42.49-70.09 60.81-22.24 16.23-45.89 30.7-71.2 41.64-29.97 13.14-62.45 21.19-95.27 21.36 10.74-13.28 21.61-26.63 29.75-41.72 5.53-10.25 10.06-21.45 10.37-33.25-19.94 22.2-40.55 43.89-63.19 63.38-25.06 21.68-52.29 41.12-82.08 55.78-27.54 13.57-57.38 22.91-88.04 25.65-7.53-46.37-10.35-93.99-2.78-140.55 5.39-33.13 16.49-65.61 34.75-93.91z"/><path fill="#FEFEFE" stroke="#FEFEFE" d="M368.6 687.74c14.45-1.19 28.97-.75 43.45-.23 6.6.29 13.72.33 19.45 4.09 4.46 2.83 6.91 7.88 7.92 12.92 1.56 8.04 1.14 16.28 1.19 24.42-.22 25.05.9 50.08 1.06 75.13-.25 9.93.05 20.35-4.07 29.62-3.16 7.3-11.11 10.77-18.57 11.71-16.26 2.06-32.68.36-48.98-.27-7.24-.32-15.47-.8-20.86-6.31-4.91-5.29-5.18-12.99-5.29-19.79.3-27.33.23-54.66.13-81.99.03-10.03-1.58-20.13.01-30.11.91-6.18 4.54-11.87 9.9-15.13 4.27-3.01 9.61-3.56 14.66-4.06m-4.79 12.5c1 1.88 1.68 4.16 3.57 5.38 2.09.84 4.43.59 6.65.64 8.99-.29 18-.51 27-.26 7.3.06 14.77.3 21.85-1.78-.31-2.14-.57-4.28-.8-6.42-10.85-2.8-22.06-.62-33.08-1.27-8.48-.39-17.73-1.22-25.19 3.71m-7.7 17.41c.09 29.75.03 59.49.03 89.24 24.46-.03 48.92.34 73.37-.03.1-29.79.13-59.58-.03-89.37-24.46.13-48.91-.08-73.37.16m32.76 102.21c-4.15 3.8-4.66 9.88-4.33 15.17 2.73 1.31 5.32 3.1 8.34 3.67 3.58.12 6.74-1.93 10.03-3.05.34-5.55.01-12.08-4.44-16.04-2.65-2.48-7.04-2.25-9.6.25z"/><path fill="#F6AA32" stroke="#F6AA32" d="M363.81 700.24c7.46-4.93 16.71-4.1 25.19-3.71 11.02.65 22.23-1.53 33.08 1.27.23 2.14.49 4.28.8 6.42-7.08 2.08-14.55 1.84-21.85 1.78-9-.25-18.01-.03-27 .26-2.22-.05-4.56.2-6.65-.64-1.89-1.22-2.57-3.5-3.57-5.38zM356.11 717.65c24.46-.24 48.91-.03 73.37-.16.16 29.79.13 59.58.03 89.37-24.45.37-48.91 0-73.37.03 0-29.75.06-59.49-.03-89.24z"/><path fill="#EEBB6A" stroke="#EEBB6A" d="M1139.66 737.8c3.4 9.03 5.85 18.4 9.08 27.5 6.68 19.71 14.02 39.23 22.77 58.13 12.99 27.94 29.06 55.11 51.72 76.33 11.41 10.4 24.31 19.62 38.86 25.04 14.28 2.93 27.98 10.6 36.13 22.96 9.77 14.39 11.39 32.65 9.22 49.5-2.79 18.99-10.65 37.22-22.58 52.27-9.2 11.26-21.09 20.85-35.19 25.08-4.04 1.21-8.23 1.82-12.38 2.51-8.95 34.99-23.44 68.98-45.41 97.84-17.91 23.68-40.82 43.47-66.55 58.24-12.92 7.47-26.53 13.71-40.49 18.98-6.55 2.57-13.18 4.94-19.98 6.74-3.38.83-6.75 2.15-9.06 4.89-14.53 15.12-35.33 24.98-56.58 23.3.11-36.75.15-73.5-.04-110.25 7.96-.42 14.75-5.15 20.83-9.88 12.88-10.35 24.01-22.64 35.24-34.7 3.59-3.76 6.67-8.14 11.12-10.97 3.73-2.42 7.26-5.51 9-9.7 1.3-3.12.99-7.1-1.6-9.47-2.96-2.84-7.4-3.2-11.25-2.57-4.89.75-9.2 3.33-13.37 5.85-16.57-4.16-33.64-6.38-50.72-6.5 1.37-4.55.82-9.31.86-13.97.04-79.98-.05-159.97.05-239.95-.07-1.63-.64-3.19-.97-4.75 25.31-10.94 48.96-25.41 71.2-41.64 24.96-18.32 48.23-38.9 70.09-60.81m-32.02 166.98c-4.43.58-9.38.85-12.89 3.97-3.25 3.01-3.15 8.15-1.42 11.95 1.06 2.61 3.7 5.06 6.74 4.18 16.98-3.1 34.51.82 49.87 8.24 2.43 1.04 5.13 2.99 7.85 1.6 5.07-2.52 7.58-9.88 4.12-14.64-2.6-3.6-6.8-5.46-10.63-7.4-13.43-6.64-28.72-9.56-43.64-7.9m146.67 45.67c-8.34 2.06-15.17 9.84-15.38 18.55-.07 3.54-.21 7.74 2.68 10.33 6 5.91 11.69 13 12.8 21.63 1.06 8.23-3 16.19-8.37 22.15-1.66 1.98-4.04 3.61-4.62 6.27-1.11 4.64-.06 10.2 3.94 13.19 6.06 3.94 14.3 2.96 20.05-1.11 4.14-2.6 6.6-6.95 9.19-10.94 5.81-9.08 10.49-19.1 11.92-29.87 2.46-15.58-3.55-31.23-12.62-43.68-4.59-5.71-12.48-8.37-19.59-6.52m-118.65 9.15c-3.33 3.42-6.1 7.35-9.37 10.83-4.21-.59-8.59-.43-12.53 1.29-8.04 3.19-13.66 11.58-13.43 20.25-.07 8.37 5.3 16.43 13 19.7 8.11 3.66 18.34 1.61 24.39-4.93 4.56-4.61 6.38-11.25 6-17.61 3.99-1.22 8.12-2.04 11.99-3.62 2.16-1.43.94-5.41-1.72-5.1-3.96.71-7.75 2.1-11.58 3.27-.71-1.19-1.42-2.38-2.1-3.54 3.08-2.86 6.53-5.34 9.37-8.46 1.52-2.18-1.31-5.33-3.61-3.97-3.34 2.33-6.19 5.28-9.26 7.93a309.82 309.82 0 0 0-4.64-3.07c2.5-3.31 5.51-6.22 7.85-9.64 1.79-2.54-2.38-5.71-4.36-3.33z"/><path fill="#F1D292" stroke="#F1D292" d="M880.03 850.02c22.64-19.49 43.25-41.18 63.19-63.38-.31 11.8-4.84 23-10.37 33.25-8.14 15.09-19.01 28.44-29.75 41.72 32.82-.17 65.3-8.22 95.27-21.36.33 1.56.9 3.12.97 4.75-.1 79.98-.01 159.97-.05 239.95-.04 4.66.51 9.42-.86 13.97-16.36.41-32.73 2.41-48.59 6.52-5.14-3.09-10.71-6.25-16.9-6.12-3.96-.08-8.42 1.87-9.76 5.86-1.31 4.02.74 8.22 3.4 11.21 2.81 3.31 6.92 5.09 9.98 8.13 13.13 14.15 25.86 28.81 40.75 41.18 6.4 5.11 13.41 10.44 21.87 11.16.19 36.75.15 73.5.04 110.25-11.18.26-22.52-1.81-32.52-6.91-8.06-4.14-15.31-9.79-21.58-16.31-2.28-2.8-5.52-4.4-9.08-4.71 24.51 25.42 49 50.88 73.52 76.3 21.24 22.25 42.83 44.17 63.91 66.57-24.65 35.17-49.41 70.26-74.03 105.46-42.09-59.27-83.57-118.98-125.52-178.35 12.24-.45 24.51-.35 36.73-1.19.01-6.9.05-13.8.2-20.68.12-11.93.25-23.85.37-35.77-.03-7.11.22-14.21.09-21.31-32.25-12.42-62.28-31.25-86.23-56.29-31.22-32.26-50.72-74.11-61.87-117.2-18.59-1.11-35.87-10.99-47.57-25.25-17.16-20.89-25.33-48.57-23.91-75.43.93-16.24 6.21-33.06 18.18-44.59 30.66-2.74 60.5-12.08 88.04-25.65 29.79-14.66 57.02-34.1 82.08-55.78m-3.45 54.7c-11.87 1.2-23.41 5.23-33.65 11.32-3.78 2.23-7.05 6.47-5.83 11.1.78 4.55 5.48 9.97 10.44 7.34 16.03-8.03 34.36-12.92 52.31-9.66 5.22 1.51 8.29-4.51 8.39-8.84.62-4.63-2.87-8.77-7.26-9.76-7.94-2.01-16.27-2.22-24.4-1.5m-139.26 45.66c-3.52.97-6.87 2.79-9.4 5.45-7.68 9.81-13.22 21.67-13.98 34.24-1.24 16.34 6.17 31.78 15.18 44.92 4.24 6.49 12.01 11 19.89 9.98 4.94-.52 9.73-4.25 10.53-9.3.6-3.67.23-7.96-2.77-10.52-6.56-6.37-11.71-15.35-10.34-24.78 1.38-8.12 6.57-15.04 12.42-20.58 3.02-2.68 3.28-7.09 3.1-10.84-.69-11.75-13-21.54-24.63-18.57m123.04 12.48c2.3 3.45 5.39 6.31 7.81 9.7-1.5 1.01-2.98 2.04-4.43 3.09-3.29-2.63-6.17-5.76-9.66-8.12-2.46-.95-5 2.39-3.15 4.38 2.8 2.98 6.14 5.41 9.12 8.22-.62 1.15-1.23 2.31-1.83 3.5-4.08-1.07-8.05-2.62-12.22-3.27-2.33.3-3.3 3.52-1.46 5.04 3.89 1.72 8.14 2.45 12.19 3.76-.36 5.78 1.04 11.8 4.84 16.3 5.61 7.11 15.89 9.93 24.35 6.68 7.61-2.72 13.32-10.03 14.06-18.09.97-8.18-3.26-16.62-10.32-20.81-4.63-2.95-10.32-3.6-15.66-2.85-3.21-3.6-6.04-7.53-9.43-10.96-2.05-2.09-5.85 1.03-4.21 3.43z"/><path fill="#FEFEFE" stroke="#FEFEFE" d="M140.57 805.53c7.5-3.82 16.18-4 24.42-4.08 31.02.87 62.06.26 93.1.49.07 13.78.14 27.57.17 41.36-25.42.13-50.86-.04-76.28.07-10.14.01-20.31.99-30.42-.13-5.99-.75-12.45-2.43-16.51-7.23-4.12-4.96-4.58-11.92-3.59-18.03.86-5.3 4.3-10.05 9.11-12.45m8.59 9.76c-1.05 1.38-1.63 3.06-2.39 4.62 5.2 5.56 13.3 5.21 20.26 4.73 11.99-.87 24.03.44 36.01-.5 1.32-1.39 2.02-3.22 2.97-4.84-3.1-3.91-8.36-4.64-12.99-5.24-11.31-1.21-22.69-.33-34.02.03-3.29.23-6.69.09-9.84 1.2zM447.68 802.55c8.35-.94 16.88-1.33 25.21.08 5.7 1.05 11.61 3.6 14.78 8.71 3.33 5.46 3.61 12.4 1.99 18.48-1.61 5.78-6.66 9.96-12.24 11.7-9.78 3.12-20.23 1.99-30.25.94-.13-13.31.48-26.61.51-39.91z"/><path fill="#F6AA32" stroke="#F6AA32" d="M149.16 815.29c3.15-1.11 6.55-.97 9.84-1.2 11.33-.36 22.71-1.24 34.02-.03 4.63.6 9.89 1.33 12.99 5.24-.95 1.62-1.65 3.45-2.97 4.84-11.98.94-24.02-.37-36.01.5-6.96.48-15.06.83-20.26-4.73.76-1.56 1.34-3.24 2.39-4.62zM388.87 819.86c2.56-2.5 6.95-2.73 9.6-.25 4.45 3.96 4.78 10.49 4.44 16.04-3.29 1.12-6.45 3.17-10.03 3.05-3.02-.57-5.61-2.36-8.34-3.67-.33-5.29.18-11.37 4.33-15.17z"/><path fill="#411605" stroke="#411605" d="M876.58 904.72c8.13-.72 16.46-.51 24.4 1.5 4.39.99 7.88 5.13 7.26 9.76-.1 4.33-3.17 10.35-8.39 8.84-17.95-3.26-36.28 1.63-52.31 9.66-4.96 2.63-9.66-2.79-10.44-7.34-1.22-4.63 2.05-8.87 5.83-11.1 10.24-6.09 21.78-10.12 33.65-11.32zM1107.64 904.78c14.92-1.66 30.21 1.26 43.64 7.9 3.83 1.94 8.03 3.8 10.63 7.4 3.46 4.76.95 12.12-4.12 14.64-2.72 1.39-5.42-.56-7.85-1.6-15.36-7.42-32.89-11.34-49.87-8.24-3.04.88-5.68-1.57-6.74-4.18-1.73-3.8-1.83-8.94 1.42-11.95 3.51-3.12 8.46-3.39 12.89-3.97z"/><path fill="#E7BA67" stroke="#E7BA67" d="M737.32 950.38c11.63-2.97 23.94 6.82 24.63 18.57.18 3.75-.08 8.16-3.1 10.84-5.85 5.54-11.04 12.46-12.42 20.58-1.37 9.43 3.78 18.41 10.34 24.78 3 2.56 3.37 6.85 2.77 10.52-.8 5.05-5.59 8.78-10.53 9.3-7.88 1.02-15.65-3.49-19.89-9.98-9.01-13.14-16.42-28.58-15.18-44.92.76-12.57 6.3-24.43 13.98-34.24 2.53-2.66 5.88-4.48 9.4-5.45z"/><path fill="#D6A060" stroke="#D6A060" d="M1254.31 950.45c7.11-1.85 15 .81 19.59 6.52 9.07 12.45 15.08 28.1 12.62 43.68-1.43 10.77-6.11 20.79-11.92 29.87-2.59 3.99-5.05 8.34-9.19 10.94-5.75 4.07-13.99 5.05-20.05 1.11-4-2.99-5.05-8.55-3.94-13.19.58-2.66 2.96-4.29 4.62-6.27 5.37-5.96 9.43-13.92 8.37-22.15-1.11-8.63-6.8-15.72-12.8-21.63-2.89-2.59-2.75-6.79-2.68-10.33.21-8.71 7.04-16.49 15.38-18.55z"/><path fill="#411605" stroke="#411605" d="M860.36 962.86c-1.64-2.4 2.16-5.52 4.21-3.43 3.39 3.43 6.22 7.36 9.43 10.96 5.34-.75 11.03-.1 15.66 2.85 7.06 4.19 11.29 12.63 10.32 20.81-.74 8.06-6.45 15.37-14.06 18.09-8.46 3.25-18.74.43-24.35-6.68-3.8-4.5-5.2-10.52-4.84-16.3-4.05-1.31-8.3-2.04-12.19-3.76-1.84-1.52-.87-4.74 1.46-5.04 4.17.65 8.14 2.2 12.22 3.27.6-1.19 1.21-2.35 1.83-3.5-2.98-2.81-6.32-5.24-9.12-8.22-1.85-1.99.69-5.33 3.15-4.38 3.49 2.36 6.37 5.49 9.66 8.12 1.45-1.05 2.93-2.08 4.43-3.09-2.42-3.39-5.51-6.25-7.81-9.7zM1135.66 959.6c1.98-2.38 6.15.79 4.36 3.33-2.34 3.42-5.35 6.33-7.85 9.64 1.55 1 3.09 2.03 4.64 3.07 3.07-2.65 5.92-5.6 9.26-7.93 2.3-1.36 5.13 1.79 3.61 3.97-2.84 3.12-6.29 5.6-9.37 8.46.68 1.16 1.39 2.35 2.1 3.54 3.83-1.17 7.62-2.56 11.58-3.27 2.66-.31 3.88 3.67 1.72 5.1-3.87 1.58-8 2.4-11.99 3.62.38 6.36-1.44 13-6 17.61-6.05 6.54-16.28 8.59-24.39 4.93-7.7-3.27-13.07-11.33-13-19.7-.23-8.67 5.39-17.06 13.43-20.25 3.94-1.72 8.32-1.88 12.53-1.29 3.27-3.48 6.04-7.41 9.37-10.83z"/><path fill="#D53C13" stroke="#D53C13" d="M1249.67 1074.61c14.1-4.23 25.99-13.82 35.19-25.08.78 19.69 1.1 39.9 8.02 58.62 3.5 9.46 9.65 18.68 19.15 22.9 8.82 4.16 18.96 3.34 28.22 1.28-2.04 8.3-5.56 16.15-8.94 23.99-7.63 16.74-17.37 32.62-29.53 46.47-22.07 25.84-52.18 43.88-84.15 54.74-40.37 13.43-83.39 16.67-125.69 15.35-2.64.04-4.86-1.47-7-2.77-.06-5.98-.17-11.96-.1-17.93 13.96-5.27 27.57-11.51 40.49-18.98 25.73-14.77 48.64-34.56 66.55-58.24 21.97-28.86 36.46-62.85 45.41-97.84 4.15-.69 8.34-1.3 12.38-2.51zM707.79 1107.67c6.52-17.97 6.99-37.32 7.85-56.2 11.7 14.26 28.98 24.14 47.57 25.25 11.15 43.09 30.65 84.94 61.87 117.2 23.95 25.04 53.98 43.87 86.23 56.29.13 7.1-.12 14.2-.09 21.31-1.95.52-3.89 1.09-5.83 1.64-33.61.45-67.51-1.21-100.26-9.3-31.79-7.51-62.58-21.15-87.59-42.45-27.5-23.09-46.84-54.94-57.51-89.03 9.74 1.98 20.44 2.87 29.56-1.85 9.11-4.5 14.77-13.63 18.2-22.86z"/><path fill="#FD4627" stroke="#FD4627" d="M923.18 1105.18c1.34-3.99 5.8-5.94 9.76-5.86 6.19-.13 11.76 3.03 16.9 6.12 15.86-4.11 32.23-6.11 48.59-6.52 17.08.12 34.15 2.34 50.72 6.5 4.17-2.52 8.48-5.1 13.37-5.85 3.85-.63 8.29-.27 11.25 2.57 2.59 2.37 2.9 6.35 1.6 9.47-1.74 4.19-5.27 7.28-9 9.7-4.45 2.83-7.53 7.21-11.12 10.97-11.23 12.06-22.36 24.35-35.24 34.7-6.08 4.73-12.87 9.46-20.83 9.88-8.46-.72-15.47-6.05-21.87-11.16-14.89-12.37-27.62-27.03-40.75-41.18-3.06-3.04-7.17-4.82-9.98-8.13-2.66-2.99-4.71-7.19-3.4-11.21m32.15 12.29c-1.48 1.07-1.29 3.2-.63 4.72 1.42 3.34 4.26 5.77 6.68 8.41 7.03 7.29 13.98 14.81 22.35 20.61 4.8 3.26 10.29 6.1 16.24 6.04 6.57-.4 12.42-3.92 17.58-7.74 8.26-6.31 15.26-14.04 22.44-21.5 2.05-2.28 4.45-4.74 4.7-7.95.25-2.08-1.86-3.5-3.72-3.41-3.28-.01-6.4 1.16-9.54 1.92-10.55 2.84-21.41 4.82-32.37 4.45-12.09.39-23.97-2.32-35.55-5.5-2.64-.55-5.71-1.69-8.18-.05z"/><path fill="#FEFEFE" stroke="#FEFEFE" d="M955.33 1117.47c2.47-1.64 5.54-.5 8.18.05 11.58 3.18 23.46 5.89 35.55 5.5 10.96.37 21.82-1.61 32.37-4.45 3.14-.76 6.26-1.93 9.54-1.92 1.86-.09 3.97 1.33 3.72 3.41-.25 3.21-2.65 5.67-4.7 7.95-7.18 7.46-14.18 15.19-22.44 21.5-5.16 3.82-11.01 7.34-17.58 7.74-5.95.06-11.44-2.78-16.24-6.04-8.37-5.8-15.32-13.32-22.35-20.61-2.42-2.64-5.26-5.07-6.68-8.41-.66-1.52-.85-3.65.63-4.72z"/><path fill="#868686" stroke="#868686" d="M203.55 1215.38c42.14-14.51 88.34-16.82 131.76-6.86 19.09 4.38 37.64 11.08 55.07 20.03 57.85 29.19 102.73 82.85 121.11 145.01 12.55 41.98 13.39 87.43 2.29 129.82-3.41 13.05-7.93 25.8-13.48 38.09-25.36 56.44-73.41 102.18-131.08 124.64-41.46 16.34-87.51 20.64-131.32 12.59-33.77-6.13-66.14-19.74-94.21-39.48-28.02-19.64-51.78-45.33-69.15-74.81-19.96-33.7-31.37-72.38-32.96-111.52-1.81-40.92 7.01-82.28 25.61-118.79 27.81-55.24 77.77-98.86 136.36-118.72m71.57 94.65c-3.42 3.48-1.64 8.69-2.24 13.01.18 1.59-1.71 1.49-2.75 1.63-4.66.24-9.33-.21-13.99.07-.12 4.44-.39 8.9-.06 13.34.14 1.13-.01 3.34 1.88 2.94 16.2.23 32.45.69 48.63-.18-.11-4.95.11-9.91-.16-14.84-.15-1.56-2.09-1.97-3.36-1.96-4.44-.07-8.87.55-13.31.19-.11-3.59.18-7.21-.4-10.75-1.42-6.04-10.19-8.13-14.24-3.45m-83.75 40.54c-5.41 1.94-9.8 6.74-10.84 12.45-1.02 5.6-.43 11.32-.45 16.98-.05 37.03-.32 74.06-.08 111.08-.37 5.54 1.74 11.16 5.94 14.86 6.28 5.54 15.38 3.83 23.06 4 54.35-.12 108.69-.08 163.03 0 3.61-.08 7.43-.26 10.58-2.23 4.94-3.12 8.58-8.66 8.31-14.65.13-36.36-.07-72.71.1-109.06.03-9.19 1.92-19.41-3.46-27.56-3.25-5.24-9.78-6.84-15.57-6.82-53.02-.12-106.05.09-159.07-.06-7.17.21-14.54-.85-21.55 1.01m-10.34 168.05c-4.38-.23-9.33 2.66-9.46 7.44-.49 5.22 4.35 9.68 9.47 9.33 15.32-.01 30.65-.03 45.97-.02 4.03.03 8.11-.52 12.08.4-2.82 6.68-5.43 13.46-8.28 20.14-2.72 7.17-6.39 14.1-7.86 21.68 8.04-.16 16.15.55 24.14-.45 3.58-4.61 4.83-10.65 7.18-15.95 3.53-8.45 5.83-17.56 10.56-25.43 11.04-.96 22.22-.79 33.28-.04 6.39 13.67 10.91 28.15 17.19 41.86 8.21-.07 16.42-.11 24.63-.01-1.51-6.73-4.95-12.79-7.31-19.22-2.86-7.65-6.46-15.05-8.66-22.93 19.67-.53 39.35.02 59.03.01 4.04.17 7.34-3.49 7.83-7.29.96-5.13-3.66-10.01-8.81-9.54-66.99.03-133.99-.43-200.98.02z"/><path fill="#66B972" stroke="#66B972" d="M1551.29 1232.18c33.86-15.86 73.03-19.81 109.45-11.46 20.24 4.68 39.63 13.08 56.83 24.75 26.24 17.7 47.37 42.89 60.17 71.84 13.58 30.44 17.69 64.94 11.99 97.76-4.92 28.74-17.53 56.1-36.08 78.58-19.71 24-46.1 42.46-75.47 52.57-36.16 12.58-76.6 12.38-112.63-.58-27.79-9.9-52.83-27.3-71.95-49.75-22.67-26.51-36.86-60.17-39.78-94.94-3.17-35.05 4.88-71.03 22.92-101.26 17.31-29.32 43.65-53.2 74.55-67.51m80.62 80.78c-1.01 5.86 4.6 9.34 7.89 13.23-3.19 3.24-6.48 6.38-9.69 9.61 2.96 3.04 5.92 6.1 8.97 9.08 3.23-3.19 6.45-6.4 9.73-9.54 6.8 6.68 13.5 13.49 20.37 20.12-2.95 3.56-6.54 6.51-9.42 10.12 3 2.83 5.74 5.94 8.86 8.66 3.12-3.03 6.01-6.31 9.36-9.09 3.42 1.39 5.43 5.42 9.08 6.77 5.42 2.36 12.15-1.96 12.6-7.77.52-3.5-1.29-6.79-3.73-9.13-11.73-11.57-23.33-23.28-35-34.91-5.1-4.63-9.26-10.34-14.98-14.21-5.57-3.53-13.36.68-14.04 7.06m-43.69 19.87c2.79 6.52 9.69 9.77 13.71 15.37.22 1.29-1.27 1.99-1.88 2.95-13.38 13.6-27.02 26.95-40.46 40.48-3 2.84-4.46 7.13-3.31 11.18 2.41 9.68 5.15 19.27 7.65 28.93-6.09 6.03-12.34 11.97-18.07 18.33-.37 5.62-.06 11.28-.06 16.93 9.28-8.47 17.73-17.82 26.97-26.32 8.53 2.37 17.12 4.54 25.69 6.75 4.16.84 9.32 2.17 12.79-1.14 15.19-14.44 29.36-29.96 44.66-44.28 5.31 4.36 8.9 10.78 15.17 13.95 5.46 2.73 12.55-1.89 12.82-7.85.32-3.47-1.61-6.61-4-8.92-24.53-24.5-48.83-49.24-73.59-73.5-2.42-2.25-4.85-5.13-8.42-5.19-6.29-.58-12.23 6.23-9.67 12.33z"/><path fill="#D6A062" stroke="#D6A062" d="M1064.86 1258.92c6.8-1.8 13.43-4.17 19.98-6.74-.07 5.97.04 11.95.1 17.93.02 1.65.05 3.31.1 5 .55.16 1.66.49 2.21.65-.62.08-1.88.23-2.51.31.04 10.3.47 20.61.31 30.92-.06 6.95.25 13.89.28 20.85 13.2 0 26.37 1.06 39.56 1.1-17.23 24.3-34.28 48.73-51.42 73.11-21.08-22.4-42.67-44.32-63.91-66.57-24.52-25.42-49.01-50.88-73.52-76.3 3.56.31 6.8 1.91 9.08 4.71 6.27 6.52 13.52 12.17 21.58 16.31 10 5.1 21.34 7.17 32.52 6.91 21.25 1.68 42.05-8.18 56.58-23.3 2.31-2.74 5.68-4.06 9.06-4.89z"/><path fill="#EDCD18" stroke="#EDCD18" d="M905.39 1273.16c1.94-.55 3.88-1.12 5.83-1.64-.12 11.92-.25 23.84-.37 35.77-17.2 5.11-34.41 12.33-47.53 24.92-4.43 3.36-8.06 7.62-11.55 11.93-10.74 13.59-17.49 29.97-21.19 46.8-4.71 21.35-5.06 43.41-3.52 65.14 3.25 42.79 13.53 84.68 25.53 125.76-11.15 3.33-21.73 8.99-29.66 17.65-11.3-36.78-21.53-74.07-26.66-112.28-3.42-25.55-4.46-51.47-2.19-77.17 1.84-26.35 9.19-52.73 24.25-74.67 20.35-30.48 52.99-50.38 87.06-62.21zM1084.74 1276.07c.63-.08 1.89-.23 2.51-.31 17.32 3.17 33.94 10.3 47.84 21.16 13.64 10.54 24.7 24.11 33.56 38.84 17.47 29.38 27.05 62.7 33.48 96.06 2.46 13 4.38 26.09 5.9 39.24.41 3.66 2.35 6.89 3.65 10.29 8.89 22.13 12.97 45.81 15.86 69.38 1.49 13.01 3.02 26.05 3.74 39.14-2.4-.81-4.79-1.6-7.2-2.3-1.19-.37-2.36-.71-3.5-1.06l-.23-.49c-.14-.43-.42-1.3-.56-1.74-3.24-1.91-6.49-3.8-9.74-5.64-2.35 2.94-5.2 5.58-6.76 9.08-1.46.6-2.9 1.22-4.34 1.83-.29-10.23.25-20.58-2.02-30.64-2.3-11.05-7.51-22.3-17.24-28.65-8.46-5.65-19.55-5.99-28.91-2.53-6.61 2.42-13.04 5.94-17.7 11.33-7.59 7.93-14.97 16.07-22.78 23.79-.35-1.63-.66-3.13-.89-4.72-.41-3.01-.73-6.04-1.43-8.98-3.9-.37-7.82 0-11.71-.3-3.39-.37-6.79-.71-10.19-.81 19.48-29.35 43.42-55.81 71.43-77.24 1.42-.96 2.83-1.93 4.21-2.95 5.46-3.59 9.77-8.95 11.7-15.22 2.91-9.23 1.52-19.13-.54-28.38-4.62-19.49-10.51-38.79-19.19-56.89-6.96-14.45-15.83-28.22-27.66-39.17-8.68-8.12-19-14.87-30.49-18.16l-.38-.13c-.56-.24-1.68-.74-2.24-.98l-.87.1c-.56-.26-1.67-.78-2.22-1.04-1.6-.33-3.21-.68-4.78-.99.16-10.31-.27-20.62-.31-30.92m93.94 211.3c-3.56 3.26-7.25 6.56-9.75 10.73.11 2.01 2.39 2.38 3.97 2.74 3.87.66 7.74 1.4 11.57 2.32l.06.28c1.62-.13 3.59.78 5-.31.11-4.56-1.9-8.8-3.38-13.01-.78-1.61-1.11-3.89-3.1-4.42-1.62.03-2.97 1.01-4.37 1.67z"/><path fill="#FEFEFE" stroke="#FEFEFE" d="M1631.91 1312.96c.68-6.38 8.47-10.59 14.04-7.06 5.72 3.87 9.88 9.58 14.98 14.21 11.67 11.63 23.27 23.34 35 34.91 2.44 2.34 4.25 5.63 3.73 9.13-.45 5.81-7.18 10.13-12.6 7.77-3.65-1.35-5.66-5.38-9.08-6.77-3.35 2.78-6.24 6.06-9.36 9.09-3.12-2.72-5.86-5.83-8.86-8.66 2.88-3.61 6.47-6.56 9.42-10.12-6.87-6.63-13.57-13.44-20.37-20.12-3.28 3.14-6.5 6.35-9.73 9.54-3.05-2.98-6.01-6.04-8.97-9.08 3.21-3.23 6.5-6.37 9.69-9.61-3.29-3.89-8.9-7.37-7.89-13.23z"/><path fill="#E66564" stroke="#E66564" d="M863.32 1332.21c13.12-12.59 30.33-19.81 47.53-24.92-.15 6.88-.19 13.78-.2 20.68-12.22.84-24.49.74-36.73 1.19-3.52 1.07-6.99 2.32-10.6 3.05z"/><path fill="#E74043" stroke="#E74043" d="M1085.05 1306.99c1.57.31 3.18.66 4.78.99.55.26 1.66.78 2.22 1.04l.87-.1c.56.24 1.68.74 2.24.98l.38.13c10.82 4.47 20.99 10.64 29.35 18.91-13.19-.04-26.36-1.1-39.56-1.1-.03-6.96-.34-13.9-.28-20.85z"/><path fill="#FEFEFE" stroke="#FEFEFE" d="M275.12 1310.03c4.05-4.68 12.82-2.59 14.24 3.45.58 3.54.29 7.16.4 10.75 4.44.36 8.87-.26 13.31-.19 1.27-.01 3.21.4 3.36 1.96.27 4.93.05 9.89.16 14.84-16.18.87-32.43.41-48.63.18-1.89.4-1.74-1.81-1.88-2.94-.33-4.44-.06-8.9.06-13.34 4.66-.28 9.33.17 13.99-.07 1.04-.14 2.93-.04 2.75-1.63.6-4.32-1.18-9.53 2.24-13.01z"/><path fill="#938F62" stroke="#938F62" d="M1089.83 1307.98z"/><path fill="#89836D" stroke="#89836D" d="M1092.92 1308.92c.56.24 1.68.74 2.24.98-.56-.24-1.68-.74-2.24-.98z"/><path fill="#2379BD" stroke="#2379BD" d="M1095.54 1310.03c11.49 3.29 21.81 10.04 30.49 18.16.58 4.03 4.34 6.17 6.66 9.16 5.26 6.38 9.68 13.41 13.75 20.6-19.79 31.05-41.16 61.06-62.34 91.17-21.99 30.52-43.91 61.11-67.55 90.38-3.89 4.42-7.37 9.32-12.01 13-2.95 2.37-6.19-.8-8.36-2.7-10.77-10.72-19.73-23.06-28.88-35.13-40.54-55.45-78.01-113.04-115.53-170.53 3.49-4.31 7.12-8.57 11.55-11.93 3.61-.73 7.08-1.98 10.6-3.05 41.95 59.37 83.43 119.08 125.52 178.35 24.62-35.2 49.38-70.29 74.03-105.46 17.14-24.38 34.19-48.81 51.42-73.11-8.36-8.27-18.53-14.44-29.35-18.91z"/><path fill="#FEFEFE" stroke="#FEFEFE" d="M1588.22 1332.83c-2.56-6.1 3.38-12.91 9.67-12.33 3.57.06 6 2.94 8.42 5.19 24.76 24.26 49.06 49 73.59 73.5 2.39 2.31 4.32 5.45 4 8.92-.27 5.96-7.36 10.58-12.82 7.85-6.27-3.17-9.86-9.59-15.17-13.95-15.3 14.32-29.47 29.84-44.66 44.28-3.47 3.31-8.63 1.98-12.79 1.14-8.57-2.21-17.16-4.38-25.69-6.75-9.24 8.5-17.69 17.85-26.97 26.32 0-5.65-.31-11.31.06-16.93 5.73-6.36 11.98-12.3 18.07-18.33-2.5-9.66-5.24-19.25-7.65-28.93-1.15-4.05.31-8.34 3.31-11.18 13.44-13.53 27.08-26.88 40.46-40.48.61-.96 2.1-1.66 1.88-2.95-4.02-5.6-10.92-8.85-13.71-15.37m23.17 25.08a4990.495 4990.495 0 0 1-42.49 42.33c.75 3.5 1.47 7.04 2.67 10.44 1.19.44 2.27-1.67 3.43-2.15 4.41 4.09 8.41 8.62 12.97 12.54 2.64-2.05 4.92-4.53 7.05-7.1-3.58-4.86-8.46-8.73-12.56-13.19 3.4-3.5 6.85-6.94 10.44-10.25 4.45 4.1 8.33 8.92 13.16 12.56 2.53-2.16 4.85-4.56 6.98-7.1-3.85-4.72-8.55-8.69-12.66-13.16 3.51-3.56 7.1-7.05 10.67-10.55 4.36 4.26 8.7 8.55 13.03 12.86 2.54-2.39 4.96-4.89 7.38-7.4-6.61-6.69-13.21-13.4-20.07-19.83z"/><path fill="#007EC4" stroke="#007EC4" d="M1126.03 1328.19c11.83 10.95 20.7 24.72 27.66 39.17 8.68 18.1 14.57 37.4 19.19 56.89 2.06 9.25 3.45 19.15.54 28.38-1.93 6.27-6.24 11.63-11.7 15.22 3.56-5.28 7.77-10.43 8.98-16.86 1.76-9.64.38-19.52-1.83-28.97-5-22.1-11.59-44.08-22.43-64.07-4.07-7.19-8.49-14.22-13.75-20.6-2.32-2.99-6.08-5.13-6.66-9.16z"/><path fill="#00AFEF" stroke="#00AFEF" d="M768.43 1348.54c14.94-9.09 32.53-13.02 49.9-13.17-15.06 21.94-22.41 48.32-24.25 74.67-2.27 25.7-1.23 51.62 2.19 77.17 5.13 38.21 15.36 75.5 26.66 112.28-13.03 14.1-18.67 34.72-14.07 53.44 2.74 12.78 10.47 23.85 19.66 32.9 13.43 14.66 35.05 20.87 54.35 16.57 16.31-3.32 30.83-14.1 38.99-28.57 11.05-19.05 10.21-44.61-2.86-62.47-7.66-11.63-18.11-21.95-31.38-26.84-11.1-4.51-23.36-4.67-35.03-2.68-12-41.08-22.28-82.97-25.53-125.76-1.54-21.73-1.19-43.79 3.52-65.14 3.7-16.83 10.45-33.21 21.19-46.8 37.52 57.49 74.99 115.08 115.53 170.53 9.15 12.07 18.11 24.41 28.88 35.13 2.17 1.9 5.41 5.07 8.36 2.7 4.64-3.68 8.12-8.58 12.01-13 23.64-29.27 45.56-59.86 67.55-90.38 21.18-30.11 42.55-60.12 62.34-91.17 10.84 19.99 17.43 41.97 22.43 64.07 2.21 9.45 3.59 19.33 1.83 28.97-1.21 6.43-5.42 11.58-8.98 16.86-1.38 1.02-2.79 1.99-4.21 2.95-5.38 1.6-9.28 5.8-13.73 8.97-24.58 19.21-45.64 42.62-63.63 68.04 3.3.39 6.6.83 9.88 1.35-11.62 12.68-21.36 26.96-29.85 41.88-9.22 16.55-17.23 33.94-21.75 52.4-2.52 10.52-3.79 21.52-1.99 32.26 1.27 6.68 3.82 13.3 8.37 18.46 3.32 4.08 8.35 6.29 11.54 10.52 4.66 5.94 12.7 7.86 19.94 7.06 4.77.47 9.84.89 14.33-1.19 4.99-1.95 9.14-7.02 8.36-12.6-.79-6.35-6.41-10.92-12.18-12.79-6.19-2.24-12.77-.52-19.11-.26-7.4-7.58-8.33-18.98-7.16-28.97 2.11-16.97 8.68-33.01 16.21-48.24 7.58-14.84 16.27-29.24 27-42.04 1.88-2.5 4.98-4.3 5.67-7.52.23 1.59.54 3.09.89 4.72 7.81-7.72 15.19-15.86 22.78-23.79 4.66-5.39 11.09-8.91 17.7-11.33 6.92-.53 14.33-.61 20.54 2.98 10.56 5.57 16.35 17.06 18.82 28.31 2.63 10.74 1.69 21.83 1.89 32.76 1.53-.25 3.07-.49 4.63-.71 3.12 20.64 1.85 41.74-1.19 62.31-2.76 17.29-6.96 34.79-16.28 49.83-3.17 4.9-7.37 9.09-12.1 12.49-5.86-7.3-16.2-9.35-24.9-6.74-4.91.46-10.27.58-14.32 3.81-4.81 3.38-6.5 10.54-3.16 15.52 5.21 8.43 16.58 10.87 25.62 7.97 4.31-.11 8.63-.69 12.64-2.39 7.11-.5 14.43-1.47 20.58-5.36 13.34-8.04 21.07-22.47 26.42-36.61 4.22-11.35 6.88-23.21 8.99-35.11-.01 3.38.08 6.77.07 10.17-.06 112.21.08 224.42-.07 336.63-10.62-.08-21.23.02-31.84-.06-51.45-.04-102.89-.03-154.34 0-23.3.04-46.61.06-69.91-.01-51.42-.02-102.84-.02-154.25 0-9.67.06-19.34.06-29 .01.03-112.38.01-224.75.01-337.12-.02-31.22.06-62.44-.04-93.66.1-6.77.02-13.53.04-20.29-26.55-5.58-53.09-11.18-79.64-16.76-2.69-.57-5.37-1.15-8.05-1.71.17-1.55-.24-3.22.46-4.63.98-.8 2.08-1.42 3.17-2.05 3-29.81 7.17-59.62 15.2-88.53 5.45-19.39 12.64-38.49 23.42-55.59 8.71-13.83 20.11-26.24 34.24-34.65zM1168.65 1335.76c14.45-.94 29.2-.1 43.06 4.41 14.94 4.72 28.44 13.62 39.05 25.11 13.23 14.22 22.43 31.7 29.34 49.72 13.57 35.97 19.07 74.33 23.02 112.38 2.76.85 4.58 3.37 3.46 6.29-2.36 1.06-4.95 1.41-7.45 1.95-23.87 5.02-47.75 9.98-71.59 15.11-2.89-23.57-6.97-47.25-15.86-69.38-1.3-3.4-3.24-6.63-3.65-10.29-1.52-13.15-3.44-26.24-5.9-39.24-6.43-33.36-16.01-66.68-33.48-96.06z"/><path fill="#FEFEFE" stroke="#FEFEFE" d="M191.37 1350.57c7.01-1.86 14.38-.8 21.55-1.01 53.02.15 106.05-.06 159.07.06 5.79-.02 12.32 1.58 15.57 6.82 5.38 8.15 3.49 18.37 3.46 27.56-.17 36.35.03 72.7-.1 109.06.27 5.99-3.37 11.53-8.31 14.65-3.15 1.97-6.97 2.15-10.58 2.23-54.34-.08-108.68-.12-163.03 0-7.68-.17-16.78 1.54-23.06-4-4.2-3.7-6.31-9.32-5.94-14.86-.24-37.02.03-74.05.08-111.08.02-5.66-.57-11.38.45-16.98 1.04-5.71 5.43-10.51 10.84-12.45m18.6 18.03c-5.08 1.03-9.32 6.02-8.25 11.36.86 5.41 6.57 7.82 11.3 8.99 2.83.96 6.41.96 8.4 3.48 1.85 3.31-2.45 6.01-5.41 5.22-3.17-.12-4.86-3.12-5.47-5.87-3.52.05-7.03.29-10.52.71.89 4.76 3.46 9.91 8.57 11.19 5.85 1.48 12.5 1.71 18.01-1.09 5.84-2.98 8.09-11.69 3.53-16.69-4.52-4.68-11.51-4.62-17.22-6.84-2.48-1.49-.34-4.83 2.1-4.56 3.14-.65 5.43 1.75 6.31 4.51 3.42-.07 6.85-.3 10.26-.63-.76-3.32-2.08-6.91-5.32-8.54-4.98-2.53-10.95-2.36-16.29-1.24m28.25-.2c-.23 11.89-.04 23.79-.1 35.68 10 .09 20.01.03 30.01.04.02-2.7.02-5.39.01-8.06-6.33-.04-12.66.05-18.98-.07v-6.94c5.69-.06 11.39-.01 17.09-.04v-7.24c-5.69-.05-11.37-.02-17.06-.02l-.06-5.64c6.18-.15 12.37.15 18.55-.21-.06-2.5-.09-4.99-.11-7.46-9.79 0-19.57.08-29.35-.04m47.13.1c-6.44 1.3-11.49 6.95-12.29 13.44-1.54 7.9 1.06 17.69 9.04 21.1 8.72 3.46 21.3 2.17 25.7-7.26 2.87-7.09 2.81-16.18-2.19-22.31-4.93-5.67-13.33-6.42-20.26-4.97m51.61 18.71c-5.52.83-11.34.36-16.6 2.5 4.43 5.5 9.9 10.03 14.78 15.12.69.97 2.24 1.72 1.91 3.15-1.45 2.18-3.43 3.94-5.24 5.84-12.74 13.07-25.99 25.63-38.78 38.65-5.45-4.3-9.89-9.68-14.91-14.45-5.34-6.08-11.97-10.8-17.35-16.83-1.83-1.86-3.37-4.14-5.76-5.32-5.98 4.59-10.96 10.46-16.48 15.62-13.53 14.2-27.7 27.76-41.38 41.81 3.61 4.18 7.41 8.25 11.8 11.64 15.5-15.29 30.74-30.86 46.41-45.98 6.54 6.32 12.69 13.03 19.23 19.36 6.19 6.05 11.93 12.58 18.52 18.23 5.23-4.23 9.86-9.13 14.09-14.35 11.09-11.21 22.29-22.32 33.46-33.47 3.2-2.82 5.82-6.36 9.32-8.77 6.04 4.86 10.64 11.29 16.76 16.07 1.97-17.7 4.71-35.34 5.88-53.11-11.95.87-23.7 3.43-35.66 4.29z"/><path fill="#66B972" stroke="#66B972" d="M1611.39 1357.91c6.86 6.43 13.46 13.14 20.07 19.83-2.42 2.51-4.84 5.01-7.38 7.4-4.33-4.31-8.67-8.6-13.03-12.86-3.57 3.5-7.16 6.99-10.67 10.55 4.11 4.47 8.81 8.44 12.66 13.16-2.13 2.54-4.45 4.94-6.98 7.1-4.83-3.64-8.71-8.46-13.16-12.56-3.59 3.31-7.04 6.75-10.44 10.25 4.1 4.46 8.98 8.33 12.56 13.19-2.13 2.57-4.41 5.05-7.05 7.1-4.56-3.92-8.56-8.45-12.97-12.54-1.16.48-2.24 2.59-3.43 2.15-1.2-3.4-1.92-6.94-2.67-10.44a4984.61 4984.61 0 0 0 42.49-42.33z"/><path fill="#868686" stroke="#868686" d="M209.97 1368.6c5.34-1.12 11.31-1.29 16.29 1.24 3.24 1.63 4.56 5.22 5.32 8.54-3.41.33-6.84.56-10.26.63-.88-2.76-3.17-5.16-6.31-4.51-2.44-.27-4.58 3.07-2.1 4.56 5.71 2.22 12.7 2.16 17.22 6.84 4.56 5 2.31 13.71-3.53 16.69-5.51 2.8-12.16 2.57-18.01 1.09-5.11-1.28-7.68-6.43-8.57-11.19 3.49-.42 7-.66 10.52-.71.61 2.75 2.3 5.75 5.47 5.87 2.96.79 7.26-1.91 5.41-5.22-1.99-2.52-5.57-2.52-8.4-3.48-4.73-1.17-10.44-3.58-11.3-8.99-1.07-5.34 3.17-10.33 8.25-11.36zM238.22 1368.4c9.78.12 19.56.04 29.35.04.02 2.47.05 4.96.11 7.46-6.18.36-12.37.06-18.55.21l.06 5.64c5.69 0 11.37-.03 17.06.02v7.24c-5.7.03-11.4-.02-17.09.04v6.94c6.32.12 12.65.03 18.98.07.01 2.67.01 5.36-.01 8.06-10-.01-20.01.05-30.01-.04.06-11.89-.13-23.79.1-35.68zM285.35 1368.5c6.93-1.45 15.33-.7 20.26 4.97 5 6.13 5.06 15.22 2.19 22.31-4.4 9.43-16.98 10.72-25.7 7.26-7.98-3.41-10.58-13.2-9.04-21.1.8-6.49 5.85-12.14 12.29-13.44m3.18 8.07c-6.03 2.63-5.56 11.09-3.61 16.29 2.27 4.86 10.55 4.84 12.65-.15 1.36-3.71 1.47-7.93.41-11.71-1.05-3.96-5.78-5.79-9.45-4.43z"/><path fill="#FEFEFE" stroke="#FEFEFE" d="M288.53 1376.57c3.67-1.36 8.4.47 9.45 4.43 1.06 3.78.95 8-.41 11.71-2.1 4.99-10.38 5.01-12.65.15-1.95-5.2-2.42-13.66 3.61-16.29z"/><path fill="#868686" stroke="#868686" d="M336.96 1387.21c11.96-.86 23.71-3.42 35.66-4.29-1.17 17.77-3.91 35.41-5.88 53.11-6.12-4.78-10.72-11.21-16.76-16.07-3.5 2.41-6.12 5.95-9.32 8.77-11.17 11.15-22.37 22.26-33.46 33.47-4.23 5.22-8.86 10.12-14.09 14.35-6.59-5.65-12.33-12.18-18.52-18.23-6.54-6.33-12.69-13.04-19.23-19.36-15.67 15.12-30.91 30.69-46.41 45.98-4.39-3.39-8.19-7.46-11.8-11.64 13.68-14.05 27.85-27.61 41.38-41.81 5.52-5.16 10.5-11.03 16.48-15.62 2.39 1.18 3.93 3.46 5.76 5.32 5.38 6.03 12.01 10.75 17.35 16.83 5.02 4.77 9.46 10.15 14.91 14.45 12.79-13.02 26.04-25.58 38.78-38.65 1.81-1.9 3.79-3.66 5.24-5.84.33-1.43-1.22-2.18-1.91-3.15-4.88-5.09-10.35-9.62-14.78-15.12 5.26-2.14 11.08-1.67 16.6-2.5z"/><path fill="#007EC4" stroke="#007EC4" d="M1143.78 1479.77c4.45-3.17 8.35-7.37 13.73-8.97-28.01 21.43-51.95 47.89-71.43 77.24 3.4.1 6.8.44 10.19.81-10.18 11.31-18.58 24.09-26.08 37.3-8.32 14.78-15.47 30.29-20.44 46.53-3.72 12.39-6.31 25.39-5.14 38.39.79 8.86 3.87 17.78 10.05 24.35 2.62 2.97 6.07 4.99 9.2 7.39 3.03 4.29 7.49 7.22 12.43 8.93-7.24.8-15.28-1.12-19.94-7.06-3.19-4.23-8.22-6.44-11.54-10.52-4.55-5.16-7.1-11.78-8.37-18.46-1.8-10.74-.53-21.74 1.99-32.26 4.52-18.46 12.53-35.85 21.75-52.4 8.49-14.92 18.23-29.2 29.85-41.88-3.28-.52-6.58-.96-9.88-1.35 17.99-25.42 39.05-48.83 63.63-68.04zM1178.68 1487.37c1.4-.66 2.75-1.64 4.37-1.67 1.99.53 2.32 2.81 3.1 4.42 1.48 4.21 3.49 8.45 3.38 13.01-1.41 1.09-3.38.18-5 .31l-.06-.28c-1.04-5.54-2.57-11.1-5.79-15.79z"/><path fill="#00AFEF" stroke="#00AFEF" d="M1168.93 1498.1c2.5-4.17 6.19-7.47 9.75-10.73 3.22 4.69 4.75 10.25 5.79 15.79-3.83-.92-7.7-1.66-11.57-2.32-1.58-.36-3.86-.73-3.97-2.74z"/><path fill="#FEFEFE" stroke="#FEFEFE" d="M181.03 1518.62c66.99-.45 133.99.01 200.98-.02 5.15-.47 9.77 4.41 8.81 9.54-.49 3.8-3.79 7.46-7.83 7.29-19.68.01-39.36-.54-59.03-.01 2.2 7.88 5.8 15.28 8.66 22.93 2.36 6.43 5.8 12.49 7.31 19.22-8.21-.1-16.42-.06-24.63.01-6.28-13.71-10.8-28.19-17.19-41.86-11.06-.75-22.24-.92-33.28.04-4.73 7.87-7.03 16.98-10.56 25.43-2.35 5.3-3.6 11.34-7.18 15.95-7.99 1-16.1.29-24.14.45 1.47-7.58 5.14-14.51 7.86-21.68 2.85-6.68 5.46-13.46 8.28-20.14-3.97-.92-8.05-.37-12.08-.4-15.32-.01-30.65.01-45.97.02-5.12.35-9.96-4.11-9.47-9.33.13-4.78 5.08-7.67 9.46-7.44z"/><path fill="#007EC4" stroke="#007EC4" d="M1150.78 1527.73c9.36-3.46 20.45-3.12 28.91 2.53 9.73 6.35 14.94 17.6 17.24 28.65 2.27 10.06 1.73 20.41 2.02 30.64 1.44-.61 2.88-1.23 4.34-1.83 2.56 10.88 2.8 22.14 2.76 33.27-.31 18.98-2.35 38.05-7.45 56.38-3.18 10.83-7.32 21.78-14.9 30.35-4.06 4.73-9.65 7.96-15.72 9.3-.22-.33-.67-.99-.89-1.32 4.73-3.4 8.93-7.59 12.1-12.49 9.32-15.04 13.52-32.54 16.28-49.83 3.04-20.57 4.31-41.67 1.19-62.31-1.56.22-3.1.46-4.63.71-.2-10.93.74-22.02-1.89-32.76-2.47-11.25-8.26-22.74-18.82-28.31-6.21-3.59-13.62-3.51-20.54-2.98z"/><path fill="#E9B967" stroke="#E9B967" d="M699.99 1535.7c26.55 5.58 53.09 11.18 79.64 16.76-.02 6.76.06 13.52-.04 20.29-4.11 29.8-7.99 59.63-12.08 89.43-12.72 94.58-25.47 189.16-38.19 283.74-.31 1.39-.03 2.85.6 4.17 8.02 18.03 15.92 36.12 23.93 54.16 2.25 5.02 3.5 10.84 1.78 16.23-1.46 4.68-5.73 8.21-10.52 9.07-8.13 1.58-16.69-2.81-21.02-9.68-4.08-7.36-7.73-14.96-11.95-22.24.89 20.11 2.13 40.2 3.16 60.31.21 6.93 1.57 14.1-.69 20.85-1.81 5.91-6.44 11.33-12.69 12.61-5.22 1.17-10.77-1.13-14.13-5.17-5.15-5.98-6.39-14.2-6.54-21.83-5.33 0-11.11-.68-15.13-4.54-6.63-6.21-8.34-15.67-9.65-24.24-5.25-1.65-7.58-7.11-7.78-12.21-1.46-35.13-2.53-70.29-4.04-105.42-.99-8.58 1.28-17.28 5.71-24.62 2.51-3.68 2.32-8.27 3.01-12.48 11.37-84.3 22.77-168.6 34.13-252.91 4.17-30.76 8.26-61.53 12.49-92.28z"/><path fill="#EBBD68" stroke="#EBBD68" d="M1227.54 1550.73c23.84-5.13 47.72-10.09 71.59-15.11 4.38 30.88 8.34 61.81 12.64 92.7 11.62 86.55 23.37 173.08 35.01 259.63.33 3.43 2.73 6.12 4.08 9.2 3.35 6.72 4.48 14.38 3.64 21.82-1.43 34.72-2.56 69.46-3.97 104.18-.15 5.19-2.46 10.76-7.79 12.47-1.32 8.6-3.04 18.1-9.72 24.3-4.01 3.77-9.73 4.53-15 4.44-.26 8.1-1.62 17.02-7.65 22.98-4.36 4.53-11.72 5.73-17.18 2.54-6.96-3.88-10.01-12.26-9.89-19.88 1.1-24.14 2.8-48.25 3.68-72.38-3.96 7.21-7.69 14.55-11.6 21.8-4.78 8.22-15.93 13.1-24.89 8.93-4.73-2.17-7.66-7.27-7.7-12.39-.35-7.52 3.85-14.06 6.58-20.76 6.79-15.75 14.1-31.3 20.57-47.15-.89-10.9-2.86-21.71-4.14-32.57-11.37-84.3-22.68-168.62-34.08-252.92-2.91-23.3-6.65-46.51-9.14-69.85.48.24 1.45.72 1.94.96-.17-2.05-.31-4.08-.44-6.1 2.41.7 4.8 1.49 7.2 2.3-.72-13.09-2.25-26.13-3.74-39.14z"/><path fill="#E6E7E8" stroke="#E6E7E8" d="M1096.27 1548.85c3.89.3 7.81-.07 11.71.3.7 2.94 1.02 5.97 1.43 8.98-.69 3.22-3.79 5.02-5.67 7.52-10.73 12.8-19.42 27.2-27 42.04-7.53 15.23-14.1 31.27-16.21 48.24-1.17 9.99-.24 21.39 7.16 28.97.33.37 1.01 1.12 1.34 1.49-2.32 1.85-4.88 3.79-5.83 6.75-1.33 3.15-.46 6.59.66 9.67-3.13-2.4-6.58-4.42-9.2-7.39-6.18-6.57-9.26-15.49-10.05-24.35-1.17-13 1.42-26 5.14-38.39 4.97-16.24 12.12-31.75 20.44-46.53 7.5-13.21 15.9-25.99 26.08-37.3z"/><path fill="#E66564" stroke="#E66564" d="M767.51 1662.18c4.09-29.8 7.97-59.63 12.08-89.43.1 31.22.02 62.44.04 93.66-4.05-1.39-8.1-2.78-12.12-4.23z"/><path fill="#E6E7E8" stroke="#E6E7E8" d="M1203.29 1587.72c1.56-3.5 4.41-6.14 6.76-9.08 3.25 1.84 6.5 3.73 9.74 5.64.14.44.42 1.31.56 1.74.36 1.98.61 3.97.85 6 2.24 21.56.91 43.36-2.24 64.77-2.11 11.9-4.77 23.76-8.99 35.11-5.35 14.14-13.08 28.57-26.42 36.61-6.15 3.89-13.47 4.86-20.58 5.36 2.59-2.12 5.35-4.48 6.2-7.87.97-3.03.04-6.2-1.19-8.98 6.07-1.34 11.66-4.57 15.72-9.3 7.58-8.57 11.72-19.52 14.9-30.35 5.1-18.33 7.14-37.4 7.45-56.38.04-11.13-.2-22.39-2.76-33.27z"/><path fill="#619C9A" stroke="#619C9A" d="M852.59 1581.84c11.67-1.99 23.93-1.83 35.03 2.68 13.27 4.89 23.72 15.21 31.38 26.84 1.44 5.29 3.95 10.25 5.02 15.66 3.63 16.63-.29 34.78-10.71 48.28-10.76 14.24-28.4 23.31-46.32 23.16-11.6.24-23.37-2.96-32.93-9.59-1.77-1.17-3.68-2.1-5.54-3.04-9.19-9.05-16.92-20.12-19.66-32.9-4.6-18.72 1.04-39.34 14.07-53.44 7.93-8.66 18.51-14.32 29.66-17.65m8.6 20.41c-11.32 1.48-21.72 8.48-27.41 18.37-5.55 9.37-6.63 21.2-2.99 31.45 3.51 10.12 11.57 18.56 21.55 22.48 9.11 3.68 19.69 3.58 28.73-.3 8.73-3.69 15.94-10.81 19.74-19.48 4.29-9.62 4.24-21.05-.11-30.63-6.47-14.96-23.38-24.38-39.51-21.89z"/><path fill="#007EC4" stroke="#007EC4" d="M1220.35 1586.02l.23.49c1.14.35 2.31.69 3.5 1.06.13 2.02.27 4.05.44 6.1-.49-.24-1.46-.72-1.94-.96-.35-.18-1.04-.52-1.38-.69-.24-2.03-.49-4.02-.85-6z"/><path fill="#E74043" stroke="#E74043" d="M1221.2 1592.02c.34.17 1.03.51 1.38.69 2.49 23.34 6.23 46.55 9.14 69.85-4.23 1.47-8.47 2.92-12.69 4.4.01-3.4-.08-6.79-.07-10.17 3.15-21.41 4.48-43.21 2.24-64.77z"/><path fill="#FEFEFE" stroke="#FEFEFE" d="M861.19 1602.25c16.13-2.49 33.04 6.93 39.51 21.89 4.35 9.58 4.4 21.01.11 30.63-3.8 8.67-11.01 15.79-19.74 19.48-9.04 3.88-19.62 3.98-28.73.3-9.98-3.92-18.04-12.36-21.55-22.48-3.64-10.25-2.56-22.08 2.99-31.45 5.69-9.89 16.09-16.89 27.41-18.37m.27 15.35c-8.76 1.86-15.97 9.39-17.31 18.27-1.43 8 1.94 16.59 8.43 21.49 6.48 5.14 15.87 6.16 23.32 2.57 7.28-3.36 12.44-10.86 12.87-18.87.51-6.86-2.38-13.83-7.54-18.35-5.29-4.73-12.86-6.68-19.77-5.11z"/><path fill="#4174A2" stroke="#4174A2" d="M919 1611.36c13.07 17.86 13.91 43.42 2.86 62.47-8.16 14.47-22.68 25.25-38.99 28.57-19.3 4.3-40.92-1.91-54.35-16.57 1.86.94 3.77 1.87 5.54 3.04 9.56 6.63 21.33 9.83 32.93 9.59 17.92.15 35.56-8.92 46.32-23.16 10.42-13.5 14.34-31.65 10.71-48.28-1.07-5.41-3.58-10.37-5.02-15.66z"/><path fill="#619C9A" stroke="#619C9A" d="M861.46 1617.6c6.91-1.57 14.48.38 19.77 5.11 5.16 4.52 8.05 11.49 7.54 18.35-.43 8.01-5.59 15.51-12.87 18.87-7.45 3.59-16.84 2.57-23.32-2.57-6.49-4.9-9.86-13.49-8.43-21.49 1.34-8.88 8.55-16.41 17.31-18.27z"/><path fill="#4B4B4D" stroke="#4B4B4D" d="M1067.69 1684.9c6.34-.26 12.92-1.98 19.11.26 5.77 1.87 11.39 6.44 12.18 12.79.78 5.58-3.37 10.65-8.36 12.6-4.49 2.08-9.56 1.66-14.33 1.19-4.94-1.71-9.4-4.64-12.43-8.93-1.12-3.08-1.99-6.52-.66-9.67.95-2.96 3.51-4.9 5.83-6.75-.33-.37-1.01-1.12-1.34-1.49zM1142.19 1708.96c8.7-2.61 19.04-.56 24.9 6.74.22.33.67.99.89 1.32 1.23 2.78 2.16 5.95 1.19 8.98-.85 3.39-3.61 5.75-6.2 7.87-4.01 1.7-8.33 2.28-12.64 2.39-4.99-1.17-10.19-2.86-13.68-6.81-3.3-3.46-4.79-8.95-2.55-13.35 1.58-3.41 4.87-5.49 8.09-7.14z"/><path fill="#007EC4" stroke="#007EC4" d="M1127.87 1712.77c4.05-3.23 9.41-3.35 14.32-3.81-3.22 1.65-6.51 3.73-8.09 7.14-2.24 4.4-.75 9.89 2.55 13.35 3.49 3.95 8.69 5.64 13.68 6.81-9.04 2.9-20.41.46-25.62-7.97-3.34-4.98-1.65-12.14 3.16-15.52z"/><path fill="#823104" stroke="#823104" d="M1449.44 1728.33c6.29-4.26 14.43-3.94 21.56-2.41 20.76 5.1 42.6 4.79 63.54.86 8.12-1.73 17.14-3.02 24.9.79 6.17 2.96 9.45 9.71 10.3 16.24 1.69 10.02-1.23 19.93-2.7 29.78-5.94 33.88-12.84 68-26.9 99.59-4.02 9.13-8.61 18.2-15.36 25.65-4.65 4.99-10.72 9.45-17.82 9.56-6.33.39-12.04-2.97-16.74-6.85-6.59-6.27-11.52-14.04-15.55-22.13-16.33-31.77-26.15-66.5-32.04-101.61-1.56-9.86-3.67-19.82-2.52-29.84.68-7.29 3-15.27 9.33-19.63zM1738.58 1728.51c6.49-4.58 15.03-4.12 22.44-2.45 17.92 4.37 36.68 4.56 54.9 2.06 8.4-1.02 16.68-3.91 25.23-2.77 6.12.56 12.18 3.83 15.09 9.4 3.86 7.39 3.93 16.17 2.7 24.24-6.39 37.61-13.01 75.68-28.03 110.99-5.19 11.84-10.79 24.1-20.71 32.78-5.31 4.29-12.45 7.03-19.26 5.1-9.23-2.54-15.74-10.29-20.9-17.9-21.06-35.73-32.23-76.37-38.84-117.05-1.33-8.24-2.65-16.6-1.69-24.95.68-7.2 2.92-15.03 9.07-19.45z"/><path fill="#9D4C1D" stroke="#9D4C1D" d="M1567.04 1773.59c53.17-15.7 110.84-15.76 164.16-.68 6.61 40.68 17.78 81.32 38.84 117.05-12.85 2.88-25.55 7.19-36.61 14.47-12.95 8.27-23.19 20.57-29.29 34.66-7.89 17.93-9.78 37.84-9.3 57.25-25.77 3.6-52.01 3.66-77.83.51-4.34-.47-8.64-1.43-13-1.43-5.57.02-10.35 4.06-12.73 8.86-2.09 4.02-1.98 8.72-1.4 13.12-16.38 1.86-30.46 13.07-38.1 27.36-10.41-4.32-18.44-12.67-24.81-21.73-13.66-19.86-22.08-42.81-28.41-65.92-4.72-18.15-8.34-36.76-8.34-55.57 4.7 3.88 10.41 7.24 16.74 6.85 7.1-.11 13.17-4.57 17.82-9.56 6.75-7.45 11.34-16.52 15.36-25.65 14.06-31.59 20.96-65.71 26.9-99.59m-13.91 159.77c-4.76 1.06-8.32 4.76-11.02 8.61-2.72 3.95-4.99 8.83-3.69 13.73.34 1.67 1.85 2.83 3.53 3.05 4.65.78 9.48.33 14.03 1.78 6.88 1.7 12.57 7.5 20.01 6.92 3.66-.24 5.06-4.34 4.57-7.46-.98-7.94-5.46-15.1-11.07-20.62-4.31-4.05-10.26-7.47-16.36-6.01z"/><path fill="#D2955F" stroke="#D2955F" d="M1733.43 1904.43c11.06-7.28 23.76-11.59 36.61-14.47 5.16 7.61 11.67 15.36 20.9 17.9 6.81 1.93 13.95-.81 19.26-5.1-.09 17.46-3.34 34.74-7.57 51.64-5.29 20.29-12.35 40.27-22.73 58.56-7.47 12.93-17.01 25.81-31.13 31.91-.01.35-.04 1.05-.05 1.4.28 9.33.18 18.82-2.48 27.86-3.2 11.75-10.65 22.72-21.57 28.5-9.36 5.2-20.45 6.05-30.89 4.57-13.79-2.23-26.28-10.03-35.54-20.33-3.07-3.32-5.52-7.12-7.9-10.93-2.63 3.52-5.03 7.23-7.9 10.56-9.16 10.29-21.44 18.09-35.09 20.6-14.69 2.56-31.09-.82-41.59-11.96-12.58-12.98-15.26-32.19-14.03-49.5.01-.22.04-.66.05-.88 7.64-14.29 21.72-25.5 38.1-27.36 1.66 11.58 9.94 21.08 19.79 26.84 12.23 7.17 26.32 10.93 40.42 11.94 15.25 1.09 30.36-3.36 43.9-10.08 9.55-4.86 18.57-12.22 22.34-22.55 1.98-5.87 3.04-12.59.58-18.47-2.06-4.68-6.23-8.64-11.35-9.57-3.6-.46-7.18.37-10.72.83-.48-19.41 1.41-39.32 9.3-57.25 6.1-14.09 16.34-26.39 29.29-34.66m7.7 28.82c-7.47 1.59-13.08 7.54-17.08 13.72-2.91 4.84-5.61 10.42-4.81 16.22.35 2.74 3.06 4.65 5.79 4.37 7.33-.34 12.87-6 19.92-7.37 4.48-1.17 9.19-.59 13.69-1.65 3.07-1.01 3.2-4.84 2.89-7.49-.85-5.09-3.88-9.54-7.36-13.21-3.31-3.47-8.24-5.62-13.04-4.59z"/><path fill="#321505" stroke="#321505" d="M1553.13 1933.36c6.1-1.46 12.05 1.96 16.36 6.01 5.61 5.52 10.09 12.68 11.07 20.62.49 3.12-.91 7.22-4.57 7.46-7.44.58-13.13-5.22-20.01-6.92-4.55-1.45-9.38-1-14.03-1.78-1.68-.22-3.19-1.38-3.53-3.05-1.3-4.9.97-9.78 3.69-13.73 2.7-3.85 6.26-7.55 11.02-8.61m11.28 10.08c-4.36 2.14-4.45 9.02-.14 11.27 4.08 2.68 10.05-.91 9.75-5.73.07-4.64-5.62-8.06-9.61-5.54zM1741.13 1933.25c4.8-1.03 9.73 1.12 13.04 4.59 3.48 3.67 6.51 8.12 7.36 13.21.31 2.65.18 6.48-2.89 7.49-4.5 1.06-9.21.48-13.69 1.65-7.05 1.37-12.59 7.03-19.92 7.37-2.73.28-5.44-1.63-5.79-4.37-.8-5.8 1.9-11.38 4.81-16.22 4-6.18 9.61-12.13 17.08-13.72m1.41 9.4c-4.44 2-4.73 8.9-.47 11.27 3.82 2.68 9.62-.31 9.89-4.91.63-4.82-5.16-8.87-9.42-6.36z"/><path fill="#FEFEFE" stroke="#FEFEFE" d="M1742.54 1942.65c4.26-2.51 10.05 1.54 9.42 6.36-.27 4.6-6.07 7.59-9.89 4.91-4.26-2.37-3.97-9.27.47-11.27zM1564.41 1943.44c3.99-2.52 9.68.9 9.61 5.54.3 4.82-5.67 8.41-9.75 5.73-4.31-2.25-4.22-9.13.14-11.27z"/><path fill="#321505" stroke="#321505" d="M1694.84 1996.34c3.54-.46 7.12-1.29 10.72-.83 5.12.93 9.29 4.89 11.35 9.57 2.46 5.88 1.4 12.6-.58 18.47-3.77 10.33-12.79 17.69-22.34 22.55-13.54 6.72-28.65 11.17-43.9 10.08-14.1-1.01-28.19-4.77-40.42-11.94-9.85-5.76-18.13-15.26-19.79-26.84-.58-4.4-.69-9.1 1.4-13.12 2.38-4.8 7.16-8.84 12.73-8.86 4.36 0 8.66.96 13 1.43 25.82 3.15 52.06 3.09 77.83-.51m-90.34 11.24c-5.82.89-6.17 10.04-.5 11.48 6.63.66 13.33.08 19.99.3 2.9-.16 6.44.6 8.71-1.74 2.55-2.35 2.31-6.88-.48-8.92-2.02-1.69-4.81-1.25-7.22-1.31-6.84.15-13.69-.24-20.5.19z"/><path fill="#F6AB2C" stroke="#F6AB2C" d="M305.48 2002.92c25.93 10.66 50.47 24.5 73.53 40.4 47.5-27.42 109.38-27.42 156.88 0 23.06-15.89 47.59-29.78 73.54-40.37 2.87 19.2 4.35 38.74 2.54 58.13-1.6 17.69-6.14 35.21-14.13 51.13 6.51 14.35 11.76 29.36 14.49 44.93 3.72 20.46 2.98 41.82-2.96 61.81-8.1 27.98-25.5 52.35-46.03 72.64 5.27 12.45 4.84 26.46 1.97 39.46-5.06 11.55-10.82 22.79-16 34.3-2.35 5.48-6.12 10.56-6.62 16.67-1.23 20.97-1.43 41.98-2.18 62.97-1.6 27.63-3.99 56.2-16.73 81.29-5.58-3.19-10.96-6.88-17.16-8.77-10.43-3.77-22.21-2.79-32.2 1.85-5.23 2.28-9.77 5.79-14.55 8.87 3.4-35.44 7.53-70.81 11.07-106.24-4.52 1.45-9.12 2.97-13.93 2.88-4.74.13-9.25-1.47-13.73-2.78 3.82 35.41 8.17 70.77 11.74 106.2-5.7-3.94-11.4-8.09-18.04-10.32-9.31-3.62-19.88-3.69-29.26-.28-5.97 1.88-11.17 5.43-16.53 8.55-7.51-14.5-11.41-30.55-13.71-46.62-4.61-32.32-3.07-65.08-5.34-97.57-.28-4.88-3.04-9.02-4.95-13.35-5.82-12.58-11.95-25.01-17.58-37.67-2.92-12.98-3.32-26.99 1.95-39.44-17.63-17.46-32.94-37.75-42.05-60.98-6.97-17.61-10.13-36.73-9.02-55.64 1.12-21.78 7.5-42.99 16.57-62.72-6.59-13.25-10.94-27.57-13.05-42.2-3.31-22.27-1.87-44.96 1.47-67.13m222.65 119.32c-8.06 1.24-15.18 5.53-21.56 10.41-2.41 1.96-6.01 3.1-7.02 6.34-.43 3.53 1.37 7.51 4.52 9.3 2.02.83 3.33-1.49 4.76-2.49 7.83-7.63 19.09-13.08 30.19-10.3 8.61 1.76 15.31 7.69 21.91 13.04 5.19-.9 8.55-9.8 3.29-12.8-2.78-1.94-5.56-3.86-8.24-5.91-7.92-5.82-17.99-9.32-27.85-7.59m-152.75 1.36c-9.1 1.91-16.32 8-23.8 13.09-5.13 3.06-1.72 12.1 3.5 12.73 2.83-1.95 5.08-4.6 7.88-6.57 6.24-4.69 14.03-7.86 21.95-7.02 8.7.81 16.42 5.67 22.73 11.46 1.23.87 2.61 2.86 4.33 1.81 3.92-2.25 6.63-9.24 2.12-12.22-5.45-3.59-10.37-8.07-16.39-10.75-6.89-3.28-14.87-4.31-22.32-2.53m23.74 72.15c5.81 3.79 9.93 9.65 16.03 13.08 7.19 4.9 16.98 6.18 24.85 2.12 6.53-2.98 11.09-8.65 16.06-13.6 4.82 4.71 9.21 10.07 15.33 13.2 7.44 4.29 16.99 3.49 24.23-.85 7.02-3.77 11.87-10.3 18.4-14.72 2.13-3.22-.76-7.44-3.92-8.72-4.15 4.49-8.23 9.18-13.48 12.45-5.38 3.68-12.3 5.39-18.68 3.65-7.64-2.09-13.89-7.5-18.81-13.52-1.14-1.35-3.22-3.53-4.71-1.31-5.62 6.46-12.11 12.95-20.73 15.02-7.61 1.82-15.4-1.32-21.3-6.04-3.96-2.8-6.62-6.99-10.4-9.95-3.66.67-6.59 6.82-2.87 9.19m1.26 114.81c-1.44.29-2.22 2.11-1.42 3.41 1.97 4.15 5.74 7.05 9.07 10.08 11.95 9.94 25 18.46 37.96 27 4.27 2.91 9.81 4.29 14.83 2.61 4.13-1.48 7.64-4.22 11.4-6.42 13.19-8.32 26.56-16.52 38.54-26.55 2.58-2.49 6-4.93 6.49-8.71-1.3-2.65-4.8-2.02-7.21-2.07-31.65 1.96-63.41 2.13-95.09.73-4.85 0-9.78-1.14-14.57-.08z"/><path fill="#FFF86E" stroke="#FFF86E" d="M808.62 2003.52c51.41-.02 102.83-.02 154.25 0 .2 153.41-.02 306.81.11 460.22-11.28-1.27-22.66-.36-33.98-.63-9 .08-18.02-.23-27.01.2-13.33-.24-26.67-.4-39.99.01-8.95-.37-17.93-.4-26.86.2-5.26-.88-10.39-2.47-15.68-3.14-5.69-.75-11.47-2.22-17.21-1.22-2.59.37-4.22 2.54-5.79 4.42-.64.11-1.91.32-2.55.43 4.88-153.49 9.78-306.99 14.71-460.49zM1032.78 2003.53c51.45-.03 102.89-.04 154.34 0 4.85 153.51 9.88 307.01 14.64 460.52-.62-.13-1.87-.39-2.49-.53-1.91-2.79-4.83-4.9-8.34-4.69-10.21.11-20.18 2.64-30.12 4.62-11.26-.67-22.54-.17-33.81-.33-19.33 0-38.67-.02-58-.02-12.08.23-24.2-.57-36.23.74.01-153.44-.02-306.87.01-460.31z"/><path fill="#FEFEFE" stroke="#FEFEFE" d="M1604.5 2007.58c6.81-.43 13.66-.04 20.5-.19 2.41.06 5.2-.38 7.22 1.31 2.79 2.04 3.03 6.57.48 8.92-2.27 2.34-5.81 1.58-8.71 1.74-6.66-.22-13.36.36-19.99-.3-5.67-1.44-5.32-10.59.5-11.48z"/><path fill="#9D4C1D" stroke="#9D4C1D" d="M1522.38 2056.91c8.28-6.74 18.6-11.05 29.35-11.27-1.23 17.31 1.45 36.52 14.03 49.5 10.5 11.14 26.9 14.52 41.59 11.96.11 14.86-.17 29.73.14 44.59 1.07 20.6 18.86 38.6 39.44 39.96 18.43 1.87 37.01-9.77 43.7-26.97 4.09-9.36 3-19.73 3.12-29.64.02-9.29-.03-18.57.03-27.84 10.44 1.48 21.53.63 30.89-4.57 10.92-5.78 18.37-16.75 21.57-28.5 2.66-9.04 2.76-18.53 2.48-27.86 14.16 2.65 26.42 13.13 31.22 26.71 3.36 8.63 2.5 18.01 2.88 27.07 2.68 119.3 5.35 238.59 8.03 357.89.45 9.84-3.21 19.52-9.4 27.11-19.8-6.12-41-6.74-61.49-4.56-13.9 1.66-28.83 4.22-39.43 14.16-1.27-10.16-.31-20.44-.55-30.64-.12-46.93.12-93.87-.11-140.79-21-.13-41.99-.05-62.98-.04-.62 25.59-.05 51.21-.24 76.82-.02 23.05-.04 46.09.05 69.14-.09 7.36-.09 14.72-.02 22.09-6.81-4.43-14.53-7.38-22.5-8.86-21.77-4.1-44.35-3.95-66.07.42-3.37.61-6.64 1.64-9.81 2.9-2.24-4.38-5.46-8.24-7-12.95-1.86-5.04-2.63-10.42-2.49-15.76.38-27.66-.08-55.34.78-82.98.01-93.02.8-186.03 1.28-279.03-.1-7.54-.19-15.3 2.66-22.41 1.77-5.85 6.12-10.3 8.85-15.65z"/><path fill="#823104" stroke="#823104" d="M1494.76 2092.72c6.99-13.39 15.49-26.51 27.62-35.81-2.73 5.35-7.08 9.8-8.85 15.65-2.85 7.11-2.76 14.87-2.66 22.41-.48 93-1.27 186.01-1.28 279.03-.86 27.64-.4 55.32-.78 82.98-.14 5.34.63 10.72 2.49 15.76 1.54 4.71 4.76 8.57 7 12.95l-1.42.55c-3.95-5.07-7.96-10.3-13.71-13.45-10.47-6.42-22.95-7.89-34.91-9.14-13.38-1.03-26.89-.44-40.11 1.83-8.32 1.22-16.32 4.17-23.46 8.59 4.94-13.81 7.73-28.33 8.89-42.93-19.85-.62-39.7-5.75-56.78-16.02-13.63-8.16-25.61-19.02-35.49-31.43-17.45-27.77-28.53-60.67-25.89-93.76 2.11-28.84 15.78-56.9 38.19-75.36 20.99-17.65 49.72-26.29 76.88-21.34 6.73 1.38 13.82 2.73 19.56 6.75 2.14 1.37 3.67 4.46 1.76 6.69-3.63 4.18-9.35 5.45-14.45 6.92-8.95 2.08-17.63 5.45-25.36 10.46-21.24 13.39-34.15 38.01-34.92 62.91-.87 20.38 6.44 41.42 21.35 55.63 13.13 12.76 31.38 19.12 49.45 20.08 7.22-39.88 14.56-79.73 21.89-119.58 6.08-26.81 12.22-53.62 19.45-80.15 6.7-24 14.18-47.97 25.54-70.22z"/><path fill="#F79F9E" stroke="#F79F9E" d="M1642.44 2086.5c2.87-3.33 5.27-7.04 7.9-10.56 2.38 3.81 4.83 7.61 7.9 10.93.27 21.05-.03 42.11.15 63.17.09 3.02-.39 6.41-2.99 8.36-4.31 3.96-12.44.53-12.5-5.35-.56-22.17.35-44.39-.46-66.55z"/><path fill="#F4CCCA" stroke="#F4CCCA" d="M1607.35 2107.1c13.65-2.51 25.93-10.31 35.09-20.6.81 22.16-.1 44.38.46 66.55.06 5.88 8.19 9.31 12.5 5.35 2.6-1.95 3.08-5.34 2.99-8.36-.18-21.06.12-42.12-.15-63.17 9.26 10.3 21.75 18.1 35.54 20.33-.06 9.27-.01 18.55-.03 27.84-.12 9.91.97 20.28-3.12 29.64-6.69 17.2-25.27 28.84-43.7 26.97-20.58-1.36-38.37-19.36-39.44-39.96-.31-14.86-.03-29.73-.14-44.59z"/><path fill="#622D0E" stroke="#622D0E" d="M528.13 2122.24c9.86-1.73 19.93 1.77 27.85 7.59 2.68 2.05 5.46 3.97 8.24 5.91 5.26 3 1.9 11.9-3.29 12.8-6.6-5.35-13.3-11.28-21.91-13.04-11.1-2.78-22.36 2.67-30.19 10.3-1.43 1-2.74 3.32-4.76 2.49-3.15-1.79-4.95-5.77-4.52-9.3 1.01-3.24 4.61-4.38 7.02-6.34 6.38-4.88 13.5-9.17 21.56-10.41zM375.38 2123.6c7.45-1.78 15.43-.75 22.32 2.53 6.02 2.68 10.94 7.16 16.39 10.75 4.51 2.98 1.8 9.97-2.12 12.22-1.72 1.05-3.1-.94-4.33-1.81-6.31-5.79-14.03-10.65-22.73-11.46-7.92-.84-15.71 2.33-21.95 7.02-2.8 1.97-5.05 4.62-7.88 6.57-5.22-.63-8.63-9.67-3.5-12.73 7.48-5.09 14.7-11.18 23.8-13.09z"/><path fill="#C57418" stroke="#C57418" d="M399.12 2195.75c-3.72-2.37-.79-8.52 2.87-9.19 3.78 2.96 6.44 7.15 10.4 9.95 5.9 4.72 13.69 7.86 21.3 6.04 8.62-2.07 15.11-8.56 20.73-15.02 1.49-2.22 3.57-.04 4.71 1.31 4.92 6.02 11.17 11.43 18.81 13.52 6.38 1.74 13.3.03 18.68-3.65 5.25-3.27 9.33-7.96 13.48-12.45 3.16 1.28 6.05 5.5 3.92 8.72-6.53 4.42-11.38 10.95-18.4 14.72-7.24 4.34-16.79 5.14-24.23.85-6.12-3.13-10.51-8.49-15.33-13.2-4.97 4.95-9.53 10.62-16.06 13.6-7.87 4.06-17.66 2.78-24.85-2.12-6.1-3.43-10.22-9.29-16.03-13.08z"/><path fill="#F1FFF5" stroke="#F1FFF5" d="M400.38 2310.56c4.79-1.06 9.72.08 14.57.08 31.68 1.4 63.44 1.23 95.09-.73 2.41.05 5.91-.58 7.21 2.07-.49 3.78-3.91 6.22-6.49 8.71-11.98 10.03-25.35 18.23-38.54 26.55-3.76 2.2-7.27 4.94-11.4 6.42-5.02 1.68-10.56.3-14.83-2.61-12.96-8.54-26.01-17.06-37.96-27-3.33-3.03-7.1-5.93-9.07-10.08-.8-1.3-.02-3.12 1.42-3.41z"/><path fill="#823104" stroke="#823104" d="M1616.89 2323.18c20.99-.01 41.98-.09 62.98.04.23 46.92-.01 93.86.11 140.79-21.1-2.46-43.04-1.79-63.28 5.13-.09-23.05-.07-46.09-.05-69.14.19-25.61-.38-51.23.24-76.82z"/><path fill="#CC771A" stroke="#CC771A" d="M349.61 2331.03c5.63 12.66 11.76 25.09 17.58 37.67 1.91 4.33 4.67 8.47 4.95 13.35 2.27 32.49.73 65.25 5.34 97.57 2.3 16.07 6.2 32.12 13.71 46.62 5.36-3.12 10.56-6.67 16.53-8.55 9.38-3.41 19.95-3.34 29.26.28 6.64 2.23 12.34 6.38 18.04 10.32-3.57-35.43-7.92-70.79-11.74-106.2 4.48 1.31 8.99 2.91 13.73 2.78 4.81.09 9.41-1.43 13.93-2.88-3.54 35.43-7.67 70.8-11.07 106.24 4.78-3.08 9.32-6.59 14.55-8.87 9.99-4.64 21.77-5.62 32.2-1.85 6.2 1.89 11.58 5.58 17.16 8.77 12.74-25.09 15.13-53.66 16.73-81.29.75-20.99.95-42 2.18-62.97.5-6.11 4.27-11.19 6.62-16.67 5.18-11.51 10.94-22.75 16-34.3 6.32 1.61 12.64 3.77 17.93 7.69 7.88 5.52 13.07 14.18 15.68 23.32 4.26 14.89 3.44 30.63 1.5 45.83-3.66 26.53-11.14 52.35-19.39 77.76-3.84 11.68-7.95 23.28-11.96 34.91 7.59 6.68 12.22 17.41 9.96 27.51-1.01 4.59-4.41 8.67-9.03 9.94-5.59 1.77-11.39-.04-16.77-1.63-1.58 3.19-3.38 6.94-7.22 7.8-5.19 1.61-10.23-1.87-12.65-6.28-2.39 2.33-4.92 4.95-8.44 5.34-5.72 1.2-11.55-1.51-14.99-6.08-4.28 4.23-10.73 6.71-16.6 4.48-3.59-1.12-5.62-4.48-7.11-7.67-4.59 3.79-9.64 8.72-16.14 7.78-5.96-1.06-9.59-6.46-12.53-11.24-3.21 4.6-6.64 10.11-12.61 11.22-6.54 1.03-11.68-3.95-16.27-7.8-1.52 3.41-3.78 6.95-7.67 7.9-5.78 1.92-11.88-.61-16.05-4.66-3.6 4.88-9.99 7.5-15.93 5.86-3.29-.57-5.54-3.17-7.48-5.65-2.02 5.15-8.03 8.71-13.43 6.54-3.44-1.11-4.95-4.6-6.38-7.57-5.84 1.79-12.35 3.71-18.26 1.13-5.34-2.09-8.04-7.97-8.2-13.41-.3-9.01 4.03-17.68 10.6-23.68-2.17-5.87-4.17-11.79-6.29-17.66a874.454 874.454 0 0 1-10.88-33.43c-7.41-24.88-14.04-50.25-15.64-76.26-.58-15.71.56-32.76 10.1-45.91 6.17-8.75 16.24-13.74 26.45-16.1z"/><path fill="#FEFEFE" stroke="#FEFEFE" d="M802.25 2459.16c5.74-1 11.52.47 17.21 1.22 5.29.67 10.42 2.26 15.68 3.14 8.93-.6 17.91-.57 26.86-.2 13.32-.41 26.66-.25 39.99-.01 8.99-.43 18.01-.12 27.01-.2 11.32.27 22.7-.64 33.98.63-1.79.04-3.63-.03-5.38.14-39.94.23-79.88-.21-119.8.22 10.54 3.82 21.25 7.43 30.95 13.19 9.84 5.76 19.65 12.11 27.44 20.52 4.7 5.03.12 13.35-6.18 13.91-2.85.15-4.87-2.27-6.95-3.81-23.11-19.55-52.51-31.7-82.84-33.06-4.32-1.93-4.63-7.27-3.76-11.27 1.57-1.88 3.2-4.05 5.79-4.42zM1160.81 2463.45c9.94-1.98 19.91-4.51 30.12-4.62 3.51-.21 6.43 1.9 8.34 4.69.83 4.08.52 9.52-3.91 11.38-31.22 1.26-61.3 14.33-84.79 34.7-4.48 4.9-12.31.01-12.97-5.64-.52-3.61 1.98-6.62 4.44-8.88 16.1-14.6 35.8-24.89 56.6-30.98-40.1-.48-80.22.12-120.32-.28-1.87-.07-3.71-.03-5.55.02 12.03-1.31 24.15-.51 36.23-.74 19.33 0 38.67.02 58 .02 11.27.16 22.55-.34 33.81.33z"/><path fill="#B1743E" stroke="#B1743E" d="M1428.15 2465.48c13.22-2.27 26.73-2.86 40.11-1.83 11.96 1.25 24.44 2.72 34.91 9.14 5.75 3.15 9.76 8.38 13.71 13.45-9.51 3.79-18.28 10.58-22.47 20.14-3.86 8.41-2.8 17.89-2.38 26.86-5.64-1.24-11.15-2.98-16.69-4.54-.59 4.67-2.78 9.27-6.99 11.7-9.18 5.61-22.54 5.46-30.52-2.23-2.82-2.67-3.74-6.54-4.51-10.16-8.77 2.19-17.18 6.02-26.25 6.82-4.24.49-8.93-.82-11.36-4.52-3.37-5.11-4.14-11.4-4.68-17.34-.67-9.6-1.49-20.04 3.92-28.53 2.53-4.07 6.08-7.34 9.74-10.37 7.14-4.42 15.14-7.37 23.46-8.59zM1616.7 2469.14c20.24-6.92 42.18-7.59 63.28-5.13.24 10.2-.72 20.48.55 30.64-7.61 6.45-12 16.33-11.62 26.32-.43 6.88 1.31 13.76.62 20.62-8.7 3.42-19.65 3.28-26.95-3.13-3.28-2.71-4.49-6.9-5.44-10.84-.88.27-2.64.82-3.52 1.09-1.85-3.67-.67-7.87-1.06-11.77-.84-10.49-7.25-19.93-15.88-25.71-.07-7.37-.07-14.73.02-22.09z"/><path fill="#A2D5E6" stroke="#A2D5E6" d="M837.8 2464.1c39.92-.43 79.86.01 119.8-.22 2.63 3.91 5.23 7.87 7.34 12.11 10.73 21.71 11.38 46.5 12.49 70.21-75.52-.38-151.06.1-226.58-.24 8.98-18.34 20.23-35.46 32.53-51.73 1.72 1.79 4.09 2.59 6.57 2.57 30.19 1.74 58.94 15.01 81.69 34.6 4.14 4.16 10.91.39 12.35-4.5 1.35-3.57-.9-7.15-3.38-9.54-23.19-21.48-53.96-33.69-85.21-36.82.66-.84 1.33-1.65 2.02-2.43.93-1.12 1.87-2.19 2.8-3.26 30.33 1.36 59.73 13.51 82.84 33.06 2.08 1.54 4.1 3.96 6.95 3.81 6.3-.56 10.88-8.88 6.18-13.91-7.79-8.41-17.6-14.76-27.44-20.52-9.7-5.76-20.41-9.37-30.95-13.19zM1038.32 2463.82c40.1.4 80.22-.2 120.32.28-20.8 6.09-40.5 16.38-56.6 30.98-2.46 2.26-4.96 5.27-4.44 8.88.66 5.65 8.49 10.54 12.97 5.64 23.49-20.37 53.57-33.44 84.79-34.7.98 1.02 1.98 2.05 2.96 3.15.7.79 1.41 1.62 2.12 2.48-28.72 2.86-56.91 13.33-79.38 31.66-3.66 3.1-8.23 6-9.52 10.92-1.64 6.57 7.54 13.51 12.76 8.14 21.95-18.99 49.57-31.87 78.66-34.2 3.26-.16 6.57-.57 9.38-2.37 12.78 15.8 23.37 33.27 32.65 51.32-57.65.15-115.3.02-172.95.07-17.98.12-35.96-.25-53.92.18 1.47-23.72 1.81-48.56 12.68-70.28 2.13-4.28 4.66-8.34 7.52-12.15z"/><path fill="#F0D198" stroke="#F0D198" d="M964.94 2475.99c21.95-.11 43.91-.1 65.86-.02-10.87 21.72-11.21 46.56-12.68 70.28-2.12 1.05-4.32 2.48-5.07 4.88-1.71 4.13 1.02 9.36 5.42 10.26 3.79.57 7.64.2 11.47.28 70.03.02 140.06-.04 210.09.03 3.56-.16 7.77.64 10.65-2.04 3.13-2.7 3.45-7.96.62-10.96-1.53-1.92-4-2.54-6.31-2.7-9.28-18.05-19.87-35.52-32.65-51.32.76-3.52 1.97-7.5-.27-10.72-2.44-3.92-7.62-3.63-11.63-3.43-.71-.86-1.42-1.69-2.12-2.48 65.57 1.21 131.11 3.53 196.63 6.39-5.41 8.49-4.59 18.93-3.92 28.53.54 5.94 1.31 12.23 4.68 17.34 2.43 3.7 7.12 5.01 11.36 4.52 9.07-.8 17.48-4.63 26.25-6.82.77 3.62 1.69 7.49 4.51 10.16 7.98 7.69 21.34 7.84 30.52 2.23 4.21-2.43 6.4-7.03 6.99-11.7 5.54 1.56 11.05 3.3 16.69 4.54.59 6.48 1.29 13.31 4.81 18.97 2.55 4.06 7.53 5.95 12.2 5.51 10.01-.69 19.22-5.17 28.86-7.53 1.4 3.23 1.73 7.03 4.17 9.77 5.52 6.9 15.2 8.78 23.58 7.63 5.7-.87 11.52-3.2 15.2-7.83 2.03-2.5 2.55-5.77 3.35-8.78 10.43 2.66 20.87 7.05 31.83 6 6.14-.6 11.1-5.31 13.06-11 2.19-5.39 2.76-11.24 3.28-16.96.31-.08.94-.23 1.25-.31.88-.27 2.64-.82 3.52-1.09.95 3.94 2.16 8.13 5.44 10.84 7.3 6.41 18.25 6.55 26.95 3.13 2.58 3.68 2.46 8.77 5.76 12.09 3.41 4.16 9.25 4.54 14.19 3.72 8.9-1.56 17.35-4.89 26.02-7.36.78 3.86 1.79 7.94 4.67 10.86 5.86 6.27 15.21 7.89 23.4 6.61 5.34-.98 10.81-3.19 14.37-7.44 2.17-2.56 2.75-5.95 3.46-9.1 10.7 2.72 21.47 7.28 32.71 5.91 6.87-.99 11.59-7.14 13.23-13.53 2.06-6.87 2.45-14.09 2.59-21.21 20.87 3.64 41.67 7.79 62.15 13.25 14.17 3.92 28.43 8.15 41.39 15.23 5.03 2.97 10.46 6.44 12.77 12.09 1.69 4.27-.55 8.89-3.65 11.87-6.06 5.88-13.94 9.34-21.63 12.54-17.42 6.89-35.68 11.33-53.93 15.4-25.84 5.62-51.95 9.87-78.11 13.68-48.83 6.99-97.9 12.13-147.03 16.48-98.41 8.59-197.09 13.87-295.8 17.53-108.04 3.97-216.15 5.62-324.25 5.79H979.2c-129.42-.49-258.84-3.07-388.12-9.25-106.38-5.23-212.76-12.22-318.53-25-47.01-5.96-94.1-12.49-140.12-24.01-14.02-3.67-28.03-7.71-41.18-13.88-5.83-2.89-11.8-6.12-15.91-11.29-2.42-3-3.32-7.34-1.49-10.83 2.5-4.95 7.32-8.14 11.95-10.88 10.88-6.11 22.83-9.95 34.73-13.5 16.67-4.8 33.63-8.51 50.65-11.82 55.69-10.57 112.04-17.13 168.4-22.81 2.12 5.87 4.12 11.79 6.29 17.66-6.57 6-10.9 14.67-10.6 23.68.16 5.44 2.86 11.32 8.2 13.41 5.91 2.58 12.42.66 18.26-1.13 1.43 2.97 2.94 6.46 6.38 7.57 5.4 2.17 11.41-1.39 13.43-6.54 1.94 2.48 4.19 5.08 7.48 5.65 5.94 1.64 12.33-.98 15.93-5.86 4.17 4.05 10.27 6.58 16.05 4.66 3.89-.95 6.15-4.49 7.67-7.9 4.59 3.85 9.73 8.83 16.27 7.8 5.97-1.11 9.4-6.62 12.61-11.22 2.94 4.78 6.57 10.18 12.53 11.24 6.5.94 11.55-3.99 16.14-7.78 1.49 3.19 3.52 6.55 7.11 7.67 5.87 2.23 12.32-.25 16.6-4.48 3.44 4.57 9.27 7.28 14.99 6.08 3.52-.39 6.05-3.01 8.44-5.34 2.42 4.41 7.46 7.89 12.65 6.28 3.84-.86 5.64-4.61 7.22-7.8 5.38 1.59 11.18 3.4 16.77 1.63 4.62-1.27 8.02-5.35 9.03-9.94 2.26-10.1-2.37-20.83-9.96-27.51 4.01-11.63 8.12-23.23 11.96-34.91 72.09-3.64 144.23-6.03 216.39-7.54-.69.78-1.36 1.59-2.02 2.43-3.82-.16-8.56-.59-11.24 2.71-2.68 3.04-2.08 7.45-.78 10.98-12.3 16.27-23.55 33.39-32.53 51.73-4.04-.04-8.04 2.86-8.36 7.07-.66 4.75 3.75 9.06 8.46 8.63 74.7.01 149.4.04 224.11-.01 4.58.27 8.71-4.08 8.04-8.66-.22-3.26-2.83-5.62-5.67-6.79-1.11-23.71-1.76-48.5-12.49-70.21z"/><path fill="#D2955F" stroke="#D2955F" d="M1719.96 2480.49c20.49-2.18 41.69-1.56 61.49 4.56 9.23 3.25 18.03 8.83 23.38 17.22 3.83 5.84 5.36 12.92 5.1 19.87-.14 7.12-.53 14.34-2.59 21.21-1.64 6.39-6.36 12.54-13.23 13.53-11.24 1.37-22.01-3.19-32.71-5.91-.71 3.15-1.29 6.54-3.46 9.1-3.56 4.25-9.03 6.46-14.37 7.44-8.19 1.28-17.54-.34-23.4-6.61-2.88-2.92-3.89-7-4.67-10.86-8.67 2.47-17.12 5.8-26.02 7.36-4.94.82-10.78.44-14.19-3.72-3.3-3.32-3.18-8.41-5.76-12.09.69-6.86-1.05-13.74-.62-20.62-.38-9.99 4.01-19.87 11.62-26.32 10.6-9.94 25.53-12.5 39.43-14.16zM1528.11 2482.79c21.72-4.37 44.3-4.52 66.07-.42 7.97 1.48 15.69 4.43 22.5 8.86 8.63 5.78 15.04 15.22 15.88 25.71.39 3.9-.79 8.1 1.06 11.77-.31.08-.94.23-1.25.31-.52 5.72-1.09 11.57-3.28 16.96-1.96 5.69-6.92 10.4-13.06 11-10.96 1.05-21.4-3.34-31.83-6-.8 3.01-1.32 6.28-3.35 8.78-3.68 4.63-9.5 6.96-15.2 7.83-8.38 1.15-18.06-.73-23.58-7.63-2.44-2.74-2.77-6.54-4.17-9.77-9.64 2.36-18.85 6.84-28.86 7.53-4.67.44-9.65-1.45-12.2-5.51-3.52-5.66-4.22-12.49-4.81-18.97-.42-8.97-1.48-18.45 2.38-26.86 4.19-9.56 12.96-16.35 22.47-20.14l1.42-.55c3.17-1.26 6.44-2.29 9.81-2.9z"/><path fill="#FEFEFE" stroke="#FEFEFE" d="M784.16 2483.25c2.68-3.3 7.42-2.87 11.24-2.71 31.25 3.13 62.02 15.34 85.21 36.82 2.48 2.39 4.73 5.97 3.38 9.54-1.44 4.89-8.21 8.66-12.35 4.5-22.75-19.59-51.5-32.86-81.69-34.6-2.48.02-4.85-.78-6.57-2.57-1.3-3.53-1.9-7.94.78-10.98zM1121.06 2512.19c22.47-18.33 50.66-28.8 79.38-31.66 4.01-.2 9.19-.49 11.63 3.43 2.24 3.22 1.03 7.2.27 10.72-2.81 1.8-6.12 2.21-9.38 2.37-29.09 2.33-56.71 15.21-78.66 34.2-5.22 5.37-14.4-1.57-12.76-8.14 1.29-4.92 5.86-7.82 9.52-10.92z"/><path fill="#00AFEF" stroke="#00AFEF" d="M742.49 2553.03c.32-4.21 4.32-7.11 8.36-7.07 75.52.34 151.06-.14 226.58.24 2.84 1.17 5.45 3.53 5.67 6.79.67 4.58-3.46 8.93-8.04 8.66-74.71.05-149.41.02-224.11.01-4.71.43-9.12-3.88-8.46-8.63zM1013.05 2551.13c.75-2.4 2.95-3.83 5.07-4.88 17.96-.43 35.94-.06 53.92-.18 57.65-.05 115.3.08 172.95-.07 2.31.16 4.78.78 6.31 2.7 2.83 3 2.51 8.26-.62 10.96-2.88 2.68-7.09 1.88-10.65 2.04-70.03-.07-140.06-.01-210.09-.03-3.83-.08-7.68.29-11.47-.28-4.4-.9-7.13-6.13-5.42-10.26z"/></g></svg>